<svg width="324" height="264" viewBox="0 0 324 264" fill="none" xmlns="http://www.w3.org/2000/svg">
<rect width="34" height="36" transform="translate(290 134)" fill="white"/>
<path d="M314.278 137.059C313.84 137.059 313.402 137.098 312.97 137.164C310.679 137.525 308.554 138.701 307.106 140.15C305.194 142.066 303.813 144.855 303.228 147.564C303.122 148.009 303.055 148.467 302.996 148.919L300.771 157.18L301.82 158.229L310.075 156.004C310.526 155.945 310.984 155.871 311.436 155.772C314.145 155.187 316.934 153.806 318.847 151.894C320.301 150.439 321.477 148.314 321.835 146.023C322.18 143.732 321.676 141.222 319.717 139.269C318.136 137.68 316.191 137.049 314.278 137.059ZM314.285 138.34C315.898 138.321 317.466 138.837 318.814 140.18C320.474 141.833 320.872 143.845 320.56 145.824C320.255 147.81 319.186 149.729 317.937 150.977C316.25 152.664 313.641 153.979 311.164 154.51C308.693 155.055 306.436 154.762 305.333 153.654C304.238 152.558 303.945 150.307 304.483 147.83C305.021 145.359 306.329 142.743 308.023 141.06C309.264 139.813 311.19 138.747 313.176 138.434C313.541 138.375 313.92 138.344 314.285 138.34ZM303.261 152.604C303.507 153.355 303.879 154.032 304.423 154.563C304.961 155.108 305.632 155.493 306.382 155.732L302.199 156.795L303.261 152.604ZM299.921 158.156L293.32 164.763L292.972 164.425L292.061 165.334L293.68 166.941L294.589 166.038L294.23 165.68L300.838 159.066L299.921 158.156ZM313.933 161.151C312.638 161.151 311.569 162.213 311.569 163.508C311.569 164.803 312.638 165.866 313.933 165.866C315.221 165.866 316.29 164.803 316.29 163.508C316.29 162.213 315.221 161.151 313.933 161.151Z" fill="#393939"/>
<line x1="177.5" y1="157.995" x2="178.846" y2="18.0017" stroke="url(#paint0_linear_1068_3911)"/>
<line x1="100.5" y1="163.01" x2="100.5" y2="83.0098" stroke="url(#paint1_linear_1068_3911)"/>
<line y1="-0.5" x2="64" y2="-0.5" transform="matrix(0 1 1 0 209 100)" stroke="url(#paint2_linear_1068_3911)"/>
<path d="M67.9947 82.5C67.7185 82.5 67.4947 82.7239 67.4947 83C67.4947 83.2761 67.7185 83.5 67.9947 83.5V82.5ZM67.9947 83.5H99.9947V82.5H67.9947V83.5Z" fill="url(#paint3_linear_1068_3911)"/>
<line x1="208" y1="97.5" x2="248" y2="97.5" stroke="url(#paint4_linear_1068_3911)"/>
<line y1="-0.5" x2="40" y2="-0.5" transform="matrix(1 0 0 -1 18 220)" stroke="url(#paint5_linear_1068_3911)"/>
<line x1="263" y1="219.5" x2="303" y2="219.5" stroke="url(#paint6_linear_1068_3911)"/>
<path d="M303.5 164V220" stroke="url(#paint7_linear_1068_3911)"/>
<path d="M18 221L18 167" stroke="url(#paint8_linear_1068_3911)"/>
<line x1="123" y1="30.5" x2="147" y2="30.5" stroke="url(#paint9_linear_1068_3911)"/>
<line x1="195" y1="17.5" x2="179" y2="17.5" stroke="url(#paint10_linear_1068_3911)"/>
<line y1="-0.5" x2="120" y2="-0.5" transform="matrix(0.00961494 0.999954 0.999954 -0.00961494 147 31)" stroke="url(#paint11_linear_1068_3911)"/>
<path d="M250.699 239.284H247.701V212.368H250.699V239.284Z" fill="url(#paint12_linear_1068_3911)"/>
<path d="M76.093 181.718V183.223V199.385V239.337H79.0899V205.046C80.1774 205.786 81.4877 206.219 82.8975 206.219H94.1788C97.6272 206.219 100.433 203.401 100.433 199.938V187.999C100.433 184.535 97.6272 181.718 94.1788 181.718H76.093ZM79.0899 199.385V184.728H94.1788C95.9747 184.728 97.4358 186.195 97.4358 187.999V199.938C97.4358 201.742 95.9747 203.209 94.1788 203.209H82.8975C80.7978 203.209 79.0899 201.494 79.0899 199.385Z" fill="url(#paint13_linear_1068_3911)"/>
<path d="M104.771 205.462H107.768V171.818H104.771V205.462Z" fill="url(#paint14_linear_1068_3911)"/>
<path d="M91.7647 214.934C87.8724 214.934 84.706 218.114 84.706 222.022V239.337H87.7032V222.022C87.7032 219.774 89.5253 217.944 91.7647 217.944H102.862V214.934H91.7647Z" fill="url(#paint15_linear_1068_3911)"/>
<path d="M112.398 214.934C108.61 214.934 105.528 218.028 105.528 221.832V232.453C105.528 236.322 108.663 239.47 112.517 239.47H128.748V236.46H112.517C110.316 236.46 108.526 234.662 108.526 232.453V228.707H123.389C127.171 228.707 130.247 225.618 130.247 221.821C130.247 218.023 127.171 214.934 123.389 214.934H112.398ZM108.526 221.832C108.526 219.688 110.262 217.943 112.398 217.943H123.389C125.518 217.943 127.25 219.683 127.25 221.821C127.25 223.958 125.518 225.697 123.389 225.697H108.526V221.832Z" fill="url(#paint16_linear_1068_3911)"/>
<path d="M114.539 181.266V184.276H132.369C134.57 184.276 136.36 186.074 136.36 188.284V191.59H118.794C115.047 191.59 112 194.651 112 198.413C112 202.383 115.216 205.612 119.17 205.612H132.487C136.275 205.612 139.357 202.518 139.357 198.714V188.284C139.357 184.414 136.222 181.266 132.369 181.266H114.539ZM114.997 198.413C114.997 196.31 116.7 194.6 118.794 194.6H136.36V198.714C136.36 200.858 134.623 202.603 132.487 202.603H119.17C116.869 202.603 114.997 200.723 114.997 198.413Z" fill="url(#paint17_linear_1068_3911)"/>
<path d="M158.728 214.934C156.856 214.934 155.178 215.778 154.043 217.102C152.908 215.778 151.231 214.934 149.358 214.934H140.911C137.501 214.934 134.727 217.72 134.727 221.143V239.337H137.724V221.143C137.724 219.379 139.154 217.944 140.911 217.944H149.358C151.115 217.944 152.545 219.379 152.545 221.143V239.337H155.542V221.143C155.542 219.379 156.971 217.944 158.728 217.944H167.176C168.933 217.944 170.362 219.379 170.362 221.143V239.337H173.359V221.143C173.359 217.72 170.585 214.934 167.176 214.934H158.728Z" fill="url(#paint18_linear_1068_3911)"/>
<path d="M192.305 214.934C188.895 214.934 186.121 217.72 186.121 221.143V239.337H189.118V221.143C189.118 219.379 190.548 217.944 192.305 217.944H204.373C206.13 217.944 207.559 219.379 207.559 221.143V239.337H210.556V221.143C210.556 217.72 207.782 214.934 204.373 214.934H192.305Z" fill="url(#paint19_linear_1068_3911)"/>
<path d="M151.012 180.999C147.101 180.999 143.92 184.194 143.92 188.121V205.403H146.917V188.121C146.917 185.853 148.754 184.009 151.012 184.009H161.263C163.521 184.009 165.357 185.853 165.357 188.121V205.403H168.355V188.121C168.355 184.194 165.173 180.999 161.263 180.999H151.012Z" fill="url(#paint20_linear_1068_3911)"/>
<path d="M178.265 239.337H181.263V214.758H178.265V239.337Z" fill="url(#paint21_linear_1068_3911)"/>
<path d="M178.265 199.38V202.46H175.197V205.47H178.265V208.551H181.263V205.47H184.33V202.46H181.263V199.38H178.265Z" fill="url(#paint22_linear_1068_3911)"/>
<path d="M212.287 212.705H227.975V209.695H219.599L235.26 194.197L250.919 209.677H242.527V212.687H258.236L235.26 189.973L212.287 212.705Z" fill="url(#paint23_linear_1068_3911)"/>
<path d="M226.183 214.934C222.353 214.934 219.236 218.063 219.236 221.91V232.352C219.236 236.198 222.353 239.327 226.183 239.327H243.752H250.698V232.352V221.91C250.698 218.063 247.582 214.934 243.752 214.934H226.183ZM222.233 232.352V221.91C222.233 219.723 224.006 217.944 226.183 217.944H243.752C245.929 217.944 247.701 219.723 247.701 221.91V232.352C247.701 234.539 245.929 236.318 243.752 236.318H226.183C224.006 236.318 222.233 234.539 222.233 232.352Z" fill="url(#paint24_linear_1068_3911)"/>
<mask id="mask0_1068_3911" style="mask-type:luminance" maskUnits="userSpaceOnUse" x="68" y="156" width="200" height="108">
<path d="M68 156H268V264H68V156Z" fill="white"/>
</mask>
<g mask="url(#mask0_1068_3911)">
<path fill-rule="evenodd" clip-rule="evenodd" d="M228.768 226.679H231.844L233.334 228.176L237.263 221.832H239.818L233.879 231.788L228.768 226.679Z" fill="#FC8143"/>
</g>
<path d="M212.287 212.705H227.975V209.695H219.599L235.26 194.197L250.919 209.677H242.527V212.687H258.236L235.26 189.973L212.287 212.705Z" fill="url(#paint25_linear_1068_3911)"/>
<path d="M247.701 192.846V200.388L250.698 203.438V192.846H247.701Z" fill="url(#paint26_linear_1068_3911)"/>
<path d="M3.83333 156H32.1667" stroke="#292D32" stroke-miterlimit="10" stroke-linecap="round" stroke-linejoin="round"/>
<path d="M5.17909 156L5.24993 137.955C5.24993 137.04 5.66076 136.17 6.34076 135.6L16.2575 127.425C17.2775 126.585 18.7082 126.585 19.7424 127.425L29.6592 135.585C30.3533 136.155 30.75 137.025 30.75 137.955V156" stroke="#292D32" stroke-miterlimit="10" stroke-linejoin="round"/>
<path d="M19.4167 142.5H16.5833C15.4075 142.5 14.4583 143.505 14.4583 144.75V156H21.5417V144.75C21.5417 143.505 20.5925 142.5 19.4167 142.5Z" stroke="#292D32" stroke-miterlimit="10" stroke-linejoin="round"/>
<path d="M27.9168 133.5L27.8743 129H21.641" stroke="#292D32" stroke-miterlimit="10" stroke-linecap="round" stroke-linejoin="round"/>
<path d="M52.9725 66.2451H43.0275C39.5 66.2451 38.7208 68.1051 38.2675 70.3851L36.6667 78.5001H59.3333L57.7325 70.3851C57.2792 68.1051 56.5 66.2451 52.9725 66.2451Z" stroke="#292D32" stroke-linecap="round" stroke-linejoin="round"/>
<path d="M62.1525 91.73C62.3083 93.485 60.9767 95 59.2767 95H56.6133C55.0833 95 54.8708 94.31 54.6017 93.455L54.3183 92.555C53.9217 91.325 53.6667 90.5 51.6267 90.5H44.3733C42.3333 90.5 42.0358 91.43 41.6816 92.555L41.3983 93.455C41.1291 94.31 40.9166 95 39.3866 95H36.7233C35.0233 95 33.6916 93.485 33.8475 91.73L34.6408 82.595C34.8391 80.345 35.25 78.5 38.9616 78.5H57.0383C60.75 78.5 61.1608 80.345 61.3592 82.595L62.1525 91.73Z" stroke="#292D32" stroke-linecap="round" stroke-linejoin="round"/>
<path d="M36.6667 74H35.25" stroke="#292D32" stroke-linecap="round" stroke-linejoin="round"/>
<path d="M60.75 74H59.3333" stroke="#292D32" stroke-linecap="round" stroke-linejoin="round"/>
<path d="M48 66.5V69.5" stroke="#292D32" stroke-linecap="round" stroke-linejoin="round"/>
<path d="M45.875 69.5H50.125" stroke="#292D32" stroke-linecap="round" stroke-linejoin="round"/>
<path d="M39.5 84.5H43.75" stroke="#292D32" stroke-linecap="round" stroke-linejoin="round"/>
<path d="M52.25 84.5H56.5" stroke="#292D32" stroke-linecap="round" stroke-linejoin="round"/>
<path d="M102.598 30.4563H96.2611C95.2677 30.4563 94.5017 31.3827 94.633 32.4253L95.4574 37.4719C95.7838 40.0641 97.872 41.9998 100.342 41.9998H104.853C107.323 41.9998 109.411 40.0641 109.738 37.4719L110.562 32.4253C110.693 31.3827 109.928 30.4563 108.934 30.4563H102.598ZM102.598 30.4563V24.3912V23.2498M102.598 23.2498V22.1085V19.8259M102.598 23.2498L100.134 21.1303M102.598 23.2498L105.061 21.1303" stroke="#0B0B0B" stroke-linecap="round" stroke-linejoin="round"/>
<path d="M108.346 21.1304C108.346 24.4921 105.772 27.2174 102.597 27.2174C99.4222 27.2174 96.8484 24.4921 96.8484 21.1304C96.8484 16.7826 102.597 12 102.597 12C102.597 12 108.346 16.7826 108.346 21.1304Z" stroke="#0B0B0B"/>
<path d="M223.5 17.9998H222.365C221.189 17.9998 220.602 17.9998 220.114 18.2919C219.627 18.5839 219.325 19.1175 218.72 20.1846L218.677 20.2618C218.113 21.2559 217.831 21.753 217.422 21.7447C217.012 21.7366 216.748 21.2287 216.22 20.2129L213.83 15.6112C213.338 14.6641 213.092 14.1905 212.699 14.1681C212.306 14.1456 212.014 14.5884 211.428 15.4738L211.027 16.0804C210.405 17.0209 210.095 17.4912 209.633 17.7454C209.172 17.9998 208.63 17.9998 207.546 17.9998H206.5" stroke="#1C274C" stroke-linecap="round"/>
<path d="M215 8.24818L214.481 8.75908C214.615 8.91156 214.803 8.99818 215 8.99818C215.197 8.99818 215.385 8.91156 215.519 8.75908L215 8.24818ZM211.143 28.4748C209.079 26.6927 206.659 24.347 204.76 21.7704C202.848 19.1754 201.542 16.4492 201.542 13.8907H200.125C200.125 16.9533 201.666 20.0103 203.643 22.6931C205.633 25.3941 208.144 27.8205 210.248 29.6373L211.143 28.4748ZM201.542 13.8907C201.542 9.68308 203.379 6.78232 205.798 5.71666C208.198 4.65951 211.437 5.29518 214.481 8.75908L215.519 7.73728C212.188 3.94699 208.344 2.9707 205.254 4.33174C202.184 5.68428 200.125 9.23187 200.125 13.8907H201.542ZM219.752 29.6373C221.856 27.8205 224.367 25.3941 226.357 22.6931C228.334 20.0103 229.875 16.9533 229.875 13.8906H228.458C228.458 16.4492 227.152 19.1756 225.24 21.7704C223.341 24.3471 220.921 26.6928 218.857 28.4748L219.752 29.6373ZM229.875 13.8906C229.875 9.23172 227.816 5.68413 224.746 4.33162C221.656 2.97064 217.812 3.94699 214.481 7.73728L215.519 8.75908C218.562 5.29516 221.802 4.65943 224.202 5.71656C226.621 6.78217 228.458 9.6829 228.458 13.8906H229.875ZM210.248 29.6373C212.077 31.2168 213.225 32.25 215 32.25V30.75C213.827 30.75 213.088 30.1539 211.143 28.4748L210.248 29.6373ZM218.857 28.4748C216.912 30.1539 216.173 30.75 215 30.75V32.25C216.775 32.25 217.923 31.2168 219.752 29.6373L218.857 28.4748Z" fill="#1C274C"/>
<path d="M266.725 102.064C268.971 97.222 270.095 94.8008 271.711 94.2239C272.548 93.9254 273.452 93.9254 274.289 94.2239C275.905 94.8008 277.029 97.222 279.275 102.064L280.52 104.748C281.1 105.999 281.39 106.624 281.459 107.05C281.744 108.818 280.509 110.448 278.844 110.499C278.443 110.512 277.817 110.33 276.564 109.966C275.848 109.759 275.49 109.655 275.132 109.578C273.724 109.276 272.276 109.276 270.868 109.578C270.51 109.655 270.152 109.759 269.436 109.966C268.183 110.33 267.557 110.512 267.156 110.499C265.491 110.448 264.256 108.818 264.541 107.05C264.61 106.624 264.9 105.999 265.48 104.748L266.725 102.064Z" stroke="#1C274C"/>
<path d="M264.705 87.2912C265.289 89.7373 266.938 91.3661 268.39 90.9291C269.841 90.4922 270.545 88.155 269.962 85.7088C269.378 83.2627 267.729 81.6339 266.277 82.0709C264.825 82.5078 264.122 84.8451 264.705 87.2912Z" stroke="#1C274C"/>
<path d="M281.295 87.2912C280.711 89.7373 279.062 91.3661 277.61 90.9291C276.159 90.4922 275.455 88.155 276.038 85.7088C276.622 83.2627 278.271 81.6339 279.723 82.0709C281.175 82.5078 281.878 84.8451 281.295 87.2912Z" stroke="#1C274C"/>
<path d="M259.119 97.4457C259.757 99.2532 261.255 100.351 262.467 99.8979C263.678 99.4447 264.143 97.6119 263.506 95.8044C262.868 93.9968 261.37 92.8989 260.158 93.3521C258.947 93.8054 258.482 95.6382 259.119 97.4457Z" stroke="#1C274C"/>
<path d="M286.881 97.4457C286.243 99.2532 284.745 100.351 283.533 99.8979C282.322 99.4447 281.857 97.6119 282.494 95.8044C283.132 93.9968 284.63 92.8989 285.842 93.3521C287.053 93.8054 287.518 95.6382 286.881 97.4457Z" stroke="#1C274C"/>
<defs>
<linearGradient id="paint0_linear_1068_3911" x1="225.5" y1="-30" x2="179.282" y2="114.09" gradientUnits="userSpaceOnUse">
<stop stop-color="#4B39EF"/>
<stop offset="1" stop-color="white"/>
</linearGradient>
<linearGradient id="paint1_linear_1068_3911" x1="131" y1="44.4912" x2="53.7538" y2="145.811" gradientUnits="userSpaceOnUse">
<stop stop-color="#4B39EF"/>
<stop offset="1" stop-color="white"/>
</linearGradient>
<linearGradient id="paint2_linear_1068_3911" x1="64" y1="0.5" x2="0" y2="0.5" gradientUnits="userSpaceOnUse">
<stop stop-color="#4B39EF"/>
<stop offset="1" stop-color="white"/>
</linearGradient>
<linearGradient id="paint3_linear_1068_3911" x1="99.9947" y1="84" x2="67.9947" y2="84" gradientUnits="userSpaceOnUse">
<stop stop-color="#4B39EF"/>
<stop offset="1" stop-color="white"/>
</linearGradient>
<linearGradient id="paint4_linear_1068_3911" x1="248" y1="98.5" x2="208" y2="98.5" gradientUnits="userSpaceOnUse">
<stop stop-color="#4B39EF"/>
<stop offset="1" stop-color="white"/>
</linearGradient>
<linearGradient id="paint5_linear_1068_3911" x1="40" y1="0.5" x2="0" y2="0.5" gradientUnits="userSpaceOnUse">
<stop stop-color="#4B39EF"/>
<stop offset="1" stop-color="white"/>
</linearGradient>
<linearGradient id="paint6_linear_1068_3911" x1="303" y1="220.5" x2="278.5" y2="220" gradientUnits="userSpaceOnUse">
<stop stop-color="#4B39EF"/>
<stop offset="1" stop-color="white"/>
</linearGradient>
<linearGradient id="paint7_linear_1068_3911" x1="311.5" y1="220" x2="311.5" y2="164" gradientUnits="userSpaceOnUse">
<stop stop-color="#4B39EF"/>
<stop offset="1" stop-color="white"/>
</linearGradient>
<linearGradient id="paint8_linear_1068_3911" x1="48" y1="141" x2="4" y2="226.5" gradientUnits="userSpaceOnUse">
<stop stop-color="#4B39EF"/>
<stop offset="1" stop-color="white"/>
</linearGradient>
<linearGradient id="paint9_linear_1068_3911" x1="147" y1="31.5" x2="123" y2="31.5" gradientUnits="userSpaceOnUse">
<stop stop-color="#4B39EF"/>
<stop offset="1" stop-color="white"/>
</linearGradient>
<linearGradient id="paint10_linear_1068_3911" x1="179" y1="16.5" x2="195" y2="16.5" gradientUnits="userSpaceOnUse">
<stop stop-color="#4B39EF"/>
<stop offset="1" stop-color="white"/>
</linearGradient>
<linearGradient id="paint11_linear_1068_3911" x1="159.002" y1="-0.528822" x2="3.35598e-06" y2="0.5" gradientUnits="userSpaceOnUse">
<stop stop-color="#4B39EF"/>
<stop offset="0.839" stop-color="white"/>
</linearGradient>
<linearGradient id="paint12_linear_1068_3911" x1="224.044" y1="141.764" x2="243.136" y2="205.039" gradientUnits="userSpaceOnUse">
<stop stop-color="#807FFE"/>
<stop offset="1"/>
</linearGradient>
<linearGradient id="paint13_linear_1068_3911" x1="82.3886" y1="193.576" x2="99.8405" y2="251.414" gradientUnits="userSpaceOnUse">
<stop stop-color="#807FFE"/>
<stop offset="1"/>
</linearGradient>
<linearGradient id="paint14_linear_1068_3911" x1="105.647" y1="186.558" x2="123.098" y2="244.397" gradientUnits="userSpaceOnUse">
<stop stop-color="#807FFE"/>
<stop offset="1"/>
</linearGradient>
<linearGradient id="paint15_linear_1068_3911" x1="83.6289" y1="193.201" x2="101.081" y2="251.04" gradientUnits="userSpaceOnUse">
<stop stop-color="#807FFE"/>
<stop offset="1"/>
</linearGradient>
<linearGradient id="paint16_linear_1068_3911" x1="105.733" y1="186.532" x2="123.185" y2="244.371" gradientUnits="userSpaceOnUse">
<stop stop-color="#807FFE"/>
<stop offset="1"/>
</linearGradient>
<linearGradient id="paint17_linear_1068_3911" x1="122.152" y1="181.578" x2="139.604" y2="239.417" gradientUnits="userSpaceOnUse">
<stop stop-color="#807FFE"/>
<stop offset="1"/>
</linearGradient>
<linearGradient id="paint18_linear_1068_3911" x1="138.171" y1="176.744" x2="155.623" y2="234.583" gradientUnits="userSpaceOnUse">
<stop stop-color="#807FFE"/>
<stop offset="1"/>
</linearGradient>
<linearGradient id="paint19_linear_1068_3911" x1="178.798" y1="164.486" x2="196.25" y2="222.325" gradientUnits="userSpaceOnUse">
<stop stop-color="#807FFE"/>
<stop offset="1"/>
</linearGradient>
<linearGradient id="paint20_linear_1068_3911" x1="149.299" y1="173.386" x2="166.751" y2="231.225" gradientUnits="userSpaceOnUse">
<stop stop-color="#807FFE"/>
<stop offset="1"/>
</linearGradient>
<linearGradient id="paint21_linear_1068_3911" x1="162.512" y1="169.4" x2="179.964" y2="227.239" gradientUnits="userSpaceOnUse">
<stop stop-color="#807FFE"/>
<stop offset="1"/>
</linearGradient>
<linearGradient id="paint22_linear_1068_3911" x1="168.848" y1="167.488" x2="186.3" y2="225.327" gradientUnits="userSpaceOnUse">
<stop stop-color="#807FFE"/>
<stop offset="1"/>
</linearGradient>
<linearGradient id="paint23_linear_1068_3911" x1="217.353" y1="152.852" x2="234.805" y2="210.691" gradientUnits="userSpaceOnUse">
<stop stop-color="#807FFE"/>
<stop offset="1"/>
</linearGradient>
<linearGradient id="paint24_linear_1068_3911" x1="213.121" y1="154.129" x2="230.573" y2="211.968" gradientUnits="userSpaceOnUse">
<stop stop-color="#807FFE"/>
<stop offset="1"/>
</linearGradient>
<linearGradient id="paint25_linear_1068_3911" x1="217.353" y1="152.852" x2="234.805" y2="210.691" gradientUnits="userSpaceOnUse">
<stop stop-color="#807FFE"/>
<stop offset="1"/>
</linearGradient>
<linearGradient id="paint26_linear_1068_3911" x1="233.002" y1="142.491" x2="252.457" y2="206.966" gradientUnits="userSpaceOnUse">
<stop stop-color="#807FFE"/>
<stop offset="1"/>
</linearGradient>
</defs>
</svg>
