<svg width="332" height="328" viewBox="0 0 332 328" fill="none" xmlns="http://www.w3.org/2000/svg">
<rect x="1" y="43" width="330" height="284" rx="13" fill="white"/>
<rect x="1" y="43" width="330" height="284" rx="13" stroke="url(#paint0_linear_1039_5193)" stroke-width="1.5"/>
<rect x="21.25" y="107.25" width="89.5" height="89.5" rx="12.75" stroke="#F57F44" stroke-width="0.5"/>
<path d="M82 127.5L60 149.5L50 139.5" stroke="#F57F44" stroke-width="6" stroke-linecap="round" stroke-linejoin="round"/>
<path d="M47.4106 183.5V173.318H48.9468V177.743H54.0228V173.318H55.564V183.5H54.0228V179.06H48.9468V183.5H47.4106ZM60.8985 183.654C60.1826 183.654 59.5579 183.49 59.0242 183.162C58.4906 182.834 58.0763 182.375 57.7813 181.785C57.4864 181.195 57.3389 180.505 57.3389 179.717C57.3389 178.924 57.4864 178.232 57.7813 177.638C58.0763 177.045 58.4906 176.585 59.0242 176.256C59.5579 175.928 60.1826 175.764 60.8985 175.764C61.6144 175.764 62.2392 175.928 62.7728 176.256C63.3064 176.585 63.7207 177.045 64.0157 177.638C64.3107 178.232 64.4582 178.924 64.4582 179.717C64.4582 180.505 64.3107 181.195 64.0157 181.785C63.7207 182.375 63.3064 182.834 62.7728 183.162C62.2392 183.49 61.6144 183.654 60.8985 183.654ZM60.9035 182.406C61.3675 182.406 61.752 182.284 62.0569 182.038C62.3618 181.793 62.5872 181.467 62.733 181.059C62.8822 180.651 62.9568 180.202 62.9568 179.712C62.9568 179.224 62.8822 178.777 62.733 178.369C62.5872 177.958 62.3618 177.629 62.0569 177.38C61.752 177.131 61.3675 177.007 60.9035 177.007C60.4362 177.007 60.0484 177.131 59.7401 177.38C59.4352 177.629 59.2082 177.958 59.059 178.369C58.9132 178.777 58.8403 179.224 58.8403 179.712C58.8403 180.202 58.9132 180.651 59.059 181.059C59.2082 181.467 59.4352 181.793 59.7401 182.038C60.0484 182.284 60.4362 182.406 60.9035 182.406ZM66.1175 183.5V175.864H67.5443V177.107H67.6388C67.7979 176.686 68.058 176.357 68.4193 176.122C68.7806 175.884 69.2131 175.764 69.7169 175.764C70.2273 175.764 70.6549 175.884 70.9996 176.122C71.3476 176.361 71.6044 176.689 71.7702 177.107H71.8497C72.032 176.699 72.322 176.374 72.7197 176.132C73.1175 175.887 73.5914 175.764 74.1416 175.764C74.8343 175.764 75.3994 175.981 75.8369 176.415C76.2777 176.85 76.4981 177.504 76.4981 178.379V183.5H75.0116V178.518C75.0116 178.001 74.8708 177.627 74.589 177.395C74.3073 177.163 73.9709 177.047 73.5798 177.047C73.0959 177.047 72.7197 177.196 72.4513 177.494C72.1828 177.789 72.0486 178.169 72.0486 178.633V183.5H70.567V178.424C70.567 178.01 70.4378 177.677 70.1792 177.425C69.9207 177.173 69.5843 177.047 69.17 177.047C68.8883 177.047 68.6281 177.121 68.3895 177.271C68.1541 177.416 67.9636 177.62 67.8177 177.882C67.6752 178.144 67.604 178.447 67.604 178.792V183.5H66.1175ZM81.7817 183.654C81.0293 183.654 80.3814 183.493 79.8378 183.172C79.2976 182.847 78.8799 182.391 78.585 181.805C78.2933 181.215 78.1475 180.524 78.1475 179.732C78.1475 178.949 78.2933 178.26 78.585 177.663C78.8799 177.067 79.2909 176.601 79.8179 176.266C80.3482 175.932 80.968 175.764 81.6773 175.764C82.1082 175.764 82.5258 175.835 82.9301 175.978C83.3345 176.121 83.6974 176.344 84.0189 176.649C84.3404 176.954 84.594 177.35 84.7796 177.837C84.9652 178.321 85.058 178.91 85.058 179.602V180.129H78.9877V179.016H83.6013C83.6013 178.625 83.5218 178.278 83.3627 177.977C83.2036 177.672 82.9798 177.431 82.6915 177.256C82.4065 177.08 82.0717 176.992 81.6872 176.992C81.2696 176.992 80.905 177.095 80.5935 177.3C80.2852 177.503 80.0466 177.768 79.8776 178.096C79.7119 178.421 79.629 178.774 79.629 179.155V180.025C79.629 180.535 79.7185 180.969 79.8975 181.327C80.0798 181.685 80.3333 181.959 80.6581 182.148C80.9829 182.333 81.3624 182.426 81.7966 182.426C82.0783 182.426 82.3352 182.386 82.5672 182.307C82.7992 182.224 82.9997 182.101 83.1688 181.939C83.3378 181.777 83.4671 181.576 83.5566 181.337L84.9635 181.591C84.8508 182.005 84.6486 182.368 84.357 182.68C84.0686 182.988 83.7057 183.228 83.2682 183.401C82.834 183.57 82.3385 183.654 81.7817 183.654Z" fill="#393939"/>
<rect x="121.25" y="107.25" width="89.5" height="89.5" rx="12.75" fill="white"/>
<rect x="121.25" y="107.25" width="89.5" height="89.5" rx="12.75" stroke="#979797" stroke-width="0.5"/>
<path d="M171.85 121.217H160.15C156 121.217 155.083 123.283 154.55 125.817L152.667 134.833H179.333L177.45 125.817C176.917 123.283 176 121.217 171.85 121.217Z" stroke="#292D32" stroke-linecap="round" stroke-linejoin="round"/>
<path d="M182.65 149.533C182.833 151.483 181.267 153.167 179.267 153.167H176.133C174.333 153.167 174.083 152.4 173.767 151.45L173.433 150.45C172.967 149.083 172.667 148.167 170.267 148.167H161.733C159.333 148.167 158.983 149.2 158.567 150.45L158.233 151.45C157.917 152.4 157.667 153.167 155.867 153.167H152.733C150.733 153.167 149.167 151.483 149.35 149.533L150.283 139.383C150.517 136.883 151 134.833 155.367 134.833H176.633C181 134.833 181.483 136.883 181.717 139.383L182.65 149.533Z" stroke="#292D32" stroke-linecap="round" stroke-linejoin="round"/>
<path d="M152.667 129.833H151" stroke="#292D32" stroke-linecap="round" stroke-linejoin="round"/>
<path d="M181 129.833H179.333" stroke="#292D32" stroke-linecap="round" stroke-linejoin="round"/>
<path d="M166 121.5V124.833" stroke="#292D32" stroke-linecap="round" stroke-linejoin="round"/>
<path d="M163.5 124.833H168.5" stroke="#292D32" stroke-linecap="round" stroke-linejoin="round"/>
<path d="M156 141.5H161" stroke="#292D32" stroke-linecap="round" stroke-linejoin="round"/>
<path d="M171 141.5H176" stroke="#292D32" stroke-linecap="round" stroke-linejoin="round"/>
<path d="M136.918 175.629H135.367C135.307 175.298 135.196 175.006 135.034 174.754C134.871 174.502 134.673 174.289 134.437 174.113C134.202 173.937 133.938 173.805 133.647 173.715C133.358 173.626 133.052 173.581 132.727 173.581C132.14 173.581 131.615 173.728 131.151 174.023C130.69 174.318 130.326 174.751 130.057 175.321C129.792 175.891 129.66 176.587 129.66 177.409C129.66 178.238 129.792 178.937 130.057 179.507C130.326 180.077 130.692 180.508 131.156 180.8C131.62 181.091 132.142 181.237 132.722 181.237C133.044 181.237 133.348 181.194 133.637 181.108C133.928 181.018 134.192 180.888 134.427 180.715C134.663 180.543 134.861 180.332 135.024 180.084C135.19 179.832 135.304 179.544 135.367 179.219L136.918 179.224C136.835 179.724 136.674 180.185 136.436 180.606C136.2 181.023 135.897 181.385 135.526 181.69C135.158 181.991 134.737 182.225 134.263 182.391C133.789 182.556 133.272 182.639 132.712 182.639C131.83 182.639 131.045 182.43 130.356 182.013C129.666 181.592 129.123 180.99 128.725 180.208C128.33 179.426 128.133 178.493 128.133 177.409C128.133 176.322 128.332 175.389 128.73 174.61C129.128 173.828 129.671 173.228 130.361 172.81C131.05 172.389 131.834 172.179 132.712 172.179C133.252 172.179 133.756 172.257 134.223 172.413C134.694 172.565 135.117 172.79 135.491 173.089C135.866 173.384 136.176 173.745 136.421 174.173C136.666 174.597 136.832 175.082 136.918 175.629ZM140.859 182.669C140.375 182.669 139.938 182.58 139.547 182.401C139.156 182.218 138.846 181.955 138.617 181.61C138.392 181.265 138.279 180.843 138.279 180.342C138.279 179.911 138.362 179.557 138.528 179.278C138.693 179 138.917 178.78 139.199 178.617C139.48 178.455 139.795 178.332 140.143 178.249C140.491 178.166 140.846 178.103 141.207 178.06C141.665 178.007 142.036 177.964 142.321 177.931C142.606 177.895 142.813 177.837 142.942 177.757C143.072 177.678 143.136 177.548 143.136 177.369V177.335C143.136 176.9 143.014 176.564 142.768 176.325C142.526 176.087 142.165 175.967 141.685 175.967C141.184 175.967 140.79 176.078 140.501 176.3C140.216 176.519 140.019 176.763 139.91 177.031L138.513 176.713C138.678 176.249 138.92 175.875 139.239 175.589C139.56 175.301 139.93 175.092 140.347 174.963C140.765 174.83 141.204 174.764 141.665 174.764C141.97 174.764 142.293 174.801 142.634 174.874C142.979 174.943 143.3 175.072 143.599 175.261C143.9 175.45 144.147 175.72 144.339 176.072C144.532 176.42 144.628 176.872 144.628 177.429V182.5H143.176V181.456H143.116C143.02 181.648 142.876 181.837 142.684 182.023C142.492 182.208 142.245 182.362 141.943 182.485C141.641 182.608 141.28 182.669 140.859 182.669ZM141.182 181.476C141.593 181.476 141.945 181.395 142.236 181.232C142.531 181.07 142.755 180.858 142.908 180.596C143.063 180.331 143.141 180.047 143.141 179.746V178.761C143.088 178.814 142.985 178.864 142.833 178.911C142.684 178.954 142.513 178.992 142.321 179.025C142.129 179.055 141.941 179.083 141.759 179.109C141.577 179.133 141.424 179.152 141.302 179.169C141.013 179.205 140.75 179.267 140.511 179.353C140.276 179.439 140.087 179.563 139.945 179.726C139.805 179.885 139.736 180.097 139.736 180.362C139.736 180.73 139.872 181.009 140.143 181.197C140.415 181.383 140.762 181.476 141.182 181.476ZM146.608 182.5V174.864H148.044V176.077H148.124C148.263 175.666 148.508 175.343 148.86 175.107C149.214 174.869 149.616 174.749 150.063 174.749C150.156 174.749 150.265 174.753 150.391 174.759C150.52 174.766 150.621 174.774 150.694 174.784V176.206C150.635 176.189 150.529 176.171 150.376 176.151C150.224 176.128 150.071 176.116 149.919 176.116C149.567 176.116 149.254 176.191 148.979 176.34C148.707 176.486 148.492 176.69 148.333 176.952C148.174 177.21 148.094 177.505 148.094 177.837V182.5H146.608ZM161.358 174.993C161.305 174.522 161.087 174.158 160.702 173.899C160.318 173.637 159.834 173.506 159.25 173.506C158.833 173.506 158.472 173.573 158.167 173.705C157.862 173.835 157.625 174.013 157.456 174.242C157.29 174.468 157.207 174.724 157.207 175.013C157.207 175.255 157.263 175.464 157.376 175.639C157.492 175.815 157.643 175.962 157.829 176.082C158.017 176.198 158.22 176.295 158.435 176.375C158.651 176.451 158.858 176.514 159.057 176.564L160.051 176.822C160.376 176.902 160.709 177.01 161.05 177.146C161.392 177.281 161.708 177.46 162 177.683C162.291 177.905 162.527 178.18 162.706 178.508C162.888 178.836 162.979 179.229 162.979 179.686C162.979 180.263 162.83 180.775 162.532 181.222C162.237 181.67 161.807 182.023 161.244 182.281C160.684 182.54 160.006 182.669 159.211 182.669C158.448 182.669 157.789 182.548 157.232 182.306C156.675 182.064 156.239 181.721 155.924 181.277C155.61 180.83 155.436 180.299 155.402 179.686H156.944C156.973 180.054 157.093 180.361 157.302 180.606C157.514 180.848 157.784 181.028 158.112 181.148C158.443 181.264 158.806 181.322 159.201 181.322C159.635 181.322 160.021 181.254 160.359 181.118C160.7 180.979 160.969 180.786 161.165 180.541C161.36 180.293 161.458 180.003 161.458 179.671C161.458 179.37 161.372 179.123 161.199 178.93C161.03 178.738 160.8 178.579 160.508 178.453C160.22 178.327 159.893 178.216 159.529 178.12L158.326 177.792C157.51 177.57 156.864 177.243 156.387 176.812C155.913 176.382 155.676 175.812 155.676 175.102C155.676 174.516 155.835 174.004 156.153 173.566C156.471 173.129 156.902 172.789 157.446 172.547C157.989 172.302 158.602 172.179 159.285 172.179C159.975 172.179 160.583 172.3 161.11 172.542C161.64 172.784 162.058 173.117 162.363 173.541C162.668 173.962 162.827 174.446 162.84 174.993H161.358ZM167.987 182.654C167.234 182.654 166.586 182.493 166.043 182.172C165.503 181.847 165.085 181.391 164.79 180.805C164.498 180.215 164.353 179.524 164.353 178.732C164.353 177.949 164.498 177.26 164.79 176.663C165.085 176.067 165.496 175.601 166.023 175.266C166.553 174.932 167.173 174.764 167.882 174.764C168.313 174.764 168.731 174.835 169.135 174.978C169.54 175.121 169.902 175.344 170.224 175.649C170.545 175.954 170.799 176.35 170.985 176.837C171.17 177.321 171.263 177.91 171.263 178.602V179.129H165.193V178.016H169.806C169.806 177.625 169.727 177.278 169.568 176.977C169.409 176.672 169.185 176.431 168.897 176.256C168.612 176.08 168.277 175.992 167.892 175.992C167.475 175.992 167.11 176.095 166.799 176.3C166.49 176.503 166.252 176.768 166.083 177.096C165.917 177.421 165.834 177.774 165.834 178.155V179.025C165.834 179.535 165.924 179.969 166.103 180.327C166.285 180.685 166.538 180.959 166.863 181.148C167.188 181.333 167.568 181.426 168.002 181.426C168.283 181.426 168.54 181.386 168.772 181.307C169.004 181.224 169.205 181.101 169.374 180.939C169.543 180.777 169.672 180.576 169.762 180.337L171.169 180.591C171.056 181.005 170.854 181.368 170.562 181.68C170.274 181.988 169.911 182.228 169.473 182.401C169.039 182.57 168.544 182.654 167.987 182.654ZM172.912 182.5V174.864H174.349V176.077H174.429C174.568 175.666 174.813 175.343 175.165 175.107C175.519 174.869 175.92 174.749 176.368 174.749C176.46 174.749 176.57 174.753 176.696 174.759C176.825 174.766 176.926 174.774 176.999 174.784V176.206C176.939 176.189 176.833 176.171 176.681 176.151C176.528 176.128 176.376 176.116 176.223 176.116C175.872 176.116 175.559 176.191 175.284 176.34C175.012 176.486 174.797 176.69 174.638 176.952C174.478 177.21 174.399 177.505 174.399 177.837V182.5H172.912ZM185.051 174.864L182.281 182.5H180.69L177.916 174.864H179.512L181.446 180.74H181.526L183.455 174.864H185.051ZM186.448 182.5V174.864H187.934V182.5H186.448ZM187.198 173.685C186.94 173.685 186.718 173.599 186.532 173.427C186.35 173.251 186.259 173.042 186.259 172.8C186.259 172.555 186.35 172.346 186.532 172.174C186.718 171.998 186.94 171.911 187.198 171.911C187.457 171.911 187.677 171.998 187.859 172.174C188.045 172.346 188.138 172.555 188.138 172.8C188.138 173.042 188.045 173.251 187.859 173.427C187.677 173.599 187.457 173.685 187.198 173.685ZM195.656 176.728L194.309 176.967C194.253 176.794 194.163 176.63 194.04 176.474C193.921 176.319 193.759 176.191 193.553 176.092C193.348 175.992 193.091 175.942 192.783 175.942C192.362 175.942 192.01 176.037 191.729 176.226C191.447 176.411 191.306 176.652 191.306 176.947C191.306 177.202 191.4 177.407 191.589 177.563C191.778 177.719 192.083 177.847 192.504 177.946L193.717 178.224C194.42 178.387 194.944 178.637 195.288 178.975C195.633 179.313 195.805 179.752 195.805 180.293C195.805 180.75 195.673 181.158 195.408 181.516C195.146 181.87 194.78 182.149 194.309 182.351C193.842 182.553 193.3 182.654 192.683 182.654C191.828 182.654 191.13 182.472 190.59 182.107C190.05 181.739 189.718 181.217 189.596 180.541L191.033 180.322C191.122 180.697 191.306 180.98 191.584 181.173C191.863 181.362 192.226 181.456 192.673 181.456C193.16 181.456 193.55 181.355 193.842 181.153C194.133 180.947 194.279 180.697 194.279 180.402C194.279 180.163 194.19 179.963 194.011 179.8C193.835 179.638 193.565 179.515 193.2 179.433L191.908 179.149C191.195 178.987 190.668 178.728 190.327 178.374C189.989 178.019 189.82 177.57 189.82 177.026C189.82 176.576 189.945 176.181 190.197 175.843C190.449 175.505 190.797 175.241 191.241 175.053C191.686 174.86 192.194 174.764 192.768 174.764C193.593 174.764 194.243 174.943 194.717 175.301C195.19 175.656 195.504 176.131 195.656 176.728ZM200.731 182.654C199.979 182.654 199.331 182.493 198.787 182.172C198.247 181.847 197.829 181.391 197.534 180.805C197.243 180.215 197.097 179.524 197.097 178.732C197.097 177.949 197.243 177.26 197.534 176.663C197.829 176.067 198.24 175.601 198.767 175.266C199.297 174.932 199.917 174.764 200.627 174.764C201.057 174.764 201.475 174.835 201.879 174.978C202.284 175.121 202.647 175.344 202.968 175.649C203.29 175.954 203.543 176.35 203.729 176.837C203.914 177.321 204.007 177.91 204.007 178.602V179.129H197.937V178.016H202.551C202.551 177.625 202.471 177.278 202.312 176.977C202.153 176.672 201.929 176.431 201.641 176.256C201.356 176.08 201.021 175.992 200.636 175.992C200.219 175.992 199.854 176.095 199.543 176.3C199.234 176.503 198.996 176.768 198.827 177.096C198.661 177.421 198.578 177.774 198.578 178.155V179.025C198.578 179.535 198.668 179.969 198.847 180.327C199.029 180.685 199.283 180.959 199.607 181.148C199.932 181.333 200.312 181.426 200.746 181.426C201.028 181.426 201.284 181.386 201.516 181.307C201.748 181.224 201.949 181.101 202.118 180.939C202.287 180.777 202.416 180.576 202.506 180.337L203.913 180.591C203.8 181.005 203.598 181.368 203.306 181.68C203.018 181.988 202.655 182.228 202.217 182.401C201.783 182.57 201.288 182.654 200.731 182.654Z" fill="#393939"/>
<rect x="221.25" y="107.25" width="89.5" height="89.5" rx="12.75" fill="white"/>
<rect x="221.25" y="107.25" width="89.5" height="89.5" rx="12.75" stroke="#979797" stroke-width="0.5"/>
<path d="M265.527 140.34H258.072C256.903 140.34 256.002 141.37 256.156 142.528L257.126 148.135C257.51 151.016 259.967 153.166 262.872 153.166H268.181C271.086 153.166 273.543 151.016 273.927 148.135L274.897 142.528C275.051 141.37 274.15 140.34 272.981 140.34H265.527ZM265.527 140.34V133.601V132.333M265.527 132.333V131.065V128.529M265.527 132.333L262.628 129.978M265.527 132.333L268.425 129.978" stroke="#0B0B0B" stroke-linecap="round" stroke-linejoin="round"/>
<path d="M272.289 129.978C272.289 133.713 269.261 136.741 265.526 136.741C261.791 136.741 258.763 133.713 258.763 129.978C258.763 125.147 265.526 119.833 265.526 119.833C265.526 119.833 272.289 125.147 272.289 129.978Z" stroke="#0B0B0B"/>
<path d="M246.433 182.5V172.318H250.062C250.854 172.318 251.511 172.462 252.031 172.751C252.551 173.039 252.941 173.433 253.199 173.934C253.458 174.431 253.587 174.991 253.587 175.614C253.587 176.241 253.456 176.804 253.194 177.305C252.936 177.802 252.545 178.196 252.021 178.488C251.501 178.776 250.846 178.92 250.057 178.92H247.562V177.618H249.918C250.419 177.618 250.825 177.532 251.136 177.359C251.448 177.184 251.676 176.945 251.822 176.643C251.968 176.342 252.041 175.999 252.041 175.614C252.041 175.23 251.968 174.888 251.822 174.59C251.676 174.292 251.446 174.058 251.131 173.889C250.82 173.72 250.409 173.636 249.898 173.636H247.969V182.5H246.433ZM256.755 172.318V182.5H255.269V172.318H256.755ZM260.977 182.669C260.494 182.669 260.056 182.58 259.665 182.401C259.274 182.218 258.964 181.955 258.735 181.61C258.51 181.265 258.397 180.843 258.397 180.342C258.397 179.911 258.48 179.557 258.646 179.278C258.811 179 259.035 178.78 259.317 178.617C259.599 178.455 259.914 178.332 260.262 178.249C260.61 178.166 260.964 178.103 261.325 178.06C261.783 178.007 262.154 177.964 262.439 177.931C262.724 177.895 262.931 177.837 263.061 177.757C263.19 177.678 263.254 177.548 263.254 177.369V177.335C263.254 176.9 263.132 176.564 262.887 176.325C262.645 176.087 262.283 175.967 261.803 175.967C261.302 175.967 260.908 176.078 260.619 176.3C260.334 176.519 260.137 176.763 260.028 177.031L258.631 176.713C258.797 176.249 259.039 175.875 259.357 175.589C259.678 175.301 260.048 175.092 260.465 174.963C260.883 174.83 261.322 174.764 261.783 174.764C262.088 174.764 262.411 174.801 262.752 174.874C263.097 174.943 263.419 175.072 263.717 175.261C264.018 175.45 264.265 175.72 264.458 176.072C264.65 176.42 264.746 176.872 264.746 177.429V182.5H263.294V181.456H263.235C263.138 181.648 262.994 181.837 262.802 182.023C262.61 182.208 262.363 182.362 262.061 182.485C261.76 182.608 261.398 182.669 260.977 182.669ZM261.301 181.476C261.712 181.476 262.063 181.395 262.355 181.232C262.65 181.07 262.873 180.858 263.026 180.596C263.182 180.331 263.259 180.047 263.259 179.746V178.761C263.206 178.814 263.104 178.864 262.951 178.911C262.802 178.954 262.631 178.992 262.439 179.025C262.247 179.055 262.06 179.083 261.877 179.109C261.695 179.133 261.543 179.152 261.42 179.169C261.132 179.205 260.868 179.267 260.629 179.353C260.394 179.439 260.205 179.563 260.063 179.726C259.923 179.885 259.854 180.097 259.854 180.362C259.854 180.73 259.99 181.009 260.262 181.197C260.533 181.383 260.88 181.476 261.301 181.476ZM268.212 177.966V182.5H266.726V174.864H268.153V176.107H268.247C268.423 175.702 268.698 175.377 269.072 175.132C269.45 174.887 269.926 174.764 270.499 174.764C271.02 174.764 271.475 174.874 271.866 175.092C272.258 175.308 272.561 175.629 272.776 176.057C272.992 176.484 273.099 177.013 273.099 177.643V182.5H271.613V177.822C271.613 177.268 271.469 176.836 271.18 176.524C270.892 176.209 270.496 176.052 269.992 176.052C269.647 176.052 269.341 176.126 269.072 176.276C268.807 176.425 268.597 176.643 268.441 176.932C268.289 177.217 268.212 177.562 268.212 177.966ZM278.658 174.864V176.057H274.487V174.864H278.658ZM275.605 173.034H277.092V180.258C277.092 180.546 277.135 180.763 277.221 180.909C277.307 181.052 277.418 181.149 277.554 181.202C277.693 181.252 277.844 181.277 278.006 181.277C278.126 181.277 278.23 181.269 278.32 181.252C278.409 181.236 278.479 181.222 278.528 181.212L278.797 182.44C278.711 182.473 278.588 182.507 278.429 182.54C278.27 182.576 278.071 182.596 277.832 182.599C277.441 182.606 277.077 182.536 276.739 182.391C276.401 182.245 276.127 182.019 275.918 181.714C275.71 181.41 275.605 181.027 275.605 180.566V173.034ZM285.901 176.728L284.554 176.967C284.498 176.794 284.408 176.63 284.286 176.474C284.166 176.319 284.004 176.191 283.798 176.092C283.593 175.992 283.336 175.942 283.028 175.942C282.607 175.942 282.255 176.037 281.974 176.226C281.692 176.411 281.551 176.652 281.551 176.947C281.551 177.202 281.646 177.407 281.835 177.563C282.023 177.719 282.328 177.847 282.749 177.946L283.962 178.224C284.665 178.387 285.189 178.637 285.533 178.975C285.878 179.313 286.05 179.752 286.05 180.293C286.05 180.75 285.918 181.158 285.653 181.516C285.391 181.87 285.025 182.149 284.554 182.351C284.087 182.553 283.545 182.654 282.928 182.654C282.073 182.654 281.375 182.472 280.835 182.107C280.295 181.739 279.964 181.217 279.841 180.541L281.278 180.322C281.367 180.697 281.551 180.98 281.83 181.173C282.108 181.362 282.471 181.456 282.918 181.456C283.406 181.456 283.795 181.355 284.087 181.153C284.378 180.947 284.524 180.697 284.524 180.402C284.524 180.163 284.435 179.963 284.256 179.8C284.08 179.638 283.81 179.515 283.445 179.433L282.153 179.149C281.44 178.987 280.913 178.728 280.572 178.374C280.234 178.019 280.065 177.57 280.065 177.026C280.065 176.576 280.191 176.181 280.442 175.843C280.694 175.505 281.042 175.241 281.487 175.053C281.931 174.86 282.439 174.764 283.013 174.764C283.838 174.764 284.488 174.943 284.962 175.301C285.436 175.656 285.749 176.131 285.901 176.728Z" fill="#393939"/>
<rect x="21.25" y="213.25" width="89.5" height="89.5" rx="12.75" fill="white"/>
<rect x="21.25" y="213.25" width="89.5" height="89.5" rx="12.75" stroke="#979797" stroke-width="0.5"/>
<path d="M76 242.5H74.6643C73.2815 242.5 72.5902 242.5 72.017 242.824C71.444 243.149 71.0882 243.742 70.3768 244.927L70.3253 245.013C69.6627 246.118 69.3312 246.67 68.8492 246.661C68.367 246.652 68.0565 246.088 67.4358 244.959L64.6237 239.846C64.0448 238.794 63.7555 238.267 63.2932 238.242C62.831 238.217 62.4867 238.709 61.7979 239.693L61.3262 240.367C60.5947 241.412 60.2289 241.935 59.6862 242.217C59.1435 242.5 58.5057 242.5 57.23 242.5H56" stroke="#1C274C" stroke-linecap="round"/>
<path d="M66 231.665L65.3898 232.232C65.5475 232.402 65.7685 232.498 66 232.498C66.2315 232.498 66.4525 232.402 66.6102 232.232L66 231.665ZM61.4629 254.139C59.0346 252.159 56.1867 249.552 53.9528 246.689C51.7032 243.806 50.1667 240.777 50.1667 237.934H48.5C48.5 241.337 50.313 244.734 52.6388 247.715C54.9805 250.716 57.934 253.412 60.4096 255.43L61.4629 254.139ZM50.1667 237.934C50.1667 233.259 52.3283 230.036 55.1744 228.852C57.9978 227.677 61.8088 228.384 65.3898 232.232L66.6102 231.097C62.6915 226.886 58.1691 225.801 54.5342 227.313C50.9219 228.816 48.5 232.758 48.5 237.934H50.1667ZM71.5905 255.43C74.066 253.412 77.0195 250.716 79.3612 247.715C81.687 244.734 83.5 241.337 83.5 237.934H81.8333C81.8333 240.777 80.2968 243.806 78.0472 246.689C75.8133 249.552 72.9655 252.159 70.5372 254.139L71.5905 255.43ZM83.5 237.934C83.5 232.757 81.0782 228.816 77.4658 227.313C73.8308 225.801 69.3085 226.886 65.3898 231.097L66.6102 232.232C70.1912 228.384 74.0022 227.677 76.8257 228.852C79.6717 230.036 81.8333 233.259 81.8333 237.934H83.5ZM60.4096 255.43C62.5617 257.185 63.912 258.333 66 258.333V256.667C64.6203 256.667 63.7507 256.004 61.4629 254.139L60.4096 255.43ZM70.5372 254.139C68.2493 256.004 67.3797 256.667 66 256.667V258.333C68.088 258.333 69.4383 257.185 71.5905 255.43L70.5372 254.139Z" fill="#1C274C"/>
<path d="M45.1889 288.5V278.318H46.7251V282.743H51.8011V278.318H53.3423V288.5H51.8011V284.06H46.7251V288.5H45.1889ZM58.7514 288.654C57.9991 288.654 57.3511 288.493 56.8075 288.172C56.2673 287.847 55.8497 287.391 55.5547 286.805C55.263 286.215 55.1172 285.524 55.1172 284.732C55.1172 283.949 55.263 283.26 55.5547 282.663C55.8497 282.067 56.2607 281.601 56.7876 281.266C57.3179 280.932 57.9377 280.764 58.647 280.764C59.0779 280.764 59.4955 280.835 59.8999 280.978C60.3042 281.121 60.6671 281.344 60.9886 281.649C61.3101 281.954 61.5637 282.35 61.7493 282.837C61.9349 283.321 62.0277 283.91 62.0277 284.602V285.129H55.9574V284.016H60.571C60.571 283.625 60.4915 283.278 60.3324 282.977C60.1733 282.672 59.9496 282.431 59.6612 282.256C59.3762 282.08 59.0414 281.992 58.657 281.992C58.2393 281.992 57.8748 282.095 57.5632 282.3C57.255 282.503 57.0163 282.768 56.8473 283.096C56.6816 283.421 56.5987 283.774 56.5987 284.155V285.025C56.5987 285.535 56.6882 285.969 56.8672 286.327C57.0495 286.685 57.303 286.959 57.6278 287.148C57.9527 287.333 58.3321 287.426 58.7663 287.426C59.0481 287.426 59.3049 287.386 59.5369 287.307C59.7689 287.224 59.9695 287.101 60.1385 286.939C60.3075 286.777 60.4368 286.576 60.5263 286.337L61.9332 286.591C61.8205 287.005 61.6184 287.368 61.3267 287.68C61.0384 287.988 60.6754 288.228 60.2379 288.401C59.8037 288.57 59.3082 288.654 58.7514 288.654ZM65.8993 288.669C65.4154 288.669 64.9779 288.58 64.5868 288.401C64.1957 288.218 63.8858 287.955 63.6571 287.61C63.4318 287.265 63.3191 286.843 63.3191 286.342C63.3191 285.911 63.4019 285.557 63.5676 285.278C63.7334 285 63.9571 284.78 64.2388 284.617C64.5205 284.455 64.8354 284.332 65.1834 284.249C65.5314 284.166 65.8861 284.103 66.2473 284.06C66.7047 284.007 67.0759 283.964 67.361 283.931C67.646 283.895 67.8532 283.837 67.9824 283.757C68.1117 283.678 68.1763 283.548 68.1763 283.369V283.335C68.1763 282.9 68.0537 282.564 67.8084 282.325C67.5665 282.087 67.2052 281.967 66.7246 281.967C66.2241 281.967 65.8297 282.078 65.5414 282.3C65.2563 282.519 65.0591 282.763 64.9498 283.031L63.5527 282.713C63.7185 282.249 63.9604 281.875 64.2786 281.589C64.6001 281.301 64.9696 281.092 65.3873 280.963C65.8049 280.83 66.244 280.764 66.7047 280.764C67.0096 280.764 67.3328 280.801 67.6742 280.874C68.0189 280.943 68.3404 281.072 68.6387 281.261C68.9403 281.45 69.1872 281.72 69.3794 282.072C69.5717 282.42 69.6678 282.872 69.6678 283.429V288.5H68.2161V287.456H68.1564C68.0603 287.648 67.9161 287.837 67.7239 288.023C67.5317 288.208 67.2847 288.362 66.9831 288.485C66.6815 288.608 66.3203 288.669 65.8993 288.669ZM66.2225 287.476C66.6335 287.476 66.9848 287.395 67.2765 287.232C67.5714 287.07 67.7952 286.858 67.9476 286.596C68.1034 286.331 68.1813 286.047 68.1813 285.746V284.761C68.1283 284.814 68.0255 284.864 67.873 284.911C67.7239 284.954 67.5532 284.992 67.361 285.025C67.1687 285.055 66.9815 285.083 66.7992 285.109C66.6169 285.133 66.4644 285.152 66.3418 285.169C66.0534 285.205 65.79 285.267 65.5513 285.353C65.316 285.439 65.1271 285.563 64.9846 285.726C64.8453 285.885 64.7757 286.097 64.7757 286.362C64.7757 286.73 64.9116 287.009 65.1834 287.197C65.4552 287.383 65.8016 287.476 66.2225 287.476ZM73.1342 278.318V288.5H71.6477V278.318H73.1342ZM78.6987 280.864V282.057H74.5275V280.864H78.6987ZM75.6461 279.034H77.1326V286.258C77.1326 286.546 77.1757 286.763 77.2619 286.909C77.3481 287.052 77.4591 287.149 77.595 287.202C77.7342 287.252 77.885 287.277 78.0474 287.277C78.1667 287.277 78.2711 287.269 78.3606 287.252C78.4501 287.236 78.5197 287.222 78.5694 287.212L78.8379 288.44C78.7517 288.473 78.6291 288.507 78.47 288.54C78.3109 288.576 78.112 288.596 77.8734 288.599C77.4823 288.606 77.1177 288.536 76.7797 288.391C76.4416 288.245 76.1681 288.019 75.9593 287.714C75.7505 287.41 75.6461 287.027 75.6461 286.566V279.034ZM81.9936 283.966V288.5H80.5071V278.318H81.9737V282.107H82.0682C82.2472 281.696 82.5206 281.369 82.8885 281.127C83.2564 280.885 83.737 280.764 84.3303 280.764C84.8539 280.764 85.3113 280.872 85.7024 281.087C86.0968 281.303 86.4018 281.624 86.6172 282.052C86.8359 282.476 86.9453 283.006 86.9453 283.643V288.5H85.4588V283.822C85.4588 283.262 85.3146 282.827 85.0263 282.519C84.7379 282.208 84.3369 282.052 83.8232 282.052C83.4718 282.052 83.157 282.126 82.8786 282.276C82.6035 282.425 82.3864 282.643 82.2273 282.932C82.0715 283.217 81.9936 283.562 81.9936 283.966Z" fill="#393939"/>
<rect x="121.25" y="213.25" width="89.5" height="89.5" rx="12.75" stroke="#F57F44" stroke-width="0.5"/>
<path d="M182 233.5L160 255.5L150 245.5" stroke="#F57F44" stroke-width="6" stroke-linecap="round" stroke-linejoin="round"/>
<path d="M152.285 289.5V279.318H155.914C156.706 279.318 157.362 279.462 157.883 279.751C158.403 280.039 158.792 280.433 159.051 280.934C159.309 281.431 159.439 281.991 159.439 282.614C159.439 283.241 159.308 283.804 159.046 284.305C158.787 284.802 158.396 285.196 157.873 285.488C157.352 285.776 156.698 285.92 155.909 285.92H153.413V284.618H155.77C156.27 284.618 156.676 284.532 156.988 284.359C157.299 284.184 157.528 283.945 157.674 283.643C157.82 283.342 157.893 282.999 157.893 282.614C157.893 282.23 157.82 281.888 157.674 281.59C157.528 281.292 157.298 281.058 156.983 280.889C156.671 280.72 156.26 280.636 155.75 280.636H153.821V289.5H152.285ZM164.316 289.654C163.564 289.654 162.916 289.493 162.372 289.172C161.832 288.847 161.414 288.391 161.119 287.805C160.827 287.215 160.682 286.524 160.682 285.732C160.682 284.949 160.827 284.26 161.119 283.663C161.414 283.067 161.825 282.601 162.352 282.266C162.882 281.932 163.502 281.764 164.211 281.764C164.642 281.764 165.06 281.835 165.464 281.978C165.869 282.121 166.232 282.344 166.553 282.649C166.875 282.954 167.128 283.35 167.314 283.837C167.499 284.321 167.592 284.91 167.592 285.602V286.129H161.522V285.016H166.135C166.135 284.625 166.056 284.278 165.897 283.977C165.738 283.672 165.514 283.431 165.226 283.256C164.941 283.08 164.606 282.992 164.221 282.992C163.804 282.992 163.439 283.095 163.128 283.3C162.819 283.503 162.581 283.768 162.412 284.096C162.246 284.421 162.163 284.774 162.163 285.155V286.025C162.163 286.535 162.253 286.969 162.432 287.327C162.614 287.685 162.867 287.959 163.192 288.148C163.517 288.333 163.897 288.426 164.331 288.426C164.613 288.426 164.869 288.386 165.101 288.307C165.333 288.224 165.534 288.101 165.703 287.939C165.872 287.777 166.001 287.576 166.091 287.337L167.498 287.591C167.385 288.005 167.183 288.368 166.891 288.68C166.603 288.988 166.24 289.228 165.802 289.401C165.368 289.57 164.873 289.654 164.316 289.654ZM172.806 281.864V283.057H168.635V281.864H172.806ZM169.754 280.034H171.24V287.258C171.24 287.546 171.283 287.763 171.369 287.909C171.455 288.052 171.567 288.149 171.702 288.202C171.842 288.252 171.992 288.277 172.155 288.277C172.274 288.277 172.379 288.269 172.468 288.252C172.558 288.236 172.627 288.222 172.677 288.212L172.945 289.44C172.859 289.473 172.737 289.507 172.577 289.54C172.418 289.576 172.219 289.596 171.981 289.599C171.59 289.606 171.225 289.536 170.887 289.391C170.549 289.245 170.276 289.019 170.067 288.714C169.858 288.41 169.754 288.027 169.754 287.566V280.034ZM180.05 283.728L178.702 283.967C178.646 283.794 178.557 283.63 178.434 283.474C178.315 283.319 178.152 283.191 177.947 283.092C177.741 282.992 177.484 282.942 177.176 282.942C176.755 282.942 176.404 283.037 176.122 283.226C175.84 283.411 175.7 283.652 175.7 283.947C175.7 284.202 175.794 284.407 175.983 284.563C176.172 284.719 176.477 284.847 176.898 284.946L178.111 285.224C178.813 285.387 179.337 285.637 179.682 285.975C180.027 286.313 180.199 286.752 180.199 287.293C180.199 287.75 180.066 288.158 179.801 288.516C179.539 288.87 179.173 289.149 178.702 289.351C178.235 289.553 177.693 289.654 177.077 289.654C176.222 289.654 175.524 289.472 174.984 289.107C174.443 288.739 174.112 288.217 173.989 287.541L175.426 287.322C175.516 287.697 175.7 287.98 175.978 288.173C176.256 288.362 176.619 288.456 177.067 288.456C177.554 288.456 177.943 288.355 178.235 288.153C178.527 287.947 178.673 287.697 178.673 287.402C178.673 287.163 178.583 286.963 178.404 286.8C178.228 286.638 177.958 286.515 177.594 286.433L176.301 286.149C175.589 285.987 175.062 285.728 174.72 285.374C174.382 285.019 174.213 284.57 174.213 284.026C174.213 283.576 174.339 283.181 174.591 282.843C174.843 282.505 175.191 282.241 175.635 282.053C176.079 281.86 176.588 281.764 177.161 281.764C177.987 281.764 178.636 281.943 179.11 282.301C179.584 282.656 179.897 283.131 180.05 283.728Z" fill="#393939"/>
<rect x="221.25" y="213.25" width="89.5" height="89.5" rx="12.75" fill="white"/>
<rect x="221.25" y="213.25" width="89.5" height="89.5" rx="12.75" stroke="#979797" stroke-width="0.5"/>
<rect width="40" height="40" transform="translate(246 222.5)" fill="white"/>
<path d="M273.278 227.559C272.84 227.559 272.402 227.599 271.97 227.664C269.679 228.026 267.554 229.201 266.106 230.65C264.194 232.566 262.813 235.355 262.228 238.064C262.122 238.509 262.055 238.967 261.996 239.419L259.771 247.68L260.82 248.729L269.075 246.504C269.526 246.445 269.984 246.372 270.436 246.272C273.145 245.688 275.934 244.306 277.847 242.394C279.301 240.94 280.477 238.815 280.835 236.524C281.18 234.233 280.676 231.722 278.717 229.769C277.136 228.18 275.191 227.549 273.278 227.559ZM273.285 228.84C274.898 228.821 276.466 229.337 277.814 230.68C279.474 232.333 279.872 234.345 279.56 236.324C279.255 238.31 278.186 240.229 276.937 241.477C275.25 243.164 272.641 244.479 270.164 245.01C267.693 245.555 265.436 245.263 264.333 244.154C263.238 243.058 262.945 240.807 263.483 238.33C264.021 235.859 265.329 233.243 267.023 231.56C268.264 230.313 270.19 229.247 272.176 228.934C272.541 228.876 272.92 228.844 273.285 228.84ZM262.261 243.104C262.507 243.855 262.879 244.532 263.423 245.063C263.961 245.608 264.632 245.993 265.382 246.232L261.199 247.295L262.261 243.104ZM258.921 248.656L252.32 255.263L251.972 254.925L251.061 255.834L252.68 257.442L253.589 256.538L253.23 256.18L259.838 249.566L258.921 248.656ZM272.933 251.651C271.638 251.651 270.569 252.713 270.569 254.008C270.569 255.303 271.638 256.366 272.933 256.366C274.221 256.366 275.29 255.303 275.29 254.008C275.29 252.713 274.221 251.651 272.933 251.651Z" fill="#393939"/>
<path d="M254.112 280.993C254.059 280.522 253.841 280.158 253.456 279.899C253.072 279.637 252.588 279.506 252.004 279.506C251.587 279.506 251.225 279.573 250.921 279.705C250.616 279.835 250.379 280.013 250.21 280.242C250.044 280.468 249.961 280.724 249.961 281.013C249.961 281.255 250.017 281.464 250.13 281.639C250.246 281.815 250.397 281.962 250.582 282.082C250.771 282.198 250.974 282.295 251.189 282.375C251.404 282.451 251.612 282.514 251.81 282.564L252.805 282.822C253.13 282.902 253.463 283.01 253.804 283.146C254.145 283.281 254.462 283.46 254.754 283.683C255.045 283.905 255.281 284.18 255.46 284.508C255.642 284.836 255.733 285.229 255.733 285.686C255.733 286.263 255.584 286.775 255.286 287.222C254.991 287.67 254.561 288.023 253.998 288.281C253.438 288.54 252.76 288.669 251.965 288.669C251.202 288.669 250.543 288.548 249.986 288.306C249.429 288.064 248.993 287.721 248.678 287.277C248.363 286.83 248.189 286.299 248.156 285.686H249.698C249.727 286.054 249.847 286.361 250.055 286.606C250.268 286.848 250.538 287.028 250.866 287.148C251.197 287.264 251.56 287.322 251.955 287.322C252.389 287.322 252.775 287.254 253.113 287.118C253.454 286.979 253.723 286.786 253.918 286.541C254.114 286.293 254.212 286.003 254.212 285.671C254.212 285.37 254.126 285.123 253.953 284.93C253.784 284.738 253.554 284.579 253.262 284.453C252.974 284.327 252.647 284.216 252.283 284.12L251.08 283.792C250.264 283.57 249.618 283.243 249.141 282.812C248.667 282.382 248.43 281.812 248.43 281.102C248.43 280.516 248.589 280.004 248.907 279.566C249.225 279.129 249.656 278.789 250.2 278.547C250.743 278.302 251.356 278.179 252.039 278.179C252.729 278.179 253.337 278.3 253.864 278.542C254.394 278.784 254.812 279.117 255.117 279.541C255.421 279.962 255.581 280.446 255.594 280.993H254.112ZM257.449 291.364V280.864H258.901V282.102H259.025C259.112 281.942 259.236 281.759 259.398 281.55C259.561 281.341 259.786 281.159 260.074 281.003C260.363 280.844 260.744 280.764 261.218 280.764C261.834 280.764 262.385 280.92 262.869 281.232C263.352 281.543 263.732 281.992 264.007 282.579C264.285 283.165 264.425 283.871 264.425 284.697C264.425 285.522 264.287 286.23 264.012 286.82C263.737 287.406 263.359 287.859 262.878 288.177C262.398 288.492 261.849 288.649 261.233 288.649C260.769 288.649 260.389 288.571 260.094 288.415C259.803 288.26 259.574 288.077 259.408 287.869C259.243 287.66 259.115 287.474 259.025 287.312H258.936V291.364H257.449ZM258.906 284.682C258.906 285.219 258.984 285.689 259.14 286.094C259.296 286.498 259.521 286.815 259.816 287.043C260.111 287.269 260.472 287.381 260.9 287.381C261.344 287.381 261.715 287.264 262.013 287.028C262.312 286.79 262.537 286.467 262.69 286.059C262.845 285.651 262.923 285.192 262.923 284.682C262.923 284.178 262.847 283.726 262.695 283.325C262.545 282.924 262.32 282.607 262.018 282.375C261.72 282.143 261.347 282.027 260.9 282.027C260.469 282.027 260.104 282.138 259.806 282.36C259.511 282.582 259.287 282.892 259.135 283.29C258.982 283.687 258.906 284.152 258.906 284.682ZM269.307 288.654C268.591 288.654 267.966 288.49 267.432 288.162C266.899 287.834 266.485 287.375 266.19 286.785C265.895 286.195 265.747 285.505 265.747 284.717C265.747 283.924 265.895 283.232 266.19 282.638C266.485 282.045 266.899 281.585 267.432 281.256C267.966 280.928 268.591 280.764 269.307 280.764C270.023 280.764 270.647 280.928 271.181 281.256C271.715 281.585 272.129 282.045 272.424 282.638C272.719 283.232 272.866 283.924 272.866 284.717C272.866 285.505 272.719 286.195 272.424 286.785C272.129 287.375 271.715 287.834 271.181 288.162C270.647 288.49 270.023 288.654 269.307 288.654ZM269.312 287.406C269.776 287.406 270.16 287.284 270.465 287.038C270.77 286.793 270.995 286.467 271.141 286.059C271.29 285.651 271.365 285.202 271.365 284.712C271.365 284.224 271.29 283.777 271.141 283.369C270.995 282.958 270.77 282.629 270.465 282.38C270.16 282.131 269.776 282.007 269.312 282.007C268.844 282.007 268.457 282.131 268.148 282.38C267.843 282.629 267.616 282.958 267.467 283.369C267.321 283.777 267.248 284.224 267.248 284.712C267.248 285.202 267.321 285.651 267.467 286.059C267.616 286.467 267.843 286.793 268.148 287.038C268.457 287.284 268.844 287.406 269.312 287.406ZM274.526 288.5V280.864H275.962V282.077H276.042C276.181 281.666 276.426 281.343 276.778 281.107C277.132 280.869 277.533 280.749 277.981 280.749C278.074 280.749 278.183 280.753 278.309 280.759C278.438 280.766 278.539 280.774 278.612 280.784V282.206C278.553 282.189 278.447 282.171 278.294 282.151C278.142 282.128 277.989 282.116 277.837 282.116C277.485 282.116 277.172 282.191 276.897 282.34C276.625 282.486 276.41 282.69 276.251 282.952C276.092 283.21 276.012 283.505 276.012 283.837V288.5H274.526ZM283.915 280.864V282.057H279.743V280.864H283.915ZM280.862 279.034H282.348V286.258C282.348 286.546 282.392 286.763 282.478 286.909C282.564 287.052 282.675 287.149 282.811 287.202C282.95 287.252 283.101 287.277 283.263 287.277C283.383 287.277 283.487 287.269 283.576 287.252C283.666 287.236 283.736 287.222 283.785 287.212L284.054 288.44C283.968 288.473 283.845 288.507 283.686 288.54C283.527 288.576 283.328 288.596 283.089 288.599C282.698 288.606 282.334 288.536 281.995 288.391C281.657 288.245 281.384 288.019 281.175 287.714C280.966 287.41 280.862 287.027 280.862 286.566V279.034Z" fill="#393939"/>
<circle cx="236" cy="64" r="14.5" fill="white" stroke="url(#paint1_linear_1039_5193)"/>
<line y1="-0.5" x2="60" y2="-0.5" transform="matrix(0 1 1 0 236 0)" stroke="#3765C0"/>
<circle cx="105" cy="64" r="14.5" fill="white" stroke="url(#paint2_linear_1039_5193)"/>
<line y1="-0.5" x2="60" y2="-0.5" transform="matrix(0 1 1 0 105 0)" stroke="#3765C0"/>
<defs>
<linearGradient id="paint0_linear_1039_5193" x1="166" y1="43" x2="166" y2="327" gradientUnits="userSpaceOnUse">
<stop stop-color="#3765C0"/>
<stop offset="1" stop-color="#1A2F5A"/>
</linearGradient>
<linearGradient id="paint1_linear_1039_5193" x1="236" y1="49" x2="236" y2="79" gradientUnits="userSpaceOnUse">
<stop stop-color="white"/>
<stop offset="1" stop-color="#2B2189"/>
</linearGradient>
<linearGradient id="paint2_linear_1039_5193" x1="105" y1="49" x2="105" y2="79" gradientUnits="userSpaceOnUse">
<stop stop-color="white"/>
<stop offset="1" stop-color="#2B2189"/>
</linearGradient>
</defs>
</svg>
