<svg width="316" height="288" viewBox="0 0 316 288" fill="none" xmlns="http://www.w3.org/2000/svg">
<rect x="29" y="29" width="258" height="258" rx="129" stroke="#3765C0" stroke-width="2"/>
<path d="M172.625 119.792H143.375C133 119.792 130.708 124.959 129.375 131.292L124.667 153.834H191.333L186.625 131.292C185.292 124.959 183 119.792 172.625 119.792Z" stroke="#292D32" stroke-linecap="round" stroke-linejoin="round"/>
<path d="M199.625 190.583C200.083 195.458 196.167 199.667 191.167 199.667H183.333C178.833 199.667 178.208 197.75 177.417 195.375L176.583 192.875C175.417 189.458 174.667 187.167 168.667 187.167H147.333C141.333 187.167 140.458 189.75 139.417 192.875L138.583 195.375C137.792 197.75 137.167 199.667 132.667 199.667H124.833C119.833 199.667 115.917 195.458 116.375 190.583L118.708 165.208C119.292 158.958 120.5 153.833 131.417 153.833H184.583C195.5 153.833 196.708 158.958 197.292 165.208L199.625 190.583Z" stroke="#292D32" stroke-linecap="round" stroke-linejoin="round"/>
<path d="M124.667 141.333H120.5" stroke="#292D32" stroke-linecap="round" stroke-linejoin="round"/>
<path d="M195.5 141.333H191.333" stroke="#292D32" stroke-linecap="round" stroke-linejoin="round"/>
<path d="M158 120.5V128.833" stroke="#292D32" stroke-linecap="round" stroke-linejoin="round"/>
<path d="M151.75 128.833H164.25" stroke="#292D32" stroke-linecap="round" stroke-linejoin="round"/>
<path d="M133 170.5H145.5" stroke="#292D32" stroke-linecap="round" stroke-linejoin="round"/>
<path d="M170.5 170.5H183" stroke="#292D32" stroke-linecap="round" stroke-linejoin="round"/>
<rect width="56" height="56" transform="translate(0 130)" fill="white"/>
<g clip-path="url(#clip0_1039_4647)">
<rect width="36" height="36" transform="translate(10 130.5)" fill="white"/>
<path d="M38 160.5H16V138.5H29.22L31.22 136.5H16C15.4696 136.5 14.9609 136.711 14.5858 137.086C14.2107 137.461 14 137.97 14 138.5V160.5C14 161.03 14.2107 161.539 14.5858 161.914C14.9609 162.289 15.4696 162.5 16 162.5H38C38.5304 162.5 39.0391 162.289 39.4142 161.914C39.7893 161.539 40 161.03 40 160.5V145.5L38 147.5V160.5Z" fill="#393939"/>
<path d="M43.53 136.34L40.16 132.97C40.0104 132.82 39.8327 132.701 39.6371 132.62C39.4415 132.539 39.2318 132.497 39.02 132.497C38.8082 132.497 38.5984 132.539 38.4028 132.62C38.2072 132.701 38.0295 132.82 37.88 132.97L24.17 146.76L23.06 151.57C23.0127 151.803 23.0176 152.044 23.0745 152.275C23.1314 152.506 23.2388 152.721 23.3889 152.906C23.539 153.091 23.7282 153.239 23.9428 153.342C24.1574 153.445 24.3921 153.499 24.63 153.5C24.7529 153.513 24.877 153.513 25 153.5L29.85 152.43L43.53 138.62C43.6799 138.47 43.7989 138.293 43.8801 138.097C43.9613 137.901 44.0031 137.692 44.0031 137.48C44.0031 137.268 43.9613 137.058 43.8801 136.863C43.7989 136.667 43.6799 136.49 43.53 136.34ZM28.81 150.58L25.15 151.39L26 147.76L36.32 137.37L39.14 140.19L28.81 150.58ZM40.27 139.06L37.45 136.24L39 134.66L41.84 137.5L40.27 139.06Z" fill="#393939"/>
</g>
<path d="M16.9338 182.5V173.773H19.8826C20.5673 173.773 21.127 173.896 21.5616 174.143C21.9991 174.388 22.323 174.719 22.5332 175.136C22.7434 175.554 22.8485 176.02 22.8485 176.534C22.8485 177.048 22.7434 177.516 22.5332 177.936C22.3258 178.357 22.0048 178.692 21.5701 178.942C21.1355 179.189 20.5787 179.312 19.8997 179.312H17.786V178.375H19.8656C20.3343 178.375 20.7108 178.294 20.9949 178.132C21.2789 177.97 21.4849 177.751 21.6127 177.476C21.7434 177.197 21.8088 176.884 21.8088 176.534C21.8088 176.185 21.7434 175.872 21.6127 175.597C21.4849 175.321 21.2775 175.105 20.9906 174.949C20.7037 174.79 20.323 174.71 19.8485 174.71H17.9906V182.5H16.9338ZM25.4203 173.773V182.5H24.4146V173.773H25.4203ZM29.1884 182.653C28.7736 182.653 28.3972 182.575 28.0591 182.419C27.7211 182.26 27.4526 182.031 27.2537 181.733C27.0549 181.432 26.9554 181.068 26.9554 180.642C26.9554 180.267 27.0293 179.963 27.177 179.73C27.3248 179.494 27.5222 179.31 27.7694 179.176C28.0165 179.043 28.2892 178.943 28.5875 178.878C28.8887 178.81 29.1912 178.756 29.4952 178.716C29.8929 178.665 30.2154 178.626 30.4625 178.601C30.7125 178.572 30.8944 178.526 31.008 178.46C31.1245 178.395 31.1827 178.281 31.1827 178.119V178.085C31.1827 177.665 31.0676 177.338 30.8375 177.105C30.6103 176.872 30.2651 176.756 29.802 176.756C29.3219 176.756 28.9455 176.861 28.6728 177.071C28.4 177.281 28.2083 177.506 28.0975 177.744L27.1429 177.403C27.3134 177.006 27.5407 176.696 27.8248 176.474C28.1117 176.25 28.4242 176.094 28.7623 176.006C29.1032 175.915 29.4384 175.869 29.7679 175.869C29.9782 175.869 30.2196 175.895 30.4924 175.946C30.7679 175.994 31.0336 176.095 31.2892 176.249C31.5478 176.402 31.7623 176.634 31.9327 176.943C32.1032 177.253 32.1884 177.668 32.1884 178.188V182.5H31.1827V181.614H31.1316C31.0634 181.756 30.9498 181.908 30.7907 182.07C30.6316 182.232 30.4199 182.369 30.1557 182.483C29.8915 182.597 29.5691 182.653 29.1884 182.653ZM29.3418 181.75C29.7395 181.75 30.0748 181.672 30.3475 181.516C30.623 181.359 30.8304 181.158 30.9696 180.911C31.1117 180.663 31.1827 180.403 31.1827 180.131V179.21C31.1401 179.261 31.0463 179.308 30.9015 179.351C30.7594 179.391 30.5946 179.426 30.4071 179.457C30.2225 179.486 30.0421 179.511 29.8659 179.534C29.6926 179.554 29.552 179.571 29.4441 179.585C29.1827 179.619 28.9384 179.675 28.7111 179.751C28.4867 179.825 28.3049 179.937 28.1657 180.088C28.0293 180.236 27.9611 180.437 27.9611 180.693C27.9611 181.043 28.0904 181.307 28.3489 181.486C28.6103 181.662 28.9412 181.75 29.3418 181.75ZM35.0297 178.562V182.5H34.024V175.955H34.9956V176.977H35.0808C35.2342 176.645 35.4672 176.378 35.7797 176.176C36.0922 175.972 36.4956 175.869 36.9899 175.869C37.4331 175.869 37.8208 175.96 38.1532 176.142C38.4856 176.321 38.7441 176.594 38.9288 176.96C39.1135 177.324 39.2058 177.784 39.2058 178.341V182.5H38.2001V178.409C38.2001 177.895 38.0666 177.494 37.7995 177.207C37.5325 176.918 37.166 176.773 36.7001 176.773C36.3791 176.773 36.0922 176.842 35.8393 176.982C35.5893 177.121 35.3919 177.324 35.247 177.591C35.1021 177.858 35.0297 178.182 35.0297 178.562Z" fill="#393939"/>
<rect width="56" height="56" transform="translate(260 135)" fill="white"/>
<path d="M287.42 156.668L293.25 162.498C293.75 162.982 294.421 163.25 295.117 163.244C295.812 163.238 296.478 162.959 296.97 162.467C297.462 161.975 297.741 161.31 297.747 160.614C297.753 159.918 297.485 159.248 297 158.748L291.123 152.871M287.42 156.668L289.916 153.638C290.233 153.254 290.656 153.012 291.124 152.872C291.674 152.708 292.287 152.684 292.867 152.732C293.649 152.799 294.435 152.66 295.147 152.33C295.859 152 296.472 151.489 296.925 150.848C297.379 150.208 297.657 149.46 297.732 148.679C297.807 147.898 297.677 147.111 297.353 146.396L294.077 149.673C293.529 149.546 293.028 149.268 292.63 148.87C292.232 148.472 291.954 147.971 291.827 147.423L295.103 144.147C294.388 143.824 293.601 143.693 292.82 143.768C292.039 143.843 291.291 144.121 290.651 144.575C290.01 145.028 289.5 145.641 289.169 146.353C288.839 147.065 288.7 147.851 288.767 148.633C288.858 149.709 288.696 150.897 287.863 151.583L287.761 151.668M287.42 156.668L282.765 162.321C282.54 162.596 282.259 162.82 281.941 162.98C281.624 163.14 281.276 163.232 280.921 163.249C280.566 163.267 280.211 163.21 279.879 163.082C279.547 162.954 279.245 162.758 278.994 162.506C278.742 162.255 278.546 161.953 278.418 161.621C278.29 161.29 278.233 160.935 278.251 160.579C278.268 160.224 278.36 159.876 278.52 159.559C278.68 159.241 278.904 158.96 279.179 158.735L286.016 153.105L281.909 148.998H280.5L278.25 145.248L279.75 143.748L283.5 145.998V147.407L287.76 151.667L286.015 153.104M294.375 159.873L291.75 157.248M280.867 160.623H280.875V160.631H280.867V160.623Z" stroke="#393939" stroke-width="1.5" stroke-linecap="round" stroke-linejoin="round"/>
<path d="M271.069 187.5V178.773H274.017C274.699 178.773 275.259 178.889 275.696 179.122C276.134 179.352 276.458 179.669 276.668 180.072C276.878 180.476 276.983 180.935 276.983 181.449C276.983 181.963 276.878 182.419 276.668 182.817C276.458 183.214 276.135 183.527 275.701 183.754C275.266 183.979 274.711 184.091 274.034 184.091H271.648V183.136H274C274.466 183.136 274.841 183.068 275.125 182.932C275.412 182.795 275.62 182.602 275.748 182.352C275.878 182.099 275.944 181.798 275.944 181.449C275.944 181.099 275.878 180.794 275.748 180.533C275.617 180.271 275.408 180.07 275.121 179.928C274.834 179.783 274.455 179.71 273.983 179.71H272.125V187.5H271.069ZM275.176 183.58L277.324 187.5H276.097L273.983 183.58H275.176ZM281.282 187.636C280.651 187.636 280.107 187.497 279.65 187.219C279.195 186.938 278.844 186.545 278.597 186.043C278.353 185.537 278.231 184.949 278.231 184.278C278.231 183.608 278.353 183.017 278.597 182.506C278.844 181.991 279.188 181.591 279.629 181.304C280.072 181.014 280.589 180.869 281.18 180.869C281.521 180.869 281.857 180.926 282.19 181.04C282.522 181.153 282.825 181.338 283.097 181.594C283.37 181.847 283.587 182.182 283.749 182.599C283.911 183.017 283.992 183.531 283.992 184.142V184.568H278.947V183.699H282.969C282.969 183.33 282.896 183 282.748 182.71C282.603 182.42 282.396 182.192 282.126 182.024C281.859 181.857 281.543 181.773 281.18 181.773C280.779 181.773 280.433 181.872 280.14 182.071C279.85 182.267 279.627 182.523 279.471 182.838C279.315 183.153 279.237 183.491 279.237 183.852V184.432C279.237 184.926 279.322 185.345 279.492 185.689C279.665 186.03 279.906 186.29 280.212 186.469C280.519 186.645 280.876 186.733 281.282 186.733C281.546 186.733 281.785 186.696 281.998 186.622C282.214 186.545 282.4 186.432 282.556 186.281C282.712 186.128 282.833 185.937 282.918 185.71L283.89 185.983C283.788 186.312 283.616 186.602 283.374 186.852C283.133 187.099 282.835 187.293 282.479 187.432C282.124 187.568 281.725 187.636 281.282 187.636ZM285.522 189.955V180.955H286.494V181.994H286.613C286.687 181.881 286.789 181.736 286.92 181.56C287.053 181.381 287.244 181.222 287.491 181.082C287.741 180.94 288.079 180.869 288.505 180.869C289.056 180.869 289.542 181.007 289.962 181.283C290.383 181.558 290.711 181.949 290.947 182.455C291.183 182.96 291.3 183.557 291.3 184.244C291.3 184.938 291.183 185.538 290.947 186.047C290.711 186.553 290.384 186.945 289.967 187.223C289.549 187.499 289.067 187.636 288.522 187.636C288.102 187.636 287.765 187.567 287.512 187.428C287.259 187.286 287.065 187.125 286.928 186.946C286.792 186.764 286.687 186.614 286.613 186.494H286.528V189.955H285.522ZM286.511 184.227C286.511 184.722 286.583 185.158 286.728 185.536C286.873 185.911 287.085 186.205 287.363 186.418C287.641 186.628 287.982 186.733 288.386 186.733C288.806 186.733 289.157 186.622 289.438 186.401C289.722 186.176 289.935 185.875 290.077 185.497C290.222 185.116 290.295 184.693 290.295 184.227C290.295 183.767 290.224 183.352 290.082 182.983C289.942 182.611 289.731 182.317 289.447 182.101C289.165 181.882 288.812 181.773 288.386 181.773C287.977 181.773 287.633 181.876 287.354 182.084C287.076 182.288 286.866 182.575 286.724 182.945C286.582 183.311 286.511 183.739 286.511 184.227ZM294.761 187.653C294.346 187.653 293.969 187.575 293.631 187.419C293.293 187.26 293.025 187.031 292.826 186.733C292.627 186.432 292.528 186.068 292.528 185.642C292.528 185.267 292.602 184.963 292.749 184.73C292.897 184.494 293.094 184.31 293.342 184.176C293.589 184.043 293.862 183.943 294.16 183.878C294.461 183.81 294.763 183.756 295.067 183.716C295.465 183.665 295.788 183.626 296.035 183.601C296.285 183.572 296.467 183.526 296.58 183.46C296.697 183.395 296.755 183.281 296.755 183.119V183.085C296.755 182.665 296.64 182.338 296.41 182.105C296.183 181.872 295.837 181.756 295.374 181.756C294.894 181.756 294.518 181.861 294.245 182.071C293.972 182.281 293.781 182.506 293.67 182.744L292.715 182.403C292.886 182.006 293.113 181.696 293.397 181.474C293.684 181.25 293.996 181.094 294.335 181.006C294.675 180.915 295.011 180.869 295.34 180.869C295.55 180.869 295.792 180.895 296.065 180.946C296.34 180.994 296.606 181.095 296.862 181.249C297.12 181.402 297.335 181.634 297.505 181.943C297.675 182.253 297.761 182.668 297.761 183.188V187.5H296.755V186.614H296.704C296.636 186.756 296.522 186.908 296.363 187.07C296.204 187.232 295.992 187.369 295.728 187.483C295.464 187.597 295.141 187.653 294.761 187.653ZM294.914 186.75C295.312 186.75 295.647 186.672 295.92 186.516C296.195 186.359 296.403 186.158 296.542 185.911C296.684 185.663 296.755 185.403 296.755 185.131V184.21C296.712 184.261 296.619 184.308 296.474 184.351C296.332 184.391 296.167 184.426 295.979 184.457C295.795 184.486 295.614 184.511 295.438 184.534C295.265 184.554 295.124 184.571 295.016 184.585C294.755 184.619 294.511 184.675 294.283 184.751C294.059 184.825 293.877 184.937 293.738 185.088C293.602 185.236 293.533 185.437 293.533 185.693C293.533 186.043 293.663 186.307 293.921 186.486C294.183 186.662 294.513 186.75 294.914 186.75ZM299.596 187.5V180.955H300.602V187.5H299.596ZM300.108 179.864C299.912 179.864 299.743 179.797 299.6 179.663C299.461 179.53 299.392 179.369 299.392 179.182C299.392 178.994 299.461 178.834 299.6 178.7C299.743 178.567 299.912 178.5 300.108 178.5C300.304 178.5 300.471 178.567 300.61 178.7C300.752 178.834 300.824 178.994 300.824 179.182C300.824 179.369 300.752 179.53 300.61 179.663C300.471 179.797 300.304 179.864 300.108 179.864ZM302.444 187.5V180.955H303.415V181.943H303.484C303.603 181.619 303.819 181.357 304.131 181.155C304.444 180.953 304.796 180.852 305.188 180.852C305.262 180.852 305.354 180.854 305.465 180.857C305.576 180.859 305.66 180.864 305.717 180.869V181.892C305.683 181.884 305.604 181.871 305.482 181.854C305.363 181.834 305.237 181.824 305.103 181.824C304.785 181.824 304.501 181.891 304.251 182.024C304.004 182.155 303.808 182.337 303.663 182.57C303.521 182.8 303.45 183.062 303.45 183.358V187.5H302.444Z" fill="#393939"/>
<rect width="56" height="56" transform="translate(130)" fill="white"/>
<path d="M152.375 10.625V12.875H154.625V15.125H148.507L146.574 12.2416L146.221 11.75H141.125V18.149L146.75 20.399V28.625H163.097L163.415 28.1323L173.188 14H174.875V11.75H171.113L170.832 11.9615L163.625 17.375V15.125H156.875V12.875H159.125V10.625H152.375ZM143.375 14H144.993L146.75 16.637V17.9375L143.375 16.601V14ZM169.004 16.1802L161.938 26.375H149V17.375H161.375V21.875L163.168 20.5385L169.004 16.1802ZM173.188 18.5C173.188 18.5 171.5 21.506 171.5 22.4375C171.5 22.8851 171.678 23.3143 171.994 23.6307C172.311 23.9472 172.74 24.125 173.188 24.125C173.635 24.125 174.064 23.9472 174.381 23.6307C174.697 23.3143 174.875 22.8851 174.875 22.4375C174.875 21.506 173.188 18.5 173.188 18.5Z" fill="#393939"/>
<path d="M142.841 44.7102V43.7727H149.387V44.7102H146.642V52.5H145.586V44.7102H142.841ZM150.202 52.5V45.9545H151.173V46.9432H151.241C151.361 46.6193 151.577 46.3565 151.889 46.1548C152.202 45.9531 152.554 45.8523 152.946 45.8523C153.02 45.8523 153.112 45.8537 153.223 45.8565C153.334 45.8594 153.418 45.8636 153.474 45.8693V46.892C153.44 46.8835 153.362 46.8707 153.24 46.8537C153.121 46.8338 152.994 46.8239 152.861 46.8239C152.543 46.8239 152.259 46.8906 152.009 47.0241C151.761 47.1548 151.565 47.3366 151.42 47.5696C151.278 47.7997 151.207 48.0625 151.207 48.358V52.5H150.202ZM156.593 52.6534C156.178 52.6534 155.801 52.5753 155.463 52.419C155.125 52.2599 154.857 52.0312 154.658 51.733C154.459 51.4318 154.36 51.0682 154.36 50.642C154.36 50.267 154.434 49.9631 154.581 49.7301C154.729 49.4943 154.926 49.3097 155.174 49.1761C155.421 49.0426 155.694 48.9432 155.992 48.8778C156.293 48.8097 156.596 48.7557 156.9 48.7159C157.297 48.6648 157.62 48.6264 157.867 48.6009C158.117 48.5724 158.299 48.5256 158.412 48.4602C158.529 48.3949 158.587 48.2812 158.587 48.1193V48.0852C158.587 47.6648 158.472 47.3381 158.242 47.1051C158.015 46.8722 157.669 46.7557 157.206 46.7557C156.726 46.7557 156.35 46.8608 156.077 47.071C155.804 47.2812 155.613 47.5057 155.502 47.7443L154.547 47.4034C154.718 47.0057 154.945 46.696 155.229 46.4744C155.516 46.25 155.828 46.0937 156.167 46.0057C156.507 45.9148 156.843 45.8693 157.172 45.8693C157.382 45.8693 157.624 45.8949 157.897 45.946C158.172 45.9943 158.438 46.0952 158.694 46.2486C158.952 46.402 159.167 46.6335 159.337 46.9432C159.507 47.2528 159.593 47.6676 159.593 48.1875V52.5H158.587V51.6136H158.536C158.468 51.7557 158.354 51.9077 158.195 52.0696C158.036 52.2315 157.824 52.3693 157.56 52.483C157.296 52.5966 156.973 52.6534 156.593 52.6534ZM156.746 51.75C157.144 51.75 157.479 51.6719 157.752 51.5156C158.027 51.3594 158.235 51.1577 158.374 50.9105C158.516 50.6634 158.587 50.4034 158.587 50.1307V49.2102C158.544 49.2614 158.451 49.3082 158.306 49.3509C158.164 49.3906 157.999 49.4261 157.811 49.4574C157.627 49.4858 157.446 49.5114 157.27 49.5341C157.097 49.554 156.956 49.571 156.848 49.5852C156.587 49.6193 156.343 49.6747 156.115 49.7514C155.891 49.8253 155.709 49.9375 155.57 50.0881C155.434 50.2358 155.365 50.4375 155.365 50.6932C155.365 51.0426 155.495 51.3068 155.753 51.4858C156.015 51.6619 156.346 51.75 156.746 51.75ZM164.087 52.6364C163.474 52.6364 162.945 52.4915 162.502 52.2017C162.059 51.9119 161.718 51.5128 161.479 51.0043C161.241 50.4957 161.121 49.9148 161.121 49.2614C161.121 48.5966 161.244 48.0099 161.488 47.5014C161.735 46.9901 162.079 46.5909 162.519 46.304C162.962 46.0142 163.479 45.8693 164.07 45.8693C164.531 45.8693 164.945 45.9545 165.315 46.125C165.684 46.2955 165.987 46.5341 166.222 46.8409C166.458 47.1477 166.604 47.5057 166.661 47.9148H165.656C165.579 47.6165 165.408 47.3523 165.144 47.1222C164.883 46.8892 164.531 46.7727 164.087 46.7727C163.695 46.7727 163.352 46.875 163.056 47.0795C162.763 47.2812 162.535 47.5668 162.37 47.9361C162.208 48.3026 162.127 48.733 162.127 49.2273C162.127 49.733 162.207 50.1733 162.366 50.5483C162.528 50.9233 162.755 51.2145 163.048 51.4219C163.343 51.6293 163.69 51.733 164.087 51.733C164.349 51.733 164.586 51.6875 164.799 51.5966C165.012 51.5057 165.192 51.375 165.34 51.2045C165.488 51.0341 165.593 50.8295 165.656 50.5909H166.661C166.604 50.9773 166.464 51.3253 166.239 51.6349C166.018 51.9418 165.724 52.1861 165.357 52.3679C164.994 52.5469 164.57 52.6364 164.087 52.6364ZM169.069 50.1136L169.052 48.8693H169.256L172.12 45.9545H173.364L170.313 49.0398H170.228L169.069 50.1136ZM168.131 52.5V43.7727H169.137V52.5H168.131ZM172.29 52.5L169.734 49.2614L170.45 48.5625L173.569 52.5H172.29Z" fill="#393939"/>
<defs>
<clipPath id="clip0_1039_4647">
<rect width="36" height="36" fill="white" transform="translate(10 130.5)"/>
</clipPath>
</defs>
</svg>
