<svg width="316" height="288" viewBox="0 0 316 288" fill="none" xmlns="http://www.w3.org/2000/svg">
<rect x="29" y="29" width="258" height="258" rx="129" stroke="#9E4AC6" stroke-width="2"/>
<path d="M139.544 172.068C146.151 158.617 149.455 151.891 154.21 150.289C156.671 149.459 159.329 149.459 161.79 150.289C166.545 151.891 169.849 158.617 176.456 172.068L180.117 179.522C181.824 182.997 182.677 184.734 182.879 185.918C183.717 190.829 180.084 195.356 175.189 195.498C174.009 195.533 172.167 195.028 168.482 194.018C166.375 193.441 165.322 193.152 164.27 192.939C160.13 192.101 155.87 192.101 151.73 192.939C150.677 193.152 149.624 193.441 147.519 194.018C143.833 195.028 141.991 195.533 140.811 195.498C135.916 195.356 132.282 190.829 133.121 185.918C133.323 184.734 134.176 182.997 135.883 179.522L139.544 172.068Z" stroke="#1C274C"/>
<path d="M133.603 131.031C135.319 137.826 140.171 142.35 144.44 141.136C148.709 139.923 150.779 133.43 149.063 126.636C147.348 119.841 142.496 115.316 138.226 116.53C133.957 117.744 131.887 124.236 133.603 131.031Z" stroke="#1C274C"/>
<path d="M182.397 131.031C180.681 137.826 175.829 142.35 171.56 141.136C167.29 139.923 165.221 133.43 166.937 126.636C168.653 119.841 173.504 115.316 177.774 116.53C182.043 117.744 184.113 124.236 182.397 131.031Z" stroke="#1C274C"/>
<path d="M117.174 159.238C119.049 164.259 123.457 167.309 127.02 166.05C130.583 164.791 131.952 159.7 130.077 154.679C128.202 149.658 123.793 146.608 120.23 147.867C116.667 149.126 115.299 154.217 117.174 159.238Z" stroke="#1C274C"/>
<path d="M198.826 159.238C196.951 164.259 192.543 167.309 188.98 166.05C185.417 164.791 184.049 159.7 185.924 154.679C187.799 149.658 192.207 146.608 195.77 147.867C199.333 149.126 200.701 154.217 198.826 159.238Z" stroke="#1C274C"/>
<rect width="56" height="56" transform="translate(0 130)" fill="white"/>
<path d="M39.281 145.591L39.7452 145.558C42.5394 145.357 44.1871 142.226 42.6747 139.784C42.6747 139.784 42.6746 139.784 42.6746 139.783L41.6959 138.204L41.6958 138.204C41.3566 137.656 40.8829 137.203 40.3198 136.89C39.7567 136.576 39.1228 136.411 38.4782 136.411H35.8322H35.3322V135.911V134.825V134.824C35.3324 134.617 35.2919 134.413 35.213 134.222C35.1341 134.031 35.0183 133.857 34.8723 133.711C34.7263 133.565 34.5529 133.449 34.362 133.37C34.1712 133.291 33.9666 133.25 33.76 133.25C32.5881 133.25 31.4642 133.716 30.6356 134.544C29.807 135.373 29.3415 136.497 29.3415 137.669V144.275V144.722L28.8972 144.771C26.5748 145.032 24.8112 146.148 23.5064 147.717L23.5061 147.718C22.0292 149.491 21.1485 151.819 20.6169 154.088C20.1602 156.137 19.9006 158.224 19.8418 160.322L19.8417 160.325C19.8195 160.972 19.8195 161.54 19.8239 161.995L19.8289 162.5H19.324H18.1923C18.1923 162.5 18.1922 162.5 18.1922 162.5C17.3747 162.5 16.575 162.261 15.8914 161.813C15.2078 161.365 14.6701 160.726 14.3445 159.976C14.0188 159.227 13.9193 158.398 14.0583 157.592C14.1973 156.787 14.5687 156.039 15.1267 155.442L15.1265 155.442L39.281 145.591ZM39.281 145.591V146.057M39.281 145.591V146.057M39.281 146.057V160.753C39.281 162.408 37.9406 163.75 36.2867 163.75H18.1906M39.281 146.057L18.1906 163.75M39.4561 144.318C39.9087 144.319 40.3533 144.198 40.7438 143.969C41.1342 143.74 41.4562 143.411 41.6764 143.015C41.8965 142.62 42.0069 142.173 41.9959 141.72C41.985 141.268 41.8531 140.826 41.614 140.442L40.6357 138.863L40.6353 138.863C40.171 138.116 39.356 137.661 38.4782 137.661H34.7072C34.5414 137.661 34.3825 137.595 34.2653 137.478C34.1481 137.361 34.0822 137.202 34.0822 137.036V135.007V134.473L33.5499 134.508C31.8976 134.615 30.5915 135.991 30.5915 137.669V145.339C30.5915 145.505 30.5256 145.663 30.4084 145.781C30.2912 145.898 30.1322 145.964 29.9665 145.964C27.5006 145.964 25.7467 146.979 24.4659 148.517M39.4561 144.318L39.457 143.818V144.318H39.4561ZM39.4561 144.318H38.6582C38.4924 144.318 38.3335 144.384 38.2163 144.501C38.0991 144.618 38.0332 144.777 38.0332 144.943V160.753C38.0332 161.217 37.8492 161.661 37.5217 161.988C37.1941 162.316 36.7499 162.5 36.2867 162.5H35.0425H34.5425V162V160.753V160.753C34.5427 160.048 34.4041 159.351 34.1346 158.699C33.8651 158.048 33.4699 157.456 32.9716 156.958C32.4733 156.459 31.8817 156.064 31.2306 155.794C30.5794 155.524 29.8815 155.385 29.1767 155.385H27.2012C27.0354 155.385 26.8765 155.451 26.7593 155.569C26.6421 155.686 26.5762 155.845 26.5762 156.01C26.5762 156.176 26.6421 156.335 26.7593 156.452C26.8765 156.57 27.0355 156.635 27.2012 156.635H29.1767C31.4488 156.635 33.2925 158.48 33.2925 160.753V162V162.5H32.7925H21.574H21.0817L21.074 162.008C21.0671 161.566 21.0695 161.009 21.09 160.366L21.09 160.366C21.1446 158.722 21.3291 156.542 21.834 154.374L21.834 154.374C22.342 152.195 23.1645 150.078 24.4659 148.517M24.4659 148.517C24.4658 148.517 24.4658 148.518 24.4657 148.518L24.8494 148.837L24.4659 148.517ZM18.1906 163.75C17.1303 163.749 16.0934 163.438 15.2072 162.856C14.3209 162.273 13.6239 161.445 13.2016 160.473C12.7793 159.5 12.6501 158.425 12.8298 157.38C13.0094 156.335 13.4902 155.366 14.213 154.59L18.1906 163.75ZM16.9197 153.519L15.1269 155.442L14.2132 154.59L16.0085 152.666L16.0085 152.666C16.9628 151.644 17.4827 150.29 17.4586 148.892C17.4346 147.493 16.8684 146.159 15.8796 145.17L15.8795 145.17L14.1178 143.408L14.1178 143.408L14.1116 143.402C14.0519 143.344 14.0043 143.275 13.9715 143.199C13.9387 143.123 13.9215 143.041 13.9208 142.958C13.9201 142.875 13.9359 142.792 13.9673 142.716C13.9987 142.639 14.0451 142.569 14.1038 142.51C14.1625 142.452 14.2323 142.405 14.3091 142.374C14.3859 142.342 14.4682 142.327 14.5512 142.327C14.6342 142.328 14.7162 142.345 14.7924 142.378C14.8687 142.411 14.9377 142.458 14.9953 142.518L14.9953 142.518L15.0012 142.524L16.7607 144.286L16.7607 144.286C17.9781 145.504 18.675 147.148 18.7047 148.87C18.7343 150.592 18.0944 152.259 16.9198 153.519L16.9197 153.519Z" stroke="#393939"/>
<path d="M15.0646 182.5V173.773H20.2976V174.71H16.1214V177.659H19.9055V178.597H16.1214V182.5H15.0646ZM24.2351 182.636C23.6044 182.636 23.0604 182.497 22.603 182.219C22.1484 181.938 21.7976 181.545 21.5504 181.043C21.3061 180.537 21.1839 179.949 21.1839 179.278C21.1839 178.608 21.3061 178.017 21.5504 177.506C21.7976 176.991 22.1413 176.591 22.5817 176.304C23.0249 176.014 23.5419 175.869 24.1328 175.869C24.4737 175.869 24.8104 175.926 25.1428 176.04C25.4751 176.153 25.7777 176.338 26.0504 176.594C26.3232 176.847 26.5405 177.182 26.7024 177.599C26.8643 178.017 26.9453 178.531 26.9453 179.142V179.568H21.8999V178.699H25.9226C25.9226 178.33 25.8487 178 25.701 177.71C25.5561 177.42 25.3487 177.192 25.0788 177.024C24.8118 176.857 24.4964 176.773 24.1328 176.773C23.7322 176.773 23.3857 176.872 23.093 177.071C22.8033 177.267 22.5803 177.523 22.424 177.838C22.2678 178.153 22.1896 178.491 22.1896 178.852V179.432C22.1896 179.926 22.2749 180.345 22.4453 180.689C22.6186 181.03 22.8587 181.29 23.1655 181.469C23.4723 181.645 23.8288 181.733 24.2351 181.733C24.4993 181.733 24.7379 181.696 24.951 181.622C25.1669 181.545 25.353 181.432 25.5092 181.281C25.6655 181.128 25.7862 180.937 25.8714 180.71L26.843 180.983C26.7408 181.312 26.5689 181.602 26.3274 181.852C26.0859 182.099 25.7876 182.293 25.4325 182.432C25.0774 182.568 24.6783 182.636 24.2351 182.636ZM31.2195 182.636C30.5888 182.636 30.0447 182.497 29.5874 182.219C29.1328 181.938 28.782 181.545 28.5348 181.043C28.2905 180.537 28.1683 179.949 28.1683 179.278C28.1683 178.608 28.2905 178.017 28.5348 177.506C28.782 176.991 29.1257 176.591 29.5661 176.304C30.0092 176.014 30.5263 175.869 31.1172 175.869C31.4581 175.869 31.7947 175.926 32.1271 176.04C32.4595 176.153 32.7621 176.338 33.0348 176.594C33.3075 176.847 33.5249 177.182 33.6868 177.599C33.8487 178.017 33.9297 178.531 33.9297 179.142V179.568H28.8842V178.699H32.907C32.907 178.33 32.8331 178 32.6854 177.71C32.5405 177.42 32.3331 177.192 32.0632 177.024C31.7962 176.857 31.4808 176.773 31.1172 176.773C30.7166 176.773 30.37 176.872 30.0774 177.071C29.7876 177.267 29.5646 177.523 29.4084 177.838C29.2521 178.153 29.174 178.491 29.174 178.852V179.432C29.174 179.926 29.2592 180.345 29.4297 180.689C29.603 181.03 29.843 181.29 30.1499 181.469C30.4567 181.645 30.8132 181.733 31.2195 181.733C31.4837 181.733 31.7223 181.696 31.9354 181.622C32.1513 181.545 32.3374 181.432 32.4936 181.281C32.6499 181.128 32.7706 180.937 32.8558 180.71L33.8274 180.983C33.7251 181.312 33.5533 181.602 33.3118 181.852C33.0703 182.099 32.772 182.293 32.4169 182.432C32.0618 182.568 31.6626 182.636 31.2195 182.636ZM37.9311 182.636C37.3857 182.636 36.9041 182.499 36.4865 182.223C36.0689 181.945 35.7422 181.553 35.5064 181.047C35.2706 180.538 35.1527 179.938 35.1527 179.244C35.1527 178.557 35.2706 177.96 35.5064 177.455C35.7422 176.949 36.0703 176.558 36.4908 176.283C36.9112 176.007 37.397 175.869 37.9482 175.869C38.3743 175.869 38.7109 175.94 38.9581 176.082C39.2081 176.222 39.3984 176.381 39.5291 176.56C39.6626 176.736 39.7663 176.881 39.8402 176.994H39.9254V173.773H40.9311V182.5H39.9595V181.494H39.8402C39.7663 181.614 39.6612 181.764 39.5249 181.946C39.3885 182.125 39.1939 182.286 38.9411 182.428C38.6882 182.567 38.3516 182.636 37.9311 182.636ZM38.0675 181.733C38.4709 181.733 38.8118 181.628 39.0902 181.418C39.3686 181.205 39.5803 180.911 39.7251 180.536C39.87 180.158 39.9425 179.722 39.9425 179.227C39.9425 178.739 39.8714 178.311 39.7294 177.945C39.5874 177.575 39.3771 177.288 39.0987 177.084C38.8203 176.876 38.4766 176.773 38.0675 176.773C37.6413 176.773 37.2862 176.882 37.0021 177.101C36.7209 177.317 36.5092 177.611 36.3672 177.983C36.228 178.352 36.1584 178.767 36.1584 179.227C36.1584 179.693 36.2294 180.116 36.3714 180.497C36.5163 180.875 36.7294 181.176 37.0107 181.401C37.2947 181.622 37.647 181.733 38.0675 181.733Z" fill="#393939"/>
<rect width="56" height="56" transform="translate(260 130)" fill="white"/>
<path fill-rule="evenodd" clip-rule="evenodd" d="M296.888 142.687C297.445 143.302 297.274 144.244 296.596 144.72L292.942 147.283C292.264 147.759 291.337 147.567 290.667 147.081C289.913 146.532 289.008 146.229 288.076 146.214C287.143 146.199 286.229 146.471 285.457 146.994C284.77 147.458 283.838 147.619 283.177 147.121L279.609 144.438C278.947 143.94 278.808 142.991 279.385 142.396C280.527 141.219 281.898 140.287 283.414 139.661C284.931 139.034 286.559 138.724 288.2 138.752C289.84 138.779 291.457 139.142 292.952 139.82C294.446 140.497 295.786 141.472 296.888 142.687ZM295.647 143.555C294.685 142.533 293.529 141.714 292.245 141.147C290.962 140.58 289.578 140.275 288.175 140.252C286.772 140.229 285.378 140.487 284.077 141.011C282.775 141.535 281.592 142.315 280.597 143.305L284.075 145.921C284.107 145.928 284.14 145.93 284.173 145.925C284.29 145.915 284.455 145.861 284.615 145.753C285.675 145.035 286.936 144.672 288.215 144.718C288.244 144.656 288.282 144.599 288.327 144.548L290.386 142.18C290.517 142.029 290.702 141.937 290.9 141.923C291.099 141.909 291.294 141.975 291.445 142.105C291.595 142.236 291.687 142.421 291.701 142.619C291.715 142.818 291.649 143.013 291.519 143.164L289.903 145.022C290.492 145.218 291.047 145.503 291.549 145.867C291.705 145.981 291.868 146.04 291.985 146.055C292.042 146.062 292.072 146.057 292.083 146.054L295.647 143.555ZM292.09 146.052L292.083 146.054C292.086 146.052 292.089 146.051 292.09 146.052ZM284.069 145.918C284.069 145.918 284.071 145.918 284.075 145.921L284.069 145.918Z" fill="#393939"/>
<path fill-rule="evenodd" clip-rule="evenodd" d="M297.162 162C297.929 162 298.666 161.706 299.223 161.179C299.781 160.652 300.115 159.932 300.157 159.167L301.324 138.167C301.347 137.759 301.286 137.351 301.146 136.968C301.006 136.585 300.789 136.235 300.508 135.938C300.228 135.642 299.89 135.406 299.515 135.245C299.14 135.083 298.737 135 298.329 135H277.671C277.263 135 276.859 135.083 276.485 135.245C276.11 135.406 275.772 135.642 275.492 135.939C275.211 136.235 274.995 136.585 274.854 136.968C274.714 137.352 274.653 137.759 274.676 138.167L275.842 159.167C275.885 159.932 276.219 160.652 276.776 161.179C277.333 161.706 278.071 162 278.838 162H297.162ZM278.838 160.5H297.162C297.545 160.5 297.914 160.353 298.193 160.089C298.471 159.826 298.638 159.465 298.66 159.083L299.827 138.082C299.838 137.879 299.807 137.675 299.737 137.484C299.667 137.292 299.558 137.117 299.418 136.969C299.278 136.821 299.109 136.703 298.922 136.622C298.734 136.542 298.533 136.5 298.329 136.5H277.671C277.467 136.5 277.265 136.542 277.078 136.622C276.89 136.703 276.721 136.821 276.581 136.969C276.441 137.117 276.333 137.292 276.262 137.484C276.192 137.675 276.162 137.879 276.173 138.082L277.34 159.083C277.361 159.465 277.528 159.826 277.807 160.089C278.085 160.353 278.454 160.5 278.838 160.5Z" fill="#393939"/>
<path d="M275.308 176.5H274.251C274.189 176.196 274.079 175.929 273.923 175.699C273.77 175.469 273.582 175.276 273.361 175.119C273.142 174.96 272.899 174.841 272.632 174.761C272.365 174.682 272.086 174.642 271.797 174.642C271.268 174.642 270.79 174.776 270.361 175.043C269.934 175.31 269.595 175.703 269.342 176.223C269.092 176.743 268.967 177.381 268.967 178.136C268.967 178.892 269.092 179.53 269.342 180.05C269.595 180.57 269.934 180.963 270.361 181.23C270.79 181.497 271.268 181.631 271.797 181.631C272.086 181.631 272.365 181.591 272.632 181.511C272.899 181.432 273.142 181.314 273.361 181.158C273.582 180.999 273.77 180.804 273.923 180.574C274.079 180.341 274.189 180.074 274.251 179.773H275.308C275.229 180.219 275.084 180.618 274.873 180.97C274.663 181.322 274.402 181.622 274.089 181.869C273.777 182.114 273.426 182.3 273.037 182.428C272.65 182.555 272.237 182.619 271.797 182.619C271.052 182.619 270.39 182.438 269.811 182.074C269.231 181.71 268.775 181.193 268.443 180.523C268.111 179.852 267.944 179.057 267.944 178.136C267.944 177.216 268.111 176.42 268.443 175.75C268.775 175.08 269.231 174.562 269.811 174.199C270.39 173.835 271.052 173.653 271.797 173.653C272.237 173.653 272.65 173.717 273.037 173.845C273.426 173.973 273.777 174.161 274.089 174.408C274.402 174.652 274.663 174.95 274.873 175.303C275.084 175.652 275.229 176.051 275.308 176.5ZM279.539 182.636C278.948 182.636 278.429 182.496 277.983 182.214C277.54 181.933 277.193 181.54 276.943 181.034C276.696 180.528 276.573 179.937 276.573 179.261C276.573 178.58 276.696 177.984 276.943 177.476C277.193 176.967 277.54 176.572 277.983 176.291C278.429 176.01 278.948 175.869 279.539 175.869C280.129 175.869 280.646 176.01 281.09 176.291C281.536 176.572 281.882 176.967 282.129 177.476C282.379 177.984 282.504 178.58 282.504 179.261C282.504 179.937 282.379 180.528 282.129 181.034C281.882 181.54 281.536 181.933 281.09 182.214C280.646 182.496 280.129 182.636 279.539 182.636ZM279.539 181.733C279.987 181.733 280.357 181.618 280.646 181.388C280.936 181.158 281.151 180.855 281.29 180.48C281.429 180.105 281.499 179.699 281.499 179.261C281.499 178.824 281.429 178.416 281.29 178.038C281.151 177.661 280.936 177.355 280.646 177.122C280.357 176.889 279.987 176.773 279.539 176.773C279.09 176.773 278.72 176.889 278.431 177.122C278.141 177.355 277.926 177.661 277.787 178.038C277.648 178.416 277.578 178.824 277.578 179.261C277.578 179.699 277.648 180.105 277.787 180.48C277.926 180.855 278.141 181.158 278.431 181.388C278.72 181.618 279.09 181.733 279.539 181.733ZM285.045 178.562V182.5H284.04V175.955H285.011V176.977H285.096C285.25 176.645 285.483 176.378 285.795 176.176C286.108 175.972 286.511 175.869 287.006 175.869C287.449 175.869 287.836 175.96 288.169 176.142C288.501 176.321 288.76 176.594 288.944 176.96C289.129 177.324 289.221 177.784 289.221 178.341V182.5H288.216V178.409C288.216 177.895 288.082 177.494 287.815 177.207C287.548 176.918 287.182 176.773 286.716 176.773C286.395 176.773 286.108 176.842 285.855 176.982C285.605 177.121 285.407 177.324 285.263 177.591C285.118 177.858 285.045 178.182 285.045 178.562ZM293.906 175.955V176.807H290.514V175.955H293.906ZM291.502 174.386H292.508V180.625C292.508 180.909 292.549 181.122 292.632 181.264C292.717 181.403 292.825 181.497 292.955 181.545C293.089 181.591 293.23 181.614 293.377 181.614C293.488 181.614 293.579 181.608 293.65 181.597C293.721 181.582 293.778 181.571 293.82 181.562L294.025 182.466C293.957 182.491 293.862 182.517 293.74 182.543C293.617 182.571 293.463 182.585 293.275 182.585C292.991 182.585 292.713 182.524 292.44 182.402C292.17 182.28 291.945 182.094 291.767 181.844C291.59 181.594 291.502 181.278 291.502 180.898V174.386ZM295.419 182.5V175.955H296.39V176.943H296.458C296.578 176.619 296.794 176.357 297.106 176.155C297.419 175.953 297.771 175.852 298.163 175.852C298.237 175.852 298.329 175.854 298.44 175.857C298.551 175.859 298.634 175.864 298.691 175.869V176.892C298.657 176.884 298.579 176.871 298.457 176.854C298.338 176.834 298.211 176.824 298.078 176.824C297.759 176.824 297.475 176.891 297.225 177.024C296.978 177.155 296.782 177.337 296.637 177.57C296.495 177.8 296.424 178.062 296.424 178.358V182.5H295.419ZM302.343 182.636C301.752 182.636 301.234 182.496 300.788 182.214C300.345 181.933 299.998 181.54 299.748 181.034C299.501 180.528 299.377 179.937 299.377 179.261C299.377 178.58 299.501 177.984 299.748 177.476C299.998 176.967 300.345 176.572 300.788 176.291C301.234 176.01 301.752 175.869 302.343 175.869C302.934 175.869 303.451 176.01 303.894 176.291C304.34 176.572 304.687 176.967 304.934 177.476C305.184 177.984 305.309 178.58 305.309 179.261C305.309 179.937 305.184 180.528 304.934 181.034C304.687 181.54 304.34 181.933 303.894 182.214C303.451 182.496 302.934 182.636 302.343 182.636ZM302.343 181.733C302.792 181.733 303.161 181.618 303.451 181.388C303.741 181.158 303.955 180.855 304.095 180.48C304.234 180.105 304.303 179.699 304.303 179.261C304.303 178.824 304.234 178.416 304.095 178.038C303.955 177.661 303.741 177.355 303.451 177.122C303.161 176.889 302.792 176.773 302.343 176.773C301.894 176.773 301.525 176.889 301.235 177.122C300.945 177.355 300.731 177.661 300.592 178.038C300.453 178.416 300.383 178.824 300.383 179.261C300.383 179.699 300.453 180.105 300.592 180.48C300.731 180.855 300.945 181.158 301.235 181.388C301.525 181.618 301.894 181.733 302.343 181.733ZM307.85 173.773V182.5H306.844V173.773H307.85Z" fill="#393939"/>
<rect width="56" height="56" transform="translate(130)" fill="white"/>
<g clip-path="url(#clip0_1039_4725)">
<path d="M174.365 10.9902L172.979 9.60348L172.625 9.24992L172.271 9.60348L169.353 12.5214L169 12.875L169.353 13.2286L170.74 14.6152L169.865 15.4902L168.479 14.1035L168.125 13.7497L167.771 14.1037L152.642 29.25H148.332H148.124L147.978 29.3973L144.511 32.8811L141.844 33.7636L147.104 28.5039L147.25 28.3575V28.1504V23.8577L162.396 8.72876L162.75 8.3752L162.397 8.02145L161.01 6.63477L161.885 5.75984L163.271 7.14652L163.625 7.50008L163.979 7.14652L166.897 4.22855L167.25 3.875L166.897 3.52145L165.51 2.13477L166.385 1.25984L175.24 10.1152L174.365 10.9902ZM151.9 28H152.107L152.254 27.8536L166.879 13.2286L167.232 12.875L166.879 12.5214L163.979 9.62106L163.625 9.2675L163.271 9.62106L159.246 13.6464L158.895 13.9979L159.244 14.3514L160.336 15.4568L159.457 16.336L158.351 15.2439L158 14.8964L157.648 15.2443L155.855 17.0197L155.498 17.3733L155.853 17.7286L156.959 18.834L156.084 19.7089L154.979 18.6035L154.623 18.2482L154.27 18.6052L152.494 20.3982L152.146 20.7496L152.494 21.1014L153.586 22.2068L152.707 23.086L151.601 21.9939L151.248 21.6446L150.896 21.9961L148.646 24.2461L148.5 24.3925V24.5996V27.5V28H149H151.9ZM167.771 11.6289L168.125 11.9825L168.479 11.6289L171.379 8.72855L171.732 8.375L171.379 8.02145L168.479 5.12106L168.125 4.7675L167.771 5.12106L164.871 8.02145L164.518 8.375L164.871 8.72855L167.771 11.6289Z" stroke="#393939"/>
</g>
<path d="M131.63 43.7727L134.221 51.1193H134.323L136.914 43.7727H138.022L134.817 52.5H133.726L130.522 43.7727H131.63ZM140.561 52.6534C140.147 52.6534 139.77 52.5753 139.432 52.419C139.094 52.2599 138.826 52.0312 138.627 51.733C138.428 51.4318 138.328 51.0682 138.328 50.642C138.328 50.267 138.402 49.9631 138.55 49.7301C138.698 49.4943 138.895 49.3097 139.142 49.1761C139.39 49.0426 139.662 48.9432 139.961 48.8778C140.262 48.8097 140.564 48.7557 140.868 48.7159C141.266 48.6648 141.588 48.6264 141.836 48.6009C142.086 48.5724 142.267 48.5256 142.381 48.4602C142.498 48.3949 142.556 48.2812 142.556 48.1193V48.0852C142.556 47.6648 142.441 47.3381 142.211 47.1051C141.983 46.8722 141.638 46.7557 141.175 46.7557C140.695 46.7557 140.319 46.8608 140.046 47.071C139.773 47.2812 139.581 47.5057 139.471 47.7443L138.516 47.4034C138.686 47.0057 138.914 46.696 139.198 46.4744C139.485 46.25 139.797 46.0937 140.135 46.0057C140.476 45.9148 140.811 45.8693 141.141 45.8693C141.351 45.8693 141.593 45.8949 141.865 45.946C142.141 45.9943 142.407 46.0952 142.662 46.2486C142.921 46.402 143.135 46.6335 143.306 46.9432C143.476 47.2528 143.561 47.6676 143.561 48.1875V52.5H142.556V51.6136H142.505C142.436 51.7557 142.323 51.9077 142.164 52.0696C142.005 52.2315 141.793 52.3693 141.529 52.483C141.265 52.5966 140.942 52.6534 140.561 52.6534ZM140.715 51.75C141.113 51.75 141.448 51.6719 141.721 51.5156C141.996 51.3594 142.203 51.1577 142.343 50.9105C142.485 50.6634 142.556 50.4034 142.556 50.1307V49.2102C142.513 49.2614 142.419 49.3082 142.275 49.3509C142.132 49.3906 141.968 49.4261 141.78 49.4574C141.596 49.4858 141.415 49.5114 141.239 49.5341C141.066 49.554 140.925 49.571 140.817 49.5852C140.556 49.6193 140.311 49.6747 140.084 49.7514C139.86 49.8253 139.678 49.9375 139.539 50.0881C139.402 50.2358 139.334 50.4375 139.334 50.6932C139.334 51.0426 139.463 51.3068 139.722 51.4858C139.983 51.6619 140.314 51.75 140.715 51.75ZM148.056 52.6364C147.442 52.6364 146.914 52.4915 146.471 52.2017C146.028 51.9119 145.687 51.5128 145.448 51.0043C145.21 50.4957 145.09 49.9148 145.09 49.2614C145.09 48.5966 145.212 48.0099 145.457 47.5014C145.704 46.9901 146.048 46.5909 146.488 46.304C146.931 46.0142 147.448 45.8693 148.039 45.8693C148.499 45.8693 148.914 45.9545 149.283 46.125C149.653 46.2955 149.955 46.5341 150.191 46.8409C150.427 47.1477 150.573 47.5057 150.63 47.9148H149.624C149.548 47.6165 149.377 47.3523 149.113 47.1222C148.852 46.8892 148.499 46.7727 148.056 46.7727C147.664 46.7727 147.32 46.875 147.025 47.0795C146.732 47.2812 146.504 47.5668 146.339 47.9361C146.177 48.3026 146.096 48.733 146.096 49.2273C146.096 49.733 146.175 50.1733 146.335 50.5483C146.496 50.9233 146.724 51.2145 147.016 51.4219C147.312 51.6293 147.658 51.733 148.056 51.733C148.317 51.733 148.555 51.6875 148.768 51.5966C148.981 51.5057 149.161 51.375 149.309 51.2045C149.457 51.0341 149.562 50.8295 149.624 50.5909H150.63C150.573 50.9773 150.433 51.3253 150.208 51.6349C149.987 51.9418 149.692 52.1861 149.326 52.3679C148.962 52.5469 148.539 52.6364 148.056 52.6364ZM154.759 52.6364C154.146 52.6364 153.617 52.4915 153.174 52.2017C152.731 51.9119 152.39 51.5128 152.151 51.0043C151.913 50.4957 151.793 49.9148 151.793 49.2614C151.793 48.5966 151.915 48.0099 152.16 47.5014C152.407 46.9901 152.751 46.5909 153.191 46.304C153.634 46.0142 154.151 45.8693 154.742 45.8693C155.202 45.8693 155.617 45.9545 155.987 46.125C156.356 46.2955 156.658 46.5341 156.894 46.8409C157.13 47.1477 157.276 47.5057 157.333 47.9148H156.327C156.251 47.6165 156.08 47.3523 155.816 47.1222C155.555 46.8892 155.202 46.7727 154.759 46.7727C154.367 46.7727 154.023 46.875 153.728 47.0795C153.435 47.2812 153.207 47.5668 153.042 47.9361C152.88 48.3026 152.799 48.733 152.799 49.2273C152.799 49.733 152.879 50.1733 153.038 50.5483C153.2 50.9233 153.427 51.2145 153.719 51.4219C154.015 51.6293 154.362 51.733 154.759 51.733C155.021 51.733 155.258 51.6875 155.471 51.5966C155.684 51.5057 155.864 51.375 156.012 51.2045C156.16 51.0341 156.265 50.8295 156.327 50.5909H157.333C157.276 50.9773 157.136 51.3253 156.911 51.6349C156.69 51.9418 156.396 52.1861 156.029 52.3679C155.665 52.5469 155.242 52.6364 154.759 52.6364ZM158.803 52.5V45.9545H159.809V52.5H158.803ZM159.315 44.8636C159.119 44.8636 158.95 44.7969 158.808 44.6634C158.668 44.5298 158.599 44.3693 158.599 44.1818C158.599 43.9943 158.668 43.8338 158.808 43.7003C158.95 43.5668 159.119 43.5 159.315 43.5C159.511 43.5 159.678 43.5668 159.817 43.7003C159.96 43.8338 160.031 43.9943 160.031 44.1818C160.031 44.3693 159.96 44.5298 159.817 44.6634C159.678 44.7969 159.511 44.8636 159.315 44.8636ZM162.657 48.5625V52.5H161.651V45.9545H162.623V46.9773H162.708C162.861 46.6449 163.094 46.3778 163.407 46.1761C163.719 45.9716 164.123 45.8693 164.617 45.8693C165.06 45.8693 165.448 45.9602 165.78 46.142C166.113 46.321 166.371 46.5938 166.556 46.9602C166.74 47.3239 166.833 47.7841 166.833 48.3409V52.5H165.827V48.4091C165.827 47.8949 165.694 47.4943 165.426 47.2074C165.159 46.9176 164.793 46.7727 164.327 46.7727C164.006 46.7727 163.719 46.8423 163.466 46.9815C163.216 47.1207 163.019 47.3239 162.874 47.5909C162.729 47.858 162.657 48.1818 162.657 48.5625ZM170.597 52.6534C170.182 52.6534 169.805 52.5753 169.467 52.419C169.129 52.2599 168.861 52.0312 168.662 51.733C168.463 51.4318 168.364 51.0682 168.364 50.642C168.364 50.267 168.438 49.9631 168.585 49.7301C168.733 49.4943 168.93 49.3097 169.178 49.1761C169.425 49.0426 169.697 48.9432 169.996 48.8778C170.297 48.8097 170.599 48.7557 170.903 48.7159C171.301 48.6648 171.624 48.6264 171.871 48.6009C172.121 48.5724 172.303 48.5256 172.416 48.4602C172.533 48.3949 172.591 48.2812 172.591 48.1193V48.0852C172.591 47.6648 172.476 47.3381 172.246 47.1051C172.018 46.8722 171.673 46.7557 171.21 46.7557C170.73 46.7557 170.354 46.8608 170.081 47.071C169.808 47.2812 169.616 47.5057 169.506 47.7443L168.551 47.4034C168.722 47.0057 168.949 46.696 169.233 46.4744C169.52 46.25 169.832 46.0937 170.17 46.0057C170.511 45.9148 170.847 45.8693 171.176 45.8693C171.386 45.8693 171.628 45.8949 171.901 45.946C172.176 45.9943 172.442 46.0952 172.697 46.2486C172.956 46.402 173.17 46.6335 173.341 46.9432C173.511 47.2528 173.597 47.6676 173.597 48.1875V52.5H172.591V51.6136H172.54C172.472 51.7557 172.358 51.9077 172.199 52.0696C172.04 52.2315 171.828 52.3693 171.564 52.483C171.3 52.5966 170.977 52.6534 170.597 52.6534ZM170.75 51.75C171.148 51.75 171.483 51.6719 171.756 51.5156C172.031 51.3594 172.239 51.1577 172.378 50.9105C172.52 50.6634 172.591 50.4034 172.591 50.1307V49.2102C172.548 49.2614 172.455 49.3082 172.31 49.3509C172.168 49.3906 172.003 49.4261 171.815 49.4574C171.631 49.4858 171.45 49.5114 171.274 49.5341C171.101 49.554 170.96 49.571 170.852 49.5852C170.591 49.6193 170.347 49.6747 170.119 49.7514C169.895 49.8253 169.713 49.9375 169.574 50.0881C169.438 50.2358 169.369 50.4375 169.369 50.6932C169.369 51.0426 169.499 51.3068 169.757 51.4858C170.018 51.6619 170.349 51.75 170.75 51.75ZM178.279 45.9545V46.8068H174.887V45.9545H178.279ZM175.875 44.3864H176.881V50.625C176.881 50.9091 176.922 51.1222 177.005 51.2642C177.09 51.4034 177.198 51.4972 177.328 51.5455C177.462 51.5909 177.603 51.6136 177.75 51.6136C177.861 51.6136 177.952 51.608 178.023 51.5966C178.094 51.5824 178.151 51.571 178.194 51.5625L178.398 52.4659C178.33 52.4915 178.235 52.517 178.113 52.5426C177.99 52.571 177.836 52.5852 177.648 52.5852C177.364 52.5852 177.086 52.5241 176.813 52.402C176.543 52.2798 176.319 52.0938 176.14 51.8438C175.963 51.5938 175.875 51.2784 175.875 50.8977V44.3864ZM182.466 52.6364C181.835 52.6364 181.291 52.4972 180.833 52.2188C180.379 51.9375 180.028 51.5455 179.781 51.0426C179.537 50.5369 179.414 49.9489 179.414 49.2784C179.414 48.608 179.537 48.017 179.781 47.5057C180.028 46.9915 180.372 46.5909 180.812 46.304C181.255 46.0142 181.772 45.8693 182.363 45.8693C182.704 45.8693 183.041 45.9261 183.373 46.0398C183.706 46.1534 184.008 46.3381 184.281 46.5938C184.554 46.8466 184.771 47.1818 184.933 47.5994C185.095 48.017 185.176 48.5312 185.176 49.142V49.5682H180.13V48.6989H184.153C184.153 48.3295 184.079 48 183.931 47.7102C183.787 47.4205 183.579 47.1918 183.309 47.0241C183.042 46.8565 182.727 46.7727 182.363 46.7727C181.963 46.7727 181.616 46.8722 181.324 47.071C181.034 47.267 180.811 47.5227 180.654 47.8381C180.498 48.1534 180.42 48.4915 180.42 48.8523V49.4318C180.42 49.9261 180.505 50.3452 180.676 50.6889C180.849 51.0298 181.089 51.2898 181.396 51.4688C181.703 51.6449 182.059 51.733 182.466 51.733C182.73 51.733 182.968 51.696 183.181 51.6222C183.397 51.5455 183.583 51.4318 183.74 51.2812C183.896 51.1278 184.017 50.9375 184.102 50.7102L185.074 50.983C184.971 51.3125 184.799 51.6023 184.558 51.8523C184.316 52.0994 184.018 52.2926 183.663 52.4318C183.308 52.5682 182.909 52.6364 182.466 52.6364Z" fill="#393939"/>
<defs>
<clipPath id="clip0_1039_4725">
<rect width="36" height="36" fill="white" transform="translate(140 0.5)"/>
</clipPath>
</defs>
</svg>
