<svg width="316" height="288" viewBox="0 0 316 288" fill="none" xmlns="http://www.w3.org/2000/svg">
<rect x="29" y="29" width="258" height="258" rx="129" stroke="#3765C0" stroke-width="2"/>
<path d="M172.625 119.792H143.375C133 119.792 130.708 124.959 129.375 131.292L124.667 153.834H191.333L186.625 131.292C185.292 124.959 183 119.792 172.625 119.792Z" stroke="#292D32" stroke-linecap="round" stroke-linejoin="round"/>
<path d="M199.625 190.583C200.083 195.458 196.167 199.667 191.167 199.667H183.333C178.833 199.667 178.208 197.75 177.417 195.375L176.583 192.875C175.417 189.458 174.667 187.167 168.667 187.167H147.333C141.333 187.167 140.458 189.75 139.417 192.875L138.583 195.375C137.792 197.75 137.167 199.667 132.667 199.667H124.833C119.833 199.667 115.917 195.458 116.375 190.583L118.708 165.208C119.292 158.958 120.5 153.833 131.417 153.833H184.583C195.5 153.833 196.708 158.958 197.292 165.208L199.625 190.583Z" stroke="#292D32" stroke-linecap="round" stroke-linejoin="round"/>
<path d="M124.667 141.333H120.5" stroke="#292D32" stroke-linecap="round" stroke-linejoin="round"/>
<path d="M195.5 141.333H191.333" stroke="#292D32" stroke-linecap="round" stroke-linejoin="round"/>
<path d="M158 120.5V128.833" stroke="#292D32" stroke-linecap="round" stroke-linejoin="round"/>
<path d="M151.75 128.833H164.25" stroke="#292D32" stroke-linecap="round" stroke-linejoin="round"/>
<path d="M133 170.5H145.5" stroke="#292D32" stroke-linecap="round" stroke-linejoin="round"/>
<path d="M170.5 170.5H183" stroke="#292D32" stroke-linecap="round" stroke-linejoin="round"/>
<rect width="56" height="56" transform="translate(0 130)" fill="white"/>
<g clip-path="url(#clip0_169_3626)">
<rect width="36" height="36" transform="translate(10 130.5)" fill="white"/>
<path d="M38 160.5H16V138.5H29.22L31.22 136.5H16C15.4696 136.5 14.9609 136.711 14.5858 137.086C14.2107 137.461 14 137.97 14 138.5V160.5C14 161.03 14.2107 161.539 14.5858 161.914C14.9609 162.289 15.4696 162.5 16 162.5H38C38.5304 162.5 39.0391 162.289 39.4142 161.914C39.7893 161.539 40 161.03 40 160.5V145.5L38 147.5V160.5Z" fill="#393939"/>
<path d="M43.53 136.34L40.16 132.97C40.0104 132.82 39.8327 132.701 39.6371 132.62C39.4415 132.539 39.2318 132.497 39.02 132.497C38.8082 132.497 38.5984 132.539 38.4028 132.62C38.2072 132.701 38.0295 132.82 37.88 132.97L24.17 146.76L23.06 151.57C23.0127 151.803 23.0176 152.044 23.0745 152.275C23.1314 152.506 23.2388 152.721 23.3889 152.906C23.539 153.091 23.7282 153.239 23.9428 153.342C24.1574 153.445 24.3921 153.499 24.63 153.5C24.7529 153.513 24.877 153.513 25 153.5L29.85 152.43L43.53 138.62C43.6799 138.47 43.7989 138.293 43.8801 138.097C43.9613 137.901 44.0031 137.692 44.0031 137.48C44.0031 137.268 43.9613 137.058 43.8801 136.863C43.7989 136.667 43.6799 136.49 43.53 136.34ZM28.81 150.58L25.15 151.39L26 147.76L36.32 137.37L39.14 140.19L28.81 150.58ZM40.27 139.06L37.45 136.24L39 134.66L41.84 137.5L40.27 139.06Z" fill="#393939"/>
</g>
<path d="M14.0403 173.773V182.5H12.9835V174.71H8.58576V182.5H7.52894V173.773H14.0403ZM15.4561 182.5V181.562H15.6948C15.8908 181.562 16.0542 181.524 16.1848 181.447C16.3155 181.368 16.4206 181.23 16.5002 181.034C16.5826 180.835 16.6451 180.56 16.6877 180.207C16.7331 179.852 16.7658 179.401 16.7857 178.852L16.905 175.955H21.2686V182.5H20.263V176.892H17.8596L17.7573 179.227C17.7346 179.764 17.6863 180.237 17.6124 180.646C17.5414 181.053 17.432 181.393 17.2843 181.669C17.1394 181.945 16.9462 182.152 16.7047 182.291C16.4632 182.43 16.1607 182.5 15.7971 182.5H15.4561ZM25.04 182.653C24.6252 182.653 24.2488 182.575 23.9107 182.419C23.5726 182.26 23.3042 182.031 23.1053 181.733C22.9064 181.432 22.807 181.068 22.807 180.642C22.807 180.267 22.8809 179.963 23.0286 179.73C23.1763 179.494 23.3738 179.31 23.6209 179.176C23.8681 179.043 24.1408 178.943 24.4391 178.878C24.7402 178.81 25.0428 178.756 25.3468 178.716C25.7445 178.665 26.0669 178.626 26.3141 178.601C26.5641 178.572 26.7459 178.526 26.8596 178.46C26.976 178.395 27.0343 178.281 27.0343 178.119V178.085C27.0343 177.665 26.9192 177.338 26.6891 177.105C26.4618 176.872 26.1167 176.756 25.6536 176.756C25.1735 176.756 24.7971 176.861 24.5243 177.071C24.2516 177.281 24.0598 177.506 23.949 177.744L22.9945 177.403C23.165 177.006 23.3922 176.696 23.6763 176.474C23.9632 176.25 24.2757 176.094 24.6138 176.006C24.9547 175.915 25.29 175.869 25.6195 175.869C25.8297 175.869 26.0712 175.895 26.3439 175.946C26.6195 175.994 26.8851 176.095 27.1408 176.249C27.3993 176.402 27.6138 176.634 27.7843 176.943C27.9547 177.253 28.04 177.668 28.04 178.188V182.5H27.0343V181.614H26.9831C26.915 181.756 26.8013 181.908 26.6422 182.07C26.4831 182.232 26.2715 182.369 26.0073 182.483C25.7431 182.597 25.4206 182.653 25.04 182.653ZM25.1934 181.75C25.5911 181.75 25.9263 181.672 26.199 181.516C26.4746 181.359 26.682 181.158 26.8212 180.911C26.9632 180.663 27.0343 180.403 27.0343 180.131V179.21C26.9917 179.261 26.8979 179.308 26.753 179.351C26.611 179.391 26.4462 179.426 26.2587 179.457C26.074 179.486 25.8936 179.511 25.7175 179.534C25.5442 179.554 25.4036 179.571 25.2956 179.585C25.0343 179.619 24.79 179.675 24.5627 179.751C24.3382 179.825 24.1564 179.937 24.0172 180.088C23.8809 180.236 23.8127 180.437 23.8127 180.693C23.8127 181.043 23.9419 181.307 24.2005 181.486C24.4618 181.662 24.7928 181.75 25.1934 181.75ZM34.2562 178.767V179.705H30.6426V178.767H34.2562ZM30.8812 175.955V182.5H29.8755V175.955H30.8812ZM35.0233 175.955V182.5H34.0176V175.955H35.0233ZM37.2733 184.955C37.1028 184.955 36.9508 184.94 36.8173 184.912C36.6838 184.886 36.5914 184.861 36.5403 184.835L36.796 183.949C37.0403 184.011 37.2562 184.034 37.4437 184.017C37.6312 184 37.7974 183.916 37.9423 183.766C38.09 183.618 38.225 183.378 38.3471 183.045L38.5346 182.534L36.1142 175.955H37.2051L39.0119 181.17H39.0801L40.8869 175.955H41.9778L39.1994 183.455C39.0744 183.793 38.9196 184.072 38.7349 184.294C38.5502 184.518 38.3358 184.685 38.0914 184.793C37.85 184.901 37.5772 184.955 37.2733 184.955ZM44.3109 181.017L47.4643 175.955H48.6234V182.5H47.6177V177.438L44.4814 182.5H43.3052V175.955H44.3109V181.017ZM46.7995 173.773H47.737C47.737 174.233 47.5779 174.609 47.2598 174.902C46.9416 175.195 46.5098 175.341 45.9643 175.341C45.4274 175.341 44.9998 175.195 44.6816 174.902C44.3663 174.609 44.2086 174.233 44.2086 173.773H45.1461C45.1461 173.994 45.2072 174.189 45.3294 174.357C45.4544 174.524 45.666 174.608 45.9643 174.608C46.2626 174.608 46.4757 174.524 46.6035 174.357C46.7342 174.189 46.7995 173.994 46.7995 173.773Z" fill="#393939"/>
<rect width="56" height="56" transform="translate(260 135)" fill="white"/>
<path d="M287.42 156.668L293.25 162.498C293.75 162.982 294.421 163.25 295.117 163.244C295.812 163.238 296.478 162.959 296.97 162.467C297.462 161.975 297.741 161.31 297.747 160.614C297.753 159.918 297.485 159.248 297 158.748L291.123 152.871M287.42 156.668L289.916 153.638C290.233 153.254 290.656 153.012 291.124 152.872C291.674 152.708 292.287 152.684 292.867 152.732C293.649 152.799 294.435 152.66 295.147 152.33C295.859 152 296.472 151.489 296.925 150.848C297.379 150.208 297.657 149.46 297.732 148.679C297.807 147.898 297.677 147.111 297.353 146.396L294.077 149.673C293.529 149.546 293.028 149.268 292.63 148.87C292.232 148.472 291.954 147.971 291.827 147.423L295.103 144.147C294.388 143.824 293.601 143.693 292.82 143.768C292.039 143.843 291.291 144.121 290.651 144.575C290.01 145.028 289.5 145.641 289.169 146.353C288.839 147.065 288.7 147.851 288.767 148.633C288.858 149.709 288.696 150.897 287.863 151.583L287.761 151.668M287.42 156.668L282.765 162.321C282.54 162.596 282.259 162.82 281.941 162.98C281.624 163.14 281.276 163.232 280.921 163.249C280.566 163.267 280.211 163.21 279.879 163.082C279.547 162.954 279.245 162.758 278.994 162.506C278.742 162.255 278.546 161.953 278.418 161.621C278.29 161.29 278.233 160.935 278.251 160.579C278.268 160.224 278.36 159.876 278.52 159.559C278.68 159.241 278.904 158.96 279.179 158.735L286.016 153.105L281.909 148.998H280.5L278.25 145.248L279.75 143.748L283.5 145.998V147.407L287.76 151.667L286.015 153.104M294.375 159.873L291.75 157.248M280.867 160.623H280.875V160.631H280.867V160.623Z" stroke="#393939" stroke-width="1.5" stroke-linecap="round" stroke-linejoin="round"/>
<path d="M260.352 187.5V178.773H263.301C263.985 178.773 264.545 178.896 264.98 179.143C265.417 179.388 265.741 179.719 265.951 180.136C266.161 180.554 266.267 181.02 266.267 181.534C266.267 182.048 266.161 182.516 265.951 182.936C265.744 183.357 265.423 183.692 264.988 183.942C264.553 184.189 263.997 184.312 263.318 184.312H261.204V183.375H263.284C263.752 183.375 264.129 183.294 264.413 183.132C264.697 182.97 264.903 182.751 265.031 182.476C265.161 182.197 265.227 181.884 265.227 181.534C265.227 181.185 265.161 180.872 265.031 180.597C264.903 180.321 264.695 180.105 264.409 179.949C264.122 179.79 263.741 179.71 263.267 179.71H261.409V187.5H260.352ZM270.507 187.636C269.876 187.636 269.332 187.497 268.874 187.219C268.42 186.938 268.069 186.545 267.822 186.043C267.578 185.537 267.455 184.949 267.455 184.278C267.455 183.608 267.578 183.017 267.822 182.506C268.069 181.991 268.413 181.591 268.853 181.304C269.296 181.014 269.813 180.869 270.404 180.869C270.745 180.869 271.082 180.926 271.414 181.04C271.747 181.153 272.049 181.338 272.322 181.594C272.595 181.847 272.812 182.182 272.974 182.599C273.136 183.017 273.217 183.531 273.217 184.142V184.568H268.171V183.699H272.194C272.194 183.33 272.12 183 271.972 182.71C271.828 182.42 271.62 182.192 271.35 182.024C271.083 181.857 270.768 181.773 270.404 181.773C270.004 181.773 269.657 181.872 269.365 182.071C269.075 182.267 268.852 182.523 268.695 182.838C268.539 183.153 268.461 183.491 268.461 183.852V184.432C268.461 184.926 268.546 185.345 268.717 185.689C268.89 186.03 269.13 186.29 269.437 186.469C269.744 186.645 270.1 186.733 270.507 186.733C270.771 186.733 271.009 186.696 271.222 186.622C271.438 186.545 271.624 186.432 271.781 186.281C271.937 186.128 272.058 185.937 272.143 185.71L273.115 185.983C273.012 186.312 272.84 186.602 272.599 186.852C272.357 187.099 272.059 187.293 271.704 187.432C271.349 187.568 270.95 187.636 270.507 187.636ZM278.326 186.136L280.61 180.955H281.565L278.735 187.5H277.917L275.139 180.955H276.076L278.326 186.136ZM275.752 180.955V187.5H274.747V180.955H275.752ZM280.9 187.5V180.955H281.906V187.5H280.9ZM286.406 187.636C285.815 187.636 285.296 187.496 284.85 187.214C284.407 186.933 284.061 186.54 283.811 186.034C283.563 185.528 283.44 184.937 283.44 184.261C283.44 183.58 283.563 182.984 283.811 182.476C284.061 181.967 284.407 181.572 284.85 181.291C285.296 181.01 285.815 180.869 286.406 180.869C286.997 180.869 287.514 181.01 287.957 181.291C288.403 181.572 288.749 181.967 288.997 182.476C289.247 182.984 289.372 183.58 289.372 184.261C289.372 184.937 289.247 185.528 288.997 186.034C288.749 186.54 288.403 186.933 287.957 187.214C287.514 187.496 286.997 187.636 286.406 187.636ZM286.406 186.733C286.855 186.733 287.224 186.618 287.514 186.388C287.803 186.158 288.018 185.855 288.157 185.48C288.296 185.105 288.366 184.699 288.366 184.261C288.366 183.824 288.296 183.416 288.157 183.038C288.018 182.661 287.803 182.355 287.514 182.122C287.224 181.889 286.855 181.773 286.406 181.773C285.957 181.773 285.588 181.889 285.298 182.122C285.008 182.355 284.794 182.661 284.654 183.038C284.515 183.416 284.445 183.824 284.445 184.261C284.445 184.699 284.515 185.105 284.654 185.48C284.794 185.855 285.008 186.158 285.298 186.388C285.588 186.618 285.957 186.733 286.406 186.733ZM295.287 183.767V184.705H291.674V183.767H295.287ZM291.912 180.955V187.5H290.907V180.955H291.912ZM296.055 180.955V187.5H295.049V180.955H296.055ZM297.001 181.892V180.955H302.319V181.892H300.171V187.5H299.165V181.892H297.001ZM304.433 189.955C304.263 189.955 304.111 189.94 303.977 189.912C303.844 189.886 303.752 189.861 303.7 189.835L303.956 188.949C304.2 189.011 304.416 189.034 304.604 189.017C304.791 189 304.958 188.916 305.102 188.766C305.25 188.618 305.385 188.378 305.507 188.045L305.695 187.534L303.274 180.955H304.365L306.172 186.17H306.24L308.047 180.955H309.138L306.36 188.455C306.235 188.793 306.08 189.072 305.895 189.294C305.71 189.518 305.496 189.685 305.252 189.793C305.01 189.901 304.737 189.955 304.433 189.955ZM311.471 186.017L314.624 180.955H315.784V187.5H314.778V182.438L311.642 187.5H310.465V180.955H311.471V186.017ZM313.96 178.773H314.897C314.897 179.233 314.738 179.609 314.42 179.902C314.102 180.195 313.67 180.341 313.124 180.341C312.588 180.341 312.16 180.195 311.842 179.902C311.526 179.609 311.369 179.233 311.369 178.773H312.306C312.306 178.994 312.367 179.189 312.49 179.357C312.615 179.524 312.826 179.608 313.124 179.608C313.423 179.608 313.636 179.524 313.764 179.357C313.894 179.189 313.96 178.994 313.96 178.773Z" fill="#393939"/>
<rect width="56" height="56" transform="translate(130)" fill="white"/>
<path d="M152.375 10.625V12.875H154.625V15.125H148.507L146.575 12.2416L146.221 11.75H141.125V18.149L146.75 20.399V28.625H163.097L163.415 28.1322L173.188 14H174.875V11.75H171.113L170.832 11.9615L163.625 17.375V15.125H156.875V12.875H159.125V10.625H152.375ZM143.375 14H144.993L146.75 16.637V17.9375L143.375 16.601V14ZM169.004 16.1802L161.938 26.375H149V17.375H161.375V21.875L163.168 20.5385L169.004 16.1802ZM173.188 18.5C173.188 18.5 171.5 21.506 171.5 22.4375C171.5 22.8851 171.678 23.3143 171.994 23.6307C172.311 23.9472 172.74 24.125 173.188 24.125C173.635 24.125 174.064 23.9472 174.381 23.6307C174.697 23.3143 174.875 22.8851 174.875 22.4375C174.875 21.506 173.188 18.5 173.188 18.5Z" fill="#393939"/>
<path d="M142.865 46.5H141.808C141.745 46.196 141.636 45.929 141.48 45.6989C141.326 45.4688 141.139 45.2756 140.917 45.1193C140.699 44.9602 140.456 44.8409 140.189 44.7614C139.922 44.6818 139.643 44.642 139.353 44.642C138.825 44.642 138.346 44.7756 137.917 45.0426C137.491 45.3097 137.152 45.7031 136.899 46.223C136.649 46.7429 136.524 47.3807 136.524 48.1364C136.524 48.892 136.649 49.5298 136.899 50.0497C137.152 50.5696 137.491 50.9631 137.917 51.2301C138.346 51.4972 138.825 51.6307 139.353 51.6307C139.643 51.6307 139.922 51.5909 140.189 51.5114C140.456 51.4318 140.699 51.3139 140.917 51.1577C141.139 50.9986 141.326 50.804 141.48 50.5739C141.636 50.3409 141.745 50.0739 141.808 49.7727H142.865C142.785 50.2187 142.64 50.6179 142.43 50.9702C142.22 51.3224 141.958 51.6222 141.646 51.8693C141.333 52.1136 140.983 52.2997 140.593 52.4276C140.207 52.5554 139.794 52.6193 139.353 52.6193C138.609 52.6193 137.947 52.4375 137.368 52.0739C136.788 51.7102 136.332 51.1932 136 50.5227C135.667 49.8523 135.501 49.0568 135.501 48.1364C135.501 47.2159 135.667 46.4205 136 45.75C136.332 45.0795 136.788 44.5625 137.368 44.1989C137.947 43.8352 138.609 43.6534 139.353 43.6534C139.794 43.6534 140.207 43.7173 140.593 43.8452C140.983 43.973 141.333 44.1605 141.646 44.4077C141.958 44.652 142.22 44.9503 142.43 45.3026C142.64 45.652 142.785 46.0511 142.865 46.5ZM143.857 52.5V51.5625H144.095C144.291 51.5625 144.455 51.5241 144.585 51.4474C144.716 51.3679 144.821 51.2301 144.901 51.0341C144.983 50.8352 145.045 50.5597 145.088 50.2074C145.134 49.8523 145.166 49.4006 145.186 48.8523L145.305 45.9545H149.669V52.5H148.663V46.892H146.26L146.158 49.2273C146.135 49.7642 146.087 50.2372 146.013 50.6463C145.942 51.0526 145.832 51.3935 145.685 51.669C145.54 51.9446 145.347 52.152 145.105 52.2912C144.864 52.4304 144.561 52.5 144.197 52.5H143.857ZM151.514 52.5V45.9545H152.52V52.5H151.514ZM152.026 44.8636C151.83 44.8636 151.661 44.7969 151.518 44.6634C151.379 44.5298 151.31 44.3693 151.31 44.1818C151.31 43.9943 151.379 43.8338 151.518 43.7003C151.661 43.5668 151.83 43.5 152.026 43.5C152.222 43.5 152.389 43.5668 152.528 43.7003C152.67 43.8338 152.741 43.9943 152.741 44.1818C152.741 44.3693 152.67 44.5298 152.528 44.6634C152.389 44.7969 152.222 44.8636 152.026 44.8636ZM153.663 54.375V51.5625H154.208C154.342 51.4233 154.457 51.2727 154.554 51.1108C154.65 50.9489 154.734 50.7571 154.805 50.5355C154.879 50.3111 154.941 50.0384 154.993 49.7173C155.044 49.3935 155.089 49.0028 155.129 48.5455L155.35 45.9545H159.51V51.5625H160.515V54.375H159.51V52.5H154.669V54.375H153.663ZM155.35 51.5625H158.504V46.892H156.288L156.118 48.5455C156.047 49.2301 155.958 49.8281 155.853 50.3395C155.748 50.8509 155.581 51.2585 155.35 51.5625ZM161.85 52.5V45.9545H162.856V48.8011H163.521L165.873 45.9545H167.168L164.526 49.108L167.202 52.5H165.907L163.759 49.7386H162.856V52.5H161.85ZM168.943 54.9545C168.773 54.9545 168.621 54.9403 168.487 54.9119C168.354 54.8864 168.261 54.8608 168.21 54.8352L168.466 53.9489C168.71 54.0114 168.926 54.0341 169.114 54.017C169.301 54 169.467 53.9162 169.612 53.7656C169.76 53.6179 169.895 53.3778 170.017 53.0455L170.205 52.5341L167.784 45.9545H168.875L170.682 51.1705H170.75L172.557 45.9545H173.648L170.869 53.4545C170.744 53.7926 170.589 54.0724 170.405 54.294C170.22 54.5185 170.006 54.6847 169.761 54.7926C169.52 54.9006 169.247 54.9545 168.943 54.9545ZM175.981 51.017L179.134 45.9545H180.293V52.5H179.288V47.4375L176.151 52.5H174.975V45.9545H175.981V51.017ZM178.469 43.7727H179.407C179.407 44.233 179.248 44.6094 178.93 44.902C178.612 45.1946 178.18 45.3409 177.634 45.3409C177.097 45.3409 176.67 45.1946 176.352 44.902C176.036 44.6094 175.879 44.233 175.879 43.7727H176.816C176.816 43.9943 176.877 44.1889 176.999 44.3565C177.124 44.5241 177.336 44.608 177.634 44.608C177.933 44.608 178.146 44.5241 178.273 44.3565C178.404 44.1889 178.469 43.9943 178.469 43.7727Z" fill="#393939"/>
<defs>
<clipPath id="clip0_169_3626">
<rect width="36" height="36" fill="white" transform="translate(10 130.5)"/>
</clipPath>
</defs>
</svg>
