<svg width="316" height="316" viewBox="0 0 316 316" fill="none" xmlns="http://www.w3.org/2000/svg">
<rect x="29" y="29" width="258" height="258" rx="129" stroke="#F57F44" stroke-width="2"/>
<path d="M116.333 199.667H199.667" stroke="#292D32" stroke-miterlimit="10" stroke-linecap="round" stroke-linejoin="round"/>
<path d="M120.292 199.668L120.5 149.543C120.5 147.001 121.708 144.584 123.708 143.001L152.875 120.293C155.875 117.959 160.083 117.959 163.125 120.293L192.292 142.959C194.333 144.543 195.5 146.959 195.5 149.543V199.668" stroke="#292D32" stroke-miterlimit="10" stroke-linejoin="round"/>
<path d="M162.167 162.167H153.833C150.375 162.167 147.583 164.958 147.583 168.417V199.667H168.417V168.417C168.417 164.958 165.625 162.167 162.167 162.167Z" stroke="#292D32" stroke-miterlimit="10" stroke-linejoin="round"/>
<path d="M187.167 137.167L187.042 124.667H168.709" stroke="#292D32" stroke-miterlimit="10" stroke-linecap="round" stroke-linejoin="round"/>
<rect width="56" height="56" transform="translate(0 130)" fill="white"/>
<g clip-path="url(#clip0_1039_4621)">
<rect width="36" height="36" transform="translate(10 130.5)" fill="white"/>
<path d="M38 160.5H16V138.5H29.22L31.22 136.5H16C15.4696 136.5 14.9609 136.711 14.5858 137.086C14.2107 137.461 14 137.97 14 138.5V160.5C14 161.03 14.2107 161.539 14.5858 161.914C14.9609 162.289 15.4696 162.5 16 162.5H38C38.5304 162.5 39.0391 162.289 39.4142 161.914C39.7893 161.539 40 161.03 40 160.5V145.5L38 147.5V160.5Z" fill="#393939"/>
<path d="M43.53 136.34L40.16 132.97C40.0104 132.82 39.8327 132.701 39.6371 132.62C39.4415 132.539 39.2318 132.497 39.02 132.497C38.8082 132.497 38.5984 132.539 38.4028 132.62C38.2072 132.701 38.0295 132.82 37.88 132.97L24.17 146.76L23.06 151.57C23.0127 151.803 23.0176 152.044 23.0745 152.275C23.1314 152.506 23.2388 152.721 23.3889 152.906C23.539 153.091 23.7282 153.239 23.9428 153.342C24.1574 153.445 24.3921 153.499 24.63 153.5C24.7529 153.513 24.877 153.513 25 153.5L29.85 152.43L43.53 138.62C43.6799 138.47 43.7989 138.293 43.8801 138.097C43.9613 137.901 44.0031 137.692 44.0031 137.48C44.0031 137.268 43.9613 137.058 43.8801 136.863C43.7989 136.667 43.6799 136.49 43.53 136.34ZM28.81 150.58L25.15 151.39L26 147.76L36.32 137.37L39.14 140.19L28.81 150.58ZM40.27 139.06L37.45 136.24L39 134.66L41.84 137.5L40.27 139.06Z" fill="#393939"/>
</g>
<path d="M16.9338 182.5V173.773H19.8826C20.5673 173.773 21.127 173.896 21.5616 174.143C21.9991 174.388 22.323 174.719 22.5332 175.136C22.7434 175.554 22.8485 176.02 22.8485 176.534C22.8485 177.048 22.7434 177.516 22.5332 177.936C22.3258 178.357 22.0048 178.692 21.5701 178.942C21.1355 179.189 20.5787 179.312 19.8997 179.312H17.786V178.375H19.8656C20.3343 178.375 20.7108 178.294 20.9949 178.132C21.2789 177.97 21.4849 177.751 21.6127 177.476C21.7434 177.197 21.8088 176.884 21.8088 176.534C21.8088 176.185 21.7434 175.872 21.6127 175.597C21.4849 175.321 21.2775 175.105 20.9906 174.949C20.7037 174.79 20.323 174.71 19.8485 174.71H17.9906V182.5H16.9338ZM25.4203 173.773V182.5H24.4146V173.773H25.4203ZM29.1884 182.653C28.7736 182.653 28.3972 182.575 28.0591 182.419C27.7211 182.26 27.4526 182.031 27.2537 181.733C27.0549 181.432 26.9554 181.068 26.9554 180.642C26.9554 180.267 27.0293 179.963 27.177 179.73C27.3248 179.494 27.5222 179.31 27.7694 179.176C28.0165 179.043 28.2892 178.943 28.5875 178.878C28.8887 178.81 29.1912 178.756 29.4952 178.716C29.8929 178.665 30.2154 178.626 30.4625 178.601C30.7125 178.572 30.8944 178.526 31.008 178.46C31.1245 178.395 31.1827 178.281 31.1827 178.119V178.085C31.1827 177.665 31.0676 177.338 30.8375 177.105C30.6103 176.872 30.2651 176.756 29.802 176.756C29.3219 176.756 28.9455 176.861 28.6728 177.071C28.4 177.281 28.2083 177.506 28.0975 177.744L27.1429 177.403C27.3134 177.006 27.5407 176.696 27.8248 176.474C28.1117 176.25 28.4242 176.094 28.7623 176.006C29.1032 175.915 29.4384 175.869 29.7679 175.869C29.9782 175.869 30.2196 175.895 30.4924 175.946C30.7679 175.994 31.0336 176.095 31.2892 176.249C31.5478 176.402 31.7623 176.634 31.9327 176.943C32.1032 177.253 32.1884 177.668 32.1884 178.188V182.5H31.1827V181.614H31.1316C31.0634 181.756 30.9498 181.908 30.7907 182.07C30.6316 182.232 30.4199 182.369 30.1557 182.483C29.8915 182.597 29.5691 182.653 29.1884 182.653ZM29.3418 181.75C29.7395 181.75 30.0748 181.672 30.3475 181.516C30.623 181.359 30.8304 181.158 30.9696 180.911C31.1117 180.663 31.1827 180.403 31.1827 180.131V179.21C31.1401 179.261 31.0463 179.308 30.9015 179.351C30.7594 179.391 30.5946 179.426 30.4071 179.457C30.2225 179.486 30.0421 179.511 29.8659 179.534C29.6926 179.554 29.552 179.571 29.4441 179.585C29.1827 179.619 28.9384 179.675 28.7111 179.751C28.4867 179.825 28.3049 179.937 28.1657 180.088C28.0293 180.236 27.9611 180.437 27.9611 180.693C27.9611 181.043 28.0904 181.307 28.3489 181.486C28.6103 181.662 28.9412 181.75 29.3418 181.75ZM35.0297 178.562V182.5H34.024V175.955H34.9956V176.977H35.0808C35.2342 176.645 35.4672 176.378 35.7797 176.176C36.0922 175.972 36.4956 175.869 36.9899 175.869C37.4331 175.869 37.8208 175.96 38.1532 176.142C38.4856 176.321 38.7441 176.594 38.9288 176.96C39.1135 177.324 39.2058 177.784 39.2058 178.341V182.5H38.2001V178.409C38.2001 177.895 38.0666 177.494 37.7995 177.207C37.5325 176.918 37.166 176.773 36.7001 176.773C36.3791 176.773 36.0922 176.842 35.8393 176.982C35.5893 177.121 35.3919 177.324 35.247 177.591C35.1021 177.858 35.0297 178.182 35.0297 178.562Z" fill="#393939"/>
<rect width="56" height="56" transform="translate(260 130)" fill="white"/>
<path d="M284.672 135.021C284.717 135.577 284.958 136.1 285.351 136.496C285.799 136.945 286.051 137.553 286.051 138.188C286.051 138.822 285.799 139.43 285.351 139.879C284.902 140.327 284.65 140.936 284.65 141.57C284.65 142.205 284.902 142.813 285.351 143.262C285.799 143.711 286.051 144.319 286.051 144.953C286.051 145.588 285.799 146.196 285.351 146.645M287.316 134.634C287.268 135.302 287.488 135.986 288 136.496C288.448 136.945 288.7 137.553 288.7 138.188C288.7 138.822 288.448 139.43 288 139.879C287.551 140.327 287.299 140.936 287.299 141.57C287.299 142.205 287.551 142.813 288 143.262C288.448 143.711 288.7 144.319 288.7 144.953C288.7 145.588 288.448 146.196 288 146.645M289.919 134.753C289.911 135.075 289.968 135.396 290.087 135.696C290.207 135.996 290.386 136.268 290.615 136.496C291.063 136.945 291.315 137.553 291.315 138.188C291.315 138.822 291.063 139.43 290.615 139.879C290.166 140.327 289.914 140.936 289.914 141.57C289.914 142.205 290.166 142.813 290.615 143.262C291.063 143.711 291.315 144.319 291.315 144.953C291.315 145.588 291.063 146.196 290.615 146.645M274.125 143.295L279.015 148.491M274.125 148.492C274.125 156.155 280.337 162.367 288 162.367C295.663 162.367 301.875 156.155 301.875 148.492H274.125Z" stroke="#393939" stroke-width="1.5" stroke-linecap="round" stroke-linejoin="round"/>
<path d="M281.29 176.5H280.234C280.171 176.196 280.062 175.929 279.906 175.699C279.752 175.469 279.565 175.276 279.343 175.119C279.124 174.96 278.881 174.841 278.614 174.761C278.347 174.682 278.069 174.642 277.779 174.642C277.251 174.642 276.772 174.776 276.343 175.043C275.917 175.31 275.577 175.703 275.325 176.223C275.075 176.743 274.95 177.381 274.95 178.136C274.95 178.892 275.075 179.53 275.325 180.05C275.577 180.57 275.917 180.963 276.343 181.23C276.772 181.497 277.251 181.631 277.779 181.631C278.069 181.631 278.347 181.591 278.614 181.511C278.881 181.432 279.124 181.314 279.343 181.158C279.565 180.999 279.752 180.804 279.906 180.574C280.062 180.341 280.171 180.074 280.234 179.773H281.29C281.211 180.219 281.066 180.618 280.856 180.97C280.646 181.322 280.384 181.622 280.072 181.869C279.759 182.114 279.408 182.3 279.019 182.428C278.633 182.555 278.219 182.619 277.779 182.619C277.035 182.619 276.373 182.438 275.793 182.074C275.214 181.71 274.758 181.193 274.425 180.523C274.093 179.852 273.927 179.057 273.927 178.136C273.927 177.216 274.093 176.42 274.425 175.75C274.758 175.08 275.214 174.562 275.793 174.199C276.373 173.835 277.035 173.653 277.779 173.653C278.219 173.653 278.633 173.717 279.019 173.845C279.408 173.973 279.759 174.161 280.072 174.408C280.384 174.652 280.646 174.95 280.856 175.303C281.066 175.652 281.211 176.051 281.29 176.5ZM285.521 182.636C284.93 182.636 284.412 182.496 283.966 182.214C283.522 181.933 283.176 181.54 282.926 181.034C282.679 180.528 282.555 179.937 282.555 179.261C282.555 178.58 282.679 177.984 282.926 177.476C283.176 176.967 283.522 176.572 283.966 176.291C284.412 176.01 284.93 175.869 285.521 175.869C286.112 175.869 286.629 176.01 287.072 176.291C287.518 176.572 287.865 176.967 288.112 177.476C288.362 177.984 288.487 178.58 288.487 179.261C288.487 179.937 288.362 180.528 288.112 181.034C287.865 181.54 287.518 181.933 287.072 182.214C286.629 182.496 286.112 182.636 285.521 182.636ZM285.521 181.733C285.97 181.733 286.339 181.618 286.629 181.388C286.919 181.158 287.133 180.855 287.272 180.48C287.412 180.105 287.481 179.699 287.481 179.261C287.481 178.824 287.412 178.416 287.272 178.038C287.133 177.661 286.919 177.355 286.629 177.122C286.339 176.889 285.97 176.773 285.521 176.773C285.072 176.773 284.703 176.889 284.413 177.122C284.123 177.355 283.909 177.661 283.77 178.038C283.63 178.416 283.561 178.824 283.561 179.261C283.561 179.699 283.63 180.105 283.77 180.48C283.909 180.855 284.123 181.158 284.413 181.388C284.703 181.618 285.072 181.733 285.521 181.733ZM292.681 182.636C292.09 182.636 291.572 182.496 291.126 182.214C290.683 181.933 290.336 181.54 290.086 181.034C289.839 180.528 289.715 179.937 289.715 179.261C289.715 178.58 289.839 177.984 290.086 177.476C290.336 176.967 290.683 176.572 291.126 176.291C291.572 176.01 292.09 175.869 292.681 175.869C293.272 175.869 293.789 176.01 294.232 176.291C294.678 176.572 295.025 176.967 295.272 177.476C295.522 177.984 295.647 178.58 295.647 179.261C295.647 179.937 295.522 180.528 295.272 181.034C295.025 181.54 294.678 181.933 294.232 182.214C293.789 182.496 293.272 182.636 292.681 182.636ZM292.681 181.733C293.13 181.733 293.499 181.618 293.789 181.388C294.079 181.158 294.293 180.855 294.433 180.48C294.572 180.105 294.641 179.699 294.641 179.261C294.641 178.824 294.572 178.416 294.433 178.038C294.293 177.661 294.079 177.355 293.789 177.122C293.499 176.889 293.13 176.773 292.681 176.773C292.232 176.773 291.863 176.889 291.573 177.122C291.283 177.355 291.069 177.661 290.93 178.038C290.79 178.416 290.721 178.824 290.721 179.261C290.721 179.699 290.79 180.105 290.93 180.48C291.069 180.855 291.283 181.158 291.573 181.388C291.863 181.618 292.232 181.733 292.681 181.733ZM298.12 180.114L298.103 178.869H298.307L301.171 175.955H302.415L299.364 179.04H299.279L298.12 180.114ZM297.182 182.5V173.773H298.188V182.5H297.182ZM301.341 182.5L298.784 179.261L299.5 178.562L302.62 182.5H301.341Z" fill="#393939"/>
<rect width="56" height="56" transform="translate(130 260)" fill="#FAFAFD"/>
<path d="M157.993 264.086C156.607 264.086 155.691 265.059 155.17 265.934C154.641 266.822 154.36 267.86 154.323 268.53C154.249 269.862 154.449 271.028 155.113 271.871C155.804 272.749 156.841 273.086 157.993 273.086C159.161 273.086 160.194 272.709 160.882 271.831C161.546 270.981 161.76 269.824 161.674 268.521C161.632 267.887 161.348 266.854 160.821 265.963C160.304 265.09 159.386 264.086 157.993 264.086ZM156.123 268.629C156.141 268.263 156.331 267.506 156.718 266.854C157.114 266.192 157.555 265.886 157.996 265.886C158.427 265.886 158.869 266.195 159.274 266.877C159.665 267.543 159.859 268.305 159.881 268.638C159.951 269.718 159.748 270.362 159.467 270.722C159.21 271.05 158.774 271.286 157.995 271.286C157.185 271.286 156.767 271.061 156.529 270.756C156.259 270.414 156.06 269.777 156.123 268.629ZM149 274.9C148.045 274.9 147.13 275.279 146.455 275.955C145.779 276.63 145.4 277.545 145.4 278.5V289.3H144.5C144.261 289.3 144.032 289.395 143.864 289.564C143.695 289.732 143.6 289.961 143.6 290.2C143.6 290.439 143.695 290.668 143.864 290.836C144.032 291.005 144.261 291.1 144.5 291.1H171.5C171.739 291.1 171.968 291.005 172.136 290.836C172.305 290.668 172.4 290.439 172.4 290.2C172.4 289.961 172.305 289.732 172.136 289.564C171.968 289.395 171.739 289.3 171.5 289.3H170.6V278.5C170.6 277.545 170.221 276.63 169.546 275.955C168.871 275.279 167.955 274.9 167 274.9H149ZM168.8 289.3H147.2V282.312L149.981 284.796C150.334 285.112 150.746 285.355 151.193 285.511C151.64 285.668 152.114 285.734 152.587 285.707C153.06 285.68 153.523 285.56 153.949 285.354C154.375 285.147 154.757 284.859 155.071 284.505L156.655 282.723C156.824 282.533 157.032 282.381 157.264 282.277C157.495 282.172 157.747 282.119 158.001 282.119C158.255 282.119 158.507 282.172 158.738 282.277C158.97 282.381 159.178 282.533 159.346 282.723L160.929 284.505C161.243 284.859 161.625 285.148 162.051 285.355C162.478 285.561 162.941 285.682 163.414 285.709C163.887 285.736 164.361 285.67 164.808 285.514C165.256 285.357 165.668 285.114 166.021 284.798L168.8 282.312V289.3ZM168.8 279.897L164.82 283.455C164.644 283.613 164.438 283.735 164.214 283.813C163.991 283.891 163.754 283.924 163.517 283.911C163.281 283.897 163.05 283.837 162.836 283.734C162.623 283.631 162.432 283.487 162.275 283.31L160.691 281.528C160.353 281.148 159.939 280.843 159.475 280.635C159.011 280.427 158.509 280.319 158 280.319C157.492 280.319 156.989 280.427 156.525 280.635C156.061 280.843 155.647 281.148 155.309 281.528L153.725 283.31C153.568 283.487 153.377 283.631 153.164 283.734C152.951 283.837 152.719 283.897 152.483 283.911C152.246 283.924 152.01 283.891 151.786 283.813C151.562 283.735 151.356 283.613 151.18 283.455L147.2 279.897V278.5C147.2 278.023 147.39 277.565 147.727 277.227C148.065 276.89 148.523 276.7 149 276.7H167C167.477 276.7 167.935 276.89 168.273 277.227C168.61 277.565 168.8 278.023 168.8 278.5V279.897Z" fill="#393939"/>
<path d="M138.33 306.5H137.273C137.21 306.196 137.101 305.929 136.945 305.699C136.791 305.469 136.604 305.276 136.382 305.119C136.163 304.96 135.92 304.841 135.653 304.761C135.386 304.682 135.108 304.642 134.818 304.642C134.29 304.642 133.811 304.776 133.382 305.043C132.956 305.31 132.616 305.703 132.364 306.223C132.114 306.743 131.989 307.381 131.989 308.136C131.989 308.892 132.114 309.53 132.364 310.05C132.616 310.57 132.956 310.963 133.382 311.23C133.811 311.497 134.29 311.631 134.818 311.631C135.108 311.631 135.386 311.591 135.653 311.511C135.92 311.432 136.163 311.314 136.382 311.158C136.604 310.999 136.791 310.804 136.945 310.574C137.101 310.341 137.21 310.074 137.273 309.773H138.33C138.25 310.219 138.105 310.618 137.895 310.97C137.685 311.322 137.423 311.622 137.111 311.869C136.798 312.114 136.447 312.3 136.058 312.428C135.672 312.555 135.259 312.619 134.818 312.619C134.074 312.619 133.412 312.438 132.832 312.074C132.253 311.71 131.797 311.193 131.464 310.523C131.132 309.852 130.966 309.057 130.966 308.136C130.966 307.216 131.132 306.42 131.464 305.75C131.797 305.08 132.253 304.562 132.832 304.199C133.412 303.835 134.074 303.653 134.818 303.653C135.259 303.653 135.672 303.717 136.058 303.845C136.447 303.973 136.798 304.161 137.111 304.408C137.423 304.652 137.685 304.95 137.895 305.303C138.105 305.652 138.25 306.051 138.33 306.5ZM142.645 312.636C142.015 312.636 141.471 312.497 141.013 312.219C140.559 311.938 140.208 311.545 139.961 311.043C139.716 310.537 139.594 309.949 139.594 309.278C139.594 308.608 139.716 308.017 139.961 307.506C140.208 306.991 140.551 306.591 140.992 306.304C141.435 306.014 141.952 305.869 142.543 305.869C142.884 305.869 143.221 305.926 143.553 306.04C143.885 306.153 144.188 306.338 144.461 306.594C144.733 306.847 144.951 307.182 145.113 307.599C145.275 308.017 145.355 308.531 145.355 309.142V309.568H140.31V308.699H144.333C144.333 308.33 144.259 308 144.111 307.71C143.966 307.42 143.759 307.192 143.489 307.024C143.222 306.857 142.907 306.773 142.543 306.773C142.142 306.773 141.796 306.872 141.503 307.071C141.213 307.267 140.99 307.523 140.834 307.838C140.678 308.153 140.6 308.491 140.6 308.852V309.432C140.6 309.926 140.685 310.345 140.855 310.689C141.029 311.03 141.269 311.29 141.576 311.469C141.882 311.645 142.239 311.733 142.645 311.733C142.909 311.733 143.148 311.696 143.361 311.622C143.577 311.545 143.763 311.432 143.919 311.281C144.076 311.128 144.196 310.937 144.282 310.71L145.253 310.983C145.151 311.312 144.979 311.602 144.738 311.852C144.496 312.099 144.198 312.293 143.843 312.432C143.488 312.568 143.088 312.636 142.645 312.636ZM147.891 303.773V312.5H146.885V303.773H147.891ZM152.477 312.636C151.847 312.636 151.303 312.497 150.845 312.219C150.391 311.938 150.04 311.545 149.793 311.043C149.548 310.537 149.426 309.949 149.426 309.278C149.426 308.608 149.548 308.017 149.793 307.506C150.04 306.991 150.384 306.591 150.824 306.304C151.267 306.014 151.784 305.869 152.375 305.869C152.716 305.869 153.053 305.926 153.385 306.04C153.717 306.153 154.02 306.338 154.293 306.594C154.565 306.847 154.783 307.182 154.945 307.599C155.107 308.017 155.188 308.531 155.188 309.142V309.568H150.142V308.699H154.165C154.165 308.33 154.091 308 153.943 307.71C153.798 307.42 153.591 307.192 153.321 307.024C153.054 306.857 152.739 306.773 152.375 306.773C151.974 306.773 151.628 306.872 151.335 307.071C151.045 307.267 150.822 307.523 150.666 307.838C150.51 308.153 150.432 308.491 150.432 308.852V309.432C150.432 309.926 150.517 310.345 150.688 310.689C150.861 311.03 151.101 311.29 151.408 311.469C151.714 311.645 152.071 311.733 152.477 311.733C152.741 311.733 152.98 311.696 153.193 311.622C153.409 311.545 153.595 311.432 153.751 311.281C153.908 311.128 154.028 310.937 154.114 310.71L155.085 310.983C154.983 311.312 154.811 311.602 154.57 311.852C154.328 312.099 154.03 312.293 153.675 312.432C153.32 312.568 152.92 312.636 152.477 312.636ZM156.854 312.5V303.773H157.859V306.994H157.945C158.018 306.881 158.121 306.736 158.251 306.56C158.385 306.381 158.575 306.222 158.822 306.082C159.072 305.94 159.411 305.869 159.837 305.869C160.388 305.869 160.874 306.007 161.294 306.283C161.714 306.558 162.043 306.949 162.278 307.455C162.514 307.96 162.632 308.557 162.632 309.244C162.632 309.938 162.514 310.538 162.278 311.047C162.043 311.553 161.716 311.945 161.298 312.223C160.881 312.499 160.399 312.636 159.854 312.636C159.433 312.636 159.097 312.567 158.844 312.428C158.591 312.286 158.396 312.125 158.26 311.946C158.124 311.764 158.018 311.614 157.945 311.494H157.825V312.5H156.854ZM157.842 309.227C157.842 309.722 157.915 310.158 158.06 310.536C158.205 310.911 158.416 311.205 158.695 311.418C158.973 311.628 159.314 311.733 159.717 311.733C160.138 311.733 160.489 311.622 160.77 311.401C161.054 311.176 161.267 310.875 161.409 310.497C161.554 310.116 161.626 309.693 161.626 309.227C161.626 308.767 161.555 308.352 161.413 307.983C161.274 307.611 161.063 307.317 160.778 307.101C160.497 306.882 160.143 306.773 159.717 306.773C159.308 306.773 158.964 306.876 158.686 307.084C158.408 307.288 158.197 307.575 158.055 307.945C157.913 308.311 157.842 308.739 157.842 309.227ZM164.17 312.5V305.955H165.142V306.943H165.21C165.33 306.619 165.545 306.357 165.858 306.155C166.17 305.953 166.523 305.852 166.915 305.852C166.989 305.852 167.081 305.854 167.192 305.857C167.303 305.859 167.386 305.864 167.443 305.869V306.892C167.409 306.884 167.331 306.871 167.209 306.854C167.089 306.834 166.963 306.824 166.83 306.824C166.511 306.824 166.227 306.891 165.977 307.024C165.73 307.155 165.534 307.337 165.389 307.57C165.247 307.8 165.176 308.062 165.176 308.358V312.5H164.17ZM170.561 312.653C170.147 312.653 169.77 312.575 169.432 312.419C169.094 312.26 168.826 312.031 168.627 311.733C168.428 311.432 168.328 311.068 168.328 310.642C168.328 310.267 168.402 309.963 168.55 309.73C168.698 309.494 168.895 309.31 169.142 309.176C169.39 309.043 169.662 308.943 169.961 308.878C170.262 308.81 170.564 308.756 170.868 308.716C171.266 308.665 171.588 308.626 171.836 308.601C172.086 308.572 172.267 308.526 172.381 308.46C172.498 308.395 172.556 308.281 172.556 308.119V308.085C172.556 307.665 172.441 307.338 172.211 307.105C171.983 306.872 171.638 306.756 171.175 306.756C170.695 306.756 170.319 306.861 170.046 307.071C169.773 307.281 169.581 307.506 169.471 307.744L168.516 307.403C168.686 307.006 168.914 306.696 169.198 306.474C169.485 306.25 169.797 306.094 170.135 306.006C170.476 305.915 170.811 305.869 171.141 305.869C171.351 305.869 171.593 305.895 171.865 305.946C172.141 305.994 172.407 306.095 172.662 306.249C172.921 306.402 173.135 306.634 173.306 306.943C173.476 307.253 173.561 307.668 173.561 308.188V312.5H172.556V311.614H172.505C172.436 311.756 172.323 311.908 172.164 312.07C172.005 312.232 171.793 312.369 171.529 312.483C171.265 312.597 170.942 312.653 170.561 312.653ZM170.715 311.75C171.113 311.75 171.448 311.672 171.721 311.516C171.996 311.359 172.203 311.158 172.343 310.911C172.485 310.663 172.556 310.403 172.556 310.131V309.21C172.513 309.261 172.419 309.308 172.275 309.351C172.132 309.391 171.968 309.426 171.78 309.457C171.596 309.486 171.415 309.511 171.239 309.534C171.066 309.554 170.925 309.571 170.817 309.585C170.556 309.619 170.311 309.675 170.084 309.751C169.86 309.825 169.678 309.937 169.539 310.088C169.402 310.236 169.334 310.437 169.334 310.693C169.334 311.043 169.463 311.307 169.722 311.486C169.983 311.662 170.314 311.75 170.715 311.75ZM178.244 305.955V306.807H174.852V305.955H178.244ZM175.84 304.386H176.846V310.625C176.846 310.909 176.887 311.122 176.969 311.264C177.055 311.403 177.163 311.497 177.293 311.545C177.427 311.591 177.567 311.614 177.715 311.614C177.826 311.614 177.917 311.608 177.988 311.597C178.059 311.582 178.116 311.571 178.158 311.562L178.363 312.466C178.295 312.491 178.2 312.517 178.077 312.543C177.955 312.571 177.8 312.585 177.613 312.585C177.329 312.585 177.05 312.524 176.778 312.402C176.508 312.28 176.283 312.094 176.104 311.844C175.928 311.594 175.84 311.278 175.84 310.898V304.386ZM182.43 312.636C181.8 312.636 181.256 312.497 180.798 312.219C180.344 311.938 179.993 311.545 179.746 311.043C179.501 310.537 179.379 309.949 179.379 309.278C179.379 308.608 179.501 308.017 179.746 307.506C179.993 306.991 180.337 306.591 180.777 306.304C181.22 306.014 181.737 305.869 182.328 305.869C182.669 305.869 183.006 305.926 183.338 306.04C183.67 306.153 183.973 306.338 184.246 306.594C184.518 306.847 184.736 307.182 184.898 307.599C185.06 308.017 185.141 308.531 185.141 309.142V309.568H180.095V308.699H184.118C184.118 308.33 184.044 308 183.896 307.71C183.751 307.42 183.544 307.192 183.274 307.024C183.007 306.857 182.692 306.773 182.328 306.773C181.928 306.773 181.581 306.872 181.288 307.071C180.999 307.267 180.776 307.523 180.619 307.838C180.463 308.153 180.385 308.491 180.385 308.852V309.432C180.385 309.926 180.47 310.345 180.641 310.689C180.814 311.03 181.054 311.29 181.361 311.469C181.668 311.645 182.024 311.733 182.43 311.733C182.695 311.733 182.933 311.696 183.146 311.622C183.362 311.545 183.548 311.432 183.705 311.281C183.861 311.128 183.982 310.937 184.067 310.71L185.038 310.983C184.936 311.312 184.764 311.602 184.523 311.852C184.281 312.099 183.983 312.293 183.628 312.432C183.273 312.568 182.874 312.636 182.43 312.636Z" fill="#393939"/>
<rect width="56" height="56" transform="translate(130)" fill="white"/>
<path d="M155 31.25C156.243 31.25 157.25 30.2426 157.25 29C157.25 27.7574 156.243 26.75 155 26.75C153.757 26.75 152.75 27.7574 152.75 29C152.75 30.2426 153.757 31.25 155 31.25Z" stroke="#393939" stroke-width="2"/>
<path d="M165.5 31.25C166.743 31.25 167.75 30.2426 167.75 29C167.75 27.7574 166.743 26.75 165.5 26.75C164.257 26.75 163.25 27.7574 163.25 29C163.25 30.2426 164.257 31.25 165.5 31.25Z" stroke="#393939" stroke-width="2"/>
<path d="M145.25 6.5H148.25L153.506 23H165.5" stroke="#393939" stroke-width="2" stroke-linecap="round" stroke-linejoin="round"/>
<path d="M152.336 19.25L149.45 10.25H168.21C168.329 10.2499 168.447 10.278 168.552 10.3321C168.658 10.3861 168.75 10.4646 168.819 10.561C168.889 10.6574 168.935 10.769 168.953 10.8865C168.971 11.0041 168.961 11.1242 168.923 11.237L166.422 18.737C166.373 18.8863 166.277 19.0161 166.15 19.1082C166.022 19.2003 165.869 19.2499 165.711 19.25H152.336Z" stroke="#393939" stroke-width="2" stroke-linecap="round" stroke-linejoin="round"/>
<path d="M148.328 52.5V43.7727H151.379C151.987 43.7727 152.489 43.8778 152.884 44.0881C153.279 44.2955 153.573 44.5753 153.766 44.9276C153.959 45.277 154.056 45.6648 154.056 46.0909C154.056 46.4659 153.989 46.7756 153.855 47.0199C153.725 47.2642 153.551 47.4574 153.335 47.5994C153.122 47.7415 152.891 47.8466 152.641 47.9148V48C152.908 48.017 153.176 48.1108 153.446 48.2812C153.716 48.4517 153.942 48.696 154.124 49.0142C154.306 49.3324 154.396 49.7216 154.396 50.1818C154.396 50.6193 154.297 51.0128 154.098 51.3622C153.899 51.7116 153.585 51.9886 153.156 52.1932C152.727 52.3977 152.169 52.5 151.482 52.5H148.328ZM149.385 51.5625H151.482C152.172 51.5625 152.662 51.429 152.952 51.1619C153.244 50.892 153.391 50.5653 153.391 50.1818C153.391 49.8864 153.316 49.6136 153.165 49.3636C153.014 49.1108 152.8 48.9091 152.521 48.7585C152.243 48.6051 151.914 48.5284 151.533 48.5284H149.385V51.5625ZM149.385 47.608H151.345C151.664 47.608 151.95 47.5455 152.206 47.4205C152.465 47.2955 152.669 47.1193 152.82 46.892C152.973 46.6648 153.05 46.3977 153.05 46.0909C153.05 45.7074 152.916 45.3821 152.649 45.1151C152.382 44.8452 151.959 44.7102 151.379 44.7102H149.385V47.608ZM160.122 49.8239V45.9545H161.127V52.5H160.122V51.392H160.053C159.9 51.7244 159.661 52.0071 159.338 52.2401C159.014 52.4702 158.605 52.5852 158.11 52.5852C157.701 52.5852 157.338 52.4957 157.019 52.3168C156.701 52.1349 156.451 51.8622 156.269 51.4986C156.088 51.1321 155.997 50.6705 155.997 50.1136V45.9545H157.002V50.0455C157.002 50.5227 157.136 50.9034 157.403 51.1875C157.673 51.4716 158.017 51.6136 158.434 51.6136C158.684 51.6136 158.938 51.5497 159.197 51.4219C159.458 51.294 159.677 51.098 159.853 50.8338C160.032 50.5696 160.122 50.233 160.122 49.8239ZM163.617 54.9545C163.447 54.9545 163.295 54.9403 163.161 54.9119C163.028 54.8864 162.935 54.8608 162.884 54.8352L163.14 53.9489C163.384 54.0114 163.6 54.0341 163.787 54.017C163.975 54 164.141 53.9162 164.286 53.7656C164.434 53.6179 164.569 53.3778 164.691 53.0455L164.878 52.5341L162.458 45.9545H163.549L165.356 51.1705H165.424L167.231 45.9545H168.322L165.543 53.4545C165.418 53.7926 165.263 54.0724 165.079 54.294C164.894 54.5185 164.68 54.6847 164.435 54.7926C164.194 54.9006 163.921 54.9545 163.617 54.9545Z" fill="#393939"/>
<defs>
<clipPath id="clip0_1039_4621">
<rect width="36" height="36" fill="white" transform="translate(10 130.5)"/>
</clipPath>
</defs>
</svg>
