<svg width="316" height="288" viewBox="0 0 316 288" fill="none" xmlns="http://www.w3.org/2000/svg">
<rect x="29" y="29" width="258" height="258" rx="129" stroke="#43A047" stroke-width="2"/>
<path d="M156.816 167.601H138.179C135.258 167.601 133.005 170.174 133.391 173.07L135.816 187.089C136.776 194.289 142.917 199.666 150.181 199.666H163.451C170.715 199.666 176.857 194.289 177.817 187.089L180.241 173.07C180.628 170.174 178.375 167.601 175.453 167.601H156.816ZM156.816 167.601V150.753V147.583M156.816 147.583V144.413V138.072M156.816 147.583L149.569 141.695M156.816 147.583L164.062 141.695" stroke="#0B0B0B" stroke-linecap="round" stroke-linejoin="round"/>
<path d="M173.724 141.696C173.724 151.034 166.153 158.604 156.816 158.604C147.477 158.604 139.907 151.034 139.907 141.696C139.907 129.618 156.816 116.333 156.816 116.333C156.816 116.333 173.724 129.618 173.724 141.696Z" stroke="#0B0B0B"/>
<rect width="56" height="56" transform="translate(0 130)" fill="white"/>
<path d="M28.9172 150.803L27.2319 153.994C27.2319 153.994 24.9729 144.205 32.7422 138.659C35.9259 147.658 28.4619 154.381 28.4619 154.381L28.9119 150.8M19.1649 140.404C23.1804 140.666 26.5269 144.755 26.5269 144.755C25.5246 147.114 25.2498 149.72 25.7379 152.237C22.0179 148.979 18.5679 145.601 19.1642 140.404M12.2109 152.939C16.794 155.942 22.034 157.795 27.4862 158.341C24.7577 152.025 19.9089 149.761 12.2109 152.939ZM28.5617 158.306C36.8304 157.887 43.7807 153.047 43.7889 153C36.7539 149.966 31.6442 151.651 28.5617 158.306Z" stroke="#393939" stroke-width="2" stroke-linecap="round" stroke-linejoin="round"/>
<path d="M12.6655 176.5H11.6087C11.5462 176.196 11.4368 175.929 11.2805 175.699C11.1271 175.469 10.9396 175.276 10.718 175.119C10.4993 174.96 10.2564 174.841 9.98935 174.761C9.7223 174.682 9.44389 174.642 9.15412 174.642C8.62571 174.642 8.14702 174.776 7.71804 175.043C7.2919 175.31 6.95241 175.703 6.69957 176.223C6.44957 176.743 6.32457 177.381 6.32457 178.136C6.32457 178.892 6.44957 179.53 6.69957 180.05C6.95241 180.57 7.2919 180.963 7.71804 181.23C8.14702 181.497 8.62571 181.631 9.15412 181.631C9.44389 181.631 9.7223 181.591 9.98935 181.511C10.2564 181.432 10.4993 181.314 10.718 181.158C10.9396 180.999 11.1271 180.804 11.2805 180.574C11.4368 180.341 11.5462 180.074 11.6087 179.773H12.6655C12.5859 180.219 12.4411 180.618 12.2308 180.97C12.0206 181.322 11.7592 181.622 11.4467 181.869C11.1342 182.114 10.7834 182.3 10.3942 182.428C10.0078 182.555 9.59446 182.619 9.15412 182.619C8.4098 182.619 7.74787 182.438 7.16832 182.074C6.58878 181.71 6.13281 181.193 5.80043 180.523C5.46804 179.852 5.30185 179.057 5.30185 178.136C5.30185 177.216 5.46804 176.42 5.80043 175.75C6.13281 175.08 6.58878 174.562 7.16832 174.199C7.74787 173.835 8.4098 173.653 9.15412 173.653C9.59446 173.653 10.0078 173.717 10.3942 173.845C10.7834 173.973 11.1342 174.161 11.4467 174.408C11.7592 174.652 12.0206 174.95 12.2308 175.303C12.4411 175.652 12.5859 176.051 12.6655 176.5ZM16.163 182.653C15.7482 182.653 15.3718 182.575 15.0337 182.419C14.6957 182.26 14.4272 182.031 14.2283 181.733C14.0295 181.432 13.93 181.068 13.93 180.642C13.93 180.267 14.0039 179.963 14.1516 179.73C14.2994 179.494 14.4968 179.31 14.744 179.176C14.9911 179.043 15.2638 178.943 15.5621 178.878C15.8633 178.81 16.1658 178.756 16.4698 178.716C16.8675 178.665 17.19 178.626 17.4371 178.601C17.6871 178.572 17.869 178.526 17.9826 178.46C18.0991 178.395 18.1573 178.281 18.1573 178.119V178.085C18.1573 177.665 18.0423 177.338 17.8121 177.105C17.5849 176.872 17.2397 176.756 16.7766 176.756C16.2965 176.756 15.9201 176.861 15.6474 177.071C15.3746 177.281 15.1829 177.506 15.0721 177.744L14.1175 177.403C14.288 177.006 14.5153 176.696 14.7994 176.474C15.0863 176.25 15.3988 176.094 15.7369 176.006C16.0778 175.915 16.413 175.869 16.7425 175.869C16.9528 175.869 17.1942 175.895 17.467 175.946C17.7425 175.994 18.0082 176.095 18.2638 176.249C18.5224 176.402 18.7369 176.634 18.9073 176.943C19.0778 177.253 19.163 177.668 19.163 178.188V182.5H18.1573V181.614H18.1062C18.038 181.756 17.9244 181.908 17.7653 182.07C17.6062 182.232 17.3945 182.369 17.1303 182.483C16.8661 182.597 16.5437 182.653 16.163 182.653ZM16.3164 181.75C16.7141 181.75 17.0494 181.672 17.3221 181.516C17.5977 181.359 17.805 181.158 17.9442 180.911C18.0863 180.663 18.1573 180.403 18.1573 180.131V179.21C18.1147 179.261 18.021 179.308 17.8761 179.351C17.734 179.391 17.5692 179.426 17.3817 179.457C17.1971 179.486 17.0167 179.511 16.8406 179.534C16.6673 179.554 16.5266 179.571 16.4187 179.585C16.1573 179.619 15.913 179.675 15.6857 179.751C15.4613 179.825 15.2795 179.937 15.1403 180.088C15.0039 180.236 14.9357 180.437 14.9357 180.693C14.9357 181.043 15.065 181.307 15.3235 181.486C15.5849 181.662 15.9158 181.75 16.3164 181.75ZM20.2997 184.375V181.562H20.8452C20.9787 181.423 21.0938 181.273 21.1903 181.111C21.2869 180.949 21.3707 180.757 21.4418 180.536C21.5156 180.311 21.5781 180.038 21.6293 179.717C21.6804 179.393 21.7259 179.003 21.7656 178.545L21.9872 175.955H26.1463V181.562H27.152V184.375H26.1463V182.5H21.3054V184.375H20.2997ZM21.9872 181.562H25.1406V176.892H22.9247L22.7543 178.545C22.6832 179.23 22.5952 179.828 22.4901 180.339C22.3849 180.851 22.2173 181.259 21.9872 181.562ZM28.0778 182.5L30.7369 179.176L28.1119 175.955H29.305L31.4869 178.75H32.0323V175.955H33.038V178.75H33.5664L35.7482 175.955H36.9414L34.3335 179.176L36.9755 182.5H35.7653L33.5494 179.688H33.038V182.5H32.0323V179.688H31.521L29.288 182.5H28.0778ZM40.3388 182.653C39.924 182.653 39.5476 182.575 39.2095 182.419C38.8714 182.26 38.603 182.031 38.4041 181.733C38.2053 181.432 38.1058 181.068 38.1058 180.642C38.1058 180.267 38.1797 179.963 38.3274 179.73C38.4751 179.494 38.6726 179.31 38.9197 179.176C39.1669 179.043 39.4396 178.943 39.7379 178.878C40.0391 178.81 40.3416 178.756 40.6456 178.716C41.0433 178.665 41.3658 178.626 41.6129 178.601C41.8629 178.572 42.0447 178.526 42.1584 178.46C42.2749 178.395 42.3331 178.281 42.3331 178.119V178.085C42.3331 177.665 42.218 177.338 41.9879 177.105C41.7607 176.872 41.4155 176.756 40.9524 176.756C40.4723 176.756 40.0959 176.861 39.8232 177.071C39.5504 177.281 39.3587 177.506 39.2479 177.744L38.2933 177.403C38.4638 177.006 38.6911 176.696 38.9751 176.474C39.2621 176.25 39.5746 176.094 39.9126 176.006C40.2536 175.915 40.5888 175.869 40.9183 175.869C41.1286 175.869 41.37 175.895 41.6428 175.946C41.9183 175.994 42.1839 176.095 42.4396 176.249C42.6982 176.402 42.9126 176.634 43.0831 176.943C43.2536 177.253 43.3388 177.668 43.3388 178.188V182.5H42.3331V181.614H42.282C42.2138 181.756 42.1001 181.908 41.9411 182.07C41.782 182.232 41.5703 182.369 41.3061 182.483C41.0419 182.597 40.7195 182.653 40.3388 182.653ZM40.4922 181.75C40.8899 181.75 41.2251 181.672 41.4979 181.516C41.7734 181.359 41.9808 181.158 42.12 180.911C42.2621 180.663 42.3331 180.403 42.3331 180.131V179.21C42.2905 179.261 42.1967 179.308 42.0518 179.351C41.9098 179.391 41.745 179.426 41.5575 179.457C41.3729 179.486 41.1925 179.511 41.0163 179.534C40.843 179.554 40.7024 179.571 40.5945 179.585C40.3331 179.619 40.0888 179.675 39.8615 179.751C39.6371 179.825 39.4553 179.937 39.3161 180.088C39.1797 180.236 39.1115 180.437 39.1115 180.693C39.1115 181.043 39.2408 181.307 39.4993 181.486C39.7607 181.662 40.0916 181.75 40.4922 181.75ZM46.18 181.017L49.3335 175.955H50.4925V182.5H49.4869V177.438L46.3505 182.5H45.1744V175.955H46.18V181.017ZM48.6687 173.773H49.6062C49.6062 174.233 49.4471 174.609 49.1289 174.902C48.8107 175.195 48.3789 175.341 47.8335 175.341C47.2965 175.341 46.869 175.195 46.5508 174.902C46.2354 174.609 46.0778 174.233 46.0778 173.773H47.0153C47.0153 173.994 47.0763 174.189 47.1985 174.357C47.3235 174.524 47.5352 174.608 47.8335 174.608C48.1317 174.608 48.3448 174.524 48.4727 174.357C48.6033 174.189 48.6687 173.994 48.6687 173.773Z" fill="#393939"/>
<rect width="56" height="56" transform="translate(260 130)" fill="white"/>
<path d="M281.785 132.394C281.785 132.394 281.356 135.955 282.256 137.345C282.748 138.101 283.746 138.931 284.611 138.67C285.272 138.466 285.624 137.506 285.539 136.822C285.307 134.9 281.785 132.394 281.785 132.394ZM292.338 132.416C292.338 132.416 293.091 137.296 294.708 138.959C295.32 139.584 296.388 140.323 297.155 139.908C297.745 139.584 297.753 138.572 297.57 137.925C296.881 135.487 292.338 132.416 292.338 132.416ZM271.727 133.473C271.727 133.473 272.463 138.586 274.051 140.456C274.597 141.096 275.71 141.898 276.29 141.631C276.757 141.42 276.863 140.302 276.701 139.648C276.086 137.073 271.727 133.473 271.727 133.473ZM288.401 138.241C288.401 138.241 288.317 142.538 289.603 144.021C290.145 144.633 291.178 145.202 291.917 144.851C292.549 144.541 292.739 143.522 292.592 142.826C292.156 140.801 288.401 138.241 288.401 138.241ZM280.287 140.112C280.287 140.112 279.788 143.536 280.751 144.759C281.271 145.42 282.354 145.92 283.135 145.596C283.753 145.343 284.126 144.443 284.013 143.782C283.718 142.059 280.287 140.112 280.287 140.112ZM300.818 146.081C297.605 147.347 292.43 145.666 290.806 148.606C290.243 149.4 291.01 150.293 291.354 150.961C290.44 151.741 289.512 152.627 288.76 153.556C287.41 153.323 286.552 153.063 285.975 152.67L285.982 152.663C286.186 146.946 279.281 150.623 275.577 148.655C276.068 152.304 280.8 152.114 281.658 153.225C282.41 154.006 283.788 153.942 284.892 153.429C284.977 153.506 285.068 153.584 285.167 153.654C285.891 154.174 286.777 154.47 287.965 154.695C287.782 155.011 287.628 155.327 287.508 155.651C287.276 156.298 287.156 157.036 287.114 157.816C285.94 156.994 283.585 157.366 281.749 156.277C281.939 157.57 284.499 161.733 287.213 160.284C287.29 160.966 287.395 161.648 287.508 162.295C287.712 163.463 287.958 164.503 288.148 165.234H289.449C289.266 164.545 288.985 163.385 288.753 162.077C288.738 162.007 288.731 161.93 288.717 161.859C290.553 161.459 292.507 160.741 293.752 159.145C294.068 159.251 294.476 159.279 294.954 159.202C297.056 158.168 298.589 156.579 302.618 157.409C300.544 156.41 297.942 155.433 295.938 155.412H295.791C294.314 155.426 293.182 156.002 292.887 157.542C292.845 157.774 292.845 157.985 292.88 158.182C291.924 159.553 290.264 160.214 288.535 160.601C288.338 158.878 288.317 157.134 288.703 156.087C289.181 154.765 290.911 152.979 292.535 151.622C292.655 151.523 292.767 151.425 292.887 151.334C293.365 151.531 293.773 151.819 294.406 151.741C297.366 151.242 299.356 148.233 300.818 146.081Z" fill="#393939"/>
<path d="M270.226 173.773V182.5H269.169V174.71H264.771V182.5H263.714V173.773H270.226ZM274.88 182.636C274.289 182.636 273.771 182.496 273.325 182.214C272.882 181.933 272.535 181.54 272.285 181.034C272.038 180.528 271.914 179.937 271.914 179.261C271.914 178.58 272.038 177.984 272.285 177.476C272.535 176.967 272.882 176.572 273.325 176.291C273.771 176.01 274.289 175.869 274.88 175.869C275.471 175.869 275.988 176.01 276.431 176.291C276.877 176.572 277.224 176.967 277.471 177.476C277.721 177.984 277.846 178.58 277.846 179.261C277.846 179.937 277.721 180.528 277.471 181.034C277.224 181.54 276.877 181.933 276.431 182.214C275.988 182.496 275.471 182.636 274.88 182.636ZM274.88 181.733C275.329 181.733 275.699 181.618 275.988 181.388C276.278 181.158 276.493 180.855 276.632 180.48C276.771 180.105 276.841 179.699 276.841 179.261C276.841 178.824 276.771 178.416 276.632 178.038C276.493 177.661 276.278 177.355 275.988 177.122C275.699 176.889 275.329 176.773 274.88 176.773C274.431 176.773 274.062 176.889 273.772 177.122C273.483 177.355 273.268 177.661 273.129 178.038C272.99 178.416 272.92 178.824 272.92 179.261C272.92 179.699 272.99 180.105 273.129 180.48C273.268 180.855 273.483 181.158 273.772 181.388C274.062 181.618 274.431 181.733 274.88 181.733ZM278.802 182.5V181.562H279.04C279.237 181.562 279.4 181.524 279.531 181.447C279.661 181.368 279.766 181.23 279.846 181.034C279.928 180.835 279.991 180.56 280.033 180.207C280.079 179.852 280.112 179.401 280.131 178.852L280.251 175.955H284.614V182.5H283.609V176.892H281.205L281.103 179.227C281.08 179.764 281.032 180.237 280.958 180.646C280.887 181.053 280.778 181.393 280.63 181.669C280.485 181.945 280.292 182.152 280.05 182.291C279.809 182.43 279.506 182.5 279.143 182.5H278.802ZM287.465 181.017L290.619 175.955H291.778V182.5H290.772V177.438L287.636 182.5H286.46V175.955H287.465V181.017ZM293.62 182.5V175.955H296.296C297 175.955 297.56 176.114 297.975 176.432C298.39 176.75 298.597 177.17 298.597 177.693C298.597 178.091 298.479 178.399 298.243 178.618C298.007 178.834 297.705 178.98 297.336 179.057C297.577 179.091 297.811 179.176 298.039 179.312C298.269 179.449 298.459 179.636 298.61 179.875C298.76 180.111 298.836 180.401 298.836 180.744C298.836 181.08 298.75 181.379 298.58 181.643C298.409 181.908 298.165 182.116 297.847 182.27C297.529 182.423 297.148 182.5 296.705 182.5H293.62ZM294.574 181.58H296.705C297.051 181.58 297.323 181.497 297.519 181.332C297.715 181.168 297.813 180.943 297.813 180.659C297.813 180.321 297.715 180.055 297.519 179.862C297.323 179.666 297.051 179.568 296.705 179.568H294.574V181.58ZM294.574 178.699H296.296C296.566 178.699 296.797 178.662 296.99 178.588C297.184 178.511 297.331 178.403 297.434 178.264C297.539 178.122 297.591 177.955 297.591 177.761C297.591 177.486 297.476 177.27 297.246 177.114C297.016 176.955 296.699 176.875 296.296 176.875H294.574V178.699ZM302.284 182.653C301.869 182.653 301.493 182.575 301.155 182.419C300.817 182.26 300.548 182.031 300.349 181.733C300.151 181.432 300.051 181.068 300.051 180.642C300.051 180.267 300.125 179.963 300.273 179.73C300.42 179.494 300.618 179.31 300.865 179.176C301.112 179.043 301.385 178.943 301.683 178.878C301.984 178.81 302.287 178.756 302.591 178.716C302.989 178.665 303.311 178.626 303.558 178.601C303.808 178.572 303.99 178.526 304.104 178.46C304.22 178.395 304.278 178.281 304.278 178.119V178.085C304.278 177.665 304.163 177.338 303.933 177.105C303.706 176.872 303.361 176.756 302.898 176.756C302.418 176.756 302.041 176.861 301.768 177.071C301.496 177.281 301.304 177.506 301.193 177.744L300.239 177.403C300.409 177.006 300.636 176.696 300.92 176.474C301.207 176.25 301.52 176.094 301.858 176.006C302.199 175.915 302.534 175.869 302.864 175.869C303.074 175.869 303.315 175.895 303.588 175.946C303.864 175.994 304.129 176.095 304.385 176.249C304.643 176.402 304.858 176.634 305.028 176.943C305.199 177.253 305.284 177.668 305.284 178.188V182.5H304.278V181.614H304.227C304.159 181.756 304.045 181.908 303.886 182.07C303.727 182.232 303.516 182.369 303.251 182.483C302.987 182.597 302.665 182.653 302.284 182.653ZM302.438 181.75C302.835 181.75 303.17 181.672 303.443 181.516C303.719 181.359 303.926 181.158 304.065 180.911C304.207 180.663 304.278 180.403 304.278 180.131V179.21C304.236 179.261 304.142 179.308 303.997 179.351C303.855 179.391 303.69 179.426 303.503 179.457C303.318 179.486 303.138 179.511 302.962 179.534C302.788 179.554 302.648 179.571 302.54 179.585C302.278 179.619 302.034 179.675 301.807 179.751C301.582 179.825 301.401 179.937 301.261 180.088C301.125 180.236 301.057 180.437 301.057 180.693C301.057 181.043 301.186 181.307 301.445 181.486C301.706 181.662 302.037 181.75 302.438 181.75ZM308.125 181.017L311.279 175.955H312.438V182.5H311.432V177.438L308.296 182.5H307.12V175.955H308.125V181.017ZM310.614 173.773H311.551C311.551 174.233 311.392 174.609 311.074 174.902C310.756 175.195 310.324 175.341 309.779 175.341C309.242 175.341 308.814 175.195 308.496 174.902C308.181 174.609 308.023 174.233 308.023 173.773H308.961C308.961 173.994 309.022 174.189 309.144 174.357C309.269 174.524 309.48 174.608 309.779 174.608C310.077 174.608 310.29 174.524 310.418 174.357C310.549 174.189 310.614 173.994 310.614 173.773Z" fill="#393939"/>
<rect width="56" height="56" transform="translate(130)" fill="white"/>
<path d="M158 24.5C154.691 24.5 152 21.809 152 18.5C152 15.191 154.691 12.5 158 12.5C161.309 12.5 164 15.191 164 18.5C164 21.809 161.309 24.5 158 24.5Z" stroke="#393939" stroke-width="2"/>
<path d="M158 5.75V8.75M170.75 18.5H167.75M148.25 18.5H145.25M158 28.25V31.25M164.75 11.75L167 9.5M149 27.5L151.25 25.25M149 9.5L151.25 11.75M164.75 25.25L167 27.5" stroke="#393939" stroke-width="2" stroke-linecap="round"/>
<path d="M130.129 54.6136V51.5625H130.692C130.885 51.3864 131.067 51.1378 131.237 50.8168C131.41 50.4929 131.557 50.0611 131.676 49.5213C131.798 48.9787 131.879 48.2898 131.919 47.4545L132.106 43.7727H137.288V51.5625H138.294V54.5966H137.288V52.5H131.135V54.6136H130.129ZM131.953 51.5625H136.282V44.7102H133.061L132.925 47.4545C132.89 48.0909 132.831 48.6676 132.746 49.1847C132.66 49.6989 132.551 50.1548 132.417 50.5526C132.284 50.9474 132.129 51.2841 131.953 51.5625ZM142.414 52.6364C141.823 52.6364 141.304 52.4957 140.858 52.2145C140.415 51.9332 140.068 51.5398 139.818 51.0341C139.571 50.5284 139.448 49.9375 139.448 49.2614C139.448 48.5795 139.571 47.9844 139.818 47.4759C140.068 46.9673 140.415 46.5724 140.858 46.2912C141.304 46.0099 141.823 45.8693 142.414 45.8693C143.004 45.8693 143.521 46.0099 143.965 46.2912C144.411 46.5724 144.757 46.9673 145.004 47.4759C145.254 47.9844 145.379 48.5795 145.379 49.2614C145.379 49.9375 145.254 50.5284 145.004 51.0341C144.757 51.5398 144.411 51.9332 143.965 52.2145C143.521 52.4957 143.004 52.6364 142.414 52.6364ZM142.414 51.733C142.862 51.733 143.232 51.6179 143.521 51.3878C143.811 51.1577 144.026 50.8551 144.165 50.4801C144.304 50.1051 144.374 49.6989 144.374 49.2614C144.374 48.8239 144.304 48.4162 144.165 48.0384C144.026 47.6605 143.811 47.3551 143.521 47.1222C143.232 46.8892 142.862 46.7727 142.414 46.7727C141.965 46.7727 141.595 46.8892 141.306 47.1222C141.016 47.3551 140.801 47.6605 140.662 48.0384C140.523 48.4162 140.453 48.8239 140.453 49.2614C140.453 49.6989 140.523 50.1051 140.662 50.4801C140.801 50.8551 141.016 51.1577 141.306 51.3878C141.595 51.6179 141.965 51.733 142.414 51.733ZM150.954 45.9545V46.892H147.92V52.5H146.915V45.9545H150.954ZM151.292 52.5V51.5625H151.531C151.727 51.5625 151.89 51.5241 152.021 51.4474C152.151 51.3679 152.257 51.2301 152.336 51.0341C152.419 50.8352 152.481 50.5597 152.524 50.2074C152.569 49.8523 152.602 49.4006 152.622 48.8523L152.741 45.9545H157.105V52.5H156.099V46.892H153.695L153.593 49.2273C153.57 49.7642 153.522 50.2372 153.448 50.6463C153.377 51.0526 153.268 51.3935 153.12 51.669C152.975 51.9446 152.782 52.152 152.541 52.2912C152.299 52.4304 151.997 52.5 151.633 52.5H151.292ZM162.887 52.5V46.875H161.149C160.757 46.875 160.448 46.9659 160.224 47.1477C159.999 47.3295 159.887 47.5795 159.887 47.8977C159.887 48.2102 159.988 48.456 160.19 48.6349C160.394 48.8139 160.674 48.9034 161.029 48.9034H163.143V49.8409H161.029C160.586 49.8409 160.204 49.7628 159.883 49.6065C159.562 49.4503 159.315 49.2273 159.142 48.9375C158.968 48.6449 158.882 48.2983 158.882 47.8977C158.882 47.4943 158.972 47.1477 159.154 46.858C159.336 46.5682 159.596 46.3452 159.934 46.1889C160.275 46.0327 160.68 45.9545 161.149 45.9545H163.842V52.5H162.887ZM158.524 52.5L160.382 49.2443H161.472L159.615 52.5H158.524ZM164.989 54.375V51.5625H165.535C165.668 51.4233 165.783 51.2727 165.88 51.1108C165.976 50.9489 166.06 50.7571 166.131 50.5355C166.205 50.3111 166.268 50.0384 166.319 49.7173C166.37 49.3935 166.415 49.0028 166.455 48.5455L166.677 45.9545H170.836V51.5625H171.841V54.375H170.836V52.5H165.995V54.375H164.989ZM166.677 51.5625H169.83V46.892H167.614L167.444 48.5455C167.373 49.2301 167.285 49.8281 167.18 50.3395C167.074 50.8509 166.907 51.2585 166.677 51.5625ZM175.102 52.6534C174.688 52.6534 174.311 52.5753 173.973 52.419C173.635 52.2599 173.367 52.0312 173.168 51.733C172.969 51.4318 172.869 51.0682 172.869 50.642C172.869 50.267 172.943 49.9631 173.091 49.7301C173.239 49.4943 173.436 49.3097 173.683 49.1761C173.931 49.0426 174.203 48.9432 174.502 48.8778C174.803 48.8097 175.105 48.7557 175.409 48.7159C175.807 48.6648 176.129 48.6264 176.377 48.6009C176.627 48.5724 176.808 48.5256 176.922 48.4602C177.039 48.3949 177.097 48.2812 177.097 48.1193V48.0852C177.097 47.6648 176.982 47.3381 176.752 47.1051C176.524 46.8722 176.179 46.7557 175.716 46.7557C175.236 46.7557 174.86 46.8608 174.587 47.071C174.314 47.2812 174.122 47.5057 174.012 47.7443L173.057 47.4034C173.227 47.0057 173.455 46.696 173.739 46.4744C174.026 46.25 174.338 46.0937 174.676 46.0057C175.017 45.9148 175.352 45.8693 175.682 45.8693C175.892 45.8693 176.134 45.8949 176.406 45.946C176.682 45.9943 176.948 46.0952 177.203 46.2486C177.462 46.402 177.676 46.6335 177.847 46.9432C178.017 47.2528 178.102 47.6676 178.102 48.1875V52.5H177.097V51.6136H177.046C176.977 51.7557 176.864 51.9077 176.705 52.0696C176.546 52.2315 176.334 52.3693 176.07 52.483C175.806 52.5966 175.483 52.6534 175.102 52.6534ZM175.256 51.75C175.654 51.75 175.989 51.6719 176.262 51.5156C176.537 51.3594 176.744 51.1577 176.884 50.9105C177.026 50.6634 177.097 50.4034 177.097 50.1307V49.2102C177.054 49.2614 176.96 49.3082 176.816 49.3509C176.673 49.3906 176.509 49.4261 176.321 49.4574C176.137 49.4858 175.956 49.5114 175.78 49.5341C175.607 49.554 175.466 49.571 175.358 49.5852C175.097 49.6193 174.852 49.6747 174.625 49.7514C174.401 49.8253 174.219 49.9375 174.08 50.0881C173.943 50.2358 173.875 50.4375 173.875 50.6932C173.875 51.0426 174.004 51.3068 174.263 51.4858C174.524 51.6619 174.855 51.75 175.256 51.75ZM180.944 51.017L184.097 45.9545H185.256V52.5H184.251V47.4375L181.114 52.5H179.938V45.9545H180.944V51.017ZM183.432 43.7727H184.37C184.37 44.233 184.211 44.6094 183.893 44.902C183.574 45.1946 183.143 45.3409 182.597 45.3409C182.06 45.3409 181.633 45.1946 181.314 44.902C180.999 44.6094 180.841 44.233 180.841 43.7727H181.779C181.779 43.9943 181.84 44.1889 181.962 44.3565C182.087 44.5241 182.299 44.608 182.597 44.608C182.895 44.608 183.108 44.5241 183.236 44.3565C183.367 44.1889 183.432 43.9943 183.432 43.7727Z" fill="#393939"/>
</svg>
