<svg width="320" height="288" viewBox="0 0 320 288" fill="none" xmlns="http://www.w3.org/2000/svg">
<rect x="29" y="29" width="258" height="258" rx="129" stroke="#9E4AC6" stroke-width="2"/>
<path d="M139.544 172.068C146.151 158.617 149.455 151.891 154.21 150.289C156.671 149.459 159.329 149.459 161.79 150.289C166.545 151.891 169.849 158.617 176.456 172.068L180.117 179.522C181.824 182.997 182.677 184.734 182.879 185.918C183.717 190.829 180.084 195.356 175.189 195.498C174.009 195.533 172.167 195.028 168.482 194.018C166.375 193.441 165.322 193.152 164.27 192.939C160.13 192.101 155.87 192.101 151.73 192.939C150.677 193.152 149.624 193.441 147.519 194.018C143.833 195.028 141.991 195.533 140.811 195.498C135.916 195.356 132.282 190.829 133.121 185.918C133.323 184.734 134.176 182.997 135.883 179.522L139.544 172.068Z" stroke="#1C274C"/>
<path d="M133.603 131.031C135.319 137.826 140.171 142.35 144.44 141.137C148.709 139.923 150.779 133.43 149.063 126.636C147.348 119.841 142.496 115.316 138.226 116.53C133.957 117.744 131.887 124.236 133.603 131.031Z" stroke="#1C274C"/>
<path d="M182.397 131.031C180.681 137.826 175.829 142.35 171.56 141.137C167.29 139.923 165.221 133.43 166.937 126.636C168.653 119.841 173.504 115.316 177.774 116.53C182.043 117.744 184.113 124.236 182.397 131.031Z" stroke="#1C274C"/>
<path d="M117.174 159.238C119.049 164.259 123.457 167.309 127.02 166.05C130.583 164.791 131.952 159.7 130.077 154.679C128.202 149.658 123.793 146.608 120.23 147.867C116.667 149.126 115.299 154.217 117.174 159.238Z" stroke="#1C274C"/>
<path d="M198.826 159.238C196.951 164.259 192.543 167.309 188.98 166.05C185.417 164.791 184.049 159.7 185.924 154.679C187.799 149.658 192.207 146.608 195.77 147.867C199.333 149.126 200.701 154.217 198.826 159.238Z" stroke="#1C274C"/>
<rect width="56" height="56" transform="translate(0 130)" fill="white"/>
<path d="M42.121 137.941C41.7369 137.32 41.2007 136.808 40.5632 136.453C39.9257 136.098 39.208 135.911 38.4782 135.911H36.3322H35.8322V135.411V134.825C35.8325 134.552 35.7791 134.282 35.6751 134.031C35.5711 133.779 35.4185 133.55 35.2261 133.358C35.0336 133.165 34.8051 133.012 34.5535 132.908C34.3019 132.804 34.0323 132.75 33.76 132.75C32.4555 132.75 31.2045 133.268 30.2821 134.191C29.3597 135.113 28.8415 136.364 28.8415 137.669V144.275C26.3755 144.551 24.499 145.742 23.122 147.398L42.121 137.941ZM42.121 137.941L43.0997 139.52M42.121 137.941L43.0997 139.52M39.281 145.591L39.7452 145.558C42.5394 145.357 44.1871 142.226 42.6747 139.784C42.6747 139.784 42.6746 139.784 42.6746 139.783L41.6959 138.204L41.6958 138.204C41.3566 137.656 40.8829 137.203 40.3198 136.89C39.7567 136.576 39.1228 136.411 38.4782 136.411H35.8322H35.3322V135.911V134.825V134.824C35.3324 134.617 35.2919 134.413 35.213 134.222C35.1341 134.031 35.0183 133.857 34.8723 133.711L35.2246 133.359L34.8723 133.711C34.7263 133.565 34.5529 133.449 34.362 133.37C34.1712 133.291 33.9666 133.25 33.76 133.25C32.5881 133.25 31.4642 133.716 30.6356 134.544C29.807 135.373 29.3415 136.497 29.3415 137.669V144.275V144.722L28.8972 144.771C26.5748 145.032 24.8112 146.148 23.5064 147.717L23.5061 147.718C22.0292 149.491 21.1485 151.819 20.6169 154.088C20.1602 156.136 19.9006 158.224 19.8418 160.322L19.8417 160.325C19.8195 160.972 19.8195 161.54 19.8239 161.995L19.8289 162.5H19.324H18.1923C18.1923 162.5 18.1922 162.5 18.1922 162.5C17.3747 162.5 16.575 162.261 15.8914 161.813C15.2078 161.365 14.6701 160.726 14.3445 159.976C14.0188 159.227 13.9193 158.398 14.0583 157.592C14.1973 156.787 14.5687 156.039 15.1267 155.442L15.1265 155.442L15.4922 155.783L15.1269 155.442L16.9197 153.519L16.9198 153.519C18.0944 152.259 18.7343 150.592 18.7047 148.87C18.675 147.148 17.9781 145.504 16.7607 144.286L16.7607 144.286L15.0012 142.524L14.9953 142.518L14.9953 142.518C14.9377 142.458 14.8687 142.411 14.7924 142.378C14.7162 142.345 14.6342 142.328 14.5512 142.327C14.4682 142.327 14.3859 142.342 14.3091 142.374C14.2323 142.405 14.1625 142.452 14.1038 142.51C14.0451 142.569 13.9987 142.639 13.9673 142.716C13.9359 142.792 13.9201 142.875 13.9208 142.958C13.9215 143.041 13.9387 143.123 13.9715 143.199L13.5148 143.395L13.9715 143.199C14.0043 143.275 14.0519 143.344 14.1116 143.402L14.1178 143.408L14.1178 143.408L15.8795 145.17L15.8796 145.17C16.8684 146.159 17.4346 147.493 17.4586 148.892C17.4827 150.29 16.9628 151.644 16.0085 152.666L16.0085 152.666L14.2132 154.59L39.281 145.591ZM39.281 145.591V146.057V160.753C39.281 162.408 37.9406 163.75 36.2867 163.75H18.1906M39.281 145.591L43.0997 139.52M43.0997 139.52C44.812 142.285 42.9467 145.829 39.781 146.057V160.753C39.781 162.684 38.2172 164.25 36.2867 164.25H18.19M18.19 164.25L18.1906 163.75M18.19 164.25V163.75H18.1906M18.19 164.25L18.1906 163.75M18.1906 163.75C17.1303 163.749 16.0934 163.438 15.2072 162.856C14.3209 162.273 13.6239 161.445 13.2016 160.473C12.7793 159.5 12.6501 158.425 12.8298 157.38C13.0094 156.335 13.4902 155.366 14.213 154.59L18.1906 163.75ZM34.0822 135.007V134.473L33.5499 134.508C31.8976 134.615 30.5915 135.991 30.5915 137.669V145.339C30.5915 145.505 30.5256 145.663 30.4084 145.781C30.2912 145.898 30.1322 145.964 29.9665 145.964C27.5006 145.964 25.7467 146.979 24.4659 148.517C23.1645 150.078 22.342 152.195 21.834 154.374L21.834 154.374C21.3291 156.542 21.1446 158.722 21.09 160.366L21.09 160.366C21.0695 161.009 21.0671 161.566 21.074 162.008L21.0817 162.5H21.574H32.7925H33.2925V162V160.753C33.2925 158.48 31.4488 156.635 29.1767 156.635H27.2012C27.0355 156.635 26.8765 156.57 26.7593 156.452C26.6421 156.335 26.5762 156.176 26.5762 156.01C26.5762 155.845 26.6421 155.686 26.7593 155.569C26.8765 155.451 27.0355 155.385 27.2012 155.385H29.1767C29.8815 155.385 30.5794 155.524 31.2306 155.794C31.8817 156.064 32.4733 156.459 32.9716 156.958C33.4699 157.456 33.8651 158.048 34.1346 158.699C34.4041 159.351 34.5427 160.048 34.5425 160.753V160.753V162V162.5H35.0425H36.2867C36.7499 162.5 37.1941 162.316 37.5217 161.988C37.8492 161.661 38.0332 161.217 38.0332 160.753V144.943C38.0332 144.777 38.0991 144.618 38.2163 144.501C38.3335 144.384 38.4924 144.318 38.6582 144.318L39.4561 144.318L39.457 143.818V144.318H39.4567C39.9091 144.318 40.3535 144.198 40.7438 143.969C41.1342 143.74 41.4562 143.411 41.6764 143.015C41.8965 142.62 42.0069 142.173 41.9959 141.72C41.985 141.268 41.8532 140.826 41.6142 140.442C41.6142 140.442 41.6141 140.442 41.614 140.442L40.6357 138.863L40.6353 138.863C40.171 138.116 39.356 137.661 38.4782 137.661H34.7072C34.5414 137.661 34.3825 137.595 34.2653 137.478C34.1481 137.361 34.0822 137.202 34.0822 137.036V135.007Z" stroke="#393939"/>
<path d="M17.1032 173.773V174.71H12.8929V182.5H11.8361V173.773H17.1032ZM20.312 182.636C19.7211 182.636 19.2026 182.496 18.7566 182.214C18.3134 181.933 17.9668 181.54 17.7168 181.034C17.4696 180.528 17.3461 179.937 17.3461 179.261C17.3461 178.58 17.4696 177.984 17.7168 177.476C17.9668 176.967 18.3134 176.572 18.7566 176.291C19.2026 176.01 19.7211 175.869 20.312 175.869C20.9029 175.869 21.4199 176.01 21.8631 176.291C22.3091 176.572 22.6557 176.967 22.9029 177.476C23.1529 177.984 23.2779 178.58 23.2779 179.261C23.2779 179.937 23.1529 180.528 22.9029 181.034C22.6557 181.54 22.3091 181.933 21.8631 182.214C21.4199 182.496 20.9029 182.636 20.312 182.636ZM20.312 181.733C20.7608 181.733 21.1301 181.618 21.4199 181.388C21.7097 181.158 21.9242 180.855 22.0634 180.48C22.2026 180.105 22.2722 179.699 22.2722 179.261C22.2722 178.824 22.2026 178.416 22.0634 178.038C21.9242 177.661 21.7097 177.355 21.4199 177.122C21.1301 176.889 20.7608 176.773 20.312 176.773C19.8631 176.773 19.4938 176.889 19.204 177.122C18.9142 177.355 18.6998 177.661 18.5605 178.038C18.4213 178.416 18.3517 178.824 18.3517 179.261C18.3517 179.699 18.4213 180.105 18.5605 180.48C18.6998 180.855 18.9142 181.158 19.204 181.388C19.4938 181.618 19.8631 181.733 20.312 181.733ZM24.1142 184.375V181.562H24.6596C24.7931 181.423 24.9082 181.273 25.0048 181.111C25.1014 180.949 25.1852 180.757 25.2562 180.536C25.3301 180.311 25.3926 180.038 25.4437 179.717C25.4949 179.393 25.5403 179.003 25.5801 178.545L25.8017 175.955H29.9608V181.562H30.9664V184.375H29.9608V182.5H25.1199V184.375H24.1142ZM25.8017 181.562H28.9551V176.892H26.7392L26.5687 178.545C26.4977 179.23 26.4096 179.828 26.3045 180.339C26.1994 180.851 26.0318 181.259 25.8017 181.562ZM32.949 184.955C32.7786 184.955 32.6266 184.94 32.4931 184.912C32.3596 184.886 32.2672 184.861 32.2161 184.835L32.4718 183.949C32.7161 184.011 32.932 184.034 33.1195 184.017C33.307 184 33.4732 183.916 33.6181 183.766C33.7658 183.618 33.9007 183.378 34.0229 183.045L34.2104 182.534L31.79 175.955H32.8809L34.6877 181.17H34.7559L36.5627 175.955H37.6536L34.8752 183.455C34.7502 183.793 34.5953 184.072 34.4107 184.294C34.226 184.518 34.0115 184.685 33.7672 184.793C33.5257 184.901 33.253 184.955 32.949 184.955ZM39.9867 181.017L43.1401 175.955H44.2992V182.5H43.2935V177.438L40.1571 182.5H38.981V175.955H39.9867V181.017ZM42.4753 173.773H43.4128C43.4128 174.233 43.2537 174.609 42.9355 174.902C42.6174 175.195 42.1855 175.341 41.6401 175.341C41.1032 175.341 40.6756 175.195 40.3574 174.902C40.0421 174.609 39.8844 174.233 39.8844 173.773H40.8219C40.8219 173.994 40.883 174.189 41.0051 174.357C41.1301 174.524 41.3418 174.608 41.6401 174.608C41.9384 174.608 42.1515 174.524 42.2793 174.357C42.41 174.189 42.4753 173.994 42.4753 173.773Z" fill="#393939"/>
<rect width="56" height="56" transform="translate(260 130)" fill="white"/>
<path fill-rule="evenodd" clip-rule="evenodd" d="M296.888 142.688C297.445 143.302 297.274 144.245 296.596 144.72L292.942 147.284C292.264 147.759 291.337 147.567 290.667 147.081C289.913 146.532 289.008 146.229 288.076 146.214C287.143 146.199 286.229 146.471 285.457 146.994C284.77 147.458 283.838 147.62 283.177 147.122L279.609 144.438C278.947 143.94 278.808 142.991 279.385 142.397C280.527 141.219 281.898 140.288 283.414 139.661C284.931 139.034 286.559 138.724 288.2 138.752C289.84 138.779 291.457 139.143 292.952 139.82C294.446 140.497 295.786 141.472 296.888 142.688ZM295.647 143.555C294.685 142.533 293.529 141.714 292.245 141.147C290.962 140.58 289.578 140.275 288.175 140.252C286.772 140.229 285.378 140.487 284.077 141.011C282.775 141.536 281.592 142.315 280.597 143.305L284.075 145.921C284.107 145.928 284.14 145.93 284.173 145.925C284.29 145.915 284.455 145.861 284.615 145.753C285.675 145.035 286.936 144.672 288.215 144.718C288.244 144.656 288.282 144.599 288.327 144.548L290.386 142.18C290.517 142.03 290.702 141.937 290.9 141.923C291.099 141.91 291.294 141.975 291.445 142.106C291.595 142.236 291.687 142.421 291.701 142.619C291.715 142.818 291.649 143.014 291.519 143.164L289.903 145.022C290.492 145.218 291.047 145.503 291.549 145.868C291.705 145.981 291.868 146.04 291.985 146.055C292.042 146.063 292.072 146.057 292.083 146.054L295.647 143.555ZM292.09 146.052L292.083 146.054C292.086 146.052 292.089 146.051 292.09 146.052ZM284.069 145.919C284.069 145.919 284.071 145.919 284.075 145.921L284.069 145.919Z" fill="#393939"/>
<path fill-rule="evenodd" clip-rule="evenodd" d="M297.162 162C297.929 162 298.666 161.706 299.223 161.179C299.781 160.652 300.115 159.932 300.157 159.167L301.324 138.167C301.347 137.759 301.286 137.351 301.146 136.968C301.006 136.585 300.789 136.235 300.508 135.938C300.228 135.642 299.89 135.406 299.515 135.245C299.14 135.083 298.737 135 298.329 135H277.671C277.263 135 276.859 135.083 276.485 135.245C276.11 135.406 275.772 135.642 275.492 135.939C275.211 136.235 274.995 136.585 274.854 136.968C274.714 137.352 274.653 137.759 274.676 138.167L275.842 159.167C275.885 159.932 276.219 160.652 276.776 161.179C277.333 161.706 278.071 162 278.838 162H297.162ZM278.838 160.5H297.162C297.545 160.5 297.914 160.353 298.193 160.089C298.471 159.826 298.638 159.465 298.66 159.083L299.827 138.082C299.838 137.879 299.807 137.675 299.737 137.484C299.667 137.292 299.558 137.117 299.418 136.969C299.278 136.821 299.109 136.703 298.922 136.622C298.734 136.542 298.533 136.5 298.329 136.5H277.671C277.467 136.5 277.265 136.542 277.078 136.622C276.89 136.703 276.721 136.821 276.581 136.969C276.441 137.117 276.333 137.292 276.262 137.484C276.192 137.675 276.162 137.879 276.173 138.082L277.34 159.083C277.361 159.465 277.528 159.826 277.807 160.089C278.085 160.353 278.454 160.5 278.838 160.5Z" fill="#393939"/>
<path d="M261.299 182.5L258.299 178.494H257.225V182.5H256.168V173.773H257.225V177.557H257.685L261.18 173.773H262.441L258.912 177.608L262.56 182.5H261.299ZM265.968 182.636C265.377 182.636 264.859 182.496 264.413 182.214C263.97 181.933 263.623 181.54 263.373 181.034C263.126 180.528 263.002 179.937 263.002 179.261C263.002 178.58 263.126 177.984 263.373 177.476C263.623 176.967 263.97 176.572 264.413 176.291C264.859 176.01 265.377 175.869 265.968 175.869C266.559 175.869 267.076 176.01 267.519 176.291C267.965 176.572 268.312 176.967 268.559 177.476C268.809 177.984 268.934 178.58 268.934 179.261C268.934 179.937 268.809 180.528 268.559 181.034C268.312 181.54 267.965 181.933 267.519 182.214C267.076 182.496 266.559 182.636 265.968 182.636ZM265.968 181.733C266.417 181.733 266.786 181.618 267.076 181.388C267.366 181.158 267.58 180.855 267.72 180.48C267.859 180.105 267.928 179.699 267.928 179.261C267.928 178.824 267.859 178.416 267.72 178.038C267.58 177.661 267.366 177.355 267.076 177.122C266.786 176.889 266.417 176.773 265.968 176.773C265.519 176.773 265.15 176.889 264.86 177.122C264.57 177.355 264.356 177.661 264.217 178.038C264.078 178.416 264.008 178.824 264.008 179.261C264.008 179.699 264.078 180.105 264.217 180.48C264.356 180.855 264.57 181.158 264.86 181.388C265.15 181.618 265.519 181.733 265.968 181.733ZM274.85 178.767V179.705H271.236V178.767H274.85ZM271.475 175.955V182.5H270.469V175.955H271.475ZM275.617 175.955V182.5H274.611V175.955H275.617ZM276.563 176.892V175.955H281.881V176.892H279.733V182.5H278.728V176.892H276.563ZM283.348 184.955V175.955H284.32V176.994H284.439C284.513 176.881 284.615 176.736 284.746 176.56C284.879 176.381 285.07 176.222 285.317 176.082C285.567 175.94 285.905 175.869 286.331 175.869C286.882 175.869 287.368 176.007 287.789 176.283C288.209 176.558 288.537 176.949 288.773 177.455C289.009 177.96 289.127 178.557 289.127 179.244C289.127 179.938 289.009 180.538 288.773 181.047C288.537 181.553 288.21 181.945 287.793 182.223C287.375 182.499 286.894 182.636 286.348 182.636C285.928 182.636 285.591 182.567 285.338 182.428C285.085 182.286 284.891 182.125 284.754 181.946C284.618 181.764 284.513 181.614 284.439 181.494H284.354V184.955H283.348ZM284.337 179.227C284.337 179.722 284.409 180.158 284.554 180.536C284.699 180.911 284.911 181.205 285.189 181.418C285.468 181.628 285.808 181.733 286.212 181.733C286.632 181.733 286.983 181.622 287.264 181.401C287.548 181.176 287.762 180.875 287.904 180.497C288.048 180.116 288.121 179.693 288.121 179.227C288.121 178.767 288.05 178.352 287.908 177.983C287.769 177.611 287.557 177.317 287.273 177.101C286.992 176.882 286.638 176.773 286.212 176.773C285.803 176.773 285.459 176.876 285.181 177.084C284.902 177.288 284.692 177.575 284.55 177.945C284.408 178.311 284.337 178.739 284.337 179.227ZM293.32 182.636C292.729 182.636 292.21 182.496 291.764 182.214C291.321 181.933 290.975 181.54 290.725 181.034C290.477 180.528 290.354 179.937 290.354 179.261C290.354 178.58 290.477 177.984 290.725 177.476C290.975 176.967 291.321 176.572 291.764 176.291C292.21 176.01 292.729 175.869 293.32 175.869C293.911 175.869 294.428 176.01 294.871 176.291C295.317 176.572 295.664 176.967 295.911 177.476C296.161 177.984 296.286 178.58 296.286 179.261C296.286 179.937 296.161 180.528 295.911 181.034C295.664 181.54 295.317 181.933 294.871 182.214C294.428 182.496 293.911 182.636 293.32 182.636ZM293.32 181.733C293.769 181.733 294.138 181.618 294.428 181.388C294.718 181.158 294.932 180.855 295.071 180.48C295.21 180.105 295.28 179.699 295.28 179.261C295.28 178.824 295.21 178.416 295.071 178.038C294.932 177.661 294.718 177.355 294.428 177.122C294.138 176.889 293.769 176.773 293.32 176.773C292.871 176.773 292.502 176.889 292.212 177.122C291.922 177.355 291.708 177.661 291.568 178.038C291.429 178.416 291.36 178.824 291.36 179.261C291.36 179.699 291.429 180.105 291.568 180.48C291.708 180.855 291.922 181.158 292.212 181.388C292.502 181.618 292.871 181.733 293.32 181.733ZM297.241 182.5V181.562H297.48C297.676 181.562 297.839 181.524 297.97 181.447C298.101 181.368 298.206 181.23 298.285 181.034C298.368 180.835 298.43 180.56 298.473 180.207C298.518 179.852 298.551 179.401 298.571 178.852L298.69 175.955H303.054V182.5H302.048V176.892H299.645L299.542 179.227C299.52 179.764 299.471 180.237 299.398 180.646C299.327 181.053 299.217 181.393 299.069 181.669C298.925 181.945 298.731 182.152 298.49 182.291C298.248 182.43 297.946 182.5 297.582 182.5H297.241ZM308.035 178.818V179.756H304.575V178.818H308.035ZM305.427 175.955V182.5H304.422V175.955H305.427ZM310.047 182.636C309.456 182.636 308.937 182.496 308.491 182.214C308.048 181.933 307.702 181.54 307.452 181.034C307.204 180.528 307.081 179.937 307.081 179.261C307.081 178.58 307.204 177.984 307.452 177.476C307.702 176.967 308.048 176.572 308.491 176.291C308.937 176.01 309.456 175.869 310.047 175.869C310.638 175.869 311.155 176.01 311.598 176.291C312.044 176.572 312.39 176.967 312.638 177.476C312.888 177.984 313.013 178.58 313.013 179.261C313.013 179.937 312.888 180.528 312.638 181.034C312.39 181.54 312.044 181.933 311.598 182.214C311.155 182.496 310.638 182.636 310.047 182.636ZM310.047 181.733C310.496 181.733 310.865 181.618 311.155 181.388C311.444 181.158 311.659 180.855 311.798 180.48C311.937 180.105 312.007 179.699 312.007 179.261C312.007 178.824 311.937 178.416 311.798 178.038C311.659 177.661 311.444 177.355 311.155 177.122C310.865 176.889 310.496 176.773 310.047 176.773C309.598 176.773 309.229 176.889 308.939 177.122C308.649 177.355 308.434 177.661 308.295 178.038C308.156 178.416 308.086 178.824 308.086 179.261C308.086 179.699 308.156 180.105 308.295 180.48C308.434 180.855 308.649 181.158 308.939 181.388C309.229 181.618 309.598 181.733 310.047 181.733ZM315.655 181.017L318.808 175.955H319.967V182.5H318.961V177.438L315.825 182.5H314.649V175.955H315.655V181.017ZM318.143 173.773H319.081C319.081 174.233 318.922 174.609 318.604 174.902C318.285 175.195 317.854 175.341 317.308 175.341C316.771 175.341 316.344 175.195 316.025 174.902C315.71 174.609 315.552 174.233 315.552 173.773H316.49C316.49 173.994 316.551 174.189 316.673 174.357C316.798 174.524 317.01 174.608 317.308 174.608C317.606 174.608 317.819 174.524 317.947 174.357C318.078 174.189 318.143 173.994 318.143 173.773Z" fill="#393939"/>
<rect width="56" height="56" transform="translate(130)" fill="white"/>
<g clip-path="url(#clip0_169_3692)">
<path d="M174.365 10.9902L172.979 9.60348L172.625 9.24992L172.271 9.60348L169.353 12.5214L169 12.875L169.353 13.2286L170.74 14.6152L169.865 15.4902L168.479 14.1035L168.125 13.7497L167.771 14.1037L152.642 29.25H148.332H148.124L147.978 29.3973L144.511 32.8811L141.844 33.7636L147.104 28.5039L147.25 28.3575V28.1504V23.8577L162.396 8.72876L162.75 8.3752L162.397 8.02145L161.01 6.63477L161.885 5.75984L163.271 7.14652L163.625 7.50008L163.979 7.14652L166.897 4.22855L167.25 3.875L166.897 3.52145L165.51 2.13477L166.385 1.25984L175.24 10.1152L174.365 10.9902ZM151.9 28H152.107L152.254 27.8536L166.879 13.2286L167.232 12.875L166.879 12.5214L163.979 9.62106L163.625 9.2675L163.271 9.62106L159.246 13.6464L158.895 13.9979L159.244 14.3514L160.336 15.4568L159.457 16.336L158.351 15.2439L158 14.8964L157.648 15.2443L155.855 17.0197L155.498 17.3733L155.853 17.7286L156.959 18.834L156.084 19.7089L154.979 18.6035L154.623 18.2482L154.27 18.6052L152.494 20.3982L152.146 20.7496L152.494 21.1014L153.586 22.2068L152.707 23.086L151.601 21.9939L151.248 21.6446L150.896 21.9961L148.646 24.2461L148.5 24.3925V24.5996V27.5V28H149H151.9ZM167.771 11.6289L168.125 11.9825L168.479 11.6289L171.379 8.72855L171.732 8.375L171.379 8.02145L168.479 5.12106L168.125 4.7675L167.771 5.12106L164.871 8.02145L164.518 8.375L164.871 8.72855L167.771 11.6289Z" stroke="#393939"/>
</g>
<path d="M130.867 52.5V43.7727H133.919C134.526 43.7727 135.028 43.8778 135.423 44.0881C135.818 44.2955 136.112 44.5753 136.305 44.9276C136.498 45.277 136.595 45.6648 136.595 46.0909C136.595 46.4659 136.528 46.7756 136.394 47.0199C136.264 47.2642 136.09 47.4574 135.874 47.5994C135.661 47.7415 135.43 47.8466 135.18 47.9148V48C135.447 48.017 135.715 48.1108 135.985 48.2812C136.255 48.4517 136.481 48.696 136.663 49.0142C136.845 49.3324 136.936 49.7216 136.936 50.1818C136.936 50.6193 136.836 51.0128 136.637 51.3622C136.438 51.7116 136.124 51.9886 135.695 52.1932C135.267 52.3977 134.708 52.5 134.021 52.5H130.867ZM131.924 51.5625H134.021C134.711 51.5625 135.201 51.429 135.491 51.1619C135.784 50.892 135.93 50.5653 135.93 50.1818C135.93 49.8864 135.855 49.6136 135.704 49.3636C135.553 49.1108 135.339 48.9091 135.061 48.7585C134.782 48.6051 134.453 48.5284 134.072 48.5284H131.924V51.5625ZM131.924 47.608H133.884C134.203 47.608 134.49 47.5455 134.745 47.4205C135.004 47.2955 135.208 47.1193 135.359 46.892C135.512 46.6648 135.589 46.3977 135.589 46.0909C135.589 45.7074 135.455 45.3821 135.188 45.1151C134.921 44.8452 134.498 44.7102 133.919 44.7102H131.924V47.608ZM140.462 52.6534C140.047 52.6534 139.671 52.5753 139.333 52.419C138.994 52.2599 138.726 52.0312 138.527 51.733C138.328 51.4318 138.229 51.0682 138.229 50.642C138.229 50.267 138.303 49.9631 138.45 49.7301C138.598 49.4943 138.796 49.3097 139.043 49.1761C139.29 49.0426 139.563 48.9432 139.861 48.8778C140.162 48.8097 140.465 48.7557 140.769 48.7159C141.166 48.6648 141.489 48.6264 141.736 48.6009C141.986 48.5724 142.168 48.5256 142.281 48.4602C142.398 48.3949 142.456 48.2812 142.456 48.1193V48.0852C142.456 47.6648 142.341 47.3381 142.111 47.1051C141.884 46.8722 141.539 46.7557 141.075 46.7557C140.595 46.7557 140.219 46.8608 139.946 47.071C139.673 47.2812 139.482 47.5057 139.371 47.7443L138.416 47.4034C138.587 47.0057 138.814 46.696 139.098 46.4744C139.385 46.25 139.698 46.0937 140.036 46.0057C140.377 45.9148 140.712 45.8693 141.041 45.8693C141.252 45.8693 141.493 45.8949 141.766 45.946C142.041 45.9943 142.307 46.0952 142.563 46.2486C142.821 46.402 143.036 46.6335 143.206 46.9432C143.377 47.2528 143.462 47.6676 143.462 48.1875V52.5H142.456V51.6136H142.405C142.337 51.7557 142.223 51.9077 142.064 52.0696C141.905 52.2315 141.693 52.3693 141.429 52.483C141.165 52.5966 140.843 52.6534 140.462 52.6534ZM140.615 51.75C141.013 51.75 141.348 51.6719 141.621 51.5156C141.896 51.3594 142.104 51.1577 142.243 50.9105C142.385 50.6634 142.456 50.4034 142.456 50.1307V49.2102C142.414 49.2614 142.32 49.3082 142.175 49.3509C142.033 49.3906 141.868 49.4261 141.681 49.4574C141.496 49.4858 141.316 49.5114 141.139 49.5341C140.966 49.554 140.825 49.571 140.718 49.5852C140.456 49.6193 140.212 49.6747 139.985 49.7514C139.76 49.8253 139.578 49.9375 139.439 50.0881C139.303 50.2358 139.235 50.4375 139.235 50.6932C139.235 51.0426 139.364 51.3068 139.622 51.4858C139.884 51.6619 140.215 51.75 140.615 51.75ZM145.297 52.5V45.9545H146.303V48.8011H146.968L149.32 45.9545H150.616L147.974 49.108L150.65 52.5H149.354L147.206 49.7386H146.303V52.5H145.297ZM156.89 45.9545V51.5625H157.811V54.6136H156.805V52.5H151.743V45.9545H152.748V51.5625H155.885V45.9545H156.89ZM160.366 51.017L163.519 45.9545H164.678V52.5H163.672V47.4375L160.536 52.5H159.36V45.9545H160.366V51.017ZM170.901 48.767V49.7045H167.287V48.767H170.901ZM167.526 45.9545V52.5H166.52V45.9545H167.526ZM171.668 45.9545V52.5H170.662V45.9545H171.668ZM173.918 54.9545C173.747 54.9545 173.595 54.9403 173.462 54.9119C173.328 54.8864 173.236 54.8608 173.185 54.8352L173.441 53.9489C173.685 54.0114 173.901 54.0341 174.088 54.017C174.276 54 174.442 53.9162 174.587 53.7656C174.735 53.6179 174.869 53.3778 174.992 53.0455L175.179 52.5341L172.759 45.9545H173.85L175.656 51.1705H175.725L177.531 45.9545H178.622L175.844 53.4545C175.719 53.7926 175.564 54.0724 175.379 54.294C175.195 54.5185 174.98 54.6847 174.736 54.7926C174.494 54.9006 174.222 54.9545 173.918 54.9545ZM180.955 51.017L184.109 45.9545H185.268V52.5H184.262V47.4375L181.126 52.5H179.95V45.9545H180.955V51.017ZM183.444 43.7727H184.382C184.382 44.233 184.222 44.6094 183.904 44.902C183.586 45.1946 183.154 45.3409 182.609 45.3409C182.072 45.3409 181.644 45.1946 181.326 44.902C181.011 44.6094 180.853 44.233 180.853 43.7727H181.791C181.791 43.9943 181.852 44.1889 181.974 44.3565C182.099 44.5241 182.311 44.608 182.609 44.608C182.907 44.608 183.12 44.5241 183.248 44.3565C183.379 44.1889 183.444 43.9943 183.444 43.7727Z" fill="#393939"/>
<defs>
<clipPath id="clip0_169_3692">
<rect width="36" height="36" fill="white" transform="translate(140 0.5)"/>
</clipPath>
</defs>
</svg>
