<svg width="327" height="288" viewBox="0 0 327 288" fill="none" xmlns="http://www.w3.org/2000/svg">
<rect x="32" y="29" width="258" height="258" rx="129" stroke="#C1121F" stroke-width="2"/>
<path d="M186 158H182.661C179.204 158 177.475 158 176.042 158.811C174.61 159.622 173.72 161.104 171.942 164.068L171.813 164.283C170.157 167.044 169.328 168.425 168.123 168.402C166.918 168.38 166.141 166.969 164.59 164.147L157.559 151.365C156.112 148.734 155.389 147.418 154.233 147.356C153.078 147.293 152.217 148.523 150.495 150.983L149.316 152.668C147.487 155.28 146.572 156.587 145.216 157.293C143.859 158 142.264 158 139.075 158H136" stroke="#1C274C" stroke-linecap="round"/>
<path d="M161 130.912L159.475 132.331C159.869 132.754 160.421 132.995 161 132.995C161.579 132.995 162.131 132.754 162.525 132.331L161 130.912ZM149.657 187.097C143.587 182.146 136.467 175.63 130.882 168.473C125.258 161.265 121.417 153.692 121.417 146.585H117.25C117.25 155.093 121.782 163.584 127.597 171.036C133.451 178.539 140.835 185.279 147.024 190.326L149.657 187.097ZM121.417 146.585C121.417 134.897 126.821 126.84 133.936 123.88C140.994 120.943 150.522 122.709 159.475 132.331L162.525 129.492C152.729 118.964 141.423 116.252 132.335 120.033C123.305 123.79 117.25 133.644 117.25 146.585H121.417ZM174.976 190.326C181.165 185.279 188.549 178.539 194.403 171.036C200.217 163.584 204.75 155.093 204.75 146.585H200.583C200.583 153.692 196.742 161.265 191.118 168.473C185.533 175.631 178.414 182.147 172.343 187.097L174.976 190.326ZM204.75 146.585C204.75 133.644 198.695 123.789 189.665 120.032C180.577 116.252 169.271 118.964 159.475 129.492L162.525 132.331C171.478 122.709 181.005 120.943 188.064 123.879C195.179 126.839 200.583 134.897 200.583 146.585H204.75ZM147.024 190.326C152.404 194.713 155.78 197.583 161 197.583V193.417C157.551 193.417 155.377 191.761 149.657 187.097L147.024 190.326ZM172.343 187.097C166.623 191.761 164.449 193.417 161 193.417V197.583C166.22 197.583 169.596 194.713 174.976 190.326L172.343 187.097Z" fill="#1C274C"/>
<rect width="56" height="56" transform="translate(3 130)" fill="white"/>
<path d="M38.9637 162.56L31.8331 156.08C27.8988 152.167 33.6768 144.707 38.9637 150.822C44.374 144.83 50.0285 152.288 46.0943 156.08L38.9637 162.56Z" stroke="#393939" stroke-width="1.5" stroke-linecap="round" stroke-linejoin="round"/>
<path d="M14.5967 146.155H18.1118L22.7995 154.358L33.345 134.437L38.0327 143.812" stroke="#393939" stroke-width="1.5" stroke-linecap="round" stroke-linejoin="round"/>
<path d="M0.316584 182.5V173.773H1.3734V178.102H1.47567L5.39613 173.773H6.77681L3.11204 177.71L6.77681 182.5H5.4984L2.46431 178.443L1.3734 179.67V182.5H0.316584ZM10.2722 182.636C9.64151 182.636 9.09748 182.497 8.64009 182.219C8.18555 181.938 7.83469 181.545 7.58754 181.043C7.34322 180.537 7.22106 179.949 7.22106 179.278C7.22106 178.608 7.34322 178.017 7.58754 177.506C7.83469 176.991 8.17844 176.591 8.61879 176.304C9.06197 176.014 9.57901 175.869 10.1699 175.869C10.5108 175.869 10.8475 175.926 11.1799 176.04C11.5123 176.153 11.8148 176.338 12.0875 176.594C12.3603 176.847 12.5776 177.182 12.7395 177.599C12.9015 178.017 12.9824 178.531 12.9824 179.142V179.568H7.93697V178.699H11.9597C11.9597 178.33 11.8858 178 11.7381 177.71C11.5932 177.42 11.3858 177.192 11.1159 177.024C10.8489 176.857 10.5336 176.773 10.1699 176.773C9.76935 176.773 9.42276 176.872 9.13015 177.071C8.84038 177.267 8.61737 177.523 8.46112 177.838C8.30487 178.153 8.22674 178.491 8.22674 178.852V179.432C8.22674 179.926 8.31197 180.345 8.48242 180.689C8.65572 181.03 8.89577 181.29 9.20259 181.469C9.50941 181.645 9.86594 181.733 10.2722 181.733C10.5364 181.733 10.775 181.696 10.9881 181.622C11.204 181.545 11.3901 181.432 11.5463 181.281C11.7026 181.128 11.8233 180.937 11.9086 180.71L12.8801 180.983C12.7779 181.312 12.606 181.602 12.3645 181.852C12.123 182.099 11.8248 182.293 11.4696 182.432C11.1145 182.568 10.7154 182.636 10.2722 182.636ZM17.2566 182.636C16.6259 182.636 16.0819 182.497 15.6245 182.219C15.1699 181.938 14.8191 181.545 14.5719 181.043C14.3276 180.537 14.2054 179.949 14.2054 179.278C14.2054 178.608 14.3276 178.017 14.5719 177.506C14.8191 176.991 15.1628 176.591 15.6032 176.304C16.0463 176.014 16.5634 175.869 17.1543 175.869C17.4952 175.869 17.8319 175.926 18.1642 176.04C18.4966 176.153 18.7992 176.338 19.0719 176.594C19.3446 176.847 19.562 177.182 19.7239 177.599C19.8858 178.017 19.9668 178.531 19.9668 179.142V179.568H14.9213V178.699H18.9441C18.9441 178.33 18.8702 178 18.7225 177.71C18.5776 177.42 18.3702 177.192 18.1003 177.024C17.8333 176.857 17.5179 176.773 17.1543 176.773C16.7537 176.773 16.4071 176.872 16.1145 177.071C15.8248 177.267 15.6017 177.523 15.4455 177.838C15.2892 178.153 15.2111 178.491 15.2111 178.852V179.432C15.2111 179.926 15.2963 180.345 15.4668 180.689C15.6401 181.03 15.8801 181.29 16.187 181.469C16.4938 181.645 16.8503 181.733 17.2566 181.733C17.5208 181.733 17.7594 181.696 17.9725 181.622C18.1884 181.545 18.3745 181.432 18.5307 181.281C18.687 181.128 18.8077 180.937 18.8929 180.71L19.8645 180.983C19.7623 181.312 19.5904 181.602 19.3489 181.852C19.1074 182.099 18.8091 182.293 18.454 182.432C18.0989 182.568 17.6998 182.636 17.2566 182.636ZM21.4966 184.955V175.955H22.4682V176.994H22.5875C22.6614 176.881 22.7637 176.736 22.8944 176.56C23.0279 176.381 23.2182 176.222 23.4654 176.082C23.7154 175.94 24.0534 175.869 24.4796 175.869C25.0307 175.869 25.5165 176.007 25.937 176.283C26.3574 176.558 26.6855 176.949 26.9213 177.455C27.1571 177.96 27.275 178.557 27.275 179.244C27.275 179.938 27.1571 180.538 26.9213 181.047C26.6855 181.553 26.3588 181.945 25.9412 182.223C25.5236 182.499 25.0421 182.636 24.4966 182.636C24.0762 182.636 23.7395 182.567 23.4867 182.428C23.2338 182.286 23.0392 182.125 22.9029 181.946C22.7665 181.764 22.6614 181.614 22.5875 181.494H22.5023V184.955H21.4966ZM22.4853 179.227C22.4853 179.722 22.5577 180.158 22.7026 180.536C22.8475 180.911 23.0591 181.205 23.3375 181.418C23.6159 181.628 23.9569 181.733 24.3603 181.733C24.7807 181.733 25.1316 181.622 25.4128 181.401C25.6969 181.176 25.91 180.875 26.052 180.497C26.1969 180.116 26.2694 179.693 26.2694 179.227C26.2694 178.767 26.1983 178.352 26.0563 177.983C25.9171 177.611 25.7054 177.317 25.4213 177.101C25.1401 176.882 24.7864 176.773 24.3603 176.773C23.9512 176.773 23.6074 176.876 23.329 177.084C23.0506 177.288 22.8404 177.575 22.6983 177.945C22.5563 178.311 22.4853 178.739 22.4853 179.227ZM31.8432 174.71V173.773H38.3887V174.71H35.6444V182.5H34.5875V174.71H31.8432ZM39.2037 182.5V175.955H40.1752V176.943H40.2434C40.3627 176.619 40.5787 176.357 40.8912 176.155C41.2037 175.953 41.5559 175.852 41.948 175.852C42.0218 175.852 42.1142 175.854 42.225 175.857C42.3358 175.859 42.4196 175.864 42.4764 175.869V176.892C42.4423 176.884 42.3642 176.871 42.242 176.854C42.1227 176.834 41.9963 176.824 41.8627 176.824C41.5446 176.824 41.2605 176.891 41.0105 177.024C40.7633 177.155 40.5673 177.337 40.4224 177.57C40.2804 177.8 40.2093 178.062 40.2093 178.358V182.5H39.2037ZM45.5946 182.653C45.1799 182.653 44.8034 182.575 44.4654 182.419C44.1273 182.26 43.8588 182.031 43.66 181.733C43.4611 181.432 43.3617 181.068 43.3617 180.642C43.3617 180.267 43.4355 179.963 43.5833 179.73C43.731 179.494 43.9284 179.31 44.1756 179.176C44.4228 179.043 44.6955 178.943 44.9938 178.878C45.2949 178.81 45.5975 178.756 45.9015 178.716C46.2992 178.665 46.6216 178.626 46.8688 178.601C47.1188 178.572 47.3006 178.526 47.4142 178.46C47.5307 178.395 47.589 178.281 47.589 178.119V178.085C47.589 177.665 47.4739 177.338 47.2438 177.105C47.0165 176.872 46.6713 176.756 46.2083 176.756C45.7282 176.756 45.3517 176.861 45.079 177.071C44.8063 177.281 44.6145 177.506 44.5037 177.744L43.5492 177.403C43.7196 177.006 43.9469 176.696 44.231 176.474C44.5179 176.25 44.8304 176.094 45.1685 176.006C45.5094 175.915 45.8446 175.869 46.1742 175.869C46.3844 175.869 46.6259 175.895 46.8986 175.946C47.1742 175.994 47.4398 176.095 47.6955 176.249C47.954 176.402 48.1685 176.634 48.339 176.943C48.5094 177.253 48.5946 177.668 48.5946 178.188V182.5H47.589V181.614H47.5378C47.4696 181.756 47.356 181.908 47.1969 182.07C47.0378 182.232 46.8262 182.369 46.562 182.483C46.2978 182.597 45.9753 182.653 45.5946 182.653ZM45.748 181.75C46.1458 181.75 46.481 181.672 46.7537 181.516C47.0293 181.359 47.2367 181.158 47.3759 180.911C47.5179 180.663 47.589 180.403 47.589 180.131V179.21C47.5463 179.261 47.4526 179.308 47.3077 179.351C47.1657 179.391 47.0009 179.426 46.8134 179.457C46.6287 179.486 46.4483 179.511 46.2722 179.534C46.0989 179.554 45.9583 179.571 45.8503 179.585C45.589 179.619 45.3446 179.675 45.1174 179.751C44.8929 179.825 44.7111 179.937 44.5719 180.088C44.4355 180.236 44.3674 180.437 44.3674 180.693C44.3674 181.043 44.4966 181.307 44.7551 181.486C45.0165 181.662 45.3475 181.75 45.748 181.75ZM53.0893 182.636C52.4757 182.636 51.9473 182.491 51.5041 182.202C51.0609 181.912 50.72 181.513 50.4814 181.004C50.2427 180.496 50.1234 179.915 50.1234 179.261C50.1234 178.597 50.2456 178.01 50.4899 177.501C50.737 176.99 51.0808 176.591 51.5211 176.304C51.9643 176.014 52.4814 175.869 53.0723 175.869C53.5325 175.869 53.9473 175.955 54.3166 176.125C54.6859 176.295 54.9885 176.534 55.2243 176.841C55.46 177.148 55.6064 177.506 55.6632 177.915H54.6575C54.5808 177.616 54.4103 177.352 54.1461 177.122C53.8848 176.889 53.5325 176.773 53.0893 176.773C52.6973 176.773 52.3535 176.875 52.0581 177.08C51.7654 177.281 51.5368 177.567 51.372 177.936C51.21 178.303 51.1291 178.733 51.1291 179.227C51.1291 179.733 51.2086 180.173 51.3677 180.548C51.5297 180.923 51.7569 181.214 52.0495 181.422C52.345 181.629 52.6916 181.733 53.0893 181.733C53.3507 181.733 53.5879 181.688 53.801 181.597C54.014 181.506 54.1944 181.375 54.3422 181.205C54.4899 181.034 54.595 180.83 54.6575 180.591H55.6632C55.6064 180.977 55.4657 181.325 55.2413 181.635C55.0197 181.942 54.7257 182.186 54.3592 182.368C53.9956 182.547 53.5723 182.636 53.0893 182.636ZM58.0708 180.114L58.0538 178.869H58.2583L61.122 175.955H62.3663L59.3152 179.04H59.2299L58.0708 180.114ZM57.1333 182.5V173.773H58.139V182.5H57.1333ZM61.2924 182.5L58.7356 179.261L59.4515 178.562L62.5708 182.5H61.2924Z" fill="#393939"/>
<rect width="56" height="56" transform="translate(263 130)" fill="white"/>
<path fill-rule="evenodd" clip-rule="evenodd" d="M291.165 135.491C290.607 134.957 289.863 134.663 289.091 134.672C288.32 134.68 287.582 134.991 287.037 135.537C286.491 136.082 286.181 136.82 286.172 137.592C286.164 138.363 286.458 139.108 286.992 139.665L288.474 141.147C288.525 141.125 288.579 141.101 288.633 141.074C289.212 140.795 290.032 140.292 290.913 139.412C291.793 138.531 292.296 137.711 292.575 137.132L292.65 136.973L291.165 135.491ZM294.319 138.644C293.823 139.508 293.212 140.302 292.503 141.003C291.802 141.712 291.008 142.323 290.143 142.82L290.833 143.51C291.391 144.045 292.136 144.34 292.909 144.333C293.681 144.325 294.42 144.015 294.967 143.469C295.514 142.922 295.824 142.184 295.833 141.411C295.841 140.638 295.546 139.893 295.011 139.335L294.319 138.644ZM285.399 133.899C285.882 133.416 286.455 133.033 287.087 132.771C287.718 132.51 288.394 132.375 289.078 132.375C289.761 132.375 290.437 132.51 291.069 132.771C291.7 133.033 292.273 133.416 292.756 133.899L296.601 137.744C297.546 138.725 298.068 140.039 298.055 141.402C298.042 142.764 297.494 144.067 296.531 145.031C295.567 145.995 294.264 146.542 292.901 146.555C291.539 146.568 290.225 146.046 289.243 145.101L285.399 141.257C284.916 140.773 284.532 140.2 284.271 139.569C284.009 138.938 283.875 138.261 283.875 137.578C283.875 136.895 284.009 136.218 284.271 135.587C284.532 134.956 284.916 134.382 285.399 133.899ZM286.026 152.172C288.825 151.631 291.82 151.752 294.246 153.198C294.585 153.401 294.906 153.654 295.183 153.966C295.747 154.601 296.038 155.387 296.052 156.176C296.338 155.991 296.626 155.786 296.917 155.565L299.629 153.518C300.309 153.018 301.129 152.749 301.972 152.749C302.815 152.749 303.636 153.018 304.315 153.518C305.568 154.463 306.069 156.162 305.17 157.602C304.533 158.624 303.573 160.038 302.595 160.944C301.605 161.859 300.199 162.63 299.136 163.143C297.843 163.767 296.448 164.112 295.09 164.331C292.315 164.781 289.429 164.712 286.687 164.147C285.273 163.856 283.834 163.708 282.39 163.707H279C278.702 163.707 278.415 163.588 278.204 163.378C277.993 163.167 277.875 162.88 277.875 162.582C277.875 162.284 277.993 161.997 278.204 161.787C278.415 161.576 278.702 161.457 279 161.457H282.39C283.983 161.457 285.592 161.624 287.142 161.943C289.641 162.456 292.213 162.512 294.732 162.11C295.974 161.909 297.135 161.61 298.158 161.117C299.182 160.622 300.334 159.971 301.065 159.294C301.804 158.609 302.631 157.422 303.262 156.411C303.453 156.105 303.426 155.666 302.959 155.313C302.404 154.893 301.539 154.893 300.985 155.313L298.275 157.361C297.192 158.178 295.86 159.053 294.208 159.317C294.035 159.344 293.862 159.368 293.688 159.389C292.637 159.51 291.576 159.52 290.523 159.419C290.373 159.408 290.227 159.368 290.093 159.3C289.959 159.233 289.84 159.139 289.743 159.025C289.646 158.91 289.573 158.777 289.527 158.634C289.482 158.491 289.466 158.341 289.48 158.191C289.494 158.042 289.538 157.897 289.609 157.764C289.68 157.632 289.777 157.515 289.893 157.421C290.01 157.327 290.144 157.257 290.289 157.215C290.433 157.174 290.584 157.161 290.733 157.179C291.565 157.26 292.403 157.258 293.235 157.175L293.28 157.17C293.42 157.083 293.539 156.966 293.628 156.828C293.717 156.69 293.775 156.533 293.796 156.37C293.818 156.206 293.803 156.04 293.753 155.884C293.702 155.727 293.618 155.583 293.505 155.463C293.385 155.331 293.246 155.219 293.092 155.13C291.321 154.073 288.954 153.897 286.453 154.38C284.011 154.871 281.696 155.859 279.651 157.283C279.53 157.368 279.394 157.429 279.25 157.462C279.106 157.495 278.957 157.499 278.811 157.474C278.665 157.449 278.526 157.396 278.401 157.317C278.276 157.239 278.167 157.136 278.082 157.016C277.996 156.895 277.936 156.759 277.903 156.615C277.87 156.471 277.866 156.321 277.89 156.176C277.915 156.03 277.969 155.891 278.047 155.766C278.126 155.64 278.228 155.532 278.349 155.447C280.655 153.838 283.269 152.724 286.026 152.172Z" fill="#393939"/>
<path d="M255.72 174.71V173.773H262.266V174.71H259.521V182.5H258.464V174.71H255.72ZM264.796 182.653C264.381 182.653 264.005 182.575 263.667 182.419C263.328 182.26 263.06 182.031 262.861 181.733C262.662 181.432 262.563 181.068 262.563 180.642C262.563 180.267 262.637 179.963 262.784 179.73C262.932 179.494 263.13 179.31 263.377 179.176C263.624 179.043 263.897 178.943 264.195 178.878C264.496 178.81 264.799 178.756 265.103 178.716C265.5 178.665 265.823 178.626 266.07 178.601C266.32 178.572 266.502 178.526 266.615 178.46C266.732 178.395 266.79 178.281 266.79 178.119V178.085C266.79 177.665 266.675 177.338 266.445 177.105C266.218 176.872 265.873 176.756 265.409 176.756C264.929 176.756 264.553 176.861 264.28 177.071C264.007 177.281 263.816 177.506 263.705 177.744L262.75 177.403C262.921 177.006 263.148 176.696 263.432 176.474C263.719 176.25 264.032 176.094 264.37 176.006C264.711 175.915 265.046 175.869 265.375 175.869C265.586 175.869 265.827 175.895 266.1 175.946C266.375 175.994 266.641 176.095 266.897 176.249C267.155 176.402 267.37 176.634 267.54 176.943C267.711 177.253 267.796 177.668 267.796 178.188V182.5H266.79V181.614H266.739C266.671 181.756 266.557 181.908 266.398 182.07C266.239 182.232 266.027 182.369 265.763 182.483C265.499 182.597 265.176 182.653 264.796 182.653ZM264.949 181.75C265.347 181.75 265.682 181.672 265.955 181.516C266.23 181.359 266.438 181.158 266.577 180.911C266.719 180.663 266.79 180.403 266.79 180.131V179.21C266.748 179.261 266.654 179.308 266.509 179.351C266.367 179.391 266.202 179.426 266.015 179.457C265.83 179.486 265.65 179.511 265.473 179.534C265.3 179.554 265.159 179.571 265.051 179.585C264.79 179.619 264.546 179.675 264.319 179.751C264.094 179.825 263.912 179.937 263.773 180.088C263.637 180.236 263.569 180.437 263.569 180.693C263.569 181.043 263.698 181.307 263.956 181.486C264.218 181.662 264.549 181.75 264.949 181.75ZM270.569 180.114L270.552 178.869H270.756L273.62 175.955H274.864L271.813 179.04H271.728L270.569 180.114ZM269.631 182.5V173.773H270.637V182.5H269.631ZM273.79 182.5L271.234 179.261L271.95 178.562L275.069 182.5H273.79ZM278.634 182.636C278.003 182.636 277.459 182.497 277.001 182.219C276.547 181.938 276.196 181.545 275.949 181.043C275.705 180.537 275.582 179.949 275.582 179.278C275.582 178.608 275.705 178.017 275.949 177.506C276.196 176.991 276.54 176.591 276.98 176.304C277.423 176.014 277.94 175.869 278.531 175.869C278.872 175.869 279.209 175.926 279.541 176.04C279.874 176.153 280.176 176.338 280.449 176.594C280.722 176.847 280.939 177.182 281.101 177.599C281.263 178.017 281.344 178.531 281.344 179.142V179.568H276.298V178.699H280.321C280.321 178.33 280.247 178 280.099 177.71C279.955 177.42 279.747 177.192 279.477 177.024C279.21 176.857 278.895 176.773 278.531 176.773C278.131 176.773 277.784 176.872 277.491 177.071C277.202 177.267 276.979 177.523 276.822 177.838C276.666 178.153 276.588 178.491 276.588 178.852V179.432C276.588 179.926 276.673 180.345 276.844 180.689C277.017 181.03 277.257 181.29 277.564 181.469C277.871 181.645 278.227 181.733 278.634 181.733C278.898 181.733 279.136 181.696 279.349 181.622C279.565 181.545 279.751 181.432 279.908 181.281C280.064 181.128 280.185 180.937 280.27 180.71L281.241 180.983C281.139 181.312 280.967 181.602 280.726 181.852C280.484 182.099 280.186 182.293 279.831 182.432C279.476 182.568 279.077 182.636 278.634 182.636ZM287.442 173.773V182.5H286.385V173.773H287.442ZM290.43 178.562V182.5H289.424V175.955H290.396V176.977H290.481C290.635 176.645 290.868 176.378 291.18 176.176C291.493 175.972 291.896 175.869 292.39 175.869C292.833 175.869 293.221 175.96 293.554 176.142C293.886 176.321 294.145 176.594 294.329 176.96C294.514 177.324 294.606 177.784 294.606 178.341V182.5H293.6V178.409C293.6 177.895 293.467 177.494 293.2 177.207C292.933 176.918 292.566 176.773 292.1 176.773C291.779 176.773 291.493 176.842 291.24 176.982C290.99 177.121 290.792 177.324 290.647 177.591C290.502 177.858 290.43 178.182 290.43 178.562ZM299.478 174.71V173.773H306.023V174.71H303.279V182.5H302.222V174.71H299.478ZM307.518 182.5V175.955H308.524V182.5H307.518ZM308.029 174.864C307.833 174.864 307.664 174.797 307.522 174.663C307.383 174.53 307.314 174.369 307.314 174.182C307.314 173.994 307.383 173.834 307.522 173.7C307.664 173.567 307.833 173.5 308.029 173.5C308.225 173.5 308.393 173.567 308.532 173.7C308.674 173.834 308.745 173.994 308.745 174.182C308.745 174.369 308.674 174.53 308.532 174.663C308.393 174.797 308.225 174.864 308.029 174.864ZM310.366 182.5V175.955H311.337V176.977H311.423C311.559 176.628 311.779 176.357 312.083 176.163C312.387 175.967 312.752 175.869 313.178 175.869C313.61 175.869 313.969 175.967 314.256 176.163C314.546 176.357 314.772 176.628 314.934 176.977H315.002C315.17 176.639 315.421 176.371 315.756 176.172C316.092 175.97 316.494 175.869 316.962 175.869C317.548 175.869 318.026 176.053 318.398 176.419C318.771 176.783 318.957 177.349 318.957 178.119V182.5H317.951V178.119C317.951 177.636 317.819 177.291 317.555 177.084C317.29 176.876 316.979 176.773 316.621 176.773C316.161 176.773 315.805 176.912 315.552 177.19C315.299 177.466 315.173 177.815 315.173 178.239V182.5H314.15V178.017C314.15 177.645 314.029 177.345 313.788 177.118C313.546 176.888 313.235 176.773 312.854 176.773C312.593 176.773 312.349 176.842 312.121 176.982C311.897 177.121 311.715 177.314 311.576 177.561C311.44 177.805 311.371 178.088 311.371 178.409V182.5H310.366ZM323.54 182.636C322.909 182.636 322.365 182.497 321.908 182.219C321.453 181.938 321.102 181.545 320.855 181.043C320.611 180.537 320.489 179.949 320.489 179.278C320.489 178.608 320.611 178.017 320.855 177.506C321.102 176.991 321.446 176.591 321.886 176.304C322.33 176.014 322.847 175.869 323.438 175.869C323.778 175.869 324.115 175.926 324.447 176.04C324.78 176.153 325.082 176.338 325.355 176.594C325.628 176.847 325.845 177.182 326.007 177.599C326.169 178.017 326.25 178.531 326.25 179.142V179.568H321.205V178.699H325.227C325.227 178.33 325.153 178 325.006 177.71C324.861 177.42 324.653 177.192 324.384 177.024C324.116 176.857 323.801 176.773 323.438 176.773C323.037 176.773 322.69 176.872 322.398 177.071C322.108 177.267 321.885 177.523 321.729 177.838C321.572 178.153 321.494 178.491 321.494 178.852V179.432C321.494 179.926 321.58 180.345 321.75 180.689C321.923 181.03 322.163 181.29 322.47 181.469C322.777 181.645 323.134 181.733 323.54 181.733C323.804 181.733 324.043 181.696 324.256 181.622C324.472 181.545 324.658 181.432 324.814 181.281C324.97 181.128 325.091 180.937 325.176 180.71L326.148 180.983C326.045 181.312 325.874 181.602 325.632 181.852C325.391 182.099 325.092 182.293 324.737 182.432C324.382 182.568 323.983 182.636 323.54 182.636Z" fill="#393939"/>
<rect width="56" height="56" transform="translate(133)" fill="white"/>
<path d="M161.007 6.08754C164.031 1.82904 173.064 3.49629 173.064 13.025C173.064 23.3285 168.195 33.125 165.145 33.125C163.062 33.125 162.916 31.7555 162.916 30.626C162.916 29.7328 163.425 26.1868 161 26.1868C158.575 26.1868 159.084 29.7328 159.084 30.626C159.084 31.7555 158.937 33.125 156.855 33.125C153.804 33.125 148.935 23.3285 148.935 13.025C148.935 3.49704 157.969 1.82904 160.993 6.08754" stroke="#393939" stroke-width="2" stroke-linecap="round" stroke-linejoin="round"/>
<path d="M161 9.19171C165.122 4.30021 169.551 7.00246 170.33 10.5762C171.877 17.6735 163.061 23.6862 161 23.6862C158.939 23.6862 150.123 17.6735 151.67 10.5762C152.448 7.00246 156.878 4.30021 161 9.19171Z" stroke="#393939" stroke-width="2" stroke-linecap="round" stroke-linejoin="round"/>
<path d="M146.884 44.7102V43.7727H153.43V44.7102H150.685V52.5H149.629V44.7102H146.884ZM154.245 52.5V45.9545H155.216V46.9432H155.284C155.404 46.6193 155.62 46.3565 155.932 46.1548C156.245 45.9531 156.597 45.8523 156.989 45.8523C157.063 45.8523 157.155 45.8537 157.266 45.8565C157.377 45.8594 157.461 45.8636 157.517 45.8693V46.892C157.483 46.8835 157.405 46.8707 157.283 46.8537C157.164 46.8338 157.037 46.8239 156.904 46.8239C156.586 46.8239 156.301 46.8906 156.051 47.0241C155.804 47.1548 155.608 47.3366 155.463 47.5696C155.321 47.7997 155.25 48.0625 155.25 48.358V52.5H154.245ZM161.255 52.6364C160.624 52.6364 160.08 52.4972 159.623 52.2188C159.168 51.9375 158.817 51.5455 158.57 51.0426C158.326 50.5369 158.203 49.9489 158.203 49.2784C158.203 48.608 158.326 48.017 158.57 47.5057C158.817 46.9915 159.161 46.5909 159.601 46.304C160.044 46.0142 160.561 45.8693 161.152 45.8693C161.493 45.8693 161.83 45.9261 162.162 46.0398C162.495 46.1534 162.797 46.3381 163.07 46.5938C163.343 46.8466 163.56 47.1818 163.722 47.5994C163.884 48.017 163.965 48.5312 163.965 49.142V49.5682H158.919V48.6989H162.942C162.942 48.3295 162.868 48 162.721 47.7102C162.576 47.4205 162.368 47.1918 162.098 47.0241C161.831 46.8565 161.516 46.7727 161.152 46.7727C160.752 46.7727 160.405 46.8722 160.113 47.071C159.823 47.267 159.6 47.5227 159.444 47.8381C159.287 48.1534 159.209 48.4915 159.209 48.8523V49.4318C159.209 49.9261 159.294 50.3452 159.465 50.6889C159.638 51.0298 159.878 51.2898 160.185 51.4688C160.492 51.6449 160.848 51.733 161.255 51.733C161.519 51.733 161.757 51.696 161.971 51.6222C162.186 51.5455 162.373 51.4318 162.529 51.2812C162.685 51.1278 162.806 50.9375 162.891 50.7102L163.863 50.983C163.76 51.3125 163.588 51.6023 163.347 51.8523C163.105 52.0994 162.807 52.2926 162.452 52.4318C162.097 52.5682 161.698 52.6364 161.255 52.6364ZM167.421 52.6534C167.006 52.6534 166.63 52.5753 166.292 52.419C165.953 52.2599 165.685 52.0312 165.486 51.733C165.287 51.4318 165.188 51.0682 165.188 50.642C165.188 50.267 165.262 49.9631 165.409 49.7301C165.557 49.4943 165.755 49.3097 166.002 49.1761C166.249 49.0426 166.522 48.9432 166.82 48.8778C167.121 48.8097 167.424 48.7557 167.728 48.7159C168.125 48.6648 168.448 48.6264 168.695 48.6009C168.945 48.5724 169.127 48.5256 169.24 48.4602C169.357 48.3949 169.415 48.2812 169.415 48.1193V48.0852C169.415 47.6648 169.3 47.3381 169.07 47.1051C168.843 46.8722 168.498 46.7557 168.034 46.7557C167.554 46.7557 167.178 46.8608 166.905 47.071C166.632 47.2812 166.441 47.5057 166.33 47.7443L165.375 47.4034C165.546 47.0057 165.773 46.696 166.057 46.4744C166.344 46.25 166.657 46.0937 166.995 46.0057C167.336 45.9148 167.671 45.8693 168 45.8693C168.211 45.8693 168.452 45.8949 168.725 45.946C169 45.9943 169.266 46.0952 169.522 46.2486C169.78 46.402 169.995 46.6335 170.165 46.9432C170.336 47.2528 170.421 47.6676 170.421 48.1875V52.5H169.415V51.6136H169.364C169.296 51.7557 169.182 51.9077 169.023 52.0696C168.864 52.2315 168.652 52.3693 168.388 52.483C168.124 52.5966 167.801 52.6534 167.421 52.6534ZM167.574 51.75C167.972 51.75 168.307 51.6719 168.58 51.5156C168.855 51.3594 169.063 51.1577 169.202 50.9105C169.344 50.6634 169.415 50.4034 169.415 50.1307V49.2102C169.373 49.2614 169.279 49.3082 169.134 49.3509C168.992 49.3906 168.827 49.4261 168.64 49.4574C168.455 49.4858 168.275 49.5114 168.098 49.5341C167.925 49.554 167.784 49.571 167.676 49.5852C167.415 49.6193 167.171 49.6747 166.944 49.7514C166.719 49.8253 166.537 49.9375 166.398 50.0881C166.262 50.2358 166.194 50.4375 166.194 50.6932C166.194 51.0426 166.323 51.3068 166.581 51.4858C166.843 51.6619 167.174 51.75 167.574 51.75ZM175.103 45.9545V46.8068H171.711V45.9545H175.103ZM172.7 44.3864H173.705V50.625C173.705 50.9091 173.746 51.1222 173.829 51.2642C173.914 51.4034 174.022 51.4972 174.153 51.5455C174.286 51.5909 174.427 51.6136 174.575 51.6136C174.685 51.6136 174.776 51.608 174.847 51.5966C174.918 51.5824 174.975 51.571 175.018 51.5625L175.222 52.4659C175.154 52.4915 175.059 52.517 174.937 52.5426C174.815 52.571 174.66 52.5852 174.472 52.5852C174.188 52.5852 173.91 52.5241 173.637 52.402C173.367 52.2798 173.143 52.0938 172.964 51.8438C172.788 51.5938 172.7 51.2784 172.7 50.8977V44.3864Z" fill="#393939"/>
</svg>
