<svg width="316" height="288" viewBox="0 0 316 288" fill="none" xmlns="http://www.w3.org/2000/svg">
<rect x="29" y="29" width="258" height="258" rx="129" stroke="#43A047" stroke-width="2"/>
<path d="M156.816 167.601H138.179C135.258 167.601 133.005 170.174 133.391 173.07L135.816 187.089C136.776 194.289 142.917 199.666 150.181 199.666H163.451C170.715 199.666 176.857 194.289 177.817 187.089L180.241 173.07C180.628 170.174 178.375 167.601 175.453 167.601H156.816ZM156.816 167.601V150.753V147.583M156.816 147.583V144.413V138.072M156.816 147.583L149.569 141.695M156.816 147.583L164.062 141.695" stroke="#0B0B0B" stroke-linecap="round" stroke-linejoin="round"/>
<path d="M173.724 141.696C173.724 151.034 166.153 158.604 156.816 158.604C147.477 158.604 139.907 151.034 139.907 141.696C139.907 129.618 156.816 116.333 156.816 116.333C156.816 116.333 173.724 129.618 173.724 141.696Z" stroke="#0B0B0B"/>
<rect width="56" height="56" transform="translate(0 130)" fill="white"/>
<path d="M28.9172 150.802L27.2319 153.994C27.2319 153.994 24.9729 144.205 32.7422 138.659C35.9259 147.658 28.4619 154.381 28.4619 154.381L28.9119 150.8M19.1649 140.404C23.1804 140.666 26.5269 144.754 26.5269 144.754C25.5246 147.114 25.2498 149.72 25.7379 152.236C22.0179 148.979 18.5679 145.601 19.1642 140.404M12.2109 152.938C16.794 155.942 22.034 157.795 27.4862 158.341C24.7577 152.025 19.9089 149.761 12.2109 152.938ZM28.5617 158.306C36.8304 157.887 43.7807 153.047 43.7889 153C36.7539 149.966 31.6442 151.651 28.5617 158.306Z" stroke="#393939" stroke-width="2" stroke-linecap="round" stroke-linejoin="round"/>
<path d="M14.7541 182.5V173.773H17.7029C18.3876 173.773 18.9473 173.896 19.3819 174.143C19.8194 174.388 20.1433 174.719 20.3535 175.136C20.5637 175.554 20.6689 176.02 20.6689 176.534C20.6689 177.048 20.5637 177.516 20.3535 177.936C20.1461 178.357 19.8251 178.692 19.3904 178.942C18.9558 179.189 18.399 179.312 17.72 179.312H15.6064V178.375H17.6859C18.1547 178.375 18.5311 178.294 18.8152 178.132C19.0993 177.97 19.3052 177.751 19.4331 177.476C19.5637 177.197 19.6291 176.884 19.6291 176.534C19.6291 176.185 19.5637 175.872 19.4331 175.597C19.3052 175.321 19.0978 175.105 18.8109 174.949C18.524 174.79 18.1433 174.71 17.6689 174.71H15.8109V182.5H14.7541ZM23.2406 173.773V182.5H22.2349V173.773H23.2406ZM27.0087 182.653C26.5939 182.653 26.2175 182.575 25.8794 182.419C25.5414 182.26 25.2729 182.031 25.074 181.733C24.8752 181.432 24.7757 181.068 24.7757 180.642C24.7757 180.267 24.8496 179.963 24.9973 179.73C25.1451 179.494 25.3425 179.31 25.5897 179.176C25.8368 179.043 26.1096 178.943 26.4078 178.878C26.709 178.81 27.0115 178.756 27.3155 178.716C27.7132 178.665 28.0357 178.626 28.2828 178.601C28.5328 178.572 28.7147 178.526 28.8283 178.46C28.9448 178.395 29.003 178.281 29.003 178.119V178.085C29.003 177.665 28.888 177.338 28.6578 177.105C28.4306 176.872 28.0854 176.756 27.6223 176.756C27.1422 176.756 26.7658 176.861 26.4931 177.071C26.2203 177.281 26.0286 177.506 25.9178 177.744L24.9632 177.403C25.1337 177.006 25.361 176.696 25.6451 176.474C25.932 176.25 26.2445 176.094 26.5826 176.006C26.9235 175.915 27.2587 175.869 27.5882 175.869C27.7985 175.869 28.04 175.895 28.3127 175.946C28.5882 175.994 28.8539 176.095 29.1096 176.249C29.3681 176.402 29.5826 176.634 29.753 176.943C29.9235 177.253 30.0087 177.668 30.0087 178.188V182.5H29.003V181.614H28.9519C28.8837 181.756 28.7701 181.908 28.611 182.07C28.4519 182.232 28.2402 182.369 27.976 182.483C27.7118 182.597 27.3894 182.653 27.0087 182.653ZM27.1621 181.75C27.5598 181.75 27.8951 181.672 28.1678 181.516C28.4434 181.359 28.6507 181.158 28.79 180.911C28.932 180.663 29.003 180.403 29.003 180.131V179.21C28.9604 179.261 28.8667 179.308 28.7218 179.351C28.5797 179.391 28.415 179.426 28.2275 179.457C28.0428 179.486 27.8624 179.511 27.6863 179.534C27.513 179.554 27.3723 179.571 27.2644 179.585C27.003 179.619 26.7587 179.675 26.5314 179.751C26.307 179.825 26.1252 179.937 25.986 180.088C25.8496 180.236 25.7814 180.437 25.7814 180.693C25.7814 181.043 25.9107 181.307 26.1692 181.486C26.4306 181.662 26.7615 181.75 27.1621 181.75ZM32.85 178.562V182.5H31.8443V175.955H32.8159V176.977H32.9011C33.0545 176.645 33.2875 176.378 33.6 176.176C33.9125 175.972 34.3159 175.869 34.8102 175.869C35.2534 175.869 35.6412 175.96 35.9735 176.142C36.3059 176.321 36.5645 176.594 36.7491 176.96C36.9338 177.324 37.0261 177.784 37.0261 178.341V182.5H36.0204V178.409C36.0204 177.895 35.8869 177.494 35.6199 177.207C35.3528 176.918 34.9863 176.773 34.5204 176.773C34.1994 176.773 33.9125 176.842 33.6596 176.982C33.4096 177.121 33.2122 177.324 33.0673 177.591C32.9224 177.858 32.85 178.182 32.85 178.562ZM41.7104 175.955V176.807H38.3184V175.955H41.7104ZM39.307 174.386H40.3127V180.625C40.3127 180.909 40.3539 181.122 40.4363 181.264C40.5215 181.403 40.6294 181.497 40.7601 181.545C40.8936 181.591 41.0343 181.614 41.182 181.614C41.2928 181.614 41.3837 181.608 41.4547 181.597C41.5257 181.582 41.5826 181.571 41.6252 181.562L41.8297 182.466C41.7615 182.491 41.6664 182.517 41.5442 182.543C41.4221 182.571 41.2672 182.585 41.0797 182.585C40.7956 182.585 40.5172 182.524 40.2445 182.402C39.9746 182.28 39.7502 182.094 39.5712 181.844C39.3951 181.594 39.307 181.278 39.307 180.898V174.386Z" fill="#393939"/>
<rect width="56" height="56" transform="translate(260 130)" fill="white"/>
<path d="M281.785 132.394C281.785 132.394 281.356 135.955 282.256 137.345C282.748 138.101 283.746 138.931 284.611 138.67C285.272 138.466 285.624 137.506 285.539 136.822C285.307 134.9 281.785 132.394 281.785 132.394ZM292.338 132.416C292.338 132.416 293.091 137.296 294.708 138.959C295.32 139.584 296.388 140.323 297.155 139.908C297.745 139.584 297.753 138.572 297.57 137.925C296.881 135.487 292.338 132.416 292.338 132.416ZM271.727 133.473C271.727 133.473 272.463 138.586 274.051 140.456C274.597 141.096 275.71 141.898 276.29 141.631C276.757 141.42 276.863 140.302 276.701 139.648C276.086 137.073 271.727 133.473 271.727 133.473ZM288.401 138.241C288.401 138.241 288.317 142.538 289.603 144.021C290.145 144.633 291.178 145.202 291.917 144.851C292.549 144.541 292.739 143.522 292.592 142.826C292.156 140.801 288.401 138.241 288.401 138.241ZM280.287 140.112C280.287 140.112 279.788 143.536 280.751 144.759C281.271 145.42 282.354 145.92 283.135 145.596C283.753 145.343 284.126 144.443 284.013 143.782C283.718 142.059 280.287 140.112 280.287 140.112ZM300.818 146.081C297.605 147.347 292.43 145.666 290.806 148.606C290.243 149.4 291.01 150.293 291.354 150.961C290.44 151.741 289.512 152.627 288.76 153.556C287.41 153.323 286.552 153.063 285.975 152.67L285.982 152.663C286.186 146.946 279.281 150.623 275.577 148.655C276.068 152.304 280.8 152.114 281.658 153.225C282.41 154.006 283.788 153.942 284.892 153.429C284.977 153.506 285.068 153.584 285.167 153.654C285.891 154.174 286.777 154.47 287.965 154.695C287.782 155.011 287.628 155.327 287.508 155.651C287.276 156.298 287.156 157.036 287.114 157.816C285.94 156.994 283.585 157.366 281.749 156.277C281.939 157.57 284.499 161.733 287.213 160.284C287.29 160.966 287.395 161.648 287.508 162.295C287.712 163.463 287.958 164.503 288.148 165.234H289.449C289.266 164.545 288.985 163.385 288.753 162.077C288.738 162.007 288.731 161.93 288.717 161.859C290.553 161.459 292.507 160.741 293.752 159.145C294.068 159.251 294.476 159.279 294.954 159.202C297.056 158.168 298.589 156.579 302.618 157.409C300.544 156.41 297.942 155.433 295.938 155.412H295.791C294.314 155.426 293.182 156.002 292.887 157.542C292.845 157.774 292.845 157.985 292.88 158.182C291.924 159.553 290.264 160.214 288.535 160.601C288.338 158.878 288.317 157.134 288.703 156.087C289.181 154.765 290.911 152.979 292.535 151.622C292.655 151.523 292.767 151.425 292.887 151.334C293.365 151.531 293.773 151.819 294.406 151.741C297.366 151.242 299.356 148.233 300.818 146.081Z" fill="#393939"/>
<path d="M274.001 182.5L271.615 173.773H272.689L274.513 180.881H274.598L276.456 173.773H277.649L279.507 180.881H279.592L281.416 173.773H282.49L280.104 182.5H279.013L277.087 175.545H277.018L275.092 182.5H274.001ZM284.987 182.653C284.572 182.653 284.196 182.575 283.858 182.419C283.52 182.26 283.251 182.031 283.053 181.733C282.854 181.432 282.754 181.068 282.754 180.642C282.754 180.267 282.828 179.963 282.976 179.73C283.124 179.494 283.321 179.31 283.568 179.176C283.815 179.043 284.088 178.943 284.386 178.878C284.688 178.81 284.99 178.756 285.294 178.716C285.692 178.665 286.014 178.626 286.261 178.601C286.511 178.572 286.693 178.526 286.807 178.46C286.923 178.395 286.982 178.281 286.982 178.119V178.085C286.982 177.665 286.866 177.338 286.636 177.105C286.409 176.872 286.064 176.756 285.601 176.756C285.121 176.756 284.744 176.861 284.472 177.071C284.199 177.281 284.007 177.506 283.896 177.744L282.942 177.403C283.112 177.006 283.339 176.696 283.624 176.474C283.911 176.25 284.223 176.094 284.561 176.006C284.902 175.915 285.237 175.869 285.567 175.869C285.777 175.869 286.018 175.895 286.291 175.946C286.567 175.994 286.832 176.095 287.088 176.249C287.347 176.402 287.561 176.634 287.732 176.943C287.902 177.253 287.987 177.668 287.987 178.188V182.5H286.982V181.614H286.93C286.862 181.756 286.749 181.908 286.589 182.07C286.43 182.232 286.219 182.369 285.955 182.483C285.69 182.597 285.368 182.653 284.987 182.653ZM285.141 181.75C285.538 181.75 285.874 181.672 286.146 181.516C286.422 181.359 286.629 181.158 286.768 180.911C286.911 180.663 286.982 180.403 286.982 180.131V179.21C286.939 179.261 286.845 179.308 286.7 179.351C286.558 179.391 286.393 179.426 286.206 179.457C286.021 179.486 285.841 179.511 285.665 179.534C285.491 179.554 285.351 179.571 285.243 179.585C284.982 179.619 284.737 179.675 284.51 179.751C284.286 179.825 284.104 179.937 283.964 180.088C283.828 180.236 283.76 180.437 283.76 180.693C283.76 181.043 283.889 181.307 284.148 181.486C284.409 181.662 284.74 181.75 285.141 181.75ZM292.669 175.955V176.807H289.277V175.955H292.669ZM290.266 174.386H291.272V180.625C291.272 180.909 291.313 181.122 291.395 181.264C291.48 181.403 291.588 181.497 291.719 181.545C291.853 181.591 291.993 181.614 292.141 181.614C292.252 181.614 292.343 181.608 292.414 181.597C292.485 181.582 292.542 181.571 292.584 181.562L292.789 182.466C292.721 182.491 292.625 182.517 292.503 182.543C292.381 182.571 292.226 182.585 292.039 182.585C291.755 182.585 291.476 182.524 291.203 182.402C290.934 182.28 290.709 182.094 290.53 181.844C290.354 181.594 290.266 181.278 290.266 180.898V174.386ZM296.856 182.636C296.225 182.636 295.681 182.497 295.224 182.219C294.77 181.938 294.419 181.545 294.172 181.043C293.927 180.537 293.805 179.949 293.805 179.278C293.805 178.608 293.927 178.017 294.172 177.506C294.419 176.991 294.762 176.591 295.203 176.304C295.646 176.014 296.163 175.869 296.754 175.869C297.095 175.869 297.431 175.926 297.764 176.04C298.096 176.153 298.399 176.338 298.672 176.594C298.944 176.847 299.162 177.182 299.324 177.599C299.485 178.017 299.566 178.531 299.566 179.142V179.568H294.521V178.699H298.544C298.544 178.33 298.47 178 298.322 177.71C298.177 177.42 297.97 177.192 297.7 177.024C297.433 176.857 297.118 176.773 296.754 176.773C296.353 176.773 296.007 176.872 295.714 177.071C295.424 177.267 295.201 177.523 295.045 177.838C294.889 178.153 294.811 178.491 294.811 178.852V179.432C294.811 179.926 294.896 180.345 295.066 180.689C295.24 181.03 295.48 181.29 295.787 181.469C296.093 181.645 296.45 181.733 296.856 181.733C297.12 181.733 297.359 181.696 297.572 181.622C297.788 181.545 297.974 181.432 298.13 181.281C298.287 181.128 298.407 180.937 298.493 180.71L299.464 180.983C299.362 181.312 299.19 181.602 298.949 181.852C298.707 182.099 298.409 182.293 298.054 182.432C297.699 182.568 297.299 182.636 296.856 182.636ZM301.096 182.5V175.955H302.068V176.943H302.136C302.255 176.619 302.471 176.357 302.784 176.155C303.096 175.953 303.449 175.852 303.841 175.852C303.914 175.852 304.007 175.854 304.118 175.857C304.228 175.859 304.312 175.864 304.369 175.869V176.892C304.335 176.884 304.257 176.871 304.135 176.854C304.015 176.834 303.889 176.824 303.755 176.824C303.437 176.824 303.153 176.891 302.903 177.024C302.656 177.155 302.46 177.337 302.315 177.57C302.173 177.8 302.102 178.062 302.102 178.358V182.5H301.096Z" fill="#393939"/>
<rect width="56" height="56" transform="translate(130)" fill="white"/>
<path d="M158 24.5C154.691 24.5 152 21.809 152 18.5C152 15.191 154.691 12.5 158 12.5C161.309 12.5 164 15.191 164 18.5C164 21.809 161.309 24.5 158 24.5Z" stroke="#393939" stroke-width="2"/>
<path d="M158 5.75V8.75M170.75 18.5H167.75M148.25 18.5H145.25M158 28.25V31.25M164.75 11.75L167 9.5M149 27.5L151.25 25.25M149 9.5L151.25 11.75M164.75 25.25L167 27.5" stroke="#393939" stroke-width="2" stroke-linecap="round"/>
<path d="M129.485 52.5V43.7727H130.541V51.5625H134.598V52.5H129.485ZM138.757 52.6364C138.166 52.6364 137.648 52.4957 137.202 52.2145C136.759 51.9332 136.412 51.5398 136.162 51.0341C135.915 50.5284 135.791 49.9375 135.791 49.2614C135.791 48.5795 135.915 47.9844 136.162 47.4759C136.412 46.9673 136.759 46.5724 137.202 46.2912C137.648 46.0099 138.166 45.8693 138.757 45.8693C139.348 45.8693 139.865 46.0099 140.308 46.2912C140.754 46.5724 141.101 46.9673 141.348 47.4759C141.598 47.9844 141.723 48.5795 141.723 49.2614C141.723 49.9375 141.598 50.5284 141.348 51.0341C141.101 51.5398 140.754 51.9332 140.308 52.2145C139.865 52.4957 139.348 52.6364 138.757 52.6364ZM138.757 51.733C139.206 51.733 139.575 51.6179 139.865 51.3878C140.155 51.1577 140.369 50.8551 140.509 50.4801C140.648 50.1051 140.718 49.6989 140.718 49.2614C140.718 48.8239 140.648 48.4162 140.509 48.0384C140.369 47.6605 140.155 47.3551 139.865 47.1222C139.575 46.8892 139.206 46.7727 138.757 46.7727C138.308 46.7727 137.939 46.8892 137.649 47.1222C137.36 47.3551 137.145 47.6605 137.006 48.0384C136.867 48.4162 136.797 48.8239 136.797 49.2614C136.797 49.6989 136.867 50.1051 137.006 50.4801C137.145 50.8551 137.36 51.1577 137.649 51.3878C137.939 51.6179 138.308 51.733 138.757 51.733ZM145.917 52.6364C145.327 52.6364 144.808 52.4957 144.362 52.2145C143.919 51.9332 143.572 51.5398 143.322 51.0341C143.075 50.5284 142.952 49.9375 142.952 49.2614C142.952 48.5795 143.075 47.9844 143.322 47.4759C143.572 46.9673 143.919 46.5724 144.362 46.2912C144.808 46.0099 145.327 45.8693 145.917 45.8693C146.508 45.8693 147.025 46.0099 147.469 46.2912C147.915 46.5724 148.261 46.9673 148.508 47.4759C148.758 47.9844 148.883 48.5795 148.883 49.2614C148.883 49.9375 148.758 50.5284 148.508 51.0341C148.261 51.5398 147.915 51.9332 147.469 52.2145C147.025 52.4957 146.508 52.6364 145.917 52.6364ZM145.917 51.733C146.366 51.733 146.736 51.6179 147.025 51.3878C147.315 51.1577 147.53 50.8551 147.669 50.4801C147.808 50.1051 147.878 49.6989 147.878 49.2614C147.878 48.8239 147.808 48.4162 147.669 48.0384C147.53 47.6605 147.315 47.3551 147.025 47.1222C146.736 46.8892 146.366 46.7727 145.917 46.7727C145.469 46.7727 145.099 46.8892 144.809 47.1222C144.52 47.3551 144.305 47.6605 144.166 48.0384C144.027 48.4162 143.957 48.8239 143.957 49.2614C143.957 49.6989 144.027 50.1051 144.166 50.4801C144.305 50.8551 144.52 51.1577 144.809 51.3878C145.099 51.6179 145.469 51.733 145.917 51.733ZM151.356 50.1136L151.339 48.8693H151.544L154.407 45.9545H155.651L152.6 49.0398H152.515L151.356 50.1136ZM150.419 52.5V43.7727H151.424V52.5H150.419ZM154.578 52.5L152.021 49.2614L152.737 48.5625L155.856 52.5H154.578ZM160.815 52.5H159.707L162.912 43.7727H164.003L167.207 52.5H166.099L163.491 45.1534H163.423L160.815 52.5ZM161.224 49.0909H165.69V50.0284H161.224V49.0909ZM171.345 45.9545V46.8068H167.817V45.9545H171.345ZM168.873 52.5V45.0511C168.873 44.6761 168.961 44.3636 169.138 44.1136C169.314 43.8636 169.542 43.6761 169.824 43.5511C170.105 43.4261 170.402 43.3636 170.714 43.3636C170.961 43.3636 171.163 43.3835 171.319 43.4233C171.476 43.4631 171.592 43.5 171.669 43.5341L171.379 44.4034C171.328 44.3864 171.257 44.3651 171.166 44.3395C171.078 44.3139 170.961 44.3011 170.817 44.3011C170.484 44.3011 170.244 44.3849 170.096 44.5526C169.952 44.7202 169.879 44.9659 169.879 45.2898V52.5H168.873ZM175.601 45.9545V46.8068H172.209V45.9545H175.601ZM173.198 44.3864H174.203V50.625C174.203 50.9091 174.244 51.1222 174.327 51.2642C174.412 51.4034 174.52 51.4972 174.651 51.5455C174.784 51.5909 174.925 51.6136 175.073 51.6136C175.183 51.6136 175.274 51.608 175.345 51.5966C175.416 51.5824 175.473 51.571 175.516 51.5625L175.72 52.4659C175.652 52.4915 175.557 52.517 175.435 52.5426C175.313 52.571 175.158 52.5852 174.97 52.5852C174.686 52.5852 174.408 52.5241 174.135 52.402C173.865 52.2798 173.641 52.0938 173.462 51.8438C173.286 51.5938 173.198 51.2784 173.198 50.8977V44.3864ZM179.788 52.6364C179.157 52.6364 178.613 52.4972 178.156 52.2188C177.701 51.9375 177.35 51.5455 177.103 51.0426C176.859 50.5369 176.737 49.9489 176.737 49.2784C176.737 48.608 176.859 48.017 177.103 47.5057C177.35 46.9915 177.694 46.5909 178.134 46.304C178.578 46.0142 179.095 45.8693 179.686 45.8693C180.026 45.8693 180.363 45.9261 180.695 46.0398C181.028 46.1534 181.33 46.3381 181.603 46.5938C181.876 46.8466 182.093 47.1818 182.255 47.5994C182.417 48.017 182.498 48.5312 182.498 49.142V49.5682H177.453V48.6989H181.475C181.475 48.3295 181.401 48 181.254 47.7102C181.109 47.4205 180.901 47.1918 180.632 47.0241C180.365 46.8565 180.049 46.7727 179.686 46.7727C179.285 46.7727 178.938 46.8722 178.646 47.071C178.356 47.267 178.133 47.5227 177.977 47.8381C177.82 48.1534 177.742 48.4915 177.742 48.8523V49.4318C177.742 49.9261 177.828 50.3452 177.998 50.6889C178.171 51.0298 178.411 51.2898 178.718 51.4688C179.025 51.6449 179.382 51.733 179.788 51.733C180.052 51.733 180.291 51.696 180.504 51.6222C180.72 51.5455 180.906 51.4318 181.062 51.2812C181.218 51.1278 181.339 50.9375 181.424 50.7102L182.396 50.983C182.294 51.3125 182.122 51.6023 181.88 51.8523C181.639 52.0994 181.34 52.2926 180.985 52.4318C180.63 52.5682 180.231 52.6364 179.788 52.6364ZM184.028 52.5V45.9545H184.999V46.9432H185.068C185.187 46.6193 185.403 46.3565 185.715 46.1548C186.028 45.9531 186.38 45.8523 186.772 45.8523C186.846 45.8523 186.938 45.8537 187.049 45.8565C187.16 45.8594 187.244 45.8636 187.301 45.8693V46.892C187.267 46.8835 187.188 46.8707 187.066 46.8537C186.947 46.8338 186.82 46.8239 186.687 46.8239C186.369 46.8239 186.085 46.8906 185.835 47.0241C185.588 47.1548 185.392 47.3366 185.247 47.5696C185.105 47.7997 185.034 48.0625 185.034 48.358V52.5H184.028Z" fill="#393939"/>
</svg>
