<svg width="316" height="288" viewBox="0 0 316 288" fill="none" xmlns="http://www.w3.org/2000/svg">
<rect x="29" y="29" width="258" height="258" rx="129" stroke="#C1121F" stroke-width="2"/>
<path d="M183 158H179.661C176.204 158 174.475 158 173.042 158.811C171.61 159.622 170.72 161.104 168.942 164.068L168.813 164.283C167.157 167.044 166.328 168.425 165.123 168.402C163.918 168.38 163.141 166.969 161.59 164.147L154.559 151.365C153.112 148.734 152.389 147.418 151.233 147.356C150.078 147.293 149.217 148.523 147.495 150.983L146.316 152.668C144.487 155.28 143.572 156.587 142.216 157.293C140.859 158 139.264 158 136.075 158H133" stroke="#1C274C" stroke-linecap="round"/>
<path d="M158 130.911L156.475 132.331C156.869 132.754 157.421 132.995 158 132.995C158.579 132.995 159.131 132.754 159.525 132.331L158 130.911ZM146.657 187.097C140.587 182.146 133.467 175.63 127.882 168.473C122.258 161.265 118.417 153.692 118.417 146.585H114.25C114.25 155.092 118.782 163.584 124.597 171.036C130.451 178.539 137.835 185.279 144.024 190.326L146.657 187.097ZM118.417 146.585C118.417 134.897 123.821 126.84 130.936 123.879C137.994 120.943 147.522 122.709 156.475 132.331L159.525 129.492C149.729 118.964 138.423 116.252 129.335 120.032C120.305 123.79 114.25 133.644 114.25 146.585H118.417ZM171.976 190.326C178.165 185.279 185.549 178.539 191.403 171.036C197.217 163.584 201.75 155.092 201.75 146.585H197.583C197.583 153.692 193.742 161.265 188.118 168.473C182.533 175.631 175.414 182.147 169.343 187.097L171.976 190.326ZM201.75 146.585C201.75 133.644 195.695 123.789 186.665 120.032C177.577 116.252 166.271 118.964 156.475 129.492L159.525 132.331C168.478 122.709 178.005 120.943 185.064 123.879C192.179 126.839 197.583 134.897 197.583 146.585H201.75ZM144.024 190.326C149.404 194.713 152.78 197.583 158 197.583V193.417C154.551 193.417 152.377 191.761 146.657 187.097L144.024 190.326ZM169.343 187.097C163.623 191.761 161.449 193.417 158 193.417V197.583C163.22 197.583 166.596 194.713 171.976 190.326L169.343 187.097Z" fill="#1C274C"/>
<rect width="56" height="56" transform="translate(0 130)" fill="white"/>
<path d="M35.9637 162.561L28.8331 156.081C24.8988 152.167 30.6768 144.707 35.9637 150.822C41.374 144.831 47.0285 152.288 43.0943 156.081L35.9637 162.561Z" stroke="#393939" stroke-width="1.5" stroke-linecap="round" stroke-linejoin="round"/>
<path d="M11.5967 146.155H15.1118L19.7995 154.358L30.345 134.437L35.0327 143.812" stroke="#393939" stroke-width="1.5" stroke-linecap="round" stroke-linejoin="round"/>
<path d="M12.8647 176.5H11.8079C11.7454 176.196 11.636 175.929 11.4798 175.699C11.3263 175.469 11.1388 175.276 10.9173 175.119C10.6985 174.96 10.4556 174.841 10.1886 174.761C9.92152 174.682 9.64311 174.642 9.35334 174.642C8.82493 174.642 8.34624 174.776 7.91726 175.043C7.49112 175.31 7.15163 175.703 6.89879 176.223C6.64879 176.743 6.52379 177.381 6.52379 178.136C6.52379 178.892 6.64879 179.53 6.89879 180.05C7.15163 180.57 7.49112 180.963 7.91726 181.23C8.34624 181.497 8.82493 181.631 9.35334 181.631C9.64311 181.631 9.92152 181.591 10.1886 181.511C10.4556 181.432 10.6985 181.314 10.9173 181.158C11.1388 180.999 11.3263 180.804 11.4798 180.574C11.636 180.341 11.7454 180.074 11.8079 179.773H12.8647C12.7852 180.219 12.6403 180.618 12.43 180.97C12.2198 181.322 11.9585 181.622 11.646 181.869C11.3335 182.114 10.9826 182.3 10.5934 182.428C10.207 182.555 9.79368 182.619 9.35334 182.619C8.60902 182.619 7.94709 182.438 7.36754 182.074C6.788 181.71 6.33203 181.193 5.99964 180.523C5.66726 179.852 5.50107 179.057 5.50107 178.136C5.50107 177.216 5.66726 176.42 5.99964 175.75C6.33203 175.08 6.788 174.562 7.36754 174.199C7.94709 173.835 8.60902 173.653 9.35334 173.653C9.79368 173.653 10.207 173.717 10.5934 173.845C10.9826 173.973 11.3335 174.161 11.646 174.408C11.9585 174.652 12.2198 174.95 12.43 175.303C12.6403 175.652 12.7852 176.051 12.8647 176.5ZM13.8565 182.5V181.562H14.0952C14.2912 181.562 14.4545 181.524 14.5852 181.447C14.7159 181.368 14.821 181.23 14.9006 181.034C14.983 180.835 15.0455 180.56 15.0881 180.207C15.1335 179.852 15.1662 179.401 15.1861 178.852L15.3054 175.955H19.669V182.5H18.6634V176.892H16.2599L16.1577 179.227C16.1349 179.764 16.0866 180.237 16.0128 180.646C15.9418 181.053 15.8324 181.393 15.6847 181.669C15.5398 181.945 15.3466 182.152 15.1051 182.291C14.8636 182.43 14.5611 182.5 14.1974 182.5H13.8565ZM21.5142 182.5V175.955H22.5199V182.5H21.5142ZM22.0256 174.864C21.8295 174.864 21.6605 174.797 21.5185 174.663C21.3793 174.53 21.3097 174.369 21.3097 174.182C21.3097 173.994 21.3793 173.834 21.5185 173.7C21.6605 173.567 21.8295 173.5 22.0256 173.5C22.2216 173.5 22.3892 173.567 22.5284 173.7C22.6705 173.834 22.7415 173.994 22.7415 174.182C22.7415 174.369 22.6705 174.53 22.5284 174.663C22.3892 174.797 22.2216 174.864 22.0256 174.864ZM23.663 184.375V181.562H24.2085C24.342 181.423 24.457 181.273 24.5536 181.111C24.6502 180.949 24.734 180.757 24.805 180.536C24.8789 180.311 24.9414 180.038 24.9925 179.717C25.0437 179.393 25.0891 179.003 25.1289 178.545L25.3505 175.955H29.5096V181.562H30.5153V184.375H29.5096V182.5H24.6687V184.375H23.663ZM25.3505 181.562H28.5039V176.892H26.288L26.1175 178.545C26.0465 179.23 25.9585 179.828 25.8533 180.339C25.7482 180.851 25.5806 181.259 25.3505 181.562ZM31.8501 182.5V175.955H32.8558V178.801H33.5206L35.8729 175.955H37.1683L34.5263 179.108L37.2024 182.5H35.907L33.7592 179.739H32.8558V182.5H31.8501ZM38.9432 184.955C38.7727 184.955 38.6207 184.94 38.4872 184.912C38.3537 184.886 38.2614 184.861 38.2102 184.835L38.4659 183.949C38.7102 184.011 38.9261 184.034 39.1136 184.017C39.3011 184 39.4673 183.916 39.6122 183.766C39.7599 183.618 39.8949 183.378 40.017 183.045L40.2045 182.534L37.7841 175.955H38.875L40.6818 181.17H40.75L42.5568 175.955H43.6477L40.8693 183.455C40.7443 183.793 40.5895 184.072 40.4048 184.294C40.2202 184.518 40.0057 184.685 39.7614 184.793C39.5199 184.901 39.2472 184.955 38.9432 184.955ZM45.9808 181.017L49.1342 175.955H50.2933V182.5H49.2876V177.438L46.1513 182.5H44.9751V175.955H45.9808V181.017ZM48.4695 173.773H49.407C49.407 174.233 49.2479 174.609 48.9297 174.902C48.6115 175.195 48.1797 175.341 47.6342 175.341C47.0973 175.341 46.6697 175.195 46.3516 174.902C46.0362 174.609 45.8786 174.233 45.8786 173.773H46.8161C46.8161 173.994 46.8771 174.189 46.9993 174.357C47.1243 174.524 47.3359 174.608 47.6342 174.608C47.9325 174.608 48.1456 174.524 48.2734 174.357C48.4041 174.189 48.4695 173.994 48.4695 173.773Z" fill="#393939"/>
<rect width="56" height="56" transform="translate(260 130)" fill="white"/>
<path fill-rule="evenodd" clip-rule="evenodd" d="M288.165 135.491C287.607 134.957 286.863 134.663 286.091 134.672C285.32 134.68 284.582 134.991 284.037 135.537C283.491 136.082 283.181 136.82 283.172 137.592C283.164 138.363 283.458 139.108 283.992 139.665L285.474 141.147C285.525 141.125 285.579 141.101 285.633 141.074C286.212 140.795 287.032 140.292 287.913 139.412C288.793 138.531 289.296 137.711 289.575 137.132L289.65 136.973L288.165 135.491ZM291.319 138.644C290.823 139.508 290.212 140.302 289.503 141.003C288.802 141.712 288.008 142.323 287.143 142.82L287.833 143.51C288.391 144.045 289.136 144.34 289.909 144.333C290.681 144.325 291.42 144.015 291.967 143.469C292.514 142.922 292.824 142.184 292.833 141.411C292.841 140.638 292.546 139.893 292.011 139.335L291.319 138.644ZM282.399 133.899C282.882 133.416 283.455 133.033 284.087 132.771C284.718 132.51 285.394 132.375 286.078 132.375C286.761 132.375 287.437 132.51 288.069 132.771C288.7 133.033 289.273 133.416 289.756 133.899L293.601 137.744C294.546 138.725 295.068 140.039 295.055 141.402C295.042 142.764 294.494 144.067 293.531 145.031C292.567 145.995 291.264 146.542 289.901 146.555C288.539 146.568 287.225 146.046 286.243 145.101L282.399 141.257C281.916 140.773 281.532 140.2 281.271 139.569C281.009 138.938 280.875 138.261 280.875 137.578C280.875 136.895 281.009 136.218 281.271 135.587C281.532 134.956 281.916 134.382 282.399 133.899ZM283.026 152.172C285.825 151.631 288.82 151.752 291.246 153.198C291.585 153.401 291.906 153.654 292.183 153.966C292.747 154.601 293.038 155.387 293.052 156.176C293.338 155.991 293.626 155.786 293.917 155.565L296.629 153.518C297.309 153.018 298.129 152.749 298.972 152.749C299.815 152.749 300.636 153.018 301.315 153.518C302.568 154.463 303.069 156.162 302.17 157.602C301.533 158.624 300.573 160.038 299.595 160.944C298.605 161.859 297.199 162.63 296.136 163.143C294.843 163.767 293.448 164.112 292.09 164.331C289.315 164.781 286.429 164.712 283.687 164.147C282.273 163.856 280.834 163.708 279.39 163.707H276C275.702 163.707 275.415 163.588 275.204 163.378C274.993 163.167 274.875 162.88 274.875 162.582C274.875 162.284 274.993 161.997 275.204 161.787C275.415 161.576 275.702 161.457 276 161.457H279.39C280.983 161.457 282.592 161.624 284.142 161.943C286.641 162.456 289.213 162.512 291.732 162.11C292.974 161.909 294.135 161.61 295.158 161.117C296.182 160.622 297.334 159.971 298.065 159.294C298.804 158.609 299.631 157.422 300.262 156.411C300.453 156.105 300.426 155.666 299.959 155.313C299.404 154.893 298.539 154.893 297.985 155.313L295.275 157.361C294.192 158.178 292.86 159.053 291.208 159.317C291.035 159.344 290.862 159.368 290.688 159.389C289.637 159.51 288.576 159.52 287.523 159.419C287.373 159.408 287.227 159.368 287.093 159.3C286.959 159.233 286.84 159.139 286.743 159.025C286.646 158.91 286.573 158.777 286.527 158.634C286.482 158.491 286.466 158.341 286.48 158.191C286.494 158.042 286.538 157.897 286.609 157.764C286.68 157.632 286.777 157.515 286.893 157.421C287.01 157.327 287.144 157.257 287.289 157.215C287.433 157.174 287.584 157.161 287.733 157.179C288.565 157.26 289.403 157.258 290.235 157.175L290.28 157.17C290.42 157.083 290.539 156.966 290.628 156.828C290.717 156.69 290.775 156.533 290.796 156.37C290.818 156.206 290.803 156.04 290.753 155.884C290.702 155.727 290.618 155.583 290.505 155.463C290.385 155.331 290.246 155.219 290.092 155.13C288.321 154.073 285.954 153.897 283.453 154.38C281.011 154.871 278.696 155.859 276.651 157.283C276.53 157.368 276.394 157.429 276.25 157.462C276.106 157.495 275.957 157.499 275.811 157.474C275.665 157.449 275.526 157.396 275.401 157.317C275.276 157.239 275.167 157.136 275.082 157.016C274.996 156.895 274.936 156.759 274.903 156.615C274.87 156.471 274.866 156.321 274.89 156.176C274.915 156.03 274.969 155.891 275.047 155.766C275.126 155.64 275.228 155.532 275.349 155.447C277.655 153.838 280.269 152.724 283.026 152.172Z" fill="#393939"/>
<path d="M268.978 173.773V182.5H267.921V174.71H263.523V182.5H262.466V173.773H268.978ZM270.973 184.955V175.955H271.945V176.994H272.064C272.138 176.881 272.24 176.736 272.371 176.56C272.504 176.381 272.695 176.222 272.942 176.082C273.192 175.94 273.53 175.869 273.956 175.869C274.507 175.869 274.993 176.007 275.414 176.283C275.834 176.558 276.162 176.949 276.398 177.455C276.634 177.96 276.752 178.557 276.752 179.244C276.752 179.938 276.634 180.538 276.398 181.047C276.162 181.553 275.835 181.945 275.418 182.223C275 182.499 274.519 182.636 273.973 182.636C273.553 182.636 273.216 182.567 272.963 182.428C272.71 182.286 272.516 182.125 272.379 181.946C272.243 181.764 272.138 181.614 272.064 181.494H271.979V184.955H270.973ZM271.962 179.227C271.962 179.722 272.034 180.158 272.179 180.536C272.324 180.911 272.536 181.205 272.814 181.418C273.093 181.628 273.433 181.733 273.837 181.733C274.257 181.733 274.608 181.622 274.889 181.401C275.173 181.176 275.387 180.875 275.529 180.497C275.673 180.116 275.746 179.693 275.746 179.227C275.746 178.767 275.675 178.352 275.533 177.983C275.394 177.611 275.182 177.317 274.898 177.101C274.617 176.882 274.263 176.773 273.837 176.773C273.428 176.773 273.084 176.876 272.806 177.084C272.527 177.288 272.317 177.575 272.175 177.945C272.033 178.311 271.962 178.739 271.962 179.227ZM279.291 181.017L282.445 175.955H283.604V182.5H282.598V177.438L279.462 182.5H278.286V175.955H279.291V181.017ZM286.452 181.017L289.605 175.955H290.764V182.5H289.758V177.438L286.622 182.5H285.446V175.955H286.452V181.017ZM288.94 173.773H289.878C289.878 174.233 289.719 174.609 289.4 174.902C289.082 175.195 288.65 175.341 288.105 175.341C287.568 175.341 287.14 175.195 286.822 174.902C286.507 174.609 286.349 174.233 286.349 173.773H287.287C287.287 173.994 287.348 174.189 287.47 174.357C287.595 174.524 287.807 174.608 288.105 174.608C288.403 174.608 288.616 174.524 288.744 174.357C288.875 174.189 288.94 173.994 288.94 173.773ZM296.186 181.136L298.47 175.955H299.424L296.595 182.5H295.776L292.998 175.955H293.936L296.186 181.136ZM293.612 175.955V182.5H292.606V175.955H293.612ZM298.759 182.5V175.955H299.765V182.5H298.759ZM303.532 182.653C303.117 182.653 302.741 182.575 302.403 182.419C302.065 182.26 301.796 182.031 301.597 181.733C301.399 181.432 301.299 181.068 301.299 180.642C301.299 180.267 301.373 179.963 301.521 179.73C301.669 179.494 301.866 179.31 302.113 179.176C302.36 179.043 302.633 178.943 302.931 178.878C303.232 178.81 303.535 178.756 303.839 178.716C304.237 178.665 304.559 178.626 304.806 178.601C305.056 178.572 305.238 178.526 305.352 178.46C305.468 178.395 305.526 178.281 305.526 178.119V178.085C305.526 177.665 305.411 177.338 305.181 177.105C304.954 176.872 304.609 176.756 304.146 176.756C303.666 176.756 303.289 176.861 303.017 177.071C302.744 177.281 302.552 177.506 302.441 177.744L301.487 177.403C301.657 177.006 301.884 176.696 302.169 176.474C302.455 176.25 302.768 176.094 303.106 176.006C303.447 175.915 303.782 175.869 304.112 175.869C304.322 175.869 304.563 175.895 304.836 175.946C305.112 175.994 305.377 176.095 305.633 176.249C305.892 176.402 306.106 176.634 306.276 176.943C306.447 177.253 306.532 177.668 306.532 178.188V182.5H305.526V181.614H305.475C305.407 181.756 305.294 181.908 305.134 182.07C304.975 182.232 304.764 182.369 304.499 182.483C304.235 182.597 303.913 182.653 303.532 182.653ZM303.686 181.75C304.083 181.75 304.419 181.672 304.691 181.516C304.967 181.359 305.174 181.158 305.313 180.911C305.455 180.663 305.526 180.403 305.526 180.131V179.21C305.484 179.261 305.39 179.308 305.245 179.351C305.103 179.391 304.938 179.426 304.751 179.457C304.566 179.486 304.386 179.511 304.21 179.534C304.036 179.554 303.896 179.571 303.788 179.585C303.526 179.619 303.282 179.675 303.055 179.751C302.83 179.825 302.649 179.937 302.509 180.088C302.373 180.236 302.305 180.437 302.305 180.693C302.305 181.043 302.434 181.307 302.693 181.486C302.954 181.662 303.285 181.75 303.686 181.75ZM309.373 181.017L312.527 175.955H313.686V182.5H312.68V177.438L309.544 182.5H308.368V175.955H309.373V181.017ZM311.862 173.773H312.8C312.8 174.233 312.64 174.609 312.322 174.902C312.004 175.195 311.572 175.341 311.027 175.341C310.49 175.341 310.062 175.195 309.744 174.902C309.429 174.609 309.271 174.233 309.271 173.773H310.209C310.209 173.994 310.27 174.189 310.392 174.357C310.517 174.524 310.729 174.608 311.027 174.608C311.325 174.608 311.538 174.524 311.666 174.357C311.797 174.189 311.862 173.994 311.862 173.773Z" fill="#393939"/>
<rect width="56" height="56" transform="translate(130)" fill="white"/>
<path d="M158.007 6.08754C161.031 1.82904 170.064 3.49629 170.064 13.025C170.064 23.3285 165.195 33.125 162.145 33.125C160.062 33.125 159.916 31.7555 159.916 30.626C159.916 29.7328 160.425 26.1868 158 26.1868C155.575 26.1868 156.084 29.7328 156.084 30.626C156.084 31.7555 155.937 33.125 153.855 33.125C150.804 33.125 145.935 23.3285 145.935 13.025C145.935 3.49704 154.969 1.82904 157.993 6.08754" stroke="#393939" stroke-width="2" stroke-linecap="round" stroke-linejoin="round"/>
<path d="M158 9.19171C162.122 4.30021 166.551 7.00246 167.33 10.5762C168.877 17.6735 160.061 23.6862 158 23.6862C155.939 23.6862 147.123 17.6735 148.67 10.5762C149.448 7.00246 153.878 4.30021 158 9.19171Z" stroke="#393939" stroke-width="2" stroke-linecap="round" stroke-linejoin="round"/>
<path d="M142.463 52.5V51.5284H142.719C143.082 51.5284 143.365 51.4119 143.567 51.179C143.768 50.946 143.913 50.5696 144.001 50.0497C144.092 49.5298 144.153 48.8409 144.185 47.983L144.338 43.7727H149.656V52.5H148.599V44.7102H145.344L145.207 48.1875C145.173 49.1023 145.089 49.8807 144.956 50.5227C144.822 51.1648 144.588 51.6548 144.253 51.9929C143.918 52.331 143.429 52.5 142.787 52.5H142.463ZM151.631 52.5V45.9545H152.637V52.5H151.631ZM152.143 44.8636C151.947 44.8636 151.778 44.7969 151.636 44.6634C151.496 44.5298 151.427 44.3693 151.427 44.1818C151.427 43.9943 151.496 43.8338 151.636 43.7003C151.778 43.5668 151.947 43.5 152.143 43.5C152.339 43.5 152.506 43.5668 152.646 43.7003C152.788 43.8338 152.859 43.9943 152.859 44.1818C152.859 44.3693 152.788 44.5298 152.646 44.6634C152.506 44.7969 152.339 44.8636 152.143 44.8636ZM154.479 52.5V45.9545H155.485V48.8011H156.15L158.502 45.9545H159.797L157.155 49.108L159.831 52.5H158.536L156.388 49.7386H155.485V52.5H154.479ZM161.572 54.9545C161.402 54.9545 161.25 54.9403 161.116 54.9119C160.983 54.8864 160.89 54.8608 160.839 54.8352L161.095 53.9489C161.339 54.0114 161.555 54.0341 161.743 54.017C161.93 54 162.096 53.9162 162.241 53.7656C162.389 53.6179 162.524 53.3778 162.646 53.0455L162.833 52.5341L160.413 45.9545H161.504L163.311 51.1705H163.379L165.186 45.9545H166.277L163.498 53.4545C163.373 53.7926 163.218 54.0724 163.034 54.294C162.849 54.5185 162.635 54.6847 162.39 54.7926C162.149 54.9006 161.876 54.9545 161.572 54.9545ZM168.61 51.017L171.763 45.9545H172.922V52.5H171.917V47.4375L168.78 52.5H167.604V45.9545H168.61V51.017ZM171.098 43.7727H172.036C172.036 44.233 171.877 44.6094 171.559 44.902C171.24 45.1946 170.809 45.3409 170.263 45.3409C169.726 45.3409 169.299 45.1946 168.98 44.902C168.665 44.6094 168.507 44.233 168.507 43.7727H169.445C169.445 43.9943 169.506 44.1889 169.628 44.3565C169.753 44.5241 169.965 44.608 170.263 44.608C170.561 44.608 170.775 44.5241 170.902 44.3565C171.033 44.1889 171.098 43.9943 171.098 43.7727Z" fill="#393939"/>
</svg>
