<svg width="316" height="288" viewBox="0 0 316 288" fill="none" xmlns="http://www.w3.org/2000/svg">
<rect x="29" y="29" width="258" height="258" rx="129" stroke="#FEF978" stroke-width="2"/>
<rect width="100" height="100" transform="translate(108 108)" fill="white"/>
<path d="M179.406 114.055C178.117 114.055 176.828 114.172 175.559 114.365C168.82 115.428 162.57 118.885 158.312 123.147C152.687 128.781 148.625 136.984 146.906 144.953C146.594 146.262 146.398 147.609 146.223 148.938L139.68 173.234L142.766 176.32L167.043 169.777C168.371 169.602 169.719 169.387 171.047 169.094C179.016 167.375 187.219 163.313 192.844 157.688C197.121 153.41 200.578 147.16 201.633 140.422C202.648 133.684 201.164 126.301 195.402 120.557C190.754 115.883 185.031 114.025 179.406 114.055ZM179.426 117.822C184.172 117.768 188.781 119.285 192.746 123.234C197.629 128.098 198.801 134.016 197.883 139.836C196.984 145.676 193.84 151.32 190.168 154.992C185.207 159.953 177.531 163.82 170.246 165.383C162.98 166.984 156.34 166.125 153.098 162.863C149.875 159.641 149.016 153.02 150.598 145.734C152.18 138.469 156.027 130.774 161.008 125.824C164.66 122.156 170.324 119.02 176.164 118.1C177.238 117.928 178.352 117.834 179.426 117.822ZM147.004 159.777C147.727 161.984 148.82 163.977 150.422 165.539C152.004 167.141 153.977 168.274 156.184 168.977L143.879 172.102L147.004 159.777ZM137.18 176.106L117.766 195.539L116.74 194.543L114.062 197.219L118.822 201.945L121.498 199.289L120.441 198.234L139.875 178.781L137.18 176.106ZM178.391 184.914C174.582 184.914 171.437 188.039 171.437 191.848C171.437 195.656 174.582 198.781 178.391 198.781C182.18 198.781 185.324 195.656 185.324 191.848C185.324 188.039 182.18 184.914 178.391 184.914Z" fill="#393939"/>
<rect width="56" height="56" transform="translate(0 130)" fill="white"/>
<path d="M22.1515 152.748C21.4937 153.123 18.8965 155.158 18.8965 155.158C18.8965 155.158 22.9022 158.663 23.3095 159.227C23.3095 159.227 22.1515 153.593 22.1515 152.748Z" stroke="#393939" stroke-width="2" stroke-linecap="round" stroke-linejoin="round"/>
<path d="M25.2814 145.487C23.9666 145.487 22.1516 146.947 20.4926 148.595C18.8336 150.244 14.6396 153.874 14.6396 155.47C14.6396 157.066 22.9339 163.108 25.8131 163.108C28.6924 163.108 32.5736 163.389 34.8274 161.699C37.0811 160.009 40.9924 156.097 41.1499 155.408C41.358 154.389 41.4003 153.342 41.2751 152.309C41.1768 152.068 41.0137 151.858 40.8038 151.704C40.5939 151.549 40.3454 151.456 40.0856 151.433C39.4751 151.433 37.8791 152.09 37.8791 153.202C37.9402 153.918 38.0765 154.626 38.2856 155.314C36.9533 156.356 35.5636 157.323 34.1231 158.209C34.1231 158.209 34.2169 152.528 33.9206 151.12C33.6244 149.713 31.0256 147.458 31.0256 147.02C31.0256 146.582 31.9166 143.672 31.9166 143.672C31.9166 143.672 33.7481 144.078 33.9514 142.966C34.1546 141.855 34.0136 141.809 34.0136 141.809C34.1683 141.655 34.2866 141.468 34.3598 141.262C34.433 141.057 34.4592 140.837 34.4366 140.62C34.3114 139.963 33.9356 140.103 33.9514 139.727C33.9671 139.352 34.6549 133.875 29.5219 133.875C24.3889 133.875 24.3581 138.1 24.3581 138.898C24.3581 139.696 26.7206 142.951 26.4859 144.25C26.2511 145.549 26.2826 145.44 26.2826 145.44C26.2826 145.44 25.7636 145.487 25.2814 145.487Z" stroke="#393939" stroke-width="2" stroke-linecap="round" stroke-linejoin="round"/>
<path d="M24.9836 140.823C24.4046 140.995 21.1188 145.768 19.0211 145.768C17.9505 145.654 16.9646 145.134 16.2671 144.313C18.1136 144.423 20.4611 140.839 22.2611 140.573C23.1759 140.522 24.0932 140.607 24.9836 140.823Z" stroke="#393939" stroke-width="2" stroke-linecap="round" stroke-linejoin="round"/>
<path d="M16.9338 182.5V173.773H19.8826C20.5673 173.773 21.127 173.896 21.5616 174.143C21.9991 174.388 22.323 174.719 22.5332 175.136C22.7434 175.554 22.8485 176.02 22.8485 176.534C22.8485 177.048 22.7434 177.516 22.5332 177.936C22.3258 178.357 22.0048 178.692 21.5701 178.942C21.1355 179.189 20.5787 179.312 19.8997 179.312H17.786V178.375H19.8656C20.3343 178.375 20.7108 178.294 20.9949 178.132C21.2789 177.97 21.4849 177.751 21.6127 177.476C21.7434 177.197 21.8088 176.884 21.8088 176.534C21.8088 176.185 21.7434 175.872 21.6127 175.597C21.4849 175.321 21.2775 175.105 20.9906 174.949C20.7037 174.79 20.323 174.71 19.8485 174.71H17.9906V182.5H16.9338ZM25.4203 173.773V182.5H24.4146V173.773H25.4203ZM29.1884 182.653C28.7736 182.653 28.3972 182.575 28.0591 182.419C27.7211 182.26 27.4526 182.031 27.2537 181.733C27.0549 181.432 26.9554 181.068 26.9554 180.642C26.9554 180.267 27.0293 179.963 27.177 179.73C27.3248 179.494 27.5222 179.31 27.7694 179.176C28.0165 179.043 28.2892 178.943 28.5875 178.878C28.8887 178.81 29.1912 178.756 29.4952 178.716C29.8929 178.665 30.2154 178.626 30.4625 178.601C30.7125 178.572 30.8944 178.526 31.008 178.46C31.1245 178.395 31.1827 178.281 31.1827 178.119V178.085C31.1827 177.665 31.0676 177.338 30.8375 177.105C30.6103 176.872 30.2651 176.756 29.802 176.756C29.3219 176.756 28.9455 176.861 28.6728 177.071C28.4 177.281 28.2083 177.506 28.0975 177.744L27.1429 177.403C27.3134 177.006 27.5407 176.696 27.8248 176.474C28.1117 176.25 28.4242 176.094 28.7623 176.006C29.1032 175.915 29.4384 175.869 29.7679 175.869C29.9782 175.869 30.2196 175.895 30.4924 175.946C30.7679 175.994 31.0336 176.095 31.2892 176.249C31.5478 176.402 31.7623 176.634 31.9327 176.943C32.1032 177.253 32.1884 177.668 32.1884 178.188V182.5H31.1827V181.614H31.1316C31.0634 181.756 30.9498 181.908 30.7907 182.07C30.6316 182.232 30.4199 182.369 30.1557 182.483C29.8915 182.597 29.5691 182.653 29.1884 182.653ZM29.3418 181.75C29.7395 181.75 30.0748 181.672 30.3475 181.516C30.623 181.359 30.8304 181.158 30.9696 180.911C31.1117 180.663 31.1827 180.403 31.1827 180.131V179.21C31.1401 179.261 31.0463 179.308 30.9015 179.351C30.7594 179.391 30.5946 179.426 30.4071 179.457C30.2225 179.486 30.0421 179.511 29.8659 179.534C29.6926 179.554 29.552 179.571 29.4441 179.585C29.1827 179.619 28.9384 179.675 28.7111 179.751C28.4867 179.825 28.3049 179.937 28.1657 180.088C28.0293 180.236 27.9611 180.437 27.9611 180.693C27.9611 181.043 28.0904 181.307 28.3489 181.486C28.6103 181.662 28.9412 181.75 29.3418 181.75ZM35.0297 178.562V182.5H34.024V175.955H34.9956V176.977H35.0808C35.2342 176.645 35.4672 176.378 35.7797 176.176C36.0922 175.972 36.4956 175.869 36.9899 175.869C37.4331 175.869 37.8208 175.96 38.1532 176.142C38.4856 176.321 38.7441 176.594 38.9288 176.96C39.1135 177.324 39.2058 177.784 39.2058 178.341V182.5H38.2001V178.409C38.2001 177.895 38.0666 177.494 37.7995 177.207C37.5325 176.918 37.166 176.773 36.7001 176.773C36.3791 176.773 36.0922 176.842 35.8393 176.982C35.5893 177.121 35.3919 177.324 35.247 177.591C35.1021 177.858 35.0297 178.182 35.0297 178.562Z" fill="#393939"/>
<rect width="56" height="56" transform="translate(260 130)" fill="white"/>
<path fill-rule="evenodd" clip-rule="evenodd" d="M296.888 142.687C297.445 143.302 297.274 144.244 296.596 144.72L292.942 147.283C292.264 147.759 291.337 147.567 290.667 147.081C289.913 146.532 289.008 146.229 288.076 146.214C287.143 146.199 286.229 146.471 285.457 146.994C284.77 147.458 283.838 147.619 283.177 147.121L279.609 144.438C278.947 143.94 278.808 142.991 279.385 142.396C280.527 141.219 281.898 140.287 283.414 139.661C284.931 139.034 286.559 138.724 288.2 138.752C289.84 138.779 291.457 139.142 292.952 139.82C294.446 140.497 295.786 141.472 296.888 142.687ZM295.647 143.555C294.685 142.533 293.529 141.714 292.245 141.147C290.962 140.58 289.578 140.275 288.175 140.252C286.772 140.229 285.378 140.487 284.077 141.011C282.775 141.535 281.592 142.315 280.597 143.305L284.075 145.921C284.107 145.928 284.14 145.93 284.173 145.925C284.29 145.915 284.455 145.861 284.615 145.753C285.675 145.035 286.936 144.672 288.215 144.718C288.244 144.656 288.282 144.599 288.327 144.548L290.386 142.18C290.517 142.029 290.702 141.937 290.9 141.923C291.099 141.909 291.294 141.975 291.445 142.105C291.595 142.236 291.687 142.421 291.701 142.619C291.715 142.818 291.649 143.013 291.519 143.164L289.903 145.022C290.492 145.218 291.047 145.503 291.549 145.867C291.705 145.981 291.868 146.04 291.985 146.055C292.042 146.062 292.072 146.057 292.083 146.054L295.647 143.555ZM292.09 146.052L292.083 146.054C292.086 146.052 292.089 146.051 292.09 146.052ZM284.069 145.918C284.069 145.918 284.071 145.918 284.075 145.921L284.069 145.918Z" fill="#393939"/>
<path fill-rule="evenodd" clip-rule="evenodd" d="M297.162 162C297.929 162 298.666 161.706 299.223 161.179C299.781 160.652 300.115 159.932 300.157 159.167L301.324 138.167C301.347 137.759 301.286 137.351 301.146 136.968C301.006 136.585 300.789 136.235 300.508 135.938C300.228 135.642 299.89 135.406 299.515 135.245C299.14 135.083 298.737 135 298.329 135H277.671C277.263 135 276.859 135.083 276.485 135.245C276.11 135.406 275.772 135.642 275.492 135.939C275.211 136.235 274.995 136.585 274.854 136.968C274.714 137.352 274.653 137.759 274.676 138.167L275.842 159.167C275.885 159.932 276.219 160.652 276.776 161.179C277.333 161.706 278.071 162 278.838 162H297.162ZM278.838 160.5H297.162C297.545 160.5 297.914 160.353 298.193 160.089C298.471 159.826 298.638 159.465 298.66 159.083L299.827 138.082C299.838 137.879 299.807 137.675 299.737 137.484C299.667 137.292 299.558 137.117 299.418 136.969C299.278 136.821 299.109 136.703 298.922 136.622C298.734 136.542 298.533 136.5 298.329 136.5H277.671C277.467 136.5 277.265 136.542 277.078 136.622C276.89 136.703 276.721 136.821 276.581 136.969C276.441 137.117 276.333 137.292 276.262 137.484C276.192 137.675 276.162 137.879 276.173 138.082L277.34 159.083C277.361 159.465 277.528 159.826 277.807 160.089C278.085 160.353 278.454 160.5 278.838 160.5Z" fill="#393939"/>
<path d="M275.308 176.5H274.251C274.189 176.196 274.079 175.929 273.923 175.699C273.77 175.469 273.582 175.276 273.361 175.119C273.142 174.96 272.899 174.841 272.632 174.761C272.365 174.682 272.086 174.642 271.797 174.642C271.268 174.642 270.79 174.776 270.361 175.043C269.934 175.31 269.595 175.703 269.342 176.223C269.092 176.743 268.967 177.381 268.967 178.136C268.967 178.892 269.092 179.53 269.342 180.05C269.595 180.57 269.934 180.963 270.361 181.23C270.79 181.497 271.268 181.631 271.797 181.631C272.086 181.631 272.365 181.591 272.632 181.511C272.899 181.432 273.142 181.314 273.361 181.158C273.582 180.999 273.77 180.804 273.923 180.574C274.079 180.341 274.189 180.074 274.251 179.773H275.308C275.229 180.219 275.084 180.618 274.873 180.97C274.663 181.322 274.402 181.622 274.089 181.869C273.777 182.114 273.426 182.3 273.037 182.428C272.65 182.555 272.237 182.619 271.797 182.619C271.052 182.619 270.39 182.438 269.811 182.074C269.231 181.71 268.775 181.193 268.443 180.523C268.111 179.852 267.944 179.057 267.944 178.136C267.944 177.216 268.111 176.42 268.443 175.75C268.775 175.08 269.231 174.562 269.811 174.199C270.39 173.835 271.052 173.653 271.797 173.653C272.237 173.653 272.65 173.717 273.037 173.845C273.426 173.973 273.777 174.161 274.089 174.408C274.402 174.652 274.663 174.95 274.873 175.303C275.084 175.652 275.229 176.051 275.308 176.5ZM279.539 182.636C278.948 182.636 278.429 182.496 277.983 182.214C277.54 181.933 277.193 181.54 276.943 181.034C276.696 180.528 276.573 179.937 276.573 179.261C276.573 178.58 276.696 177.984 276.943 177.476C277.193 176.967 277.54 176.572 277.983 176.291C278.429 176.01 278.948 175.869 279.539 175.869C280.129 175.869 280.646 176.01 281.09 176.291C281.536 176.572 281.882 176.967 282.129 177.476C282.379 177.984 282.504 178.58 282.504 179.261C282.504 179.937 282.379 180.528 282.129 181.034C281.882 181.54 281.536 181.933 281.09 182.214C280.646 182.496 280.129 182.636 279.539 182.636ZM279.539 181.733C279.987 181.733 280.357 181.618 280.646 181.388C280.936 181.158 281.151 180.855 281.29 180.48C281.429 180.105 281.499 179.699 281.499 179.261C281.499 178.824 281.429 178.416 281.29 178.038C281.151 177.661 280.936 177.355 280.646 177.122C280.357 176.889 279.987 176.773 279.539 176.773C279.09 176.773 278.72 176.889 278.431 177.122C278.141 177.355 277.926 177.661 277.787 178.038C277.648 178.416 277.578 178.824 277.578 179.261C277.578 179.699 277.648 180.105 277.787 180.48C277.926 180.855 278.141 181.158 278.431 181.388C278.72 181.618 279.09 181.733 279.539 181.733ZM285.045 178.562V182.5H284.04V175.955H285.011V176.977H285.096C285.25 176.645 285.483 176.378 285.795 176.176C286.108 175.972 286.511 175.869 287.006 175.869C287.449 175.869 287.836 175.96 288.169 176.142C288.501 176.321 288.76 176.594 288.944 176.96C289.129 177.324 289.221 177.784 289.221 178.341V182.5H288.216V178.409C288.216 177.895 288.082 177.494 287.815 177.207C287.548 176.918 287.182 176.773 286.716 176.773C286.395 176.773 286.108 176.842 285.855 176.982C285.605 177.121 285.407 177.324 285.263 177.591C285.118 177.858 285.045 178.182 285.045 178.562ZM293.906 175.955V176.807H290.514V175.955H293.906ZM291.502 174.386H292.508V180.625C292.508 180.909 292.549 181.122 292.632 181.264C292.717 181.403 292.825 181.497 292.955 181.545C293.089 181.591 293.23 181.614 293.377 181.614C293.488 181.614 293.579 181.608 293.65 181.597C293.721 181.582 293.778 181.571 293.82 181.562L294.025 182.466C293.957 182.491 293.862 182.517 293.74 182.543C293.617 182.571 293.463 182.585 293.275 182.585C292.991 182.585 292.713 182.524 292.44 182.402C292.17 182.28 291.945 182.094 291.767 181.844C291.59 181.594 291.502 181.278 291.502 180.898V174.386ZM295.419 182.5V175.955H296.39V176.943H296.458C296.578 176.619 296.794 176.357 297.106 176.155C297.419 175.953 297.771 175.852 298.163 175.852C298.237 175.852 298.329 175.854 298.44 175.857C298.551 175.859 298.634 175.864 298.691 175.869V176.892C298.657 176.884 298.579 176.871 298.457 176.854C298.338 176.834 298.211 176.824 298.078 176.824C297.759 176.824 297.475 176.891 297.225 177.024C296.978 177.155 296.782 177.337 296.637 177.57C296.495 177.8 296.424 178.062 296.424 178.358V182.5H295.419ZM302.343 182.636C301.752 182.636 301.234 182.496 300.788 182.214C300.345 181.933 299.998 181.54 299.748 181.034C299.501 180.528 299.377 179.937 299.377 179.261C299.377 178.58 299.501 177.984 299.748 177.476C299.998 176.967 300.345 176.572 300.788 176.291C301.234 176.01 301.752 175.869 302.343 175.869C302.934 175.869 303.451 176.01 303.894 176.291C304.34 176.572 304.687 176.967 304.934 177.476C305.184 177.984 305.309 178.58 305.309 179.261C305.309 179.937 305.184 180.528 304.934 181.034C304.687 181.54 304.34 181.933 303.894 182.214C303.451 182.496 302.934 182.636 302.343 182.636ZM302.343 181.733C302.792 181.733 303.161 181.618 303.451 181.388C303.741 181.158 303.955 180.855 304.095 180.48C304.234 180.105 304.303 179.699 304.303 179.261C304.303 178.824 304.234 178.416 304.095 178.038C303.955 177.661 303.741 177.355 303.451 177.122C303.161 176.889 302.792 176.773 302.343 176.773C301.894 176.773 301.525 176.889 301.235 177.122C300.945 177.355 300.731 177.661 300.592 178.038C300.453 178.416 300.383 178.824 300.383 179.261C300.383 179.699 300.453 180.105 300.592 180.48C300.731 180.855 300.945 181.158 301.235 181.388C301.525 181.618 301.894 181.733 302.343 181.733ZM307.85 173.773V182.5H306.844V173.773H307.85Z" fill="#393939"/>
<rect width="56" height="56" transform="translate(130)" fill="white"/>
<path d="M165.964 32.5604L158.833 26.0804C154.899 22.1667 160.677 14.707 165.964 20.8218C171.374 14.8304 177.029 22.2876 173.094 26.0804L165.964 32.5604Z" stroke="#393939" stroke-width="1.5" stroke-linecap="round" stroke-linejoin="round"/>
<path d="M141.597 16.1548H145.112L149.8 24.3576L160.345 4.43677L165.033 13.8122" stroke="#393939" stroke-width="1.5" stroke-linecap="round" stroke-linejoin="round"/>
<path d="M127.317 52.5V43.7727H128.373V48.1023H128.476L132.396 43.7727H133.777L130.112 47.7102L133.777 52.5H132.498L129.464 48.4432L128.373 49.6705V52.5H127.317ZM137.272 52.6364C136.642 52.6364 136.097 52.4972 135.64 52.2188C135.186 51.9375 134.835 51.5455 134.588 51.0426C134.343 50.5369 134.221 49.9489 134.221 49.2784C134.221 48.608 134.343 48.017 134.588 47.5057C134.835 46.9915 135.178 46.5909 135.619 46.304C136.062 46.0142 136.579 45.8693 137.17 45.8693C137.511 45.8693 137.847 45.9261 138.18 46.0398C138.512 46.1534 138.815 46.3381 139.088 46.5938C139.36 46.8466 139.578 47.1818 139.74 47.5994C139.901 48.017 139.982 48.5312 139.982 49.142V49.5682H134.937V48.6989H138.96C138.96 48.3295 138.886 48 138.738 47.7102C138.593 47.4205 138.386 47.1918 138.116 47.0241C137.849 46.8565 137.534 46.7727 137.17 46.7727C136.769 46.7727 136.423 46.8722 136.13 47.071C135.84 47.267 135.617 47.5227 135.461 47.8381C135.305 48.1534 135.227 48.4915 135.227 48.8523V49.4318C135.227 49.9261 135.312 50.3452 135.482 50.6889C135.656 51.0298 135.896 51.2898 136.203 51.4688C136.509 51.6449 136.866 51.733 137.272 51.733C137.536 51.733 137.775 51.696 137.988 51.6222C138.204 51.5455 138.39 51.4318 138.546 51.2812C138.703 51.1278 138.823 50.9375 138.909 50.7102L139.88 50.983C139.778 51.3125 139.606 51.6023 139.365 51.8523C139.123 52.0994 138.825 52.2926 138.47 52.4318C138.115 52.5682 137.715 52.6364 137.272 52.6364ZM144.257 52.6364C143.626 52.6364 143.082 52.4972 142.624 52.2188C142.17 51.9375 141.819 51.5455 141.572 51.0426C141.328 50.5369 141.205 49.9489 141.205 49.2784C141.205 48.608 141.328 48.017 141.572 47.5057C141.819 46.9915 142.163 46.5909 142.603 46.304C143.046 46.0142 143.563 45.8693 144.154 45.8693C144.495 45.8693 144.832 45.9261 145.164 46.0398C145.497 46.1534 145.799 46.3381 146.072 46.5938C146.345 46.8466 146.562 47.1818 146.724 47.5994C146.886 48.017 146.967 48.5312 146.967 49.142V49.5682H141.921V48.6989H145.944C145.944 48.3295 145.87 48 145.722 47.7102C145.578 47.4205 145.37 47.1918 145.1 47.0241C144.833 46.8565 144.518 46.7727 144.154 46.7727C143.754 46.7727 143.407 46.8722 143.115 47.071C142.825 47.267 142.602 47.5227 142.445 47.8381C142.289 48.1534 142.211 48.4915 142.211 48.8523V49.4318C142.211 49.9261 142.296 50.3452 142.467 50.6889C142.64 51.0298 142.88 51.2898 143.187 51.4688C143.494 51.6449 143.85 51.733 144.257 51.733C144.521 51.733 144.759 51.696 144.972 51.6222C145.188 51.5455 145.374 51.4318 145.531 51.2812C145.687 51.1278 145.808 50.9375 145.893 50.7102L146.865 50.983C146.762 51.3125 146.59 51.6023 146.349 51.8523C146.107 52.0994 145.809 52.2926 145.454 52.4318C145.099 52.5682 144.7 52.6364 144.257 52.6364ZM148.497 54.9545V45.9545H149.468V46.9943H149.588C149.661 46.8807 149.764 46.7358 149.894 46.5597C150.028 46.3807 150.218 46.2216 150.465 46.0824C150.715 45.9403 151.053 45.8693 151.48 45.8693C152.031 45.8693 152.517 46.0071 152.937 46.2827C153.357 46.5582 153.686 46.9489 153.921 47.4545C154.157 47.9602 154.275 48.5568 154.275 49.2443C154.275 49.9375 154.157 50.5384 153.921 51.0469C153.686 51.5526 153.359 51.9446 152.941 52.223C152.524 52.4986 152.042 52.6364 151.497 52.6364C151.076 52.6364 150.74 52.5668 150.487 52.4276C150.234 52.2855 150.039 52.125 149.903 51.946C149.767 51.7642 149.661 51.6136 149.588 51.4943H149.502V54.9545H148.497ZM149.485 49.2273C149.485 49.7216 149.558 50.1577 149.703 50.5355C149.847 50.9105 150.059 51.2045 150.338 51.4176C150.616 51.6278 150.957 51.733 151.36 51.733C151.781 51.733 152.132 51.6222 152.413 51.4006C152.697 51.1761 152.91 50.875 153.052 50.4972C153.197 50.1165 153.269 49.6932 153.269 49.2273C153.269 48.767 153.198 48.3523 153.056 47.983C152.917 47.6108 152.705 47.3168 152.421 47.1009C152.14 46.8821 151.786 46.7727 151.36 46.7727C150.951 46.7727 150.607 46.8764 150.329 47.0838C150.051 47.2884 149.84 47.5753 149.698 47.9446C149.556 48.3111 149.485 48.7386 149.485 49.2273ZM158.843 44.7102V43.7727H165.389V44.7102H162.644V52.5H161.588V44.7102H158.843ZM166.204 52.5V45.9545H167.175V46.9432H167.243C167.363 46.6193 167.579 46.3565 167.891 46.1548C168.204 45.9531 168.556 45.8523 168.948 45.8523C169.022 45.8523 169.114 45.8537 169.225 45.8565C169.336 45.8594 169.42 45.8636 169.476 45.8693V46.892C169.442 46.8835 169.364 46.8707 169.242 46.8537C169.123 46.8338 168.996 46.8239 168.863 46.8239C168.545 46.8239 168.26 46.8906 168.01 47.0241C167.763 47.1548 167.567 47.3366 167.422 47.5696C167.28 47.7997 167.209 48.0625 167.209 48.358V52.5H166.204ZM172.595 52.6534C172.18 52.6534 171.803 52.5753 171.465 52.419C171.127 52.2599 170.859 52.0312 170.66 51.733C170.461 51.4318 170.362 51.0682 170.362 50.642C170.362 50.267 170.436 49.9631 170.583 49.7301C170.731 49.4943 170.928 49.3097 171.176 49.1761C171.423 49.0426 171.695 48.9432 171.994 48.8778C172.295 48.8097 172.597 48.7557 172.901 48.7159C173.299 48.6648 173.622 48.6264 173.869 48.6009C174.119 48.5724 174.301 48.5256 174.414 48.4602C174.531 48.3949 174.589 48.2812 174.589 48.1193V48.0852C174.589 47.6648 174.474 47.3381 174.244 47.1051C174.017 46.8722 173.671 46.7557 173.208 46.7557C172.728 46.7557 172.352 46.8608 172.079 47.071C171.806 47.2812 171.615 47.5057 171.504 47.7443L170.549 47.4034C170.72 47.0057 170.947 46.696 171.231 46.4744C171.518 46.25 171.83 46.0937 172.169 46.0057C172.509 45.9148 172.845 45.8693 173.174 45.8693C173.384 45.8693 173.626 45.8949 173.899 45.946C174.174 45.9943 174.44 46.0952 174.695 46.2486C174.954 46.402 175.169 46.6335 175.339 46.9432C175.509 47.2528 175.595 47.6676 175.595 48.1875V52.5H174.589V51.6136H174.538C174.47 51.7557 174.356 51.9077 174.197 52.0696C174.038 52.2315 173.826 52.3693 173.562 52.483C173.298 52.5966 172.975 52.6534 172.595 52.6534ZM172.748 51.75C173.146 51.75 173.481 51.6719 173.754 51.5156C174.029 51.3594 174.237 51.1577 174.376 50.9105C174.518 50.6634 174.589 50.4034 174.589 50.1307V49.2102C174.546 49.2614 174.453 49.3082 174.308 49.3509C174.166 49.3906 174.001 49.4261 173.813 49.4574C173.629 49.4858 173.448 49.5114 173.272 49.5341C173.099 49.554 172.958 49.571 172.85 49.5852C172.589 49.6193 172.345 49.6747 172.117 49.7514C171.893 49.8253 171.711 49.9375 171.572 50.0881C171.436 50.2358 171.367 50.4375 171.367 50.6932C171.367 51.0426 171.497 51.3068 171.755 51.4858C172.017 51.6619 172.347 51.75 172.748 51.75ZM180.089 52.6364C179.476 52.6364 178.947 52.4915 178.504 52.2017C178.061 51.9119 177.72 51.5128 177.481 51.0043C177.243 50.4957 177.123 49.9148 177.123 49.2614C177.123 48.5966 177.246 48.0099 177.49 47.5014C177.737 46.9901 178.081 46.5909 178.521 46.304C178.964 46.0142 179.481 45.8693 180.072 45.8693C180.532 45.8693 180.947 45.9545 181.317 46.125C181.686 46.2955 181.988 46.5341 182.224 46.8409C182.46 47.1477 182.606 47.5057 182.663 47.9148H181.657C181.581 47.6165 181.41 47.3523 181.146 47.1222C180.885 46.8892 180.532 46.7727 180.089 46.7727C179.697 46.7727 179.354 46.875 179.058 47.0795C178.765 47.2812 178.537 47.5668 178.372 47.9361C178.21 48.3026 178.129 48.733 178.129 49.2273C178.129 49.733 178.209 50.1733 178.368 50.5483C178.53 50.9233 178.757 51.2145 179.05 51.4219C179.345 51.6293 179.692 51.733 180.089 51.733C180.351 51.733 180.588 51.6875 180.801 51.5966C181.014 51.5057 181.194 51.375 181.342 51.2045C181.49 51.0341 181.595 50.8295 181.657 50.5909H182.663C182.606 50.9773 182.466 51.3253 182.241 51.6349C182.02 51.9418 181.726 52.1861 181.359 52.3679C180.996 52.5469 180.572 52.6364 180.089 52.6364ZM185.071 50.1136L185.054 48.8693H185.258L188.122 45.9545H189.366L186.315 49.0398H186.23L185.071 50.1136ZM184.133 52.5V43.7727H185.139V52.5H184.133ZM188.292 52.5L185.736 49.2614L186.452 48.5625L189.571 52.5H188.292Z" fill="#393939"/>
</svg>
