<svg width="320" height="288" viewBox="0 0 320 288" fill="none" xmlns="http://www.w3.org/2000/svg">
<rect x="29" y="29" width="258" height="258" rx="129" stroke="#FEF978" stroke-width="2"/>
<rect width="100" height="100" transform="translate(108 108)" fill="white"/>
<path d="M179.406 114.055C178.117 114.055 176.828 114.172 175.559 114.365C168.82 115.428 162.57 118.885 158.312 123.146C152.687 128.781 148.625 136.984 146.906 144.953C146.594 146.262 146.398 147.609 146.223 148.937L139.68 173.234L142.766 176.32L167.043 169.777C168.371 169.602 169.719 169.387 171.047 169.094C179.016 167.375 187.219 163.312 192.844 157.687C197.121 153.41 200.578 147.16 201.633 140.422C202.648 133.684 201.164 126.301 195.402 120.557C190.754 115.883 185.031 114.025 179.406 114.055ZM179.426 117.822C184.172 117.768 188.781 119.285 192.746 123.234C197.629 128.098 198.801 134.016 197.883 139.836C196.984 145.676 193.84 151.32 190.168 154.992C185.207 159.953 177.531 163.82 170.246 165.383C162.98 166.984 156.34 166.125 153.098 162.863C149.875 159.641 149.016 153.02 150.598 145.734C152.18 138.469 156.027 130.773 161.008 125.824C164.66 122.156 170.324 119.02 176.164 118.1C177.238 117.928 178.352 117.834 179.426 117.822ZM147.004 159.777C147.727 161.984 148.82 163.977 150.422 165.539C152.004 167.141 153.977 168.273 156.184 168.977L143.879 172.102L147.004 159.777ZM137.18 176.105L117.766 195.539L116.74 194.543L114.062 197.219L118.822 201.945L121.498 199.289L120.441 198.234L139.875 178.781L137.18 176.105ZM178.391 184.914C174.582 184.914 171.437 188.039 171.437 191.848C171.437 195.656 174.582 198.781 178.391 198.781C182.18 198.781 185.324 195.656 185.324 191.848C185.324 188.039 182.18 184.914 178.391 184.914Z" fill="#393939"/>
<rect width="56" height="56" transform="translate(0 130)" fill="white"/>
<path d="M22.1515 152.748C21.4937 153.123 18.8965 155.158 18.8965 155.158C18.8965 155.158 22.9022 158.663 23.3095 159.227C23.3095 159.227 22.1515 153.593 22.1515 152.748Z" stroke="#393939" stroke-width="2" stroke-linecap="round" stroke-linejoin="round"/>
<path d="M25.2814 145.487C23.9666 145.487 22.1516 146.947 20.4926 148.595C18.8336 150.244 14.6396 153.874 14.6396 155.47C14.6396 157.066 22.9339 163.108 25.8131 163.108C28.6924 163.108 32.5736 163.389 34.8274 161.699C37.0811 160.009 40.9924 156.097 41.1499 155.408C41.358 154.389 41.4003 153.342 41.2751 152.309C41.1768 152.068 41.0137 151.858 40.8038 151.704C40.5939 151.549 40.3454 151.456 40.0856 151.433C39.4751 151.433 37.8791 152.09 37.8791 153.202C37.9402 153.918 38.0765 154.626 38.2856 155.314C36.9533 156.356 35.5636 157.323 34.1231 158.209C34.1231 158.209 34.2169 152.528 33.9206 151.12C33.6244 149.713 31.0256 147.458 31.0256 147.02C31.0256 146.582 31.9166 143.672 31.9166 143.672C31.9166 143.672 33.7481 144.078 33.9514 142.966C34.1546 141.855 34.0136 141.809 34.0136 141.809C34.1683 141.655 34.2866 141.468 34.3598 141.262C34.433 141.057 34.4592 140.837 34.4366 140.62C34.3114 139.963 33.9356 140.103 33.9514 139.727C33.9671 139.352 34.6549 133.875 29.5219 133.875C24.3889 133.875 24.3581 138.1 24.3581 138.898C24.3581 139.696 26.7206 142.951 26.4859 144.25C26.2511 145.549 26.2826 145.44 26.2826 145.44C26.2826 145.44 25.7636 145.487 25.2814 145.487Z" stroke="#393939" stroke-width="2" stroke-linecap="round" stroke-linejoin="round"/>
<path d="M24.9836 140.823C24.4046 140.996 21.1188 145.769 19.0211 145.769C17.9505 145.655 16.9646 145.134 16.2671 144.314C18.1136 144.423 20.4611 140.84 22.2611 140.573C23.1759 140.523 24.0932 140.607 24.9836 140.823Z" stroke="#393939" stroke-width="2" stroke-linecap="round" stroke-linejoin="round"/>
<path d="M14.0403 173.773V182.5H12.9835V174.71H8.58576V182.5H7.52894V173.773H14.0403ZM15.4561 182.5V181.562H15.6948C15.8908 181.562 16.0542 181.524 16.1848 181.447C16.3155 181.368 16.4206 181.23 16.5002 181.034C16.5826 180.835 16.6451 180.56 16.6877 180.207C16.7331 179.852 16.7658 179.401 16.7857 178.852L16.905 175.955H21.2686V182.5H20.263V176.892H17.8596L17.7573 179.227C17.7346 179.764 17.6863 180.237 17.6124 180.646C17.5414 181.053 17.432 181.393 17.2843 181.669C17.1394 181.945 16.9462 182.152 16.7047 182.291C16.4632 182.43 16.1607 182.5 15.7971 182.5H15.4561ZM25.04 182.653C24.6252 182.653 24.2488 182.575 23.9107 182.419C23.5726 182.26 23.3042 182.031 23.1053 181.733C22.9064 181.432 22.807 181.068 22.807 180.642C22.807 180.267 22.8809 179.963 23.0286 179.73C23.1763 179.494 23.3738 179.31 23.6209 179.176C23.8681 179.043 24.1408 178.943 24.4391 178.878C24.7402 178.81 25.0428 178.756 25.3468 178.716C25.7445 178.665 26.0669 178.626 26.3141 178.601C26.5641 178.572 26.7459 178.526 26.8596 178.46C26.976 178.395 27.0343 178.281 27.0343 178.119V178.085C27.0343 177.665 26.9192 177.338 26.6891 177.105C26.4618 176.872 26.1167 176.756 25.6536 176.756C25.1735 176.756 24.7971 176.861 24.5243 177.071C24.2516 177.281 24.0598 177.506 23.949 177.744L22.9945 177.403C23.165 177.006 23.3922 176.696 23.6763 176.474C23.9632 176.25 24.2757 176.094 24.6138 176.006C24.9547 175.915 25.29 175.869 25.6195 175.869C25.8297 175.869 26.0712 175.895 26.3439 175.946C26.6195 175.994 26.8851 176.095 27.1408 176.249C27.3993 176.402 27.6138 176.634 27.7843 176.943C27.9547 177.253 28.04 177.668 28.04 178.188V182.5H27.0343V181.614H26.9831C26.915 181.756 26.8013 181.908 26.6422 182.07C26.4831 182.232 26.2715 182.369 26.0073 182.483C25.7431 182.597 25.4206 182.653 25.04 182.653ZM25.1934 181.75C25.5911 181.75 25.9263 181.672 26.199 181.516C26.4746 181.359 26.682 181.158 26.8212 180.911C26.9632 180.663 27.0343 180.403 27.0343 180.131V179.21C26.9917 179.261 26.8979 179.308 26.753 179.351C26.611 179.391 26.4462 179.426 26.2587 179.457C26.074 179.486 25.8936 179.511 25.7175 179.534C25.5442 179.554 25.4036 179.571 25.2956 179.585C25.0343 179.619 24.79 179.675 24.5627 179.751C24.3382 179.825 24.1564 179.937 24.0172 180.088C23.8809 180.236 23.8127 180.437 23.8127 180.693C23.8127 181.043 23.9419 181.307 24.2005 181.486C24.4618 181.662 24.7928 181.75 25.1934 181.75ZM34.2562 178.767V179.705H30.6426V178.767H34.2562ZM30.8812 175.955V182.5H29.8755V175.955H30.8812ZM35.0233 175.955V182.5H34.0176V175.955H35.0233ZM37.2733 184.955C37.1028 184.955 36.9508 184.94 36.8173 184.912C36.6838 184.886 36.5914 184.861 36.5403 184.835L36.796 183.949C37.0403 184.011 37.2562 184.034 37.4437 184.017C37.6312 184 37.7974 183.916 37.9423 183.766C38.09 183.618 38.225 183.378 38.3471 183.045L38.5346 182.534L36.1142 175.955H37.2051L39.0119 181.17H39.0801L40.8869 175.955H41.9778L39.1994 183.455C39.0744 183.793 38.9196 184.072 38.7349 184.294C38.5502 184.518 38.3358 184.685 38.0914 184.793C37.85 184.901 37.5772 184.955 37.2733 184.955ZM44.3109 181.017L47.4643 175.955H48.6234V182.5H47.6177V177.438L44.4814 182.5H43.3052V175.955H44.3109V181.017ZM46.7995 173.773H47.737C47.737 174.233 47.5779 174.609 47.2598 174.902C46.9416 175.195 46.5098 175.341 45.9643 175.341C45.4274 175.341 44.9998 175.195 44.6816 174.902C44.3663 174.609 44.2086 174.233 44.2086 173.773H45.1461C45.1461 173.994 45.2072 174.189 45.3294 174.357C45.4544 174.524 45.666 174.608 45.9643 174.608C46.2626 174.608 46.4757 174.524 46.6035 174.357C46.7342 174.189 46.7995 173.994 46.7995 173.773Z" fill="#393939"/>
<rect width="56" height="56" transform="translate(260 130)" fill="white"/>
<path fill-rule="evenodd" clip-rule="evenodd" d="M296.888 142.688C297.445 143.302 297.274 144.245 296.596 144.72L292.942 147.284C292.264 147.759 291.337 147.567 290.667 147.081C289.913 146.532 289.008 146.229 288.076 146.214C287.143 146.199 286.229 146.471 285.457 146.994C284.77 147.458 283.838 147.62 283.177 147.122L279.609 144.438C278.947 143.94 278.808 142.991 279.385 142.397C280.527 141.219 281.898 140.288 283.414 139.661C284.931 139.034 286.559 138.724 288.2 138.752C289.84 138.779 291.457 139.143 292.952 139.82C294.446 140.497 295.786 141.472 296.888 142.688ZM295.647 143.555C294.685 142.533 293.529 141.714 292.245 141.147C290.962 140.58 289.578 140.275 288.175 140.252C286.772 140.229 285.378 140.487 284.077 141.011C282.775 141.536 281.592 142.315 280.597 143.305L284.075 145.921C284.107 145.928 284.14 145.93 284.173 145.925C284.29 145.915 284.455 145.861 284.615 145.753C285.675 145.035 286.936 144.672 288.215 144.718C288.244 144.656 288.282 144.599 288.327 144.548L290.386 142.18C290.517 142.03 290.702 141.937 290.9 141.923C291.099 141.91 291.294 141.975 291.445 142.106C291.595 142.236 291.687 142.421 291.701 142.619C291.715 142.818 291.649 143.014 291.519 143.164L289.903 145.022C290.492 145.218 291.047 145.503 291.549 145.868C291.705 145.981 291.868 146.04 291.985 146.055C292.042 146.063 292.072 146.057 292.083 146.054L295.647 143.555ZM292.09 146.052L292.083 146.054C292.086 146.052 292.089 146.051 292.09 146.052ZM284.069 145.919C284.069 145.919 284.071 145.919 284.075 145.921L284.069 145.919Z" fill="#393939"/>
<path fill-rule="evenodd" clip-rule="evenodd" d="M297.162 162C297.929 162 298.666 161.706 299.223 161.179C299.781 160.652 300.115 159.932 300.157 159.167L301.324 138.167C301.347 137.759 301.286 137.351 301.146 136.968C301.006 136.585 300.789 136.235 300.508 135.938C300.228 135.642 299.89 135.406 299.515 135.245C299.14 135.083 298.737 135 298.329 135H277.671C277.263 135 276.859 135.083 276.485 135.245C276.11 135.406 275.772 135.642 275.492 135.939C275.211 136.235 274.995 136.585 274.854 136.968C274.714 137.352 274.653 137.759 274.676 138.167L275.842 159.167C275.885 159.932 276.219 160.652 276.776 161.179C277.333 161.706 278.071 162 278.838 162H297.162ZM278.838 160.5H297.162C297.545 160.5 297.914 160.353 298.193 160.089C298.471 159.826 298.638 159.465 298.66 159.083L299.827 138.082C299.838 137.879 299.807 137.675 299.737 137.484C299.667 137.292 299.558 137.117 299.418 136.969C299.278 136.821 299.109 136.703 298.922 136.622C298.734 136.542 298.533 136.5 298.329 136.5H277.671C277.467 136.5 277.265 136.542 277.078 136.622C276.89 136.703 276.721 136.821 276.581 136.969C276.441 137.117 276.333 137.292 276.262 137.484C276.192 137.675 276.162 137.879 276.173 138.082L277.34 159.083C277.361 159.465 277.528 159.826 277.807 160.089C278.085 160.353 278.454 160.5 278.838 160.5Z" fill="#393939"/>
<path d="M261.299 182.5L258.299 178.494H257.225V182.5H256.168V173.773H257.225V177.557H257.685L261.18 173.773H262.441L258.912 177.608L262.56 182.5H261.299ZM265.968 182.636C265.377 182.636 264.859 182.496 264.413 182.214C263.97 181.933 263.623 181.54 263.373 181.034C263.126 180.528 263.002 179.937 263.002 179.261C263.002 178.58 263.126 177.984 263.373 177.476C263.623 176.967 263.97 176.572 264.413 176.291C264.859 176.01 265.377 175.869 265.968 175.869C266.559 175.869 267.076 176.01 267.519 176.291C267.965 176.572 268.312 176.967 268.559 177.476C268.809 177.984 268.934 178.58 268.934 179.261C268.934 179.937 268.809 180.528 268.559 181.034C268.312 181.54 267.965 181.933 267.519 182.214C267.076 182.496 266.559 182.636 265.968 182.636ZM265.968 181.733C266.417 181.733 266.786 181.618 267.076 181.388C267.366 181.158 267.58 180.855 267.72 180.48C267.859 180.105 267.928 179.699 267.928 179.261C267.928 178.824 267.859 178.416 267.72 178.038C267.58 177.661 267.366 177.355 267.076 177.122C266.786 176.889 266.417 176.773 265.968 176.773C265.519 176.773 265.15 176.889 264.86 177.122C264.57 177.355 264.356 177.661 264.217 178.038C264.078 178.416 264.008 178.824 264.008 179.261C264.008 179.699 264.078 180.105 264.217 180.48C264.356 180.855 264.57 181.158 264.86 181.388C265.15 181.618 265.519 181.733 265.968 181.733ZM274.85 178.767V179.705H271.236V178.767H274.85ZM271.475 175.955V182.5H270.469V175.955H271.475ZM275.617 175.955V182.5H274.611V175.955H275.617ZM276.563 176.892V175.955H281.881V176.892H279.733V182.5H278.728V176.892H276.563ZM283.348 184.955V175.955H284.32V176.994H284.439C284.513 176.881 284.615 176.736 284.746 176.56C284.879 176.381 285.07 176.222 285.317 176.082C285.567 175.94 285.905 175.869 286.331 175.869C286.882 175.869 287.368 176.007 287.789 176.283C288.209 176.558 288.537 176.949 288.773 177.455C289.009 177.96 289.127 178.557 289.127 179.244C289.127 179.938 289.009 180.538 288.773 181.047C288.537 181.553 288.21 181.945 287.793 182.223C287.375 182.499 286.894 182.636 286.348 182.636C285.928 182.636 285.591 182.567 285.338 182.428C285.085 182.286 284.891 182.125 284.754 181.946C284.618 181.764 284.513 181.614 284.439 181.494H284.354V184.955H283.348ZM284.337 179.227C284.337 179.722 284.409 180.158 284.554 180.536C284.699 180.911 284.911 181.205 285.189 181.418C285.468 181.628 285.808 181.733 286.212 181.733C286.632 181.733 286.983 181.622 287.264 181.401C287.548 181.176 287.762 180.875 287.904 180.497C288.048 180.116 288.121 179.693 288.121 179.227C288.121 178.767 288.05 178.352 287.908 177.983C287.769 177.611 287.557 177.317 287.273 177.101C286.992 176.882 286.638 176.773 286.212 176.773C285.803 176.773 285.459 176.876 285.181 177.084C284.902 177.288 284.692 177.575 284.55 177.945C284.408 178.311 284.337 178.739 284.337 179.227ZM293.32 182.636C292.729 182.636 292.21 182.496 291.764 182.214C291.321 181.933 290.975 181.54 290.725 181.034C290.477 180.528 290.354 179.937 290.354 179.261C290.354 178.58 290.477 177.984 290.725 177.476C290.975 176.967 291.321 176.572 291.764 176.291C292.21 176.01 292.729 175.869 293.32 175.869C293.911 175.869 294.428 176.01 294.871 176.291C295.317 176.572 295.664 176.967 295.911 177.476C296.161 177.984 296.286 178.58 296.286 179.261C296.286 179.937 296.161 180.528 295.911 181.034C295.664 181.54 295.317 181.933 294.871 182.214C294.428 182.496 293.911 182.636 293.32 182.636ZM293.32 181.733C293.769 181.733 294.138 181.618 294.428 181.388C294.718 181.158 294.932 180.855 295.071 180.48C295.21 180.105 295.28 179.699 295.28 179.261C295.28 178.824 295.21 178.416 295.071 178.038C294.932 177.661 294.718 177.355 294.428 177.122C294.138 176.889 293.769 176.773 293.32 176.773C292.871 176.773 292.502 176.889 292.212 177.122C291.922 177.355 291.708 177.661 291.568 178.038C291.429 178.416 291.36 178.824 291.36 179.261C291.36 179.699 291.429 180.105 291.568 180.48C291.708 180.855 291.922 181.158 292.212 181.388C292.502 181.618 292.871 181.733 293.32 181.733ZM297.241 182.5V181.562H297.48C297.676 181.562 297.839 181.524 297.97 181.447C298.101 181.368 298.206 181.23 298.285 181.034C298.368 180.835 298.43 180.56 298.473 180.207C298.518 179.852 298.551 179.401 298.571 178.852L298.69 175.955H303.054V182.5H302.048V176.892H299.645L299.542 179.227C299.52 179.764 299.471 180.237 299.398 180.646C299.327 181.053 299.217 181.393 299.069 181.669C298.925 181.945 298.731 182.152 298.49 182.291C298.248 182.43 297.946 182.5 297.582 182.5H297.241ZM308.035 178.818V179.756H304.575V178.818H308.035ZM305.427 175.955V182.5H304.422V175.955H305.427ZM310.047 182.636C309.456 182.636 308.937 182.496 308.491 182.214C308.048 181.933 307.702 181.54 307.452 181.034C307.204 180.528 307.081 179.937 307.081 179.261C307.081 178.58 307.204 177.984 307.452 177.476C307.702 176.967 308.048 176.572 308.491 176.291C308.937 176.01 309.456 175.869 310.047 175.869C310.638 175.869 311.155 176.01 311.598 176.291C312.044 176.572 312.39 176.967 312.638 177.476C312.888 177.984 313.013 178.58 313.013 179.261C313.013 179.937 312.888 180.528 312.638 181.034C312.39 181.54 312.044 181.933 311.598 182.214C311.155 182.496 310.638 182.636 310.047 182.636ZM310.047 181.733C310.496 181.733 310.865 181.618 311.155 181.388C311.444 181.158 311.659 180.855 311.798 180.48C311.937 180.105 312.007 179.699 312.007 179.261C312.007 178.824 311.937 178.416 311.798 178.038C311.659 177.661 311.444 177.355 311.155 177.122C310.865 176.889 310.496 176.773 310.047 176.773C309.598 176.773 309.229 176.889 308.939 177.122C308.649 177.355 308.434 177.661 308.295 178.038C308.156 178.416 308.086 178.824 308.086 179.261C308.086 179.699 308.156 180.105 308.295 180.48C308.434 180.855 308.649 181.158 308.939 181.388C309.229 181.618 309.598 181.733 310.047 181.733ZM315.655 181.017L318.808 175.955H319.967V182.5H318.961V177.438L315.825 182.5H314.649V175.955H315.655V181.017ZM318.143 173.773H319.081C319.081 174.233 318.922 174.609 318.604 174.902C318.285 175.195 317.854 175.341 317.308 175.341C316.771 175.341 316.344 175.195 316.025 174.902C315.71 174.609 315.552 174.233 315.552 173.773H316.49C316.49 173.994 316.551 174.189 316.673 174.357C316.798 174.524 317.01 174.608 317.308 174.608C317.606 174.608 317.819 174.524 317.947 174.357C318.078 174.189 318.143 173.994 318.143 173.773Z" fill="#393939"/>
<rect width="56" height="56" transform="translate(130)" fill="white"/>
<path d="M165.964 32.5607L158.833 26.0807C154.899 22.1669 160.677 14.7072 165.964 20.8221C171.374 14.8307 177.029 22.2878 173.094 26.0807L165.964 32.5607Z" stroke="#393939" stroke-width="1.5" stroke-linecap="round" stroke-linejoin="round"/>
<path d="M141.597 16.1549H145.112L149.8 24.3577L160.345 4.43689L165.033 13.8123" stroke="#393939" stroke-width="1.5" stroke-linecap="round" stroke-linejoin="round"/>
<path d="M142.865 46.5H141.808C141.745 46.196 141.636 45.929 141.48 45.6989C141.326 45.4688 141.139 45.2756 140.917 45.1193C140.699 44.9602 140.456 44.8409 140.189 44.7614C139.922 44.6818 139.643 44.642 139.353 44.642C138.825 44.642 138.346 44.7756 137.917 45.0426C137.491 45.3097 137.152 45.7031 136.899 46.223C136.649 46.7429 136.524 47.3807 136.524 48.1364C136.524 48.892 136.649 49.5298 136.899 50.0497C137.152 50.5696 137.491 50.9631 137.917 51.2301C138.346 51.4972 138.825 51.6307 139.353 51.6307C139.643 51.6307 139.922 51.5909 140.189 51.5114C140.456 51.4318 140.699 51.3139 140.917 51.1577C141.139 50.9986 141.326 50.804 141.48 50.5739C141.636 50.3409 141.745 50.0739 141.808 49.7727H142.865C142.785 50.2187 142.64 50.6179 142.43 50.9702C142.22 51.3224 141.958 51.6222 141.646 51.8693C141.333 52.1136 140.983 52.2997 140.593 52.4276C140.207 52.5554 139.794 52.6193 139.353 52.6193C138.609 52.6193 137.947 52.4375 137.368 52.0739C136.788 51.7102 136.332 51.1932 136 50.5227C135.667 49.8523 135.501 49.0568 135.501 48.1364C135.501 47.2159 135.667 46.4205 136 45.75C136.332 45.0795 136.788 44.5625 137.368 44.1989C137.947 43.8352 138.609 43.6534 139.353 43.6534C139.794 43.6534 140.207 43.7173 140.593 43.8452C140.983 43.973 141.333 44.1605 141.646 44.4077C141.958 44.652 142.22 44.9503 142.43 45.3026C142.64 45.652 142.785 46.0511 142.865 46.5ZM143.857 52.5V51.5625H144.095C144.291 51.5625 144.455 51.5241 144.585 51.4474C144.716 51.3679 144.821 51.2301 144.901 51.0341C144.983 50.8352 145.045 50.5597 145.088 50.2074C145.134 49.8523 145.166 49.4006 145.186 48.8523L145.305 45.9545H149.669V52.5H148.663V46.892H146.26L146.158 49.2273C146.135 49.7642 146.087 50.2372 146.013 50.6463C145.942 51.0526 145.832 51.3935 145.685 51.669C145.54 51.9446 145.347 52.152 145.105 52.2912C144.864 52.4304 144.561 52.5 144.197 52.5H143.857ZM151.514 52.5V45.9545H152.52V52.5H151.514ZM152.026 44.8636C151.83 44.8636 151.661 44.7969 151.518 44.6634C151.379 44.5298 151.31 44.3693 151.31 44.1818C151.31 43.9943 151.379 43.8338 151.518 43.7003C151.661 43.5668 151.83 43.5 152.026 43.5C152.222 43.5 152.389 43.5668 152.528 43.7003C152.67 43.8338 152.741 43.9943 152.741 44.1818C152.741 44.3693 152.67 44.5298 152.528 44.6634C152.389 44.7969 152.222 44.8636 152.026 44.8636ZM153.663 54.375V51.5625H154.208C154.342 51.4233 154.457 51.2727 154.554 51.1108C154.65 50.9489 154.734 50.7571 154.805 50.5355C154.879 50.3111 154.941 50.0384 154.993 49.7173C155.044 49.3935 155.089 49.0028 155.129 48.5455L155.35 45.9545H159.51V51.5625H160.515V54.375H159.51V52.5H154.669V54.375H153.663ZM155.35 51.5625H158.504V46.892H156.288L156.118 48.5455C156.047 49.2301 155.958 49.8281 155.853 50.3395C155.748 50.8509 155.581 51.2585 155.35 51.5625ZM161.85 52.5V45.9545H162.856V48.8011H163.521L165.873 45.9545H167.168L164.526 49.108L167.202 52.5H165.907L163.759 49.7386H162.856V52.5H161.85ZM168.943 54.9545C168.773 54.9545 168.621 54.9403 168.487 54.9119C168.354 54.8864 168.261 54.8608 168.21 54.8352L168.466 53.9489C168.71 54.0114 168.926 54.0341 169.114 54.017C169.301 54 169.467 53.9162 169.612 53.7656C169.76 53.6179 169.895 53.3778 170.017 53.0455L170.205 52.5341L167.784 45.9545H168.875L170.682 51.1705H170.75L172.557 45.9545H173.648L170.869 53.4545C170.744 53.7926 170.589 54.0724 170.405 54.294C170.22 54.5185 170.006 54.6847 169.761 54.7926C169.52 54.9006 169.247 54.9545 168.943 54.9545ZM175.981 51.017L179.134 45.9545H180.293V52.5H179.288V47.4375L176.151 52.5H174.975V45.9545H175.981V51.017ZM178.469 43.7727H179.407C179.407 44.233 179.248 44.6094 178.93 44.902C178.612 45.1946 178.18 45.3409 177.634 45.3409C177.097 45.3409 176.67 45.1946 176.352 44.902C176.036 44.6094 175.879 44.233 175.879 43.7727H176.816C176.816 43.9943 176.877 44.1889 176.999 44.3565C177.124 44.5241 177.336 44.608 177.634 44.608C177.933 44.608 178.146 44.5241 178.273 44.3565C178.404 44.1889 178.469 43.9943 178.469 43.7727Z" fill="#393939"/>
</svg>
