<svg width="316" height="316" viewBox="0 0 316 316" fill="none" xmlns="http://www.w3.org/2000/svg">
<rect x="29" y="29" width="258" height="258" rx="129" stroke="#F57F44" stroke-width="2"/>
<path d="M116.333 199.667H199.667" stroke="#292D32" stroke-miterlimit="10" stroke-linecap="round" stroke-linejoin="round"/>
<path d="M120.292 199.668L120.5 149.543C120.5 147.001 121.708 144.585 123.708 143.001L152.875 120.293C155.875 117.96 160.083 117.96 163.125 120.293L192.292 142.96C194.333 144.543 195.5 146.959 195.5 149.543V199.668" stroke="#292D32" stroke-miterlimit="10" stroke-linejoin="round"/>
<path d="M162.167 162.167H153.833C150.375 162.167 147.583 164.958 147.583 168.417V199.667H168.417V168.417C168.417 164.958 165.625 162.167 162.167 162.167Z" stroke="#292D32" stroke-miterlimit="10" stroke-linejoin="round"/>
<path d="M187.167 137.167L187.042 124.667H168.709" stroke="#292D32" stroke-miterlimit="10" stroke-linecap="round" stroke-linejoin="round"/>
<rect width="56" height="56" transform="translate(0 130)" fill="white"/>
<g clip-path="url(#clip0_169_5068)">
<rect width="36" height="36" transform="translate(10 130.5)" fill="white"/>
<path d="M38 160.5H16V138.5H29.22L31.22 136.5H16C15.4696 136.5 14.9609 136.711 14.5858 137.086C14.2107 137.461 14 137.97 14 138.5V160.5C14 161.03 14.2107 161.539 14.5858 161.914C14.9609 162.289 15.4696 162.5 16 162.5H38C38.5304 162.5 39.0391 162.289 39.4142 161.914C39.7893 161.539 40 161.03 40 160.5V145.5L38 147.5V160.5Z" fill="#393939"/>
<path d="M43.53 136.34L40.16 132.97C40.0104 132.82 39.8327 132.701 39.6371 132.62C39.4415 132.539 39.2318 132.497 39.02 132.497C38.8082 132.497 38.5984 132.539 38.4028 132.62C38.2072 132.701 38.0295 132.82 37.88 132.97L24.17 146.76L23.06 151.57C23.0127 151.803 23.0176 152.044 23.0745 152.275C23.1314 152.506 23.2388 152.721 23.3889 152.906C23.539 153.091 23.7282 153.239 23.9428 153.342C24.1574 153.445 24.3921 153.499 24.63 153.5C24.7529 153.513 24.877 153.513 25 153.5L29.85 152.43L43.53 138.62C43.6799 138.47 43.7989 138.293 43.8801 138.097C43.9613 137.901 44.0031 137.692 44.0031 137.48C44.0031 137.268 43.9613 137.058 43.8801 136.863C43.7989 136.667 43.6799 136.49 43.53 136.34ZM28.81 150.58L25.15 151.39L26 147.76L36.32 137.37L39.14 140.19L28.81 150.58ZM40.27 139.06L37.45 136.24L39 134.66L41.84 137.5L40.27 139.06Z" fill="#393939"/>
</g>
<path d="M14.0403 173.773V182.5H12.9835V174.71H8.58576V182.5H7.52894V173.773H14.0403ZM15.4561 182.5V181.562H15.6948C15.8908 181.562 16.0542 181.524 16.1848 181.447C16.3155 181.368 16.4206 181.23 16.5002 181.034C16.5826 180.835 16.6451 180.56 16.6877 180.207C16.7331 179.852 16.7658 179.401 16.7857 178.852L16.905 175.955H21.2686V182.5H20.263V176.892H17.8596L17.7573 179.227C17.7346 179.764 17.6863 180.237 17.6124 180.646C17.5414 181.053 17.432 181.393 17.2843 181.669C17.1394 181.945 16.9462 182.152 16.7047 182.291C16.4632 182.43 16.1607 182.5 15.7971 182.5H15.4561ZM25.04 182.653C24.6252 182.653 24.2488 182.575 23.9107 182.419C23.5726 182.26 23.3042 182.031 23.1053 181.733C22.9064 181.432 22.807 181.068 22.807 180.642C22.807 180.267 22.8809 179.963 23.0286 179.73C23.1763 179.494 23.3738 179.31 23.6209 179.176C23.8681 179.043 24.1408 178.943 24.4391 178.878C24.7402 178.81 25.0428 178.756 25.3468 178.716C25.7445 178.665 26.0669 178.626 26.3141 178.601C26.5641 178.572 26.7459 178.526 26.8596 178.46C26.976 178.395 27.0343 178.281 27.0343 178.119V178.085C27.0343 177.665 26.9192 177.338 26.6891 177.105C26.4618 176.872 26.1167 176.756 25.6536 176.756C25.1735 176.756 24.7971 176.861 24.5243 177.071C24.2516 177.281 24.0598 177.506 23.949 177.744L22.9945 177.403C23.165 177.006 23.3922 176.696 23.6763 176.474C23.9632 176.25 24.2757 176.094 24.6138 176.006C24.9547 175.915 25.29 175.869 25.6195 175.869C25.8297 175.869 26.0712 175.895 26.3439 175.946C26.6195 175.994 26.8851 176.095 27.1408 176.249C27.3993 176.402 27.6138 176.634 27.7843 176.943C27.9547 177.253 28.04 177.668 28.04 178.188V182.5H27.0343V181.614H26.9831C26.915 181.756 26.8013 181.908 26.6422 182.07C26.4831 182.232 26.2715 182.369 26.0073 182.483C25.7431 182.597 25.4206 182.653 25.04 182.653ZM25.1934 181.75C25.5911 181.75 25.9263 181.672 26.199 181.516C26.4746 181.359 26.682 181.158 26.8212 180.911C26.9632 180.663 27.0343 180.403 27.0343 180.131V179.21C26.9917 179.261 26.8979 179.308 26.753 179.351C26.611 179.391 26.4462 179.426 26.2587 179.457C26.074 179.486 25.8936 179.511 25.7175 179.534C25.5442 179.554 25.4036 179.571 25.2956 179.585C25.0343 179.619 24.79 179.675 24.5627 179.751C24.3382 179.825 24.1564 179.937 24.0172 180.088C23.8809 180.236 23.8127 180.437 23.8127 180.693C23.8127 181.043 23.9419 181.307 24.2005 181.486C24.4618 181.662 24.7928 181.75 25.1934 181.75ZM34.2562 178.767V179.705H30.6426V178.767H34.2562ZM30.8812 175.955V182.5H29.8755V175.955H30.8812ZM35.0233 175.955V182.5H34.0176V175.955H35.0233ZM37.2733 184.955C37.1028 184.955 36.9508 184.94 36.8173 184.912C36.6838 184.886 36.5914 184.861 36.5403 184.835L36.796 183.949C37.0403 184.011 37.2562 184.034 37.4437 184.017C37.6312 184 37.7974 183.916 37.9423 183.766C38.09 183.618 38.225 183.378 38.3471 183.045L38.5346 182.534L36.1142 175.955H37.2051L39.0119 181.17H39.0801L40.8869 175.955H41.9778L39.1994 183.455C39.0744 183.793 38.9196 184.072 38.7349 184.294C38.5502 184.518 38.3358 184.685 38.0914 184.793C37.85 184.901 37.5772 184.955 37.2733 184.955ZM44.3109 181.017L47.4643 175.955H48.6234V182.5H47.6177V177.438L44.4814 182.5H43.3052V175.955H44.3109V181.017ZM46.7995 173.773H47.737C47.737 174.233 47.5779 174.609 47.2598 174.902C46.9416 175.195 46.5098 175.341 45.9643 175.341C45.4274 175.341 44.9998 175.195 44.6816 174.902C44.3663 174.609 44.2086 174.233 44.2086 173.773H45.1461C45.1461 173.994 45.2072 174.189 45.3294 174.357C45.4544 174.524 45.666 174.608 45.9643 174.608C46.2626 174.608 46.4757 174.524 46.6035 174.357C46.7342 174.189 46.7995 173.994 46.7995 173.773Z" fill="#393939"/>
<rect width="56" height="56" transform="translate(260 130)" fill="white"/>
<path d="M284.672 135.021C284.717 135.577 284.958 136.1 285.351 136.496C285.799 136.945 286.051 137.553 286.051 138.188C286.051 138.822 285.799 139.43 285.351 139.879C284.902 140.327 284.65 140.936 284.65 141.57C284.65 142.205 284.902 142.813 285.351 143.262C285.799 143.711 286.051 144.319 286.051 144.953C286.051 145.588 285.799 146.196 285.351 146.645M287.316 134.634C287.268 135.302 287.488 135.986 288 136.496C288.448 136.945 288.7 137.553 288.7 138.188C288.7 138.822 288.448 139.43 288 139.879C287.551 140.327 287.299 140.936 287.299 141.57C287.299 142.205 287.551 142.813 288 143.262C288.448 143.711 288.7 144.319 288.7 144.953C288.7 145.588 288.448 146.196 288 146.645M289.919 134.753C289.911 135.075 289.968 135.396 290.087 135.696C290.207 135.996 290.386 136.268 290.615 136.496C291.063 136.945 291.315 137.553 291.315 138.188C291.315 138.822 291.063 139.43 290.615 139.879C290.166 140.327 289.914 140.936 289.914 141.57C289.914 142.205 290.166 142.813 290.615 143.262C291.063 143.711 291.315 144.319 291.315 144.953C291.315 145.588 291.063 146.196 290.615 146.645M274.125 143.295L279.015 148.491M274.125 148.492C274.125 156.155 280.337 162.367 288 162.367C295.663 162.367 301.875 156.155 301.875 148.492H274.125Z" stroke="#393939" stroke-width="1.5" stroke-linecap="round" stroke-linejoin="round"/>
<path d="M277.882 173.773V174.71H273.672V182.5H272.615V173.773H277.882ZM281.091 182.636C280.5 182.636 279.982 182.496 279.536 182.214C279.093 181.933 278.746 181.54 278.496 181.034C278.249 180.528 278.125 179.937 278.125 179.261C278.125 178.58 278.249 177.984 278.496 177.476C278.746 176.967 279.093 176.572 279.536 176.291C279.982 176.01 280.5 175.869 281.091 175.869C281.682 175.869 282.199 176.01 282.642 176.291C283.088 176.572 283.435 176.967 283.682 177.476C283.932 177.984 284.057 178.58 284.057 179.261C284.057 179.937 283.932 180.528 283.682 181.034C283.435 181.54 283.088 181.933 282.642 182.214C282.199 182.496 281.682 182.636 281.091 182.636ZM281.091 181.733C281.54 181.733 281.909 181.618 282.199 181.388C282.489 181.158 282.703 180.855 282.843 180.48C282.982 180.105 283.051 179.699 283.051 179.261C283.051 178.824 282.982 178.416 282.843 178.038C282.703 177.661 282.489 177.355 282.199 177.122C281.909 176.889 281.54 176.773 281.091 176.773C280.642 176.773 280.273 176.889 279.983 177.122C279.694 177.355 279.479 177.661 279.34 178.038C279.201 178.416 279.131 178.824 279.131 179.261C279.131 179.699 279.201 180.105 279.34 180.48C279.479 180.855 279.694 181.158 279.983 181.388C280.273 181.618 280.642 181.733 281.091 181.733ZM284.737 176.892V175.955H290.055V176.892H287.907V182.5H286.902V176.892H284.737ZM292.17 184.955C291.999 184.955 291.847 184.94 291.714 184.912C291.58 184.886 291.488 184.861 291.437 184.835L291.692 183.949C291.937 184.011 292.153 184.034 292.34 184.017C292.528 184 292.694 183.916 292.839 183.766C292.987 183.618 293.121 183.378 293.244 183.045L293.431 182.534L291.011 175.955H292.102L293.908 181.17H293.977L295.783 175.955H296.874L294.096 183.455C293.971 183.793 293.816 184.072 293.631 184.294C293.447 184.518 293.232 184.685 292.988 184.793C292.746 184.901 292.474 184.955 292.17 184.955ZM299.207 181.017L302.361 175.955H303.52V182.5H302.514V177.438L299.378 182.5H298.202V175.955H299.207V181.017ZM301.696 173.773H302.634C302.634 174.233 302.474 174.609 302.156 174.902C301.838 175.195 301.406 175.341 300.861 175.341C300.324 175.341 299.896 175.195 299.578 174.902C299.263 174.609 299.105 174.233 299.105 173.773H300.043C300.043 173.994 300.104 174.189 300.226 174.357C300.351 174.524 300.563 174.608 300.861 174.608C301.159 174.608 301.372 174.524 301.5 174.357C301.631 174.189 301.696 173.994 301.696 173.773Z" fill="#393939"/>
<rect width="56" height="56" transform="translate(130 260)" fill="#FAFAFD"/>
<path d="M157.993 264.086C156.607 264.086 155.691 265.059 155.17 265.934C154.641 266.822 154.36 267.86 154.323 268.53C154.249 269.862 154.449 271.028 155.113 271.871C155.804 272.749 156.841 273.086 157.993 273.086C159.161 273.086 160.194 272.709 160.882 271.831C161.546 270.981 161.76 269.824 161.674 268.521C161.632 267.887 161.348 266.854 160.821 265.963C160.304 265.09 159.386 264.086 157.993 264.086ZM156.123 268.629C156.141 268.263 156.331 267.506 156.718 266.854C157.114 266.192 157.555 265.886 157.996 265.886C158.427 265.886 158.869 266.195 159.274 266.877C159.665 267.543 159.859 268.305 159.881 268.638C159.951 269.718 159.748 270.362 159.467 270.722C159.21 271.05 158.774 271.286 157.995 271.286C157.185 271.286 156.767 271.061 156.529 270.756C156.259 270.414 156.06 269.777 156.123 268.629ZM149 274.9C148.045 274.9 147.13 275.279 146.455 275.954C145.779 276.63 145.4 277.545 145.4 278.5V289.3H144.5C144.261 289.3 144.032 289.395 143.864 289.564C143.695 289.732 143.6 289.961 143.6 290.2C143.6 290.439 143.695 290.668 143.864 290.836C144.032 291.005 144.261 291.1 144.5 291.1H171.5C171.739 291.1 171.968 291.005 172.136 290.836C172.305 290.668 172.4 290.439 172.4 290.2C172.4 289.961 172.305 289.732 172.136 289.564C171.968 289.395 171.739 289.3 171.5 289.3H170.6V278.5C170.6 277.545 170.221 276.63 169.546 275.954C168.871 275.279 167.955 274.9 167 274.9H149ZM168.8 289.3H147.2V282.312L149.981 284.796C150.334 285.112 150.746 285.355 151.193 285.511C151.64 285.668 152.114 285.734 152.587 285.707C153.06 285.68 153.523 285.56 153.949 285.354C154.375 285.147 154.757 284.859 155.071 284.505L156.655 282.723C156.824 282.533 157.032 282.381 157.264 282.276C157.495 282.172 157.747 282.118 158.001 282.118C158.255 282.118 158.507 282.172 158.738 282.276C158.97 282.381 159.178 282.533 159.346 282.723L160.929 284.505C161.243 284.859 161.625 285.148 162.051 285.355C162.478 285.561 162.941 285.682 163.414 285.709C163.887 285.736 164.361 285.67 164.808 285.513C165.256 285.357 165.668 285.114 166.021 284.798L168.8 282.312V289.3ZM168.8 279.897L164.82 283.455C164.644 283.613 164.438 283.735 164.214 283.813C163.991 283.891 163.754 283.924 163.517 283.911C163.281 283.897 163.05 283.837 162.836 283.734C162.623 283.631 162.432 283.487 162.275 283.31L160.691 281.528C160.353 281.147 159.939 280.843 159.475 280.635C159.011 280.427 158.509 280.319 158 280.319C157.492 280.319 156.989 280.427 156.525 280.635C156.061 280.843 155.647 281.147 155.309 281.528L153.725 283.31C153.568 283.487 153.377 283.631 153.164 283.734C152.951 283.837 152.719 283.897 152.483 283.911C152.246 283.924 152.01 283.891 151.786 283.813C151.562 283.735 151.356 283.613 151.18 283.455L147.2 279.897V278.5C147.2 278.023 147.39 277.565 147.727 277.227C148.065 276.89 148.523 276.7 149 276.7H167C167.477 276.7 167.935 276.89 168.273 277.227C168.61 277.565 168.8 278.023 168.8 278.5V279.897Z" fill="#393939"/>
<path d="M141.886 306.5H140.829C140.767 306.196 140.657 305.929 140.501 305.699C140.348 305.469 140.16 305.276 139.939 305.119C139.72 304.96 139.477 304.841 139.21 304.761C138.943 304.682 138.665 304.642 138.375 304.642C137.846 304.642 137.368 304.776 136.939 305.043C136.513 305.31 136.173 305.703 135.92 306.223C135.67 306.743 135.545 307.381 135.545 308.136C135.545 308.892 135.67 309.53 135.92 310.05C136.173 310.57 136.513 310.963 136.939 311.23C137.368 311.497 137.846 311.631 138.375 311.631C138.665 311.631 138.943 311.591 139.21 311.511C139.477 311.432 139.72 311.314 139.939 311.158C140.16 310.999 140.348 310.804 140.501 310.574C140.657 310.341 140.767 310.074 140.829 309.773H141.886C141.807 310.219 141.662 310.618 141.452 310.97C141.241 311.322 140.98 311.622 140.667 311.869C140.355 312.114 140.004 312.3 139.615 312.428C139.229 312.555 138.815 312.619 138.375 312.619C137.631 312.619 136.969 312.438 136.389 312.074C135.809 311.71 135.354 311.193 135.021 310.523C134.689 309.852 134.523 309.057 134.523 308.136C134.523 307.216 134.689 306.42 135.021 305.75C135.354 305.08 135.809 304.562 136.389 304.199C136.969 303.835 137.631 303.653 138.375 303.653C138.815 303.653 139.229 303.717 139.615 303.845C140.004 303.973 140.355 304.161 140.667 304.408C140.98 304.652 141.241 304.95 141.452 305.303C141.662 305.652 141.807 306.051 141.886 306.5ZM143.458 312.5V305.955H146.134C146.838 305.955 147.398 306.114 147.813 306.432C148.227 306.75 148.435 307.17 148.435 307.693C148.435 308.091 148.317 308.399 148.081 308.618C147.845 308.834 147.543 308.98 147.173 309.057C147.415 309.091 147.649 309.176 147.877 309.312C148.107 309.449 148.297 309.636 148.448 309.875C148.598 310.111 148.673 310.401 148.673 310.744C148.673 311.08 148.588 311.379 148.418 311.643C148.247 311.908 148.003 312.116 147.685 312.27C147.367 312.423 146.986 312.5 146.543 312.5H143.458ZM144.412 311.58H146.543C146.889 311.58 147.161 311.497 147.357 311.332C147.553 311.168 147.651 310.943 147.651 310.659C147.651 310.321 147.553 310.055 147.357 309.862C147.161 309.666 146.889 309.568 146.543 309.568H144.412V311.58ZM144.412 308.699H146.134C146.404 308.699 146.635 308.662 146.828 308.588C147.021 308.511 147.169 308.403 147.271 308.264C147.377 308.122 147.429 307.955 147.429 307.761C147.429 307.486 147.314 307.27 147.084 307.114C146.854 306.955 146.537 306.875 146.134 306.875H144.412V308.699ZM154.133 312.5V306.875H152.395C152.003 306.875 151.694 306.966 151.47 307.148C151.246 307.33 151.133 307.58 151.133 307.898C151.133 308.21 151.234 308.456 151.436 308.635C151.64 308.814 151.92 308.903 152.275 308.903H154.389V309.841H152.275C151.832 309.841 151.45 309.763 151.129 309.607C150.808 309.45 150.561 309.227 150.388 308.938C150.214 308.645 150.128 308.298 150.128 307.898C150.128 307.494 150.219 307.148 150.4 306.858C150.582 306.568 150.842 306.345 151.18 306.189C151.521 306.033 151.926 305.955 152.395 305.955H155.088V312.5H154.133ZM149.77 312.5L151.628 309.244H152.719L150.861 312.5H149.77ZM156.044 306.892V305.955H161.362V306.892H159.214V312.5H158.208V306.892H156.044ZM162.829 312.5V305.955H163.834V308.801H164.499L166.851 305.955H168.147L165.505 309.108L168.181 312.5H166.885L164.738 309.739H163.834V312.5H162.829ZM169.922 314.955C169.751 314.955 169.599 314.94 169.466 314.912C169.332 314.886 169.24 314.861 169.189 314.835L169.444 313.949C169.689 314.011 169.905 314.034 170.092 314.017C170.28 314 170.446 313.916 170.591 313.766C170.738 313.618 170.873 313.378 170.996 313.045L171.183 312.534L168.763 305.955H169.854L171.66 311.17H171.729L173.535 305.955H174.626L171.848 313.455C171.723 313.793 171.568 314.072 171.383 314.294C171.199 314.518 170.984 314.685 170.74 314.793C170.498 314.901 170.226 314.955 169.922 314.955ZM176.959 311.017L180.113 305.955H181.272V312.5H180.266V307.438L177.13 312.5H175.954V305.955H176.959V311.017ZM179.448 303.773H180.385C180.385 304.233 180.226 304.609 179.908 304.902C179.59 305.195 179.158 305.341 178.613 305.341C178.076 305.341 177.648 305.195 177.33 304.902C177.015 304.609 176.857 304.233 176.857 303.773H177.795C177.795 303.994 177.856 304.189 177.978 304.357C178.103 304.524 178.314 304.608 178.613 304.608C178.911 304.608 179.124 304.524 179.252 304.357C179.383 304.189 179.448 303.994 179.448 303.773Z" fill="#393939"/>
<rect width="56" height="56" transform="translate(130)" fill="white"/>
<path d="M155 31.25C156.243 31.25 157.25 30.2426 157.25 29C157.25 27.7574 156.243 26.75 155 26.75C153.757 26.75 152.75 27.7574 152.75 29C152.75 30.2426 153.757 31.25 155 31.25Z" stroke="#393939" stroke-width="2"/>
<path d="M165.5 31.25C166.743 31.25 167.75 30.2426 167.75 29C167.75 27.7574 166.743 26.75 165.5 26.75C164.257 26.75 163.25 27.7574 163.25 29C163.25 30.2426 164.257 31.25 165.5 31.25Z" stroke="#393939" stroke-width="2"/>
<path d="M145.25 6.5H148.25L153.506 23H165.5" stroke="#393939" stroke-width="2" stroke-linecap="round" stroke-linejoin="round"/>
<path d="M152.336 19.25L149.45 10.25H168.21C168.329 10.2499 168.447 10.278 168.552 10.3321C168.658 10.3861 168.75 10.4646 168.819 10.561C168.889 10.6574 168.935 10.769 168.953 10.8865C168.971 11.0041 168.961 11.1242 168.923 11.237L166.422 18.737C166.373 18.8863 166.277 19.0161 166.15 19.1082C166.022 19.2003 165.869 19.2499 165.711 19.25H152.336Z" stroke="#393939" stroke-width="2" stroke-linecap="round" stroke-linejoin="round"/>
<path d="M146.914 52.5L143.914 48.4943H142.84V52.5H141.783V43.7727H142.84V47.5568H143.3L146.795 43.7727H148.056L144.528 47.608L148.175 52.5H146.914ZM149.572 54.9545C149.402 54.9545 149.25 54.9403 149.116 54.9119C148.983 54.8864 148.89 54.8608 148.839 54.8352L149.095 53.9489C149.339 54.0114 149.555 54.0341 149.743 54.017C149.93 54 150.096 53.9162 150.241 53.7656C150.389 53.6179 150.524 53.3778 150.646 53.0455L150.833 52.5341L148.413 45.9545H149.504L151.311 51.1705H151.379L153.186 45.9545H154.277L151.498 53.4545C151.373 53.7926 151.218 54.0724 151.034 54.294C150.849 54.5185 150.635 54.6847 150.39 54.7926C150.149 54.9006 149.876 54.9545 149.572 54.9545ZM155.604 52.5V45.9545H160.752V52.5H159.746V46.892H156.61V52.5H155.604ZM163.002 54.9545C162.831 54.9545 162.679 54.9403 162.546 54.9119C162.412 54.8864 162.32 54.8608 162.269 54.8352L162.525 53.9489C162.769 54.0114 162.985 54.0341 163.172 54.017C163.36 54 163.526 53.9162 163.671 53.7656C163.819 53.6179 163.953 53.3778 164.076 53.0455L164.263 52.5341L161.843 45.9545H162.934L164.74 51.1705H164.809L166.615 45.9545H167.706L164.928 53.4545C164.803 53.7926 164.648 54.0724 164.463 54.294C164.279 54.5185 164.064 54.6847 163.82 54.7926C163.578 54.9006 163.306 54.9545 163.002 54.9545ZM170.039 51.017L173.193 45.9545H174.352V52.5H173.346V47.4375L170.21 52.5H169.034V45.9545H170.039V51.017ZM172.528 43.7727H173.466C173.466 44.233 173.306 44.6094 172.988 44.902C172.67 45.1946 172.238 45.3409 171.693 45.3409C171.156 45.3409 170.728 45.1946 170.41 44.902C170.095 44.6094 169.937 44.233 169.937 43.7727H170.875C170.875 43.9943 170.936 44.1889 171.058 44.3565C171.183 44.5241 171.395 44.608 171.693 44.608C171.991 44.608 172.204 44.5241 172.332 44.3565C172.463 44.1889 172.528 43.9943 172.528 43.7727Z" fill="#393939"/>
<defs>
<clipPath id="clip0_169_5068">
<rect width="36" height="36" fill="white" transform="translate(10 130.5)"/>
</clipPath>
</defs>
</svg>
